<svg width="438" height="416" viewBox="0 0 438 416" fill="none" xmlns="http://www.w3.org/2000/svg">
<path stroke="#000" stroke-width="1 fill="none" d="M109.752 391.347C107.454 391.135 98.134 390.094 94.1248 389.645C98.7033 389.986 118.124 392.142 109.752 391.347ZM405.628 344.843C403.519 345.259 401.4 345.641 399.254 346.003C398.15 346.19 397.018 346.378 395.886 346.564C396.981 346.404 398.121 346.235 399.263 346.062C407.146 344.826 417.526 343.084 421.637 340.32C421.761 340.251 421.909 340.124 421.842 340.189C421.659 340.39 421.888 340.197 421.912 340.232C421.93 340.241 421.935 340.262 421.949 340.269C421.953 340.275 421.964 340.271 421.925 340.318C421.903 340.345 421.87 340.381 421.775 340.502C421.726 340.566 421.661 340.65 421.556 340.813C421.449 340.988 421.304 341.187 421.058 341.8C421.042 341.842 421.025 341.886 421.009 341.931C420.944 342.147 420.7 342.679 420.627 343.86C420.516 344.966 421.003 346.802 421.582 347.656C421.871 348.138 422.192 348.535 422.495 348.85C422.727 349.091 422.937 349.276 423.135 349.435C423.332 349.592 423.514 349.719 423.672 349.821C423.789 349.896 423.897 349.96 423.995 350.016C424.188 350.124 424.365 350.209 424.472 350.257C424.571 350.302 424.655 350.337 424.727 350.365C424.878 350.424 424.94 350.443 424.997 350.462C425.199 350.526 425.127 350.502 425.077 350.495C424.946 350.47 424.738 350.436 424.531 350.408C424.15 350.356 423.757 350.316 423.371 350.281C422.557 350.204 421.486 350.095 419.074 349.772C415.692 349.309 404.643 347.835 394.584 346.524C388.453 345.724 382.615 344.969 379.267 344.549C346.217 340.413 312.872 336.399 279.761 332.465C313.983 336.34 279.517 332.111 269.962 331.109C268.767 330.983 268.356 331.049 262.287 330.461C257.43 330.002 249.062 329.093 233.895 327.603C212.885 325.601 231.05 326.904 199.587 324.169C198.327 324.038 196.988 323.891 195.565 323.726C197.052 323.929 198.389 324.101 199.579 324.25C211.934 325.664 208.636 325.425 199.549 324.522C192.715 323.81 182.708 322.354 173.752 320.716C171.775 320.366 162.566 318.644 152.382 316.379C142.94 314.298 132.671 311.811 126.288 310.242C121.747 309.129 114.799 307.577 108.8 306.025C106.649 305.469 104.743 304.942 102.578 304.344C100.541 303.778 98.269 303.147 95.2305 302.214C90.8539 300.687 85.9999 299.736 80.6633 294.897C80.2139 294.447 79.5911 293.828 78.9827 292.517C78.3145 291.204 78.0947 288.767 78.6912 287.167C79.9656 283.949 81.2112 283.661 81.7507 283.158C82.9776 282.367 83.4815 282.247 83.979 282.045C84.9383 281.701 85.5554 281.552 86.1857 281.395C87.43 281.097 88.4889 280.9 89.5594 280.711C91.6716 280.343 93.6882 280.055 95.7162 279.781C99.7681 279.239 103.693 278.792 107.701 278.358C124.586 276.539 141.547 275.109 158.675 274.073C141.441 275.656 172.258 273.435 173.647 273.49C180.703 273.223 148.825 275.031 161.439 274.396C179.045 273.344 196.691 272.711 214.363 272.632C207.969 272.644 210.944 272.527 216.806 272.446C224.24 272.33 236.299 272.475 239.756 272.664C237.124 271.621 319.891 276.788 332.307 277.511C334.509 277.595 322.721 276.836 342.731 277.88C346.421 278.057 351.23 278.28 357.359 278.485C361.609 278.62 360.027 278.704 362.239 278.748C363.586 278.771 371.688 278.559 380.279 278.705C383.344 278.505 363.959 280.06 405.647 277.906C406.212 277.863 406.762 277.82 407.343 277.773C406.608 277.813 406.062 277.837 405.643 277.853C404.486 277.893 404.571 277.851 405.635 277.744C406.969 277.598 409.975 277.398 413.552 276.918C414.43 276.794 415.338 276.644 416.108 276.466C416.484 276.38 416.838 276.28 417.036 276.208C417.225 276.157 417.313 276.033 416.776 276.405C416.518 276.604 416.012 276.999 415.5 277.889C414.965 278.775 414.694 280.203 414.828 281.147C415.142 283.045 415.572 283.09 415.507 283.109C415.441 283.001 414.614 282.249 413.726 281.622C398.52 271.615 372.411 261.547 365.379 258.59C368.054 259.713 370.735 260.856 373.397 262.014C360.144 256.446 357.612 255.756 354.59 254.574C351.865 253.534 348.921 252.423 345.833 251.276C335.112 247.289 322.814 242.996 313.788 240.002C300.186 235.514 300.057 235.753 284.158 230.551C287.923 231.813 291.689 233.082 295.442 234.356C284.454 230.789 273.451 227.301 262.404 223.796C288.063 231.539 256.901 222.043 254.836 221.39C251.579 220.369 256.307 221.723 250.836 219.999C250.356 219.848 250.819 220.099 246.13 218.634C245.151 218.327 244.032 217.972 242.592 217.506C224.991 211.77 227.867 212.478 220.579 210.146C219.916 209.986 222.2 210.615 209.692 207.065C200.599 204.622 195.486 203.576 193.245 203.051C191.135 202.579 191.547 202.66 193.251 203.024C197.753 203.918 210.614 207.136 211.447 207.44C213.498 208.21 199.822 202.884 233.817 214.157C222.321 210.281 221.308 209.763 220.018 209.343C218.912 208.787 199.149 203.468 197.947 203.368C195.28 202.768 193.956 202.503 193.39 202.404C192.911 202.323 193.037 202.377 193.373 202.477C194.107 202.692 195.711 203.102 194.765 202.901C194.582 202.862 194.097 202.752 193.35 202.583C187.806 201.265 167.928 197.153 162.717 196.611C150.934 193.986 169.678 197.369 189.378 201.537C192.302 202.027 170.612 197.45 169.448 197.277C141.312 191.901 156.82 195.24 150.626 194.3C147.371 193.815 135.923 191.532 146.474 193.74C120.872 189.247 136.427 191.82 134.777 191.492C132.289 191.013 123.303 189.594 122.189 189.406C120.543 189.119 126.288 189.948 119.799 188.85C118.714 188.666 108.22 187.173 121.703 189.434C113.036 188.006 108.879 187.425 106.226 187.027C103.342 186.601 102.236 186.403 99.0872 185.796C86.6015 184.733 90.1161 184.261 85.231 183.631C72.2297 182.098 75.9562 183.047 75.2676 182.979C73.3003 182.837 66.2615 182.221 57.6069 181.598C56.1981 181.48 54.8513 181.377 53.1173 181.139C52.6535 181.068 52.237 181.02 51.3605 180.806C51.2395 180.775 51.1123 180.741 50.9747 180.7C50.8167 180.653 50.6254 180.592 50.4153 180.515C50.2025 180.436 49.8553 180.299 49.4638 180.093C48.9047 179.721 48.3716 179.728 46.8862 177.846C46.3192 177.19 45.2903 174.768 45.6427 172.835C45.863 170.972 46.909 169.552 47.2987 169.119C48.4114 167.902 48.8352 167.783 49.2759 167.497C49.9755 167.111 50.2941 167.011 50.5879 166.899C51.5894 166.554 51.963 166.497 52.4294 166.384C52.8669 166.286 53.2494 166.208 53.6209 166.133C65.6103 164.402 74.9066 164.99 79.3316 164.748C76.6677 165.162 65.0431 164.55 53.6399 166.228C53.2076 166.313 52.7668 166.4 52.2449 166.519C51.9895 166.578 51.6968 166.648 51.332 166.752C51.1377 166.808 50.9256 166.872 50.638 166.974C50.3121 167.102 50.0133 167.169 49.1173 167.689C48.6522 168.079 47.9254 168.087 46.4686 170.496C45.7039 171.788 45.3286 174.404 46.1455 176.289C46.9086 178.084 47.6035 178.601 48.2151 179.16C49.1 179.878 49.6523 180.092 49.9681 180.243C50.3457 180.408 50.543 180.473 50.7468 180.542C51.4841 180.776 51.8157 180.827 52.135 180.894C52.7598 181.014 53.1952 181.072 53.629 181.13C55.2701 181.339 56.5231 181.438 57.6126 181.527C58.4592 181.594 59.1593 181.643 59.6855 181.676C68.0291 182.192 63.8815 181.845 57.6292 181.319C56.2125 181.188 54.8191 181.074 53.0224 180.807C52.5275 180.721 52.1325 180.686 51.0974 180.398C50.7848 180.297 50.4681 180.225 49.6968 179.845C49.5153 179.753 49.1913 179.576 48.8669 179.35C48.6926 179.228 48.5437 179.12 48.3035 178.916C48.0338 178.685 47.7359 178.397 47.427 178.016C47.2729 177.826 47.1166 177.612 46.9643 177.372C46.8881 177.251 46.813 177.124 46.74 176.99C46.6557 176.836 46.5585 176.641 46.4755 176.449C46.1348 175.677 45.906 174.702 45.913 173.729C45.9054 171.798 46.7979 170.273 47.3184 169.618C47.812 168.977 48.2979 168.571 48.6065 168.334C48.8864 168.121 49.1247 167.969 49.3337 167.846C49.7272 167.618 49.9415 167.524 50.1689 167.423C50.3531 167.343 50.5129 167.281 50.6591 167.228C50.7851 167.183 50.8992 167.144 51.0078 167.109C52.4531 166.679 52.9681 166.632 53.6912 166.483C59.5347 165.541 62.3996 165.701 56.9286 166.293C63.3585 165.525 68.9791 165.381 74.8816 165.131C85.5285 165.294 70.439 165.455 99.0899 165.268C103.74 165.006 78.8473 165.367 83.8295 165.169C86.8168 165.013 103.353 164.976 103.734 164.93C103.984 164.85 89.0963 164.946 91.4061 164.839C93.9936 164.706 108.527 164.708 117.741 164.812C125.653 164.898 129.409 164.993 117.74 164.976C115.513 164.974 112.923 164.971 109.62 164.968C112.672 164.979 115.233 165.023 117.739 165.081C124.639 165.245 129.808 165.513 137.254 165.471C143.759 165.444 107.19 164.44 162.06 165.099C163.283 165.328 140.084 164.938 139.54 164.955C138.713 164.972 142.842 165.505 143.578 165.537C146.156 165.622 202.159 165.986 213.993 166.376C209.313 166.039 256.306 166.803 261.426 166.758C262.791 166.748 257.693 166.52 259.151 166.517C268.248 166.504 292.801 167.044 304.215 167.121C316.975 167.21 315.34 167.041 316.063 167.047C321.669 167.081 317.191 167.164 320.602 167.178C322.185 167.184 326.479 167.203 331.708 167.212C344.081 167.255 361.863 167.111 363.117 167.064C363.651 167.05 357.857 166.951 365.589 166.819C366.889 166.741 366.158 167.201 388.882 166.33C416.003 164.81 369.956 166.903 381.239 166.133C398.801 165.838 398.135 165.322 402.726 164.972C403.354 164.908 405.391 164.756 408.487 164.326C413.324 163.66 420.218 162.293 426.761 158.725C421.095 161.811 415.122 163.529 408.525 164.575C406.127 164.958 403.795 165.248 401.375 165.48C403.419 165.304 405.846 165.04 408.532 164.625C415.766 163.58 422.605 161.321 428.849 157.837C428.792 157.864 428.709 157.903 428.588 157.966C428.459 158.036 428.345 158.092 428.037 158.293C427.749 158.489 427.361 158.755 426.831 159.329C426.144 160.038 424.947 161.908 425.127 164.221C425.266 166.348 426.402 167.831 427.079 168.481C427.491 168.884 427.834 169.127 428.112 169.308C428.382 169.483 428.637 169.614 428.759 169.673C428.869 169.727 428.964 169.769 429.047 169.804C429.213 169.874 429.334 169.917 429.426 169.948C429.488 169.969 429.537 169.984 429.576 169.996C429.654 170.019 429.691 170.028 429.701 170.03C429.742 170.039 429.593 170.006 429.455 169.98C429.151 169.923 428.77 169.861 428.428 169.808C427.699 169.695 426.989 169.595 426.343 169.505C422.628 169.011 425.765 169.163 417.56 168.215C415.542 168.05 409.637 167.632 429.697 170.07C431.884 170.523 421.904 169.008 417.11 168.569C416.368 168.494 413.501 168.474 407.448 167.623C405.944 167.433 422.007 168.187 380.826 164.503C379.509 164.386 384.073 164.976 382.781 164.864C382.327 164.824 380.09 164.585 377.408 164.299C374.37 163.975 370.833 163.599 370.238 163.546C369.058 163.441 374.084 164.085 372.675 163.964C365.392 163.333 355.978 161.869 370.907 163.453C365.86 162.869 360.944 162.3 355.913 161.72C361.25 162.64 348.059 161.012 341.134 160.311C296.781 155.825 326.454 159.114 318.818 158.454C306.531 157.394 315.946 157.727 297.735 156.053C296.034 155.899 318.039 158.409 275.069 153.875C281.41 154.511 287.764 155.148 294.098 155.785C290.486 155.059 271.194 153.473 269.712 153.328C252.834 151.662 264.25 152.69 239.177 150.334C236.928 150.123 232.07 149.544 227.279 149.105C207.416 147.281 253.451 151.857 254.69 152.132C255.287 152.258 205.778 147.24 204.107 147.047C196.903 146.174 226.54 149.235 220.902 148.485C219.485 148.297 185.073 144.876 159.492 142.382C148.081 141.268 138.516 140.35 134.17 139.917C117.877 138.288 110.609 137.187 110.423 137.709C105.919 136.781 101.775 136.801 99.7199 136.635C93.4458 136.119 88.8702 135.831 84.9639 135.628C83.4487 135.538 82.147 135.495 80.3401 135.27C79.8441 135.188 79.4375 135.185 78.1978 134.805C78.0014 134.74 77.7828 134.66 77.526 134.549C77.2375 134.415 77.0894 134.376 76.4228 133.958C75.8466 133.568 75.0444 132.999 74.2476 131.713C72.9879 130.038 73.1121 126.345 74.0252 125.03C75.2194 122.88 76.4166 122.429 76.6369 122.232C77.0488 121.978 77.398 121.813 77.6526 121.699C79.2718 121.036 79.6912 121.015 80.4825 120.801C83.1323 120.183 85.1956 119.849 87.5188 119.452C92.1637 118.682 97.1433 117.933 105.342 116.784C110.16 116.111 114.121 115.751 115.843 115.496C116.517 115.396 115.875 115.398 116.886 115.196C117.35 115.102 118.177 114.963 119.767 114.738C126.466 113.754 166.674 108.917 169.657 108.658C172.667 108.38 152.688 110.8 156.291 110.512C170.771 108.729 184.574 106.995 199.123 105.229C205.162 104.497 202.069 104.986 204.679 104.669C205.798 104.533 226.627 101.888 225.739 101.956C223.671 102.108 159.275 110.072 176.211 107.801C179.513 107.357 191.06 106.193 189.191 106.114C233.304 100.747 277.472 95.4882 321.456 89.9201C334.82 88.1963 348.3 86.5401 361.3 84.3348C348.809 86.5679 335.191 88.2981 321.476 90.0769C300.072 92.8171 278 95.4691 256.913 98.0756C252.178 98.6611 236.138 100.596 238.106 100.511C263.883 97.388 295.227 93.4882 321.489 90.1714C325.257 89.6949 328.855 89.2383 332.293 88.798C333.208 88.6808 329.874 89.2608 333.3 88.8314C339.626 88.0844 360.059 84.9306 363.258 84.2601C363.896 84.2122 352.463 86.2678 355.961 85.8155C360.475 85.2531 363.259 84.6597 365.762 84.0254C367.036 83.7013 368.255 83.361 369.474 82.9922C370.148 82.7897 370.707 82.6107 371.336 82.3882C371.479 82.3369 371.611 82.2876 371.727 82.242C371.869 82.1872 371.996 82.1349 372.086 82.0946C372.247 82.0345 372.406 81.8984 371.983 82.1899C371.86 82.2825 371.677 82.4219 371.409 82.7053C371.151 83.0158 370.773 83.3106 370.274 84.5717C369.795 85.7349 369.837 87.6555 370.39 88.8157C370.648 89.4198 370.968 89.8813 371.248 90.2115C371.473 90.4734 371.631 90.6191 371.787 90.7539C372.086 91.0088 372.295 91.121 372.328 91.1396C372.389 91.1726 372.391 91.1686 372.334 91.1427C372.213 91.088 371.997 91.0018 371.614 90.8792C370.211 90.4286 367.878 89.9244 365.208 89.4562C359.746 88.5003 352.895 87.6302 346.032 86.8477C335.364 85.6393 324.691 84.6481 320.242 84.3209C310.948 83.6403 339.379 86.2331 346.003 87.1193C347.238 87.2716 347.76 87.3514 347.303 87.3268C346.872 87.2815 346.436 87.236 345.995 87.1901C318.825 84.4586 291.023 82.0325 265.129 79.706C264.666 79.665 268.681 80.164 262.805 79.6566C252.582 78.7703 249.912 78.3241 244.939 77.8323C239.561 77.3142 220.615 75.502 218.046 75.1501C217.717 75.1078 221.6 75.3053 222.192 75.3581C230.45 76.1003 233.368 76.6239 234.124 76.7017C236.972 76.984 239.722 77.1464 242.319 77.395C246.553 77.7998 248.898 78.107 254.492 78.6248C258.359 78.9819 254.644 78.4721 258.368 78.8174C259.735 78.9479 274.445 80.6561 275.859 80.3768C276.068 79.8734 192.378 74.3271 156.609 66.0317C154.532 65.3841 153.06 65.0424 150.531 63.4835C149.827 62.8417 146.324 61.2511 146.835 55.8007C147.149 53.7778 148.439 52.2527 148.921 51.7752C149.535 51.1378 150.21 50.6474 150.659 50.3526C154.148 48.2871 155.611 48.1446 156.845 47.6817C155.52 48.0859 154.334 48.4749 152.894 49.1078C152.283 49.3763 151.292 49.8667 150.492 50.4121C149.947 50.781 149.362 51.2337 148.775 51.8576C148.258 52.3875 147.174 53.7804 146.834 55.5138C146.354 57.3353 147.079 59.8385 147.789 60.8227C148.43 61.8614 149.25 62.6072 149.813 63.0472C150.746 63.7881 151.873 64.3569 152.475 64.6333C154.062 65.3496 155.164 65.6962 156.583 66.1211C162.73 67.8523 168.653 68.7829 174.501 69.7231C168.787 68.8005 162.67 67.8649 156.567 66.1767C155.968 66.0044 155.401 65.8288 154.86 65.6471C154.59 65.5562 154.326 65.4637 154.068 65.3691C153.757 65.2551 153.421 65.1247 153.109 64.9953C152.437 64.7088 152.025 64.5384 151.109 64.0221C150.299 63.513 149.569 63.1815 148.267 61.66C147.977 61.2993 147.692 60.8841 147.438 60.4035C147.106 59.7762 146.826 59.0218 146.686 58.2028C146.382 56.5164 146.779 54.85 147.338 53.7426C147.619 53.1694 147.941 52.6907 148.265 52.2848C148.55 51.9307 148.759 51.7116 149.004 51.4712C149.48 51.0092 149.943 50.6521 150.395 50.3425C151.078 49.877 151.731 49.5239 152.398 49.2028C152.927 48.9494 153.462 48.7212 154.012 48.5059C158.106 46.9699 161.308 46.3317 164.129 45.7099C169.829 44.5298 173.585 44.0256 174.268 44.0748C202.42 39.5805 230.347 36.8977 258.24 33.6237C303.079 28.4547 347.851 22.6087 392.494 16.157C397.296 15.4629 402.006 14.7762 406.763 14.0678C417.24 12.4955 415.483 13.0391 423.758 11.5948C424.195 11.513 424.658 11.4303 425.131 11.3486C425.364 11.3082 425.604 11.2673 425.799 11.2324C425.89 11.2161 425.983 11.1979 425.973 11.2C425.959 11.2042 425.943 11.2029 425.738 11.2631C425.626 11.3016 425.492 11.325 425.022 11.5434C424.745 11.7024 424.441 11.7526 423.539 12.5933C423.295 12.8419 423.08 13.0696 422.762 13.5622C422.449 14.058 422.156 14.6849 422 15.4831C421.833 16.2994 421.888 17.2505 422.08 17.9501C422.258 18.631 422.538 19.1786 422.809 19.5922C423.039 19.9555 423.515 20.5235 424.004 20.9005C424.244 21.0929 424.511 21.2603 424.59 21.3066C424.71 21.3787 424.824 21.4412 424.931 21.4957C425.348 21.7089 425.707 21.8211 425.85 21.8638C426.095 21.9361 426.25 21.9664 426.359 21.9876C426.51 22.0152 426.557 22.0197 426.592 22.0244C426.636 22.0296 426.605 22.0257 426.575 22.0231C426.495 22.0159 426.386 22.0078 426.239 21.9981C426.12 21.9903 425.965 21.981 425.816 21.9727C425.683 21.9652 425.516 21.9564 425.352 21.9481C424.722 21.9165 424.038 21.8869 423.291 21.8569C421.797 21.7971 420.138 21.7395 418.276 21.6799C419.739 21.7572 421.296 21.8395 422.771 21.9239C423.498 21.9658 424.267 22.0107 424.984 22.0574C425.344 22.0809 425.698 22.105 426.044 22.1319C426.198 22.1441 426.377 22.1589 426.494 22.1713C426.558 22.1777 426.607 22.1842 426.596 22.1847C426.588 22.1843 426.562 22.1838 426.436 22.1644C426.393 22.1569 426.257 22.1383 425.997 22.0725C425.931 22.0558 425.858 22.0357 425.774 22.0105C425.649 21.9728 425.438 21.9033 425.203 21.8026C424.958 21.6962 424.694 21.5717 424.324 21.3318C423.708 20.9545 422.972 20.1747 422.673 19.6815C422.186 18.9395 421.608 17.6676 421.762 15.9929C421.905 14.4093 422.719 13.2594 423.114 12.8112C423.344 12.5423 423.562 12.3369 423.757 12.1711C423.918 12.0351 424.056 11.9323 424.186 11.8418C424.455 11.6562 424.623 11.5648 424.767 11.4878C425.329 11.2026 425.469 11.182 425.615 11.128C425.862 11.0501 425.898 11.047 425.927 11.0381C425.968 11.0274 425.892 11.0416 425.812 11.0541C425.643 11.0816 425.412 11.118 425.179 11.1552C424.711 11.2297 424.212 11.3123 423.72 11.3991C421.819 11.743 419.959 12.0173 418.016 12.2998C419.43 12.0761 421.351 11.7848 423.707 11.3302C424.171 11.2428 424.653 11.157 425.125 11.0757C425.356 11.0358 425.595 10.9952 425.774 10.9632C425.858 10.9483 425.941 10.9317 425.911 10.9384C425.886 10.9454 425.858 10.9464 425.622 11.018C425.491 11.0646 425.343 11.0892 424.81 11.3486C424.654 11.429 424.531 11.4903 424.249 11.6728C423.985 11.8549 423.702 12.0311 423.185 12.574C422.78 13.0094 421.923 14.0707 421.689 15.7221C421.435 17.4979 422.063 18.9583 422.585 19.7391C422.828 20.1252 423.338 20.7296 423.857 21.1255C423.986 21.227 424.114 21.319 424.238 21.4014C424.374 21.4903 424.391 21.4995 424.465 21.5445C424.592 21.6203 424.712 21.6858 424.825 21.7428C425.262 21.965 425.649 22.0838 425.782 22.1233C426.041 22.1989 426.202 22.2303 426.317 22.2522C426.469 22.2799 426.524 22.2855 426.56 22.2902C426.608 22.2956 426.58 22.2918 426.551 22.2892C426.474 22.2819 426.367 22.2735 426.225 22.2637C426.107 22.2555 425.965 22.2465 425.816 22.2377C425.687 22.2299 425.54 22.2215 425.375 22.2125C424.808 22.1815 424.121 22.1488 423.509 22.1208C422.206 22.0616 420.853 22.0056 419.398 21.9479C416.594 21.8364 413.525 21.7233 410.389 21.611C404.104 21.3862 397.385 21.1597 391.11 20.9537C378.525 20.5412 367.266 20.1974 363.842 20.1209C362.951 20.1006 361.984 20.2356 355.504 20.1293C353.65 20.1003 351.239 20.0477 348.184 19.9627C336.624 19.6418 334.788 19.3817 328.643 19.1616C323.433 18.9759 317.586 18.8591 316.083 18.8037C314.914 18.7604 314.466 18.621 311.612 18.5156C302.6 18.1844 309.946 18.7545 300.996 18.085C303.193 18.1334 305.362 18.1811 307.502 18.228C296.665 17.8526 281.873 17.2374 297.851 17.6106C300.563 17.6737 298.217 17.7277 300.259 17.7869C380.364 20.1101 316.439 17.9945 288.356 17.3701C281.159 16.9789 240.806 15.9218 239.411 15.8464C237.552 15.741 244.437 15.795 235.434 15.41C233.511 15.3273 179.524 13.8738 198.986 14.1935C202.947 14.2578 228.853 15.0566 235.124 15.2307C220.447 14.4227 186.035 13.9821 182.128 13.8558C166.539 13.3476 212.142 14.3866 176.98 13.3304C149.941 12.5188 175.299 13.5042 164.914 13.3151C159.032 13.2073 128.461 12.0469 129.285 12.4364C118.787 12.1741 124.933 12.1569 123.639 12.1058C122.33 12.0559 101.732 11.5744 95.0023 11.3042C94.1869 11.2713 96.7603 11.155 95.9176 11.1152C94.2774 11.0415 74.3626 10.5084 73.5655 10.5016C73.057 10.4982 77.7972 10.8006 75.8454 10.785C73.5683 10.7662 54.4049 10.1776 53.3366 10.1945C51.8498 10.2238 75.5092 10.8549 71.5651 10.9279C60.661 10.5683 42.8766 10.1826 35.6787 10.1261C37.4348 10.1336 48.0292 10.4312 51.6885 10.5512C49.9613 10.7743 27.246 10.1193 35.0168 10.1263C30.0795 10.1006 33.4465 10.2586 30.6629 10.2882C29.9296 10.2949 22.9208 10.0996 21.5691 10.1081C21.3949 10.1125 28.6168 10.4224 27.1696 10.4363C24.5536 10.4613 3.29118 9.8292 1.5496 9.75301C-3.34391 9.53832 13.9894 9.94529 15.4402 9.87191C15.6392 9.85996 0.915614 9.2125 0.686862 9.18604C-0.164315 8.94813 16.2279 9.57198 14.3603 9.32619C10.3056 9.16933 6.25422 9.01257 2.19489 8.85557C17.8453 9.10962 46.8077 10.0401 54.2625 10.0324C31.0725 9.43338 6.77963 8.72914 6.85041 8.23249C6.87375 8.02315 16.881 8.18695 16.4992 8.1226C15.0193 7.88911 1.1324 7.69852 0.614909 7.67359C0.192403 7.64983 -0.000267213 7.63297 -9.8532e-07 7.62195C-8.47553e-07 7.62194 -7.09788e-07 7.62194 -5.72024e-07 7.62193C0.00925094 7.51034 19.8144 7.99761 20.8098 7.97507C22.4802 7.93222 13.6712 7.3062 13.6853 7.22399C13.9986 7.21638 28.1025 7.53236 23.3491 7.25192C18.5399 6.96843 6.19147 6.61118 5.76018 6.58368C3.40339 6.42901 25.0065 6.96894 25.6449 6.9358C25.9886 6.91964 14.3959 6.42749 14.0558 6.3718C13.7691 6.31748 22.5926 6.46987 26.0622 6.42384C28.6516 6.38998 21.1222 6.09124 22.4465 6.11226C23.3892 6.12805 43.7881 6.71474 44.8038 6.72486C46.3003 6.73966 41.519 6.47338 42.2164 6.46107C43.2082 6.44305 49.7967 6.67858 48.9399 6.60622C48.2992 6.55222 22.7508 5.37438 22.9313 5.2606C23.2152 5.06584 50.2768 6.30854 25.117 4.78652C24.9425 4.77626 18.8161 4.65752 18.6445 4.64767C14.8674 4.39206 34.5183 4.72884 10.4957 4.07972C55.1836 5.10507 16.0623 3.93431 22.6859 3.78257C25.2334 3.72429 42.5585 4.16685 42.6432 4.14958C40.9532 3.93453 35.4502 3.90596 33.5723 3.77044C32.5411 3.69522 48.0407 3.96347 44.5577 3.74925C42.7422 3.63825 26.3061 3.188 25.6239 3.15695C19.1237 2.86215 27.1023 2.97409 25.6756 2.85617C24.7313 2.77745 14.8036 2.48874 14.5424 2.47195C14.1324 2.44085 27.601 2.61834 30.4215 2.62586C32.5594 2.63072 24.5429 2.31248 26.0358 2.33067C35.0246 2.44126 54.0898 3.36309 35.7158 2.31052C34.596 2.24617 27.631 2.05951 27.4246 2.04716C23.1245 1.77483 35.953 2.12974 38.2397 2.07329C42.1791 1.97598 23.7713 1.56545 39.0797 1.85648C27.6029 1.38994 21.1933 1.21193 7.75267 0.864904C44.978 1.82525 58.1282 1.65798 16.8045 0.486933C29.9496 0.87229 28.499 0.523516 32.4238 0.630647C34.8595 0.697476 53.9175 1.54931 45.1952 0.613947C44.0931 0.496745 32.5219 0.273757 36.1503 0.202578C63.9466 1.04423 36.7258 0.107594 36.7147 0.0841181C37.0874 -0.308943 104.987 1.96864 116.647 2.25754C130.194 2.59291 142.246 2.62094 145.158 2.70418C154.879 2.98327 146.81 2.91299 148.98 3.03472C151.162 3.15613 178.734 3.6392 180.084 3.69514C185.388 3.91597 179.995 3.95223 180.548 3.97779C187.167 4.28516 224.145 5.20021 234.498 5.54395C234.157 5.40987 213.413 4.80171 226.368 4.97594C241.512 5.18042 242.327 5.75149 242.736 5.78734C280.371 6.87255 318.199 7.96434 355.832 9.07877C367.912 9.43732 379.793 9.79322 391.786 10.1637C397.731 10.3476 403.807 10.5382 409.725 10.7324C412.733 10.8313 415.689 10.9303 418.733 11.0393C420.181 11.0912 421.752 11.1492 423.242 11.2096C423.985 11.2398 424.759 11.2724 425.519 11.3089C425.898 11.3272 426.277 11.3461 426.698 11.3712C426.886 11.3825 427.114 11.3969 427.348 11.4153C427.484 11.4264 427.587 11.4345 427.787 11.4561C427.864 11.4649 427.998 11.4797 428.183 11.51C428.249 11.5212 428.437 11.5508 428.698 11.618C428.764 11.6352 428.837 11.6552 428.917 11.6798C429.049 11.72 429.241 11.7841 429.457 11.8772C429.683 11.9764 429.911 12.0834 430.253 12.3059C430.8 12.6446 431.441 13.3278 431.705 13.7623C432.139 14.4232 432.648 15.5465 432.512 17.0236C432.386 18.4201 431.667 19.4384 431.314 19.8388C431.108 20.0787 430.913 20.263 430.737 20.4126C430.592 20.5354 430.466 20.629 430.347 20.7119C430.1 20.8821 429.941 20.9684 429.804 21.0418C429.264 21.3158 429.092 21.3511 428.911 21.4149C428.593 21.5147 428.453 21.543 428.324 21.5736C428.075 21.6295 427.931 21.6556 427.786 21.6829C427.506 21.7347 427.282 21.7731 427.055 21.8132C426.611 21.8913 426.188 21.9679 425.764 22.0494C418.976 23.3304 412.466 24.2303 405.85 25.2329C406.289 25.2654 415.374 24.1034 425.794 22.2009C426.214 22.1199 426.635 22.0433 427.079 21.965C427.305 21.9247 427.529 21.886 427.811 21.8338C427.957 21.8062 428.103 21.7798 428.355 21.7231C428.486 21.692 428.629 21.6631 428.954 21.5612C429.138 21.4964 429.316 21.4599 429.869 21.1801C430.011 21.1043 430.17 21.0179 430.425 20.843C430.547 20.7586 430.68 20.66 430.825 20.5379C431.006 20.3846 431.207 20.1957 431.42 19.9496C431.779 19.5448 432.528 18.4944 432.662 17.055C432.808 15.5285 432.281 14.3612 431.833 13.6788C431.564 13.2385 430.919 12.5453 430.36 12.1945C429.988 11.9506 429.772 11.8508 429.536 11.7455C429.311 11.6482 429.127 11.5852 428.973 11.5375C428.889 11.5119 428.816 11.4914 428.748 11.4737C428.483 11.4046 428.28 11.372 428.216 11.3611C428.029 11.3304 427.886 11.3144 427.811 11.3059C427.613 11.2842 427.504 11.2758 427.371 11.265C427.135 11.2465 426.908 11.2323 426.724 11.2214C426.304 11.1967 425.928 11.1783 425.559 11.1609C424.803 11.1255 424.057 11.095 423.319 11.0661C421.854 11.009 420.372 10.9569 419.001 10.9103C416.178 10.8145 413.564 10.733 411.275 10.6623C406.735 10.5228 403.503 10.4277 403.282 10.4106C402.041 10.3242 404.341 10.3591 408.854 10.4782C411.131 10.5387 413.902 10.6182 417.132 10.7213C418.683 10.7709 420.447 10.8296 422.211 10.8943C423.107 10.9274 424.01 10.9619 424.955 11.0028C425.072 11.0079 425.182 11.0128 425.293 11.0177C425.423 11.0236 425.548 11.0294 425.666 11.035C425.886 11.0452 426.162 11.0589 426.392 11.0713C426.649 11.0852 426.884 11.0983 427.184 11.1192C427.302 11.1274 427.487 11.1412 427.671 11.1589C427.803 11.1725 427.841 11.1743 428.084 11.2076C428.212 11.2278 428.235 11.2248 428.565 11.294C428.637 11.31 428.717 11.3291 428.809 11.3535C428.916 11.3836 428.948 11.3869 429.229 11.4832C429.467 11.5681 429.77 11.6896 430.141 11.9029C430.187 11.9295 430.234 11.9576 430.282 11.9873C430.305 12.0021 430.33 12.0173 430.354 12.0329C430.396 12.0597 430.444 12.0918 430.49 12.1233C430.676 12.2506 430.87 12.4015 431.057 12.5704C431.431 12.9049 431.761 13.3242 431.943 13.6066C432.395 14.2987 432.924 15.4512 432.8 16.9945C432.681 18.4664 431.949 19.536 431.563 19.9848C431.347 20.2409 431.142 20.4385 430.956 20.5992C430.787 20.7437 430.666 20.8346 430.538 20.9255C430.413 21.0132 430.297 21.0869 430.195 21.1479C430.111 21.1985 430.032 21.2425 429.959 21.2816C429.382 21.5774 429.203 21.6129 429.01 21.6818C428.674 21.788 428.531 21.8169 428.396 21.8491C428.138 21.9076 427.993 21.9338 427.846 21.9618C427.563 22.0144 427.34 22.0531 427.113 22.0935C426.669 22.1722 426.246 22.2495 425.819 22.3321C415.266 24.2727 403.861 25.81 394.103 27.2475C384.183 28.6763 376.157 29.7856 373.512 30.1283C380.419 29.2182 387.247 28.3039 394.12 27.3688C394.33 27.3402 394.538 27.3119 394.744 27.2837C394.543 27.3186 394.336 27.354 394.123 27.39C381.852 29.4926 355.684 32.7437 338.506 35.161C332.882 35.958 343.734 34.6429 343.499 34.6808C337.173 35.6637 327 36.8997 334.566 35.7257C319.102 37.9286 321.327 37.4469 309.452 38.9506C308.838 39.0271 313.965 38.5162 304.559 39.7611C300.151 40.359 276.622 43.2349 273.481 43.7112C272.184 43.9185 284.199 43.0058 285.611 42.3757C311.233 39.4445 293.765 41.168 303.71 39.9408C305.234 39.7402 301.762 40.4816 326.764 37.1221C322.068 38.2172 293.192 41.5296 288.259 42.1634C278.089 43.5436 320.096 38.5702 327.76 37.1563C324.203 37.9766 330.74 36.8223 340.094 35.5884C350.334 34.2314 345.894 34.9328 351.413 34.1862C366.55 32.1178 360.244 32.7332 372.759 31.2133C363.28 31.9966 381.128 29.7519 394.222 28.067C398.146 27.5643 401.641 27.1167 403.885 26.8278C400.669 27.3096 397.455 27.7858 394.249 28.258C381.614 30.1193 368.909 31.9403 356.226 33.7059C357.148 33.6166 358.061 33.5282 358.965 33.4408C354.768 34.0129 350.603 34.5749 346.402 35.1363C347.064 35.0116 347.725 34.8868 348.401 34.7601C326.817 37.8972 321.513 38.284 319.753 38.5167C300.871 40.9334 279.542 43.5545 259.655 45.8516C255.651 46.3147 251.69 46.7675 247.83 47.2073C244.392 47.6053 246.752 47.5383 221.671 50.2559C213.66 51.1418 221.206 50.0668 212.144 51.1766C200.91 53.0299 201.097 52.6471 197.715 53.0794C188.132 54.3281 182.3 55.3603 181.438 55.493C176.595 56.2545 170.656 57.2157 164.992 58.5073C162.194 59.1451 158.992 60.0363 157.631 60.7663C157.526 60.8198 157.466 60.8811 157.663 60.7252C157.759 60.6449 157.916 60.507 158.12 60.2616C158.387 59.9395 158.772 59.3823 159.026 58.5508C159.285 57.7845 159.351 56.4944 159.07 55.5552C158.946 55.0877 158.733 54.6254 158.588 54.3738C158.447 54.1211 158.303 53.9156 158.172 53.75C157.91 53.4201 157.696 53.2387 157.587 53.1503C157.5 53.0808 157.453 53.0511 157.443 53.0447C157.463 53.0611 157.828 53.2512 158.382 53.4549C158.842 53.6267 159.397 53.8084 160.081 54.0054C161.969 54.5492 164.286 55.0514 166.317 55.4488C166.623 55.5098 160.113 54.0517 168.2 55.6998C170.85 56.4386 197.436 60.766 220.95 62.8042C214.896 62.1487 208.717 61.4558 202.669 60.7338C209.768 61.7451 260.221 66.3425 247.905 65.0009C240.34 64.2124 221.905 62.8241 219.898 62.2097C236.59 64.232 329.491 71.9984 336.753 73.0166C337.767 73.1289 331.584 72.6474 332.964 72.8C333.625 72.8728 340.764 73.5548 347.411 74.2875C352.444 74.837 357.023 75.4168 358.287 75.6052C360.001 75.839 350.423 74.7426 351.23 74.8995C351.582 74.9677 358.381 75.7124 365.477 76.8179C369.1 77.4125 372.442 77.9336 375.992 79.0729C376.858 79.377 377.812 79.6946 379.094 80.5053C379.484 80.7602 379.89 81.0621 380.309 81.4574C380.413 81.5564 380.518 81.6612 380.623 81.7729C380.727 81.8836 380.832 81.998 380.997 82.2015C381.298 82.5753 381.597 83.0196 381.853 83.5429C383.083 85.5622 382.392 89.2793 381.342 90.4543C380.601 91.5208 379.931 92.0323 379.406 92.4272C379.029 92.7025 378.715 92.895 378.448 93.0511C378.181 93.206 377.961 93.3217 377.785 93.4127C377.61 93.5027 377.54 93.5395 377.468 93.5779C377.702 93.47 378.192 93.2315 378.614 92.981C378.835 92.8509 379.066 92.705 379.312 92.5326C379.554 92.3644 379.999 92.0271 380.388 91.6452C380.59 91.4481 380.8 91.2237 381.013 90.9601C381.237 90.6747 381.401 90.4733 381.724 89.9063C382.292 88.912 382.734 87.3796 382.56 85.847C382.416 84.4039 381.798 83.1732 381.179 82.3607C380.827 81.9025 380.646 81.7257 380.425 81.5047C380.211 81.2951 380 81.113 379.796 80.9503C379.405 80.6363 378.938 80.3401 378.683 80.1939C378.418 80.0399 378.159 79.9044 377.902 79.78C377.645 79.6557 377.39 79.5425 377.132 79.4362C376.91 79.3448 376.732 79.2762 376.529 79.2007C376.134 79.0545 375.707 78.9124 375.302 78.7879C374.96 78.6829 374.606 78.5809 374.237 78.481C371.374 77.7199 368.728 77.2694 366.527 76.8887C362.247 76.1838 360.005 75.8376 364.961 76.4997C366.173 76.6393 372.839 77.9156 374.72 78.5247C376.335 78.9572 377.7 79.5075 378.458 79.9147C378.807 80.0974 378.974 80.1986 378.913 80.1526C378.852 80.1084 378.605 79.9481 378.196 79.7332C376.394 78.7784 373.676 78.0272 370.343 77.3603C363.691 76.0331 354.34 74.9457 347.422 74.1834C343.959 73.8046 341.016 73.5058 339.707 73.3717C342.118 73.5984 344.831 73.8671 347.427 74.1401C353.709 74.8159 360.491 75.5565 367.85 76.7991C369.612 77.1052 371.629 77.4856 373.575 77.9744C374.696 78.262 375.719 78.5394 377.019 79.047C377.302 79.1585 377.792 79.3673 378.191 79.5698C378.618 79.7914 378.998 79.9754 379.746 80.5169C380.086 80.7704 380.449 81.0728 380.827 81.4671C381.132 81.7723 381.888 82.674 382.312 83.693C383.419 85.6893 382.7 89.4899 381.576 90.7208C380.784 91.8515 379.853 92.5282 379.375 92.8551C378.885 93.186 378.432 93.4353 377.988 93.6547C377.255 94.0146 376.601 94.2665 375.993 94.4827C375.456 94.6733 374.874 94.8576 374.312 95.0216C373.821 95.1651 373.309 95.3047 372.773 95.4425C370.791 95.9497 368.804 96.3598 366.911 96.7243C351.634 99.5095 336.612 101.247 323.145 103.071C321.964 103.227 320.78 103.383 319.597 103.54C313.041 104.304 318.674 103.535 323.125 102.912C327.168 102.347 330.313 101.897 323.832 102.681C323.588 102.711 323.346 102.74 323.107 102.769C295.514 106.065 316.215 103.84 315.351 103.967C308.244 105.015 283.896 107.326 283.96 107.865C273.548 109.072 276.915 108.588 262.257 110.465C264.193 110.265 266.109 110.067 268.057 109.865C251.809 112.189 217.266 115.606 219.836 115.231C226.76 114.22 244.735 112.276 246.266 112.081C248.534 111.792 254.746 110.482 279.613 107.908C289.754 106.286 240.237 112.507 262.745 109.481C247.527 111.402 184.904 118.787 175.93 120.069C174.862 120.223 179.904 119.971 164.423 121.695C157.096 122.512 174.762 120.321 171.399 120.653C167.544 121.044 145.685 123.648 118.462 127.188C111.601 128.09 104.487 129.043 97.2592 130.105C93.6203 130.645 90.0213 131.19 86.4468 131.843C85.581 132.003 84.6772 132.179 83.8988 132.352C83.6815 132.4 83.4863 132.445 83.3138 132.487C83.133 132.531 82.9302 132.583 82.7942 132.621C82.6471 132.661 82.5001 132.707 82.4626 132.72C82.439 132.728 82.4544 132.725 82.5301 132.692C82.5676 132.675 82.6639 132.632 82.7971 132.558C82.865 132.52 82.9457 132.473 83.0424 132.41C83.093 132.377 83.1358 132.349 83.2067 132.298C83.3026 132.23 83.4112 132.147 83.5341 132.041C83.7779 131.829 84.0888 131.532 84.4256 131.032C84.5091 130.907 84.5933 130.769 84.6754 130.616C84.7166 130.539 84.7562 130.462 84.797 130.375C84.8581 130.246 84.9167 130.107 84.971 129.96C85.1897 129.375 85.3282 128.626 85.2804 127.867C85.2385 127.108 85.0116 126.375 84.721 125.814C84.5625 125.509 84.4506 125.344 84.3398 125.186C84.2275 125.027 84.1146 124.887 84.0046 124.762C83.5612 124.265 83.1849 124.005 82.9006 123.825C82.5768 123.629 82.5064 123.606 82.3734 123.543C82.2556 123.489 82.1611 123.452 82.0835 123.423C81.9226 123.365 81.855 123.348 81.8098 123.336C81.6331 123.292 81.755 123.324 81.8726 123.338C82.135 123.375 82.532 123.414 82.9398 123.446C83.7691 123.511 84.6778 123.558 85.6026 123.607C116.219 125.465 145.299 128.711 160.695 130.107C163.219 130.352 165.501 130.575 167.191 130.741C168.909 130.91 168.263 130.962 169.974 131.129C175.227 131.642 194.351 133.372 203.75 134.369C184.338 132.211 222.096 135.976 231.699 136.974C246.282 138.483 245.359 138.595 251.652 139.275C275.917 141.9 313.569 145.265 332.397 147.654C331.387 147.117 362.77 150.952 378.62 152.65C379.21 152.713 379.773 152.772 380.309 152.828C392.324 154.078 409.653 155.634 393.556 153.742C400.01 154.431 406.563 155.125 413.111 155.839C416.383 156.197 419.701 156.563 422.938 156.94C424.603 157.135 426.241 157.33 427.893 157.544C428.739 157.655 429.543 157.762 430.43 157.896C430.863 157.962 431.324 158.036 431.824 158.131C431.968 158.158 432.107 158.186 432.243 158.215C432.419 158.253 432.577 158.289 432.797 158.348C433.075 158.433 433.263 158.443 434.054 158.807C434.305 158.933 434.743 159.148 435.307 159.633C435.447 159.754 436.296 160.486 436.78 161.673C437.032 162.272 437.201 163.009 437.2 163.764C437.205 164.595 437.002 165.388 436.733 165.989C436.464 166.596 436.147 167.031 435.871 167.353C435.606 167.656 435.473 167.773 435.301 167.925C434.979 168.203 434.735 168.361 434.542 168.48C434.221 168.674 434.051 168.749 433.921 168.811C427.374 172.558 418.433 175.445 410.904 176.542C410.697 176.575 410.518 176.603 410.365 176.625C408.099 176.942 411.804 176.328 406.446 177.052C405.941 177.102 405.203 177.382 400.35 177.798C360.811 179.858 380.087 178.451 372.735 178.689C368.624 178.724 365.617 178.741 363.375 178.762C379.966 178.489 398.302 178.196 410.311 176.274C414.873 175.575 418.373 174.669 420.379 174.088C418.906 174.444 415.241 175.415 410.293 176.152C394.206 178.6 365.988 178.615 355.913 178.736C355.453 178.737 357.059 178.566 356.59 178.569C356.58 178.569 356.571 178.569 356.561 178.569C353.433 178.598 339.652 178.679 331.692 178.723C327.313 178.754 324.607 178.794 326.977 178.869C327.502 178.886 329.203 178.901 331.692 178.911C337.574 178.934 348.128 178.936 359.984 178.804C355.441 178.883 358.839 179.026 358.036 179.042C352.176 179.152 341.4 179.16 331.692 179.097C325.095 179.057 319.036 178.996 315.555 178.969C313.573 178.954 313.736 179.068 313.415 179.066C305.655 178.997 308.867 178.695 300.867 178.973C286.85 178.482 327.184 179.076 324.392 178.777C322.176 178.684 232.45 177.942 232.717 178.221C232.408 178.184 231.174 178.128 228.644 178.052C223.033 177.883 198.066 177.629 193.761 177.638C193.034 177.641 193.319 177.951 192.414 177.944C190.167 177.924 159.66 177.336 148.244 177.41C154.438 177.514 160.527 177.621 166.712 177.732C129.565 177.344 135.32 177.515 147.669 177.719C148.284 177.726 148.884 177.744 149.476 177.751C159.084 177.914 171.364 178.116 171.574 178.142C172.246 178.212 109.241 177.689 121.358 177.526C123.042 177.485 152.215 177.875 137.767 177.541C135.734 177.491 122.826 177.418 117.667 177.393C116.481 177.386 115.712 177.381 115.531 177.376C113.976 177.332 115.057 177.299 117.668 177.274C125.763 177.181 148.661 177.244 144.859 177.048C136.891 177.134 127.041 177.009 117.67 176.961C115.272 176.948 113.12 176.942 110.807 176.942C105.678 176.945 104.355 177.099 103.754 177.1C94.1954 177.129 99.5228 176.975 96.3733 176.978C94.6699 176.955 75.9166 177.438 79.4477 176.945C67.8971 177.171 59.7326 177.423 56.0568 178.251C55.5307 178.362 55.0467 178.471 54.8091 178.54C54.7533 178.556 54.718 178.568 54.7404 178.563C54.7803 178.546 54.8035 178.563 55.2161 178.362C55.3094 178.314 55.4645 178.233 55.678 178.091C55.7888 178.016 55.8872 177.948 56.0534 177.814C56.2331 177.667 56.442 177.479 56.6743 177.214C57.0117 176.862 58.1151 175.36 57.9599 173.393C57.9123 172.447 57.5091 171.48 57.2103 171.012C56.9168 170.528 56.6099 170.187 56.3443 169.933C55.419 169.11 55.1343 169.098 54.9219 168.977C54.6914 168.878 54.6226 168.86 54.5423 168.832C54.3002 168.758 54.4071 168.792 54.4745 168.799C54.5582 168.813 54.6797 168.83 54.7945 168.845C55.0386 168.876 55.2804 168.902 55.5079 168.925C56.3967 169.01 56.8152 169.029 56.7083 169.008C56.6148 168.985 55.9853 168.922 55.103 168.801C54.8968 168.772 54.6553 168.735 54.5054 168.705C54.4361 168.692 54.3688 168.673 54.4684 168.698C54.5264 168.716 54.5938 168.72 54.9593 168.873C55.0566 168.915 55.1561 168.96 55.3113 169.043C55.4948 169.142 55.7227 169.276 56.0103 169.496C56.2802 169.705 56.8929 170.214 57.3873 171.088C58.0631 172.098 58.3072 174.295 57.7927 175.508C57.5792 176.141 57.2338 176.69 57.0203 176.97C56.8083 177.254 56.6064 177.469 56.4262 177.641C56.0354 178.004 55.8637 178.106 55.6808 178.229C55.3069 178.465 55.1974 178.503 55.0597 178.569C54.8475 178.662 54.7967 178.673 54.7753 178.681C54.7474 178.69 54.8568 178.659 54.9899 178.628C55.2607 178.564 55.6574 178.482 56.0863 178.397C63.8135 177.082 83.2399 177.241 100.278 177.172C88.7931 177.417 65.1667 177.01 56.1131 178.531C55.8492 178.585 55.6083 178.636 55.3919 178.684C55.0311 178.763 54.7602 178.843 54.8284 178.829C54.8529 178.823 54.8992 178.81 55.0203 178.763C55.0756 178.741 55.1597 178.706 55.2782 178.649C55.3932 178.592 55.539 178.521 55.7951 178.356C55.9232 178.272 56.0417 178.191 56.2322 178.038C56.4433 177.866 56.6909 177.642 56.9637 177.319C57.4478 176.818 58.6393 174.848 58.1514 172.644C57.5672 170.396 56.7986 170.014 56.2866 169.49C55.895 169.164 55.6193 169.006 55.3984 168.883C54.7204 168.536 54.6569 168.563 54.5531 168.517C54.476 168.49 54.4631 168.484 54.4664 168.479C54.4776 168.471 54.5551 168.476 54.6482 168.48C55.0594 168.501 55.859 168.577 58.6287 168.78C58.7921 168.792 58.967 168.804 59.1548 168.818C66.0736 169.216 87.5239 171.008 108.124 174.229C126.239 176.965 143.861 180.19 151.442 181.59C141.477 179.848 144.359 180.537 152.043 181.919C159.726 183.319 153.316 181.906 154.818 182.158C156.29 182.354 186.174 188.158 196.055 190.474C197.067 190.699 197.829 190.871 198.379 190.994C197.576 190.813 196.819 190.645 196.055 190.477C173.324 185.7 177.321 186.677 195.998 190.73C197.386 191.043 198.821 191.371 200.333 191.724C198.891 191.41 197.453 191.105 195.983 190.798C194.125 190.412 192.202 190.021 190.34 189.651C191.988 189.995 193.931 190.413 195.967 190.869C210.641 193.775 232.815 201.35 239.263 203.453C240.443 203.83 236.261 202.296 236.924 202.507C239.562 203.354 244.653 205.048 249.952 206.771C257.896 209.353 266.325 212.045 266.939 212.211C267.844 212.455 258.283 209.302 261.864 210.374C262.601 210.596 271.81 213.705 280.929 216.546C284.316 217.602 282.322 216.826 283.178 217.09C290.299 219.291 286.035 218.155 299.021 222.296C308.529 225.349 315.677 227.429 328.743 231.958C285.796 217.35 321.98 229.305 339.932 235.573C342.311 236.41 341.108 235.762 350.287 239.106C352.214 239.814 354.575 240.695 357.516 241.824C354.577 240.757 352.18 239.907 350.242 239.227C340.196 235.745 343.16 236.855 350.177 239.407C358.543 242.431 372.529 247.851 377.233 249.82C377.759 250.041 377.866 250.244 382.493 252.185C382.886 252.353 382.375 252.002 386.667 253.83C427.09 272.29 401.209 260.622 408.799 264.298C410.332 265.163 415.434 267.552 421.081 271.472C422.711 272.769 424.33 273.527 426.398 276.895C426.89 277.843 427.496 279.233 427.329 281.247C427.169 283.292 425.952 285.032 425.034 285.857C423.098 287.55 421.921 287.787 420.84 288.198C416.769 289.409 414.281 289.481 412.637 289.703C411.273 289.832 411.839 289.704 406.667 290.104C406.628 290.107 406.588 290.11 406.549 290.113C397.49 290.807 389.318 291.201 383.311 291.3C382.615 291.289 382.557 291.215 371.155 291.213C367.954 291.201 364.34 291.201 368.901 291.322C378.217 291.566 392.815 291.379 406.56 290.266C410.866 289.896 414.905 289.737 419.728 288.587C420.995 288.214 422.259 287.974 424.285 286.582C425.244 285.884 426.725 284.496 427.266 282.2C427.789 279.908 427.107 278.083 426.594 277.047C424.38 273.299 422.794 272.69 421.25 271.387C421.226 271.369 421.203 271.352 421.18 271.335C417.158 268.543 417.979 269.038 421.24 271.253C422.413 272.163 423.828 272.944 425.89 275.582C426.396 276.317 427.043 277.214 427.455 278.983C427.951 280.684 427.332 283.702 426.038 285.145C423.513 287.967 421.917 288.017 420.51 288.57C415.142 290.013 410.804 290.089 406.575 290.471C400.012 290.972 394.529 291.199 393.722 291.233C392.781 291.281 402.411 290.75 392.62 291.17C384.265 291.532 369.026 291.883 356.655 291.388C355.726 291.37 345.854 290.722 346.321 290.715C346.722 290.754 361.894 291.208 359.687 291.045C359.437 291.043 349.784 290.722 348.537 290.599C347.294 290.492 344.354 289.902 342.17 289.617C341.68 289.552 341.228 289.504 340.845 289.482C335.578 289.175 339.013 289.505 335.595 289.316C328.314 288.928 303.115 287.191 302.296 287.388C306.456 287.648 310.612 287.912 314.769 288.174C291.627 286.816 301.485 287.511 298.207 287.36C294.669 287.203 295.68 287.047 287.882 286.592C286.193 286.43 253.59 284.94 254.188 285.128C272.207 285.705 265.519 285.722 266.35 285.75C269.508 285.909 273.543 285.957 277.783 286.177C307.591 287.81 277.514 286.401 284.548 286.843C286.972 286.992 291.797 287.14 292.831 287.206C296.169 287.418 296.218 287.583 298.446 287.699C303.649 287.974 297.589 287.39 298.003 287.403C302.643 287.527 320.887 288.801 309.516 288.368C316.323 288.865 317.14 288.613 322.54 289.051C333.289 289.915 317.166 288.918 312.812 288.691C297.162 287.913 292.532 287.452 270.442 286.4C262.487 286.03 253.066 285.82 249.378 285.711C247.056 285.582 225.141 284.612 224.495 285.464C222.219 285.424 219.596 285.357 216.813 285.293C209.173 285.11 200.286 284.98 193.857 285.178C185.978 285.428 188.502 285.647 187.764 285.678C186.63 285.722 177.117 286.071 173.895 286.278C170.129 286.511 172.017 286.515 166.031 286.882C151.156 287.854 151.53 287.621 149.992 287.692C132.23 288.79 140.037 288.646 136.089 288.984C134.398 289.139 122.454 290.093 109.119 291.516C105.131 291.94 101.085 292.395 97.1619 292.919C95.216 293.18 93.2915 293.46 91.5315 293.772C90.6601 293.927 89.798 294.098 89.1371 294.264C88.812 294.343 88.499 294.444 88.5121 294.442C88.5179 294.44 88.5619 294.423 88.6598 294.376C88.7767 294.315 88.9487 294.24 89.3366 293.955C89.694 293.563 90.7123 293.282 91.4255 290.54C91.7137 289.157 91.3379 287.655 90.901 286.855C90.4691 286.032 90.0941 285.666 89.8252 285.396C92.369 287.841 98.8734 289.486 101.222 290.204C97.2143 289.09 92.8412 287.729 90.6296 286.241C94.9829 289.267 104.346 291.054 104.095 291.409C104.369 291.395 104.997 291.502 105.916 291.699C110.6 292.716 122.242 295.943 126.227 296.912C128.101 297.372 127.976 297.251 130.326 297.826C136.247 299.279 146.97 301.873 155.173 303.672C159.682 304.668 163.435 305.44 165.209 305.783C176.272 307.848 167.247 306.067 155.248 303.328C143.774 300.717 129.559 297.111 127.447 296.574C131.578 297.609 144.925 300.853 155.307 303.063C166.692 305.485 174.508 306.857 162.726 304.359C160.728 303.922 157.827 303.372 155.344 302.89C153.503 302.534 151.885 302.216 151.051 302.032C137.775 299.046 148.252 301.242 147.217 300.984C145.456 300.556 136.685 298.686 134.39 298.094C133.626 297.892 138.608 298.944 125.981 295.816C129.683 296.632 143.647 300.099 155.39 302.683C163.475 304.477 170.512 305.849 172.42 306.189C174.094 306.333 163.71 304.659 194.147 309.716C193.798 309.633 193.448 309.549 193.101 309.465C195.767 309.827 198.437 310.158 201.101 310.449C215.399 311.91 230.397 312.902 245.118 314.447C243.199 314.335 233.371 313.53 245.733 314.726C252.844 315.435 247.604 314.71 248.26 314.771C249.566 314.896 255.3 315.477 263.842 316.421C296.952 320.023 371.63 329.376 388.969 331.568C390.766 331.793 393.459 332.123 396.366 332.477C405.433 333.576 417.43 335.047 418.648 335.219C419.769 335.368 421.212 335.562 422.977 335.816C423.827 335.938 424.8 336.081 425.832 336.248C426.377 336.337 426.886 336.422 427.557 336.554C427.915 336.626 428.235 336.688 428.806 336.84C428.945 336.878 429.104 336.922 429.322 336.992C429.432 337.027 429.522 337.057 429.67 337.111C429.825 337.167 429.994 337.233 430.185 337.316C430.615 337.549 431.155 337.607 432.598 338.949C433.393 339.713 434.539 341.376 434.726 343.425C434.893 345.396 434.403 346.409 434.316 346.73C433.526 348.682 433.045 349.02 432.598 349.609C432.158 350.121 431.773 350.492 431.391 350.834C430.633 351.508 429.897 352.038 429.099 352.528C419.136 358.194 409.242 358.721 401.431 360.184C396.599 360.916 392.749 361.461 390.914 361.731C386.755 362.337 390.743 361.928 387.017 362.448C383.577 362.924 387.123 362.274 386.1 362.411C380.13 363.249 346.658 367.818 321.924 371.01C311.41 372.377 302.458 373.513 297.885 374.051C301.67 373.588 311.556 372.281 321.907 370.878C337.169 368.813 353.474 366.53 352.906 366.539C352.703 366.553 341.349 367.931 339.019 368.29C336.23 368.561 328.63 369.732 321.882 370.687C319.246 371.06 316.732 371.401 314.698 371.642C313.88 371.737 317.068 371.106 304.179 372.722C299.738 373.277 288.135 374.937 276.393 376.18C268.576 377.158 245.467 380.048 221.964 382.129C194.3 384.566 166.683 384.991 163.444 385.464C163.252 385.475 175.828 384.993 167.338 385.473C156.405 386.133 165.632 385.239 154.101 385.816C153.773 385.833 153.426 385.852 153.06 385.873C151.092 385.867 114.541 388.648 113.351 388.858C102.303 390.02 134.244 387.49 133.797 387.612C132.689 387.721 106.162 389.929 105.091 390.049C104.062 390.12 125.654 387.896 99.685 390.315C102.662 390.082 105.641 389.855 108.622 389.636C96.4079 390.786 95.2286 390.701 92.2719 390.963C87.4421 391.406 82.3685 391.993 76.5863 392.658C71.3986 393.279 65.4197 393.878 59.042 394.875C55.6176 395.472 61.2762 394.182 60.8968 394.273C58.7389 394.581 56.2763 395.089 54.7917 395.849C54.6499 395.914 54.5623 395.964 54.6855 395.903C54.7573 395.863 54.8622 395.818 55.1766 395.598C55.4446 395.34 56.047 395.184 57.0323 393.37C57.5114 392.485 57.8569 390.694 57.5236 389.341C57.3863 388.66 57.0901 387.975 56.8653 387.584C56.6429 387.186 56.4066 386.864 56.1849 386.603C56.0738 386.472 55.966 386.356 55.863 386.253C55.7705 386.161 55.7064 386.101 55.6324 386.034C55.4893 385.905 55.3583 385.799 55.2399 385.71C54.987 385.522 54.8579 385.447 54.7366 385.374C54.4874 385.23 54.3853 385.188 54.3118 385.154C54.2367 385.121 54.2195 385.115 54.2141 385.112C54.284 385.137 55.0214 385.328 55.6874 385.467C57.0803 385.764 58.7207 386.071 60.4155 386.413C61.0598 386.441 44.7997 384.435 72.9711 388.349C71.0442 388.075 69.0465 387.785 67.1303 387.497C68.2975 387.636 71.6469 388.065 75.9319 388.584C86.0275 389.826 101.185 391.471 103.923 391.763C115.269 392.995 105.366 392.186 116.788 393.315C109.475 392.352 144.295 395.59 142.279 395.594C147.186 395.755 176.762 398.276 190.721 399.017C196.128 399.337 204.996 399.753 211.674 400.01C215.854 400.175 219.186 400.289 220.262 400.338C223.672 400.488 222.624 400.665 228.78 400.928C230.533 401.012 248.872 401.452 264.975 401.933C268.103 402.032 274.638 402.487 268.845 402.486C258.898 402.502 240.129 401.73 240.363 401.934C240.634 402.199 265.944 402.653 272.762 402.743C304.222 403.254 286.065 403.268 286.857 403.362C288.961 403.571 306.171 403.666 306.872 403.674C309.843 403.756 297.677 403.848 297.474 403.948C297.264 404.097 313.84 404.407 310.07 404.44C304.678 404.506 289.42 404.195 288.465 404.188C275.892 404.199 293.115 404.701 297.873 404.876C299.31 404.935 293.579 404.979 294.771 405C313 405.317 298.617 404.576 310.742 404.66C321.569 404.715 307.646 404.91 308.054 404.919C308.594 404.939 321.516 404.961 323.558 405.026C324.56 405.099 290.909 405.417 292.315 405.574C303.069 405.616 313.759 405.6 324.519 405.539C325.372 405.786 309.899 405.611 308.326 405.622C305.109 405.665 314.067 405.808 313.692 405.882C313.461 405.932 302.975 406.083 312.463 406.174C315.73 406.202 322.595 406.046 334.48 406.168C293.089 406.466 321.775 406.556 322.999 406.645C324.167 406.73 304.424 406.954 328.423 406.885C329.466 407.352 327.897 407.04 321.074 407.131C312.752 407.223 332.017 407.43 301.498 407.234C303.231 407.485 327.788 407.483 329.083 407.476C330.21 407.489 324.744 407.612 326.696 407.644C349.714 407.981 333.883 407.849 340.575 408.089C341.162 408.119 362.939 408.047 346.344 408.216C316.199 408.49 303.574 408.045 298.501 408.698C320.823 409.136 347.842 408.504 354.651 408.429C365.049 408.324 354.267 408.559 355.563 408.585C355.866 408.592 360.937 408.541 363.507 408.517C364.437 408.508 365.046 408.503 365.077 408.505C366.286 408.591 365.616 408.659 363.509 408.714C354.864 408.973 322.441 408.86 310.677 408.869C314.584 408.953 318.482 409.03 322.381 409.102C317.093 409.112 311.799 409.11 306.498 409.096C331.713 409.285 307.395 409.176 301.1 409.545C299.679 409.632 316.267 409.547 297.352 409.716C311.311 409.843 306.84 409.911 319.475 409.803C319.152 409.99 290.744 410.109 279.542 410.02C319.12 410.536 296.559 409.809 330.76 410.117C337.115 409.892 320.781 409.981 322.107 409.939C326.894 409.812 338.067 409.978 351.597 409.439C353.795 409.35 344.489 409.217 358.258 409.106C358.969 409.1 361.316 409.119 363.513 409.141C366.085 409.166 368.499 409.196 368.434 409.203C367.894 409.276 365.757 409.322 363.515 409.358C361.025 409.397 358.422 409.421 358.232 409.455C358.045 409.488 360.943 409.465 363.516 409.439C365.683 409.417 367.588 409.394 367.619 409.4C367.762 409.494 365.553 409.531 363.517 409.552C361.783 409.569 360.149 409.574 360.742 409.595C361.127 409.609 362.187 409.622 363.518 409.635C370.837 409.702 387.467 409.748 363.521 409.985C360.604 410.011 357.028 410.04 352.75 410.065C357.333 410.002 360.898 409.945 363.52 409.9C374.037 409.717 370.811 409.721 363.519 409.794C357.538 409.855 348.747 409.951 342.865 410.018C339.135 410.061 338.171 410.175 332.824 410.235C325.95 410.313 317.888 410.266 314.335 410.282C310.506 410.291 332.252 410.604 300.795 410.443C316.814 410.802 345.089 410.411 360.809 410.414C361.82 410.415 362.721 410.417 363.526 410.42C374.773 410.449 371.41 410.58 363.529 410.725C353.52 410.918 336.122 411.061 333.086 411.084C331.593 411.1 336.601 411.224 335.608 411.237C333.959 411.288 303.389 411.234 300.388 411.304C297.374 411.413 311.597 411.344 312.528 411.463C313.162 411.591 276.287 411.496 296.248 411.692C310.019 411.846 335.383 411.434 339.657 411.76C319.416 411.905 299.179 411.905 278.931 411.687C289.993 411.962 301.104 412.171 312.164 412.327C289.452 412.329 269.8 411.954 248.208 411.629C300.079 413.128 231.355 411.688 230.594 411.529C230.34 411.576 250.753 412.522 254.04 412.634C244.04 412.514 222.772 411.917 211.163 411.477C202.207 411.148 198.987 411.109 211.146 411.861C211.753 411.897 212.399 411.935 213.085 411.974C212.511 411.939 211.858 411.904 211.146 411.869C204.599 411.556 193.111 411.136 193.269 411.156C194.23 411.318 203.478 411.839 211.131 412.189C217.795 412.5 223.238 412.713 220.889 412.708C218.107 412.699 214.792 412.552 211.124 412.351C207.074 412.13 202.608 411.843 197.902 411.605C151.883 408.919 164.413 410.877 118.385 406.549C119.288 406.674 120.198 406.799 121.116 406.924C105.503 405.4 89.8678 403.692 74.2941 401.74C69.9734 401.196 65.7162 400.645 61.3833 400.016C59.2097 399.698 57.0648 399.373 54.7845 398.958C53.6266 398.742 52.5279 398.539 51.0984 398.165C50.7387 398.068 50.3417 397.956 49.8667 397.793C49.5888 397.696 49.3811 397.623 48.9812 397.451C48.6352 397.294 48.1843 397.109 47.4318 396.595C46.9648 396.243 46.5774 396.03 45.7264 394.965C45.0706 394.225 43.8763 391.73 44.3746 389.398C44.8635 387.028 45.8729 386.134 46.358 385.584C46.9311 385.014 47.2885 384.777 47.5961 384.565C48.7218 383.852 49.0183 383.796 49.3355 383.638C59.7955 379.921 66.7131 380.137 75.0592 378.964C92.9055 377.036 110.685 375.524 128.516 374.169C134.377 373.63 143.15 372.895 153.306 372.229C175.205 370.808 202.701 370.067 220.741 368.264C222.39 368.119 223.984 367.974 225.484 367.835C230.56 367.433 255.648 364.829 257.543 364.6C261.047 364.26 241.799 366.474 250.508 365.591C252.352 365.487 294.812 360.347 291.758 360.514C286.996 361.103 272.117 363.034 269.674 363.28C261.177 364.161 289.01 360.807 320.074 356.748C351.742 352.682 386.645 347.958 389.866 347.381C386.975 347.739 384.077 348.09 381.18 348.435C387.223 347.614 393.262 346.778 399.236 345.884C401.387 345.561 403.511 345.22 405.628 344.843ZM76.2596 388.058C81.2402 388.512 93.5793 390.088 100.945 390.823C111.08 391.873 128.421 392.843 120.917 392.804C106 391.407 91.1094 389.845 76.2596 388.058ZM245.699 380.266C235.631 381.255 243.39 380.059 251.652 379.284C252.572 379.194 259.323 378.875 245.699 380.266ZM139.986 387.148C140.401 387.107 149.066 386.539 149.355 386.534C157.128 386.171 131.044 387.887 139.986 387.148ZM210.704 311.675C221.735 312.584 213.729 311.592 206.942 311.117C206.513 311.089 209.982 311.616 210.704 311.675ZM218.554 312.345C227.146 313.347 244.581 314.387 230.774 313.155C229.419 313.025 218.153 312.29 218.554 312.345ZM209.64 383.479C210.517 383.329 217.023 382.863 221.992 382.441C223.398 382.323 224.722 382.21 225.705 382.125C225.67 382.167 224.127 382.326 221.998 382.516C218.179 382.861 212.456 383.276 209.64 383.479ZM386.996 331.47C386.859 331.485 390.885 332.013 396.336 332.712C407.06 334.081 423.24 336.149 425.038 336.399C421.136 335.806 406.333 333.887 396.348 332.618C391.076 331.948 387.163 331.462 386.996 331.47ZM294.914 320.291C295.823 320.412 308.241 321.87 307.885 321.746C301.84 320.909 290.818 319.733 294.914 320.291ZM113.991 292.786C113.404 292.646 120.652 294.996 106.098 291.01C104.654 290.61 102.983 290.133 101.126 289.555C99.0966 288.919 103.449 290.14 106.157 290.784C107.416 291.093 108.298 291.305 107.947 291.207C107.326 291.034 106.72 290.865 106.176 290.715C104.697 290.304 103.463 289.954 102.428 289.658C103.667 290.004 104.927 290.341 106.188 290.669C114.769 292.902 122.736 294.889 123.6 295.134C128.258 296.465 114.286 292.869 113.991 292.786ZM153.102 288.088C155.203 287.839 168.684 287.081 171.754 286.987C172.281 286.97 169.999 287.298 176.066 286.996C180.929 286.77 173.645 286.842 183.14 286.491C192.734 286.177 179.919 286.809 180.764 286.798C181.891 286.738 196.712 286.165 196.264 286.335C195.915 286.413 180.027 286.861 176.099 287.099C171.058 287.365 177.18 287.225 168.77 287.616C163.473 287.88 166.396 287.433 165.281 287.479C164.34 287.481 145.886 288.867 153.131 288.087C153.121 288.087 153.112 288.087 153.102 288.088ZM99.8746 288.92C100.577 289.124 101.414 289.367 102.428 289.658C101.569 289.418 100.705 289.169 99.8746 288.92ZM56.8209 395.445C58.8347 395.033 56.7424 395.396 54.9561 396.217C54.8592 396.261 54.7965 396.291 54.8021 396.29C54.812 396.284 54.879 396.264 55.176 396.078C55.3561 395.957 55.5339 395.855 55.9727 395.459C56.3305 395.088 57.099 394.486 57.728 392.696C58.4834 390.81 57.7207 387.917 56.9839 387.019C56.648 386.498 56.2593 386.083 56.0223 385.86C55.7958 385.645 55.5942 385.484 55.4194 385.355C54.7812 384.905 54.5984 384.864 54.4751 384.8C54.348 384.745 54.3383 384.744 54.3454 384.745C54.3701 384.753 54.5163 384.797 54.6989 384.843C55.4383 385.033 56.5795 385.255 57.6521 385.446C59.8319 385.834 62.0562 386.174 63.5658 386.424C63.5987 386.462 61.5468 386.202 59.015 385.802C57.755 385.601 56.3306 385.356 55.1975 385.101C54.9168 385.038 54.6615 384.975 54.482 384.925C54.32 384.886 54.1445 384.801 54.4977 384.955C54.5744 384.991 54.7597 385.079 55.0062 385.233C55.1086 385.296 55.3313 385.442 55.5581 385.626C55.7927 385.821 56.0439 386.019 56.4819 386.548C57.1983 387.154 58.5574 390.45 57.575 392.75C57.196 393.82 56.775 394.369 56.4084 394.819C56.0944 395.188 55.8417 395.414 55.6338 395.587C55.2689 395.884 55.065 395.999 54.9518 396.068C54.8291 396.139 54.7819 396.162 54.759 396.173C54.7197 396.192 54.7927 396.157 54.9068 396.106C55.4975 395.841 55.7584 395.757 56.1315 395.638C56.4741 395.533 56.7409 395.464 56.8209 395.445ZM92.1094 286.23C91.1095 285.674 90.7119 285.325 90.2902 284.914C90.6779 285.325 91.3762 285.922 91.9308 287.628C92.5304 289.333 91.9909 291.743 91.3077 292.732C91.0234 293.214 90.7059 293.596 90.4682 293.845C90.2542 294.07 90.0606 294.242 89.8912 294.379C89.581 294.627 89.393 294.74 89.2424 294.83C88.9763 294.985 88.8694 295.027 88.8082 295.056C88.7495 295.082 88.7428 295.085 88.7512 295.083C88.8044 295.068 89.0373 295.005 89.2 294.969C89.5454 294.891 89.7411 294.86 89.69 294.882C89.6537 294.901 89.3773 294.973 89.0544 295.072C88.9057 295.116 88.7135 295.189 88.8051 295.161C88.8322 295.152 88.8939 295.129 89.0102 295.073C89.1487 295.003 89.3273 294.926 89.7487 294.626C90.1325 294.212 91.1228 294.035 92.1011 291.126C92.5319 289.67 92.2428 287.738 91.6978 286.684C91.192 285.638 90.7049 285.158 90.3752 284.826C91.1015 285.749 94.8655 287.472 99.8746 288.92C96.0871 287.755 95.5683 287.926 92.1094 286.23ZM339.019 368.29C339.663 368.228 340.071 368.209 340.13 368.257C338.442 368.417 338.282 368.405 339.019 368.29ZM374.52 363.67C386.664 361.844 361.93 365.218 362.116 365.3C362.194 365.339 374.033 363.747 374.52 363.67ZM196.794 310.225C197.81 310.369 183.119 308.953 201.047 310.937C202.358 311.063 203.842 311.196 205.528 311.332C203.363 311.113 201.942 310.949 201.057 310.842C199.193 310.613 199.769 310.658 201.064 310.784C202.889 310.964 206.16 311.255 206.065 311.222C205.91 311.169 203.922 310.972 201.078 310.653C194.159 309.937 182.078 308.071 178.632 307.388C174.779 306.996 193.205 309.858 196.766 310.221C196.776 310.222 196.785 310.224 196.794 310.225ZM326.457 290.53C323.371 290.49 313.639 289.866 307.067 289.464C310.143 289.512 319.872 290.144 326.457 290.53ZM176.236 56.9922C220.471 62.668 226.367 63.4604 185.654 58.527C184.813 58.4446 173.585 56.6678 176.236 56.9922ZM195.517 118.722C191.277 119.001 205.208 117.255 214.39 116.232C216.475 115.999 224.159 115.303 215.416 116.42C215.652 116.099 202.109 117.645 195.517 118.722ZM90.7088 294.424C93.5641 293.698 102.115 292.638 109.164 291.93C111.446 291.696 113.594 291.484 115.355 291.31C114.029 291.485 111.818 291.735 109.175 292.03C103.039 292.71 94.6445 293.673 90.7088 294.424ZM323.252 71.9707C327.928 72.4255 331.231 72.5382 330.392 72.4395C326.709 72.0017 317.852 71.3496 323.252 71.9707ZM124.696 295.882C125.275 296.149 107.685 291.743 106.536 291.168C110.275 292.192 124.271 295.729 124.696 295.882ZM314.06 289.728C311.235 289.51 325.848 290.299 330.299 290.589C329.93 290.678 315.907 289.874 314.06 289.728ZM356.689 98.2674C352.431 98.9296 341.757 100.399 340.678 100.622C339.196 100.946 354.768 98.7408 356.689 98.2674ZM163.287 2.32834C162.754 2.27525 179.196 2.47591 186.527 2.75573C200.432 3.28743 163.824 2.37023 163.287 2.32834ZM278.394 68.0551C265.041 66.6713 279.878 68.181 279.299 67.9202C270.31 67.1238 247.957 65.0907 263.306 66.6823C266.295 66.9915 274.208 67.6712 278.394 68.0551ZM290.724 69.2159C292.136 69.2727 301.846 69.9205 293.475 69.1937C289.656 68.8629 283.381 68.5452 290.724 69.2159ZM265.25 5.17541C277.26 5.70671 222.126 4.01382 220.572 3.93774C219.732 3.89647 219.18 3.8645 218.866 3.84184C216.83 3.84148 206.446 3.55282 205.222 3.36991C208.375 3.47289 216.869 3.70468 217.852 3.74941C218.283 3.76879 218.603 3.78456 218.824 3.79757C222.488 3.7745 262.948 5.07317 265.25 5.17541ZM356.534 8.03461C356.308 8.03224 356.085 8.02975 355.864 8.02715C342.739 7.88201 340.344 7.36497 341.524 7.38487C356.51 7.63862 346.726 7.69027 347.217 7.72067C347.88 7.75921 353.698 7.85619 355.866 7.93803C356.806 7.97286 357.188 8.00585 356.49 8.03329C356.504 8.03373 356.519 8.03417 356.534 8.03461ZM283.96 5.79398C283.332 5.78167 271.885 5.43531 271.344 5.41242C261.871 4.98233 294.617 5.97211 283.96 5.79398ZM225.466 285.53C233.68 285.681 225.618 285.725 220.164 285.649C219.716 285.646 218.222 285.43 225.466 285.53ZM297.313 69.7537C299.187 69.8935 348.161 74.5911 345.274 74.1777C341.063 73.5894 285.444 68.4758 297.313 69.7537ZM94.5883 131.348C103.106 130.092 93.8253 131.668 89.3871 132.329C87.7574 132.566 92.4522 131.662 94.5883 131.348ZM148.377 301.805C157.103 303.638 155.207 303.677 147.701 301.814C147.406 301.74 148.035 301.732 148.377 301.805ZM162.969 122.531C133.362 126.375 140.336 124.699 178.813 120.21C177.61 120.393 176.413 120.575 175.223 120.756C219.668 115.412 178.247 120.431 167.393 121.82C163.241 122.351 166.726 122.048 162.997 122.529C162.988 122.53 162.978 122.531 162.969 122.531ZM111.75 124.725C133.654 127.201 106.81 124.265 85.6317 123.059C84.8405 123.016 84.0734 122.973 83.3704 122.922C82.7071 122.878 81.9017 122.788 81.8336 122.766C81.84 122.768 81.8826 122.775 81.9868 122.804C82.0712 122.831 82.3328 122.889 82.8377 123.146C83.1313 123.31 83.7975 123.627 84.5897 124.587C84.9057 124.964 85.6107 126.015 85.79 127.347C86.0115 128.646 85.5967 130.106 85.2315 130.762C84.6449 131.878 84.0601 132.335 83.6913 132.636C83.4712 132.804 83.4242 132.83 83.3299 132.892C83.2456 132.947 83.1721 132.99 83.1075 133.027C82.8458 133.174 82.7397 133.212 82.6994 133.23C82.6504 133.25 82.6368 133.254 82.6483 133.251C82.67 133.243 82.7422 133.22 82.8551 133.188C83.2506 133.074 83.9234 132.92 84.4745 132.805C86.9394 132.296 89.2055 131.931 91.0186 131.626C88.3889 132.096 85.492 132.606 83.2902 133.167C83.029 133.235 82.8038 133.303 82.7076 133.338C82.6655 133.352 82.6578 133.363 82.801 133.303C82.8822 133.266 83.065 133.188 83.3675 132.998C83.4549 132.942 83.4933 132.919 83.6575 132.8C83.8214 132.679 84.0152 132.524 84.2412 132.303C84.4664 132.081 84.7268 131.793 84.9966 131.387C85.1309 131.184 85.2666 130.952 85.3939 130.685C85.5805 130.297 85.7648 129.786 85.8659 129.229C86.0899 128.109 85.9035 126.753 85.4567 125.793C85.3491 125.551 85.2286 125.326 85.1082 125.129C85.0204 124.985 84.9305 124.852 84.8406 124.729C84.6606 124.482 84.4809 124.276 84.3107 124.102C83.6413 123.422 83.0634 123.137 82.8544 123.025C82.4064 122.8 82.1591 122.735 82.0507 122.7C81.838 122.639 81.8394 122.647 81.8701 122.649C81.9514 122.661 82.1829 122.688 82.4101 122.707C83.4015 122.794 84.586 122.842 85.6407 122.89C91.8728 123.171 94.315 123.278 85.6504 122.708C84.6822 122.645 83.5347 122.578 82.5136 122.47C82.2701 122.443 82.0276 122.41 81.9291 122.391C81.8904 122.384 81.8693 122.37 82.0859 122.426C82.1651 122.45 82.431 122.511 82.9137 122.744C83.07 122.827 83.7382 123.127 84.4929 123.887C84.8997 124.342 85.2472 124.615 85.8095 125.905C86.2974 127.058 86.3738 128.662 86.0145 129.837C85.931 130.134 85.8299 130.406 85.7203 130.653C85.6034 130.912 85.5597 130.99 85.4765 131.143C85.3242 131.417 85.1674 131.65 85.0161 131.85C84.7124 132.251 84.4346 132.523 84.2006 132.729C83.6756 133.173 83.5692 133.205 83.3954 133.319C83.0861 133.503 82.9129 133.571 82.8688 133.592C82.7338 133.649 82.7756 133.63 82.8362 133.614C82.9985 133.567 83.2617 133.5 83.5803 133.427C83.3004 133.494 83.0588 133.558 82.8856 133.611C82.8097 133.633 82.7572 133.653 82.7981 133.638C82.8236 133.628 82.8641 133.614 82.9696 133.566C83.1071 133.501 83.3277 133.402 83.7148 133.136C83.9726 132.951 84.4664 132.603 85.0331 131.864C85.1751 131.676 85.3221 131.459 85.4657 131.207C85.5375 131.081 85.6083 130.946 85.6767 130.802C85.7797 130.585 85.8814 130.335 85.9675 130.069C86.3309 129.014 86.3785 127.539 85.9943 126.361C85.8205 125.782 85.5301 125.218 85.3124 124.881C85.1214 124.58 84.9242 124.327 84.7347 124.112C84.354 123.683 84.0095 123.405 83.7232 123.199C83.4478 123.001 83.1608 122.842 83.0444 122.782C82.9164 122.716 82.8055 122.664 82.7082 122.621C82.3194 122.454 82.1374 122.413 82.0606 122.39C81.9693 122.366 81.9266 122.358 81.9155 122.355C81.8834 122.351 82.1105 122.386 82.3284 122.408C83.2934 122.508 84.5193 122.569 85.6545 122.63C115.346 124.559 101.129 123.917 102.627 123.98C104.49 124.148 110.545 124.593 111.75 124.725ZM124.457 127.227C126.129 126.991 138.543 125.518 142.99 124.944C136.724 125.904 113.564 128.748 124.457 127.227ZM404.241 26.6678C405.241 26.3661 407.756 25.9164 417.588 24.447C414.574 24.9984 408.318 26.0046 404.241 26.6678ZM85.5441 389.953C92.2691 390.77 105.684 392.266 101.585 391.669C101.137 391.625 85.5729 389.887 85.5441 389.953ZM316.826 103.348C315.395 103.531 278.26 108.157 291.1 106.716C294.959 106.3 328.774 101.992 316.826 103.348ZM246.278 65.2804C249.394 65.5756 262.051 66.6975 262.324 66.6849C263.191 66.6471 247.648 65.299 246.278 65.2804ZM119.535 393.752C120.426 393.883 141.047 395.742 138.777 395.451C134.486 394.967 116.477 393.413 119.535 393.752ZM255.392 285.933C257.123 285.992 259.397 286.242 259.998 286.269C261.4 286.261 293.056 287.826 280.953 287.404C278.923 287.19 233.42 285.296 227.525 285.447C225.241 285.167 244.654 285.736 249.386 285.922C250.217 285.947 250.76 285.777 255.377 285.933C255.382 285.933 255.387 285.933 255.392 285.933ZM400.828 9.41193C399.478 9.4974 362.03 8.45102 362.489 8.30195C375.333 8.66543 388.092 9.02979 400.828 9.41193ZM419.82 10.0686C427.83 10.458 409.075 9.81268 403.6 9.61013C403.588 9.51294 418.656 10.0015 419.82 10.0686ZM316.85 72.1289C320.601 72.4373 309.087 71.1852 311.674 71.3819C313.28 71.5008 321.7 72.3479 324.366 72.5376C325.131 72.587 316.628 71.6068 314.117 71.3894C310.627 71.0836 314.006 71.5395 310.189 71.1953C297.44 70.0493 286.249 68.9648 274.334 67.9081C273.26 67.8132 281.589 68.6587 272.415 67.8423C271.008 67.7159 262.506 66.8075 251.559 65.8275C227.348 64.0094 209.547 62.1238 179.234 58.2032C180.336 58.5101 203.05 61.4139 204.453 61.5122C229.934 64.477 275.944 68.4574 302.883 70.8579C309.77 71.4743 306.429 71.0723 309.422 71.3375C311.79 71.5493 308.928 71.4781 316.85 72.1289ZM81.9609 389.633C85.1421 390.215 96.4003 391.393 103.624 392.162C101.111 391.73 88.965 390.529 81.9609 389.633ZM269.891 44.1856C267.835 44.4329 263.304 44.9478 259.6 45.3712C256.825 45.6887 254.513 45.957 254.116 46.0273C253.604 46.1182 256.316 45.8353 259.61 45.4644C264.015 44.9693 269.468 44.3101 269.891 44.1856ZM416.235 268.009C415.916 267.737 407.903 263.42 407.613 263.324C404.066 261.473 408.31 263.493 412.374 265.702C416.444 267.894 420.385 270.473 416.235 268.009ZM218.311 195.942C211.8 194.024 205.143 192.467 202.988 191.796C207.157 192.734 219.124 196.016 218.311 195.942ZM174.675 178.128C173.304 177.91 193.299 178.267 197.069 178.329C195.684 178.403 175.689 178.284 174.675 178.128ZM402.716 26.2513C414.842 24.4622 412.226 24.5504 419.963 23.4695C421.266 23.2615 425.383 23.316 412.005 25.1356C409.591 25.4509 418.963 23.9081 402.716 26.2513ZM185.084 119.446C188.181 118.93 197.79 117.791 204.319 117.003C202.88 117.279 189.722 118.865 185.084 119.446ZM156.773 397.171C162.462 397.859 188.798 399.448 182.291 398.89C181.367 398.846 160.461 397.499 156.773 397.171ZM120.866 290.173C129.117 289.282 117.924 290.245 109.091 291.254C106.399 291.558 103.938 291.863 102.299 292.093C103.461 291.95 106.112 291.649 109.1 291.338C114.293 290.791 120.388 290.224 120.866 290.173ZM105.291 177.433C105.814 177.425 115.872 177.478 117.667 177.5C117.78 177.501 117.855 177.502 117.887 177.502C120.55 177.563 119.811 177.587 117.666 177.589C112.177 177.586 97.7546 177.509 105.291 177.433ZM283.951 217.221C280.294 216.162 258.232 209.15 250.071 206.4C249.267 206.13 248.611 205.907 248.114 205.735C248.575 205.869 249.24 206.07 250.093 206.334C259.282 209.174 288.51 218.502 283.951 217.221ZM352.886 33.3952C361.5 32.2148 369.758 31.1039 377.686 30.0349C376.016 30.3887 353.819 33.3585 352.886 33.3952ZM147.669 177.719C148.284 177.726 148.884 177.744 149.476 177.751C148.858 177.74 148.255 177.729 147.669 177.719ZM160.37 58.8549C157.213 59.7961 156.919 60.2988 157.148 60.1515C157.358 60.03 157.16 60.2628 157.165 60.2568C157.155 60.2314 158.533 59.604 159.551 59.2836C160.739 58.8844 161.799 58.5847 162.577 58.3616C164.046 57.9667 163.99 57.8469 160.37 58.8549ZM90.197 390.881C92.6819 391.346 104.856 392.559 111.877 393.303C109.85 392.974 95.8216 391.524 90.197 390.881ZM142.395 127.918C151.545 128.975 114.3 125.628 106.441 124.898C105.861 124.675 141.109 127.739 142.395 127.918ZM88.4881 294.057C88.4616 294.051 88.3322 294.087 88.3792 294.061C88.3995 294.05 88.426 294.038 88.5167 293.99C88.6089 293.939 88.7451 293.876 89.0588 293.646C89.2131 293.531 89.4639 293.334 89.7608 293.006C90.1036 292.607 90.5698 292.064 90.9136 290.9C91.2747 289.758 91.0816 288.145 90.6287 287.252C90.2146 286.373 89.8037 285.969 89.5339 285.698C90.4739 287.409 99.8879 290.222 97.3885 289.353C95.9628 288.912 90.4453 286.823 89.6072 285.622C89.9262 285.96 90.4942 286.457 90.9596 287.833C91.4616 289.205 91.1023 291.199 90.528 292.094C90.2936 292.514 90.0529 292.821 89.8352 293.063C89.6414 293.275 89.4955 293.407 89.3532 293.528C89.0592 293.77 88.9411 293.837 88.801 293.924C88.3654 294.172 88.3987 294.118 88.389 294.124C88.4166 294.102 88.5264 294.056 88.4881 294.057ZM87.5566 123.449C87.0053 123.426 86.3304 123.393 85.6161 123.353C84.6602 123.301 83.6143 123.238 82.7493 123.153C82.3305 123.112 81.9143 123.055 81.7955 123.025C81.774 123.019 81.7714 123.015 81.85 123.032C81.9208 123.053 82.0736 123.067 82.5766 123.295C82.72 123.376 83.4136 123.639 84.2445 124.561C84.4633 124.815 84.6413 125.033 84.9064 125.496C85.1893 125.998 85.4343 126.639 85.5405 127.338C85.8066 128.713 85.2346 130.343 84.9318 130.807C84.2986 131.914 83.7351 132.292 83.398 132.555C83.1723 132.717 83.036 132.794 82.9193 132.86C82.684 132.987 82.6332 133.003 82.5969 133.022C82.5624 133.038 82.5606 133.04 82.5778 133.037C82.6062 133.032 82.6727 133.016 82.752 132.997C82.915 132.96 83.0402 132.938 83.1327 132.924C83.3292 132.895 83.1752 132.949 82.8286 133.063C82.6722 133.113 82.5275 133.175 82.655 133.13C82.6914 133.115 82.7394 133.099 82.8972 133.02C82.9721 132.982 83.0653 132.932 83.183 132.86C83.3177 132.773 83.3792 132.751 83.7418 132.463C84.0551 132.199 84.49 131.813 84.953 131.053C85.3994 130.595 86.209 127.727 85.3254 126.034C84.9121 125.087 84.6268 124.794 84.3191 124.427C84.017 124.09 83.7397 123.858 83.5024 123.681C83.2644 123.505 83.0639 123.384 82.8946 123.291C82.7648 123.221 82.6837 123.181 82.595 123.14C81.905 122.842 81.8913 122.894 81.8247 122.867C81.7918 122.861 81.8333 122.87 81.9064 122.882C82.0371 122.903 82.2669 122.933 82.51 122.96C83.4928 123.067 84.6881 123.158 85.622 123.241C87.0461 123.365 87.9529 123.466 87.5566 123.449ZM370.636 78.4881C370.732 78.509 370.903 78.5447 371.132 78.5929C371.392 78.6477 371.733 78.7205 372.109 78.8046C372.492 78.8905 372.885 78.9811 373.361 79.0994C373.891 79.2315 374.439 79.378 374.987 79.5422C375.638 79.7411 376.249 79.9355 377.084 80.2913C377.548 80.4951 377.957 80.6875 378.519 81.0317C378.866 81.2483 379.231 81.5041 379.621 81.8492C379.815 82.0221 380.015 82.2181 380.217 82.447C380.49 82.7552 380.801 83.1694 381.065 83.6612C381.603 84.6334 381.969 86.0783 381.718 87.5343C381.505 88.9416 380.715 90.082 380.377 90.4803C379.944 91.0099 379.523 91.3788 379.131 91.6796C378.905 91.8505 378.821 91.9066 378.678 92.0036C378.546 92.092 378.416 92.1738 378.288 92.2508C377.154 92.9066 376.618 93.0921 375.835 93.398C370.9 95.066 368.014 95.5355 372.448 94.6104C374.095 94.208 375.309 93.8545 376.65 93.3072C376.981 93.1694 377.235 93.0556 377.58 92.8847C377.953 92.6983 378.308 92.4995 378.656 92.2738C378.842 92.1521 378.963 92.0707 379.209 91.8858C379.453 91.7007 379.699 91.4942 379.945 91.2554C380.457 90.7181 380.857 90.3813 381.477 89.0541C382.019 87.8856 382.124 86.1842 381.805 85.0574C381.503 83.8694 380.951 83.0449 380.474 82.475C379.729 81.6213 379.214 81.3001 378.721 80.9776C377.893 80.4766 377.468 80.3131 376.862 80.0541C373.826 77.993 341.063 73.6657 370.636 78.4881ZM350.561 149.03C342.82 148.283 333.458 147.26 325.358 146.432C328.625 146.684 347.326 148.585 350.561 149.03ZM147.252 287.646C145.34 287.478 94.3192 292.382 123.328 289.725C125.021 289.485 152.937 287.344 147.252 287.646ZM402.716 26.2513C401.204 26.4724 399.393 26.7313 397.386 27.0106C399.379 26.7254 401.192 26.4688 402.716 26.2513ZM264.955 44.4328C266.377 44.216 263.399 44.5349 259.553 44.9682C255.918 45.3779 251.517 45.8879 249.492 46.1442C248.699 46.3093 254.801 45.629 259.565 45.0745C262.442 44.7401 264.812 44.4546 264.955 44.4328ZM324.725 146.503C320.065 146.081 311.569 145.15 305.798 144.567C306.755 144.573 322.734 146.206 324.725 146.503ZM211.842 178.083C221.165 178.244 232.638 178.348 232.817 178.24C233.011 178.259 233.463 178.282 234.213 178.309C234.972 178.336 244.951 178.395 249.3 178.478C275.268 179.002 148.979 177.473 222.181 177.998C218.731 178.026 215.294 178.055 211.842 178.083ZM319.167 228.934C324.164 230.721 338.283 235.423 334.651 234.114C332.126 233.162 314.173 227.11 319.167 228.934ZM121.842 176.875C123.408 177.133 137.745 179.463 138.119 179.472C129.917 177.944 114.709 175.612 121.842 176.875ZM357.658 242.683C360.773 243.876 364.837 245.218 364.471 245.067C361.338 243.752 352.436 240.593 357.658 242.683ZM377.551 29.2911C372.654 29.929 357.047 32.2527 353.671 32.8511C353.034 32.9099 351.321 33.1077 348.185 33.4884C348.194 33.4871 348.204 33.4858 348.213 33.4846C344.031 34.3345 217.524 49.7106 302.401 39.6133C305.072 39.2849 301.4 39.6251 312.223 38.2732C312.94 38.1833 313.315 38.2415 315.51 37.9653C320.597 37.3451 347.609 33.8393 353.021 32.9951C353.07 33.0081 353.425 32.9785 354.169 32.894C360.856 32.1473 381.343 28.8083 377.551 29.2911ZM93.279 172.707C96.2007 173.1 105.38 174.344 106.349 174.405C101.806 173.647 86.5493 171.762 93.279 172.707ZM145.631 287.384C139.737 287.715 124.846 289.173 129.354 288.854C132.121 288.605 152.427 286.954 145.631 287.384ZM184.651 188.39C151.182 181.583 176.647 186.783 171.5 185.892C175.891 186.702 180.267 187.53 184.651 188.39ZM321.652 7.74808C327.074 7.93819 320.644 8.01775 314.724 7.6993C312.872 7.59898 318.559 7.64049 321.652 7.74808ZM76.8229 0.76886C81.4474 1.13919 58.8438 0.351322 67.6525 0.440851C68.0675 0.447251 76.497 0.750467 76.8229 0.76886ZM247.887 5.78505C251.513 5.72802 253.991 5.78033 264.341 6.12C248.987 5.72123 263.237 6.2766 247.887 5.78505ZM232.717 178.221C232.777 178.228 232.827 178.234 232.817 178.24C232.751 178.233 232.722 178.227 232.717 178.221ZM387.562 254.675C391.48 256.463 402.447 261.543 399.236 259.904C398.946 259.717 389.225 255.247 387.562 254.675ZM353.671 32.8511C354.233 32.7991 353.953 32.8535 353.021 32.9951C352.975 32.983 353.215 32.9329 353.671 32.8511ZM327.25 231.901C327.695 231.919 310.426 226.102 309.725 225.908C299.737 222.822 320.132 229.445 327.25 231.901ZM143.343 301.85C144.253 302.054 138.462 300.423 134.853 299.65C132.06 299.057 139.933 301.102 143.343 301.85ZM212.688 4.83527C206.914 4.66869 198.859 4.43687 197.352 4.26805C201.209 4.39831 212.812 4.74676 212.688 4.83527ZM85.6673 1.19471C92.4492 1.24177 107.991 1.68802 117.889 1.99642C118.094 2.19635 92.0127 1.33102 85.6673 1.19471ZM393.024 27.1482C392.551 27.2141 378.27 29.2002 380.216 29.0508C383.114 28.837 397.062 26.6367 393.024 27.1482ZM116.281 295.051C110.03 293.539 124.297 297.494 130.938 298.884C134.34 299.624 117.33 295.33 116.281 295.051ZM421.649 272.494C423.246 273.714 423.831 274.348 423.552 274.039C423.296 273.767 422.231 272.784 420.857 271.781C416.719 268.684 409.191 264.817 407.521 264.064C410.783 265.709 417.504 269.416 420.797 271.863C421.128 272.102 421.411 272.313 421.649 272.494ZM145.442 181.264C171.834 186.483 157.551 183.152 152.847 182.34C152.184 182.223 144.797 181.136 145.442 181.264ZM222.949 401.797C226.381 401.88 215.112 401.283 211.622 401.182C211.261 401.173 210.982 401.17 210.811 401.174C210.558 401.181 210.902 401.214 211.618 401.263C214.097 401.434 221.067 401.757 222.949 401.797ZM363.375 178.762C362.263 178.777 361.126 178.791 359.984 178.804C360.838 178.789 361.963 178.774 363.375 178.762ZM350.946 289.723C369.908 290.917 367.955 290.267 369.596 290.333C373.172 290.389 381.486 290.564 388.247 290.339C380.505 290.614 372.78 290.665 365.068 290.581C368.783 290.712 390.263 291.072 406.521 289.738C411.672 289.333 416.173 289.11 420.512 287.847C421.627 287.481 422.787 287.088 424.19 286.025C425.601 285.137 427.243 282.176 426.928 280.134C426.748 278.168 426.131 277.312 425.857 276.784C425.523 276.226 425.335 275.999 425.273 275.916C425.04 275.636 425.132 275.76 425.446 276.231C425.741 276.818 426.549 277.479 426.845 280.179C426.971 281.489 426.427 283.421 425.509 284.55C424.612 285.72 423.665 286.315 422.905 286.74C421.333 287.572 420.103 287.87 418.896 288.163C414.201 289.165 410.063 289.325 409.772 289.385C409.276 289.417 407.836 289.356 406.492 289.344C405.921 289.339 405.339 289.345 404.882 289.373C402.35 290.152 357.945 290.534 350.946 289.723ZM200.713 192.232C198.438 191.677 197.063 191.317 195.932 191.026C194.998 190.784 194.222 190.59 193.317 190.408C192.657 190.277 192.484 190.373 190.208 189.92C192.087 190.317 194.029 190.735 195.905 191.148C197.529 191.506 199.104 191.86 200.713 192.232ZM317.067 288.451C311.734 287.976 335.664 289.441 336.459 289.471C340.541 289.812 321.408 288.861 317.067 288.451ZM335.819 234.979C336.386 235.179 344.806 238.162 349.945 240.04C352.299 240.894 353.954 241.496 353.926 241.455C353.096 241.134 351.705 240.606 349.973 239.963C342.098 237.011 327.789 232.094 335.819 234.979ZM187.371 189.327C181.001 187.952 169.006 185.468 170.343 185.94C170.353 185.941 170.362 185.943 170.371 185.945C176.042 187.033 181.71 188.154 187.371 189.327ZM95.3621 289.645C106.285 293.346 100.497 291.676 91.9552 288.034C89.6368 287.003 93.5023 289.023 95.3621 289.645ZM131.845 299.636C133.737 300.141 146.083 303.126 154.883 304.993C161.017 306.307 165.424 307.131 163.345 306.637C162.615 306.462 159.001 305.726 154.914 304.848C148.96 303.576 141.994 301.985 141.474 301.854C140.142 301.517 146.287 302.794 136.075 300.392C136.655 300.601 130.745 299.35 131.845 299.636ZM104.415 292.613C104.809 292.728 105.197 292.84 105.586 292.949C115.978 295.87 118.215 295.99 109.869 293.833C108.352 293.438 106.761 293.056 105.625 292.799C104.242 292.486 103.527 292.352 104.415 292.613ZM114.547 289.526C113.267 289.644 111.265 289.837 108.964 290.074C103.717 290.621 96.5922 291.424 91.5199 292.409C97.1159 291.467 103.069 290.819 108.975 290.179C113.457 289.701 117.984 289.249 122.504 288.825C123.691 288.626 118.277 289.178 114.519 289.529C114.528 289.528 114.538 289.527 114.547 289.526ZM14.1145 0.299898C23.5702 0.699025 1.78733 0.123562 0.86187 0.0655629C-1.87224 -0.11725 9.89621 0.121777 14.1145 0.299898ZM296.633 407.407C299.269 407.474 300.985 407.654 306.76 407.585C300.942 407.443 295.135 407.286 289.318 407.111C284.788 407.355 293.773 407.336 296.633 407.407ZM318.857 408.508C318.035 408.514 322.524 408.957 311.894 408.656C304.739 408.48 343.754 408.241 350.789 408.324C343.023 408.486 325.9 408.46 318.857 408.508ZM387.221 409.86C387.698 409.896 372.817 410.135 371.134 410.123C362.105 410.092 384.779 409.727 387.221 409.86ZM339.924 410.249C346.872 410.293 331.477 410.439 326.876 410.394C326.434 410.318 338.843 410.248 339.924 410.249ZM109.691 9.36619C117.216 9.87895 123.928 9.4326 112.377 9.22986C111.825 9.22007 109.37 9.34246 109.691 9.36619ZM372.738 410.484C365.785 410.476 381.164 410.256 385.77 410.231C386.197 410.312 373.802 410.489 372.738 410.484ZM114.968 10.2247C124.919 10.7239 121.457 9.9077 120.193 9.84253C115.078 9.5816 97.4414 9.35695 93.8163 9.32293C120.202 9.97232 110.276 9.98947 114.968 10.2247ZM161.044 11.1174C170.32 11.3074 146.634 10.4805 142.109 10.5505C146.716 10.6732 158.37 11.0626 161.044 11.1174ZM217.252 12.9648C222.283 13.1354 237.09 13.6242 239.535 13.5821C234.152 13.4469 219.396 12.9105 217.252 12.9648ZM228.52 13.6278C236.355 14.0071 238.227 13.6146 229.208 13.4873C228.856 13.4823 228.232 13.6109 228.52 13.6278ZM272.304 15.0549C277.458 15.3819 283.233 15.117 274.991 14.8663C272.523 14.7921 271.756 15.0187 272.304 15.0549ZM127.448 11.3541C134.726 11.6393 144.205 11.6018 128.576 11.1191C134.023 11.2281 139.581 11.3404 145.022 11.4493C124.572 10.6885 126.091 11.1617 120.19 10.9745C112.003 10.7143 112.651 10.3785 114.303 10.3147C107.541 10.3377 78.9785 9.5218 62.4462 9.08915C76.9703 9.59672 100.527 10.4304 114.862 10.8995C118.934 11.033 122.932 11.0506 126.418 11.1615C132.002 11.3398 127.039 11.3373 127.419 11.3533C127.429 11.3536 127.438 11.3539 127.448 11.3541ZM329.87 16.7392C344.89 17.3821 335.355 16.6669 326.884 16.4958C326.519 16.4911 329.504 16.7235 329.87 16.7392ZM392.694 411.525C376.37 411.644 382.918 411.356 363.538 411.697C359.055 411.772 353.116 411.878 345.191 412.002C362.844 411.607 346.142 411.811 349.604 411.679C352.374 411.578 362.744 411.549 356.701 411.439C358.189 411.459 360.626 411.462 363.536 411.453C376.355 411.41 399.163 411.134 400.65 410.879C400.635 410.88 400.621 410.881 400.606 410.882C401.59 410.819 399.102 411.479 392.694 411.525ZM217.292 14.1017C222.355 14.7747 224.221 13.992 234.132 14.7148C247.263 14.4592 197.913 13.67 191.954 12.9634C245.529 14.5683 156.608 11.4152 193.934 13.2915C163.175 12.1155 183.85 13.1007 179.098 13.0662C174.015 13.0288 156.6 12.4099 157.456 12.6309C157.465 12.6312 157.475 12.6314 157.485 12.6317C168.196 12.9258 178.758 13.2157 189.472 13.5102C179.055 12.7871 200.833 13.5407 208.196 14.0979C211.251 14.0998 214.274 14.1008 217.292 14.1017ZM157.002 11.9693C158.08 12.0099 181.255 12.6168 179.745 12.4885C176.66 12.3454 143.771 11.4653 157.002 11.9693ZM55.0099 9.13513C63.3406 9.37502 76.21 9.82668 80.7306 9.79667C72.4287 9.5575 59.5545 9.10568 55.0099 9.13513ZM371.596 21.2936C361.134 22.9064 393.419 18.368 384.071 19.5382C383.587 19.6035 372.13 21.2158 371.596 21.2936ZM241.435 14.7187C252.218 15.1913 247.177 14.5329 239.122 14.4339C238.652 14.4282 240.934 14.6969 241.435 14.7187ZM376.399 411.824C376.104 411.883 370.37 411.964 363.542 412.03C354.799 412.119 344.306 412.168 341.388 412.184C343.05 412.111 354.269 411.983 363.54 411.881C370.737 411.806 376.784 411.757 376.399 411.824ZM40.3498 9.18468C56.8886 10.1105 79.3931 10.2342 81.8424 10.3158C84.2986 10.3979 80.4395 10.4846 80.9992 10.506C82.2985 10.5543 108.356 11.2852 109.635 11.3082C110.541 11.3235 105.817 10.9105 111.217 10.9781C100.704 10.8339 53.0115 9.36761 50.5304 9.32728C48.6077 9.2967 63.0626 10.0025 40.3785 9.18551C40.3689 9.18523 40.3594 9.18496 40.3498 9.18468ZM88.0053 10.5531C81.4892 10.2499 99.7764 10.7598 104.187 10.9293C114.002 11.3069 88.8273 10.5904 88.0053 10.5531ZM131.952 11.9213C134.064 12.0079 152.898 12.5725 154.494 12.489C145.575 12.0648 127.213 11.7244 131.952 11.9213ZM341.566 17.97C344.695 18.0519 351.09 18.2759 355.555 18.409C358.391 18.4935 360.426 18.5418 360.713 18.5078C359.476 18.4751 357.655 18.4173 355.557 18.3494C349.785 18.1617 342.188 17.9044 341.566 17.97ZM276.95 412.955C285.104 413.155 266.221 412.952 260.715 412.781C260.423 412.712 276.264 412.949 276.95 412.955ZM243.241 15.8526C246.167 15.9701 305.158 17.5943 313.539 17.7887C305.334 17.4609 246.888 15.7601 244.197 15.7254C243.419 15.7154 242.87 15.8364 243.241 15.8526ZM115.413 12.2269C110.001 12.2382 106.436 11.9361 105.766 11.9144C99.0906 11.6973 85.1719 11.3357 88.2295 11.2629C100.06 11.6669 126.196 12.2055 115.413 12.2269ZM345.79 18.8486C365.872 19.381 327.283 18.0646 332.353 18.3894C332.632 18.4079 343.694 18.7929 345.79 18.8486ZM236.63 15.7102C232.21 15.7163 173.076 13.8972 163.596 13.6253C172.061 13.6203 178.927 14.0063 190.367 14.3228C193.434 14.4074 192.616 14.2805 192.945 14.2898C198.295 14.439 194.289 14.443 197.591 14.5399C199.601 14.5981 242.905 15.7013 236.63 15.7102ZM112.319 12.2535C108.993 12.2535 72.0939 11.2358 70.6067 11.1679C59.508 10.6608 109.443 12.1376 112.319 12.2535ZM242.048 16.0874C235.701 16.1924 206.322 15.152 226.419 15.5877C228.315 15.6293 236.462 15.9895 242.048 16.0874ZM343.631 19.0596C344.144 19.0791 350.046 19.271 355.524 19.4372C360.825 19.5978 365.726 19.7352 365.915 19.6966C364.844 19.6519 360.47 19.5088 355.527 19.3555C346.603 19.0783 336.276 18.7821 343.631 19.0596ZM332.759 19.0498C333.293 19.0634 328.309 18.7398 338.196 19.0532C338.997 19.0791 340.54 19.3225 352.865 19.6151C353.678 19.6344 354.627 19.6452 355.518 19.6503C357.472 19.6642 359.157 19.653 358.97 19.6419C357.98 19.5883 356.822 19.5351 355.523 19.4825C340.531 18.8683 309.393 18.4593 332.759 19.0498ZM111.638 12.3952C113.632 12.5364 108.801 12.647 104.49 12.3971C102.644 12.2896 106.087 12.2388 111.638 12.3952ZM409.934 21.1674C405.878 21.0853 407.423 21.1719 411.432 21.3301C413.461 21.4105 416.028 21.5067 418.812 21.6143C420.193 21.6679 421.616 21.7238 423.04 21.7843C423.778 21.8159 424.45 21.8456 425.149 21.8805C425.31 21.8886 425.485 21.8976 425.654 21.9069C425.808 21.9153 425.985 21.9254 426.133 21.9347C426.27 21.9433 426.432 21.9542 426.542 21.9634C426.591 21.9674 426.638 21.9724 426.614 21.97C426.609 21.9692 426.56 21.9646 426.44 21.9443C426.4 21.9372 426.224 21.9081 425.984 21.8428C425.907 21.821 425.902 21.8217 425.729 21.7665C425.576 21.7163 425.391 21.6491 425.166 21.5463C425.053 21.4949 424.931 21.4343 424.799 21.3617C424.733 21.3254 424.665 21.2861 424.595 21.2435C424.56 21.2222 424.525 21.2001 424.489 21.1771C424.431 21.14 424.357 21.0902 424.289 21.0422C423.732 20.6685 423.121 19.9891 422.857 19.561C422.373 18.8321 421.793 17.5102 421.999 15.8557C422.188 14.3103 422.997 13.2604 423.373 12.8503C423.852 12.3317 424.143 12.1424 424.387 11.9717C424.651 11.7972 424.783 11.7295 424.926 11.6543C425.442 11.4002 425.578 11.3787 425.707 11.3326C425.932 11.2638 425.959 11.2632 425.981 11.257C426.007 11.2514 425.925 11.2684 425.84 11.2836C425.662 11.3164 425.426 11.3572 425.194 11.398C424.724 11.4805 424.239 11.5684 423.77 11.6586C419.923 12.4045 416.815 12.8535 416.308 12.9545C416.717 12.9119 419.906 12.4854 423.788 11.7553C424.259 11.6674 424.745 11.5816 425.215 11.5014C425.447 11.4616 425.683 11.4219 425.862 11.39C425.946 11.3752 426.029 11.3587 426.005 11.3643C425.984 11.3705 425.958 11.3711 425.737 11.4389C425.611 11.4845 425.478 11.5052 424.971 11.7561C424.831 11.8297 424.699 11.8979 424.441 12.0692C424.321 12.1504 424.187 12.2468 424.041 12.3666C423.889 12.4906 423.662 12.6935 423.446 12.9355C423.079 13.337 422.287 14.3749 422.107 15.8862C421.911 17.5029 422.477 18.7875 422.95 19.4999C423.133 19.7839 423.467 20.2085 423.845 20.5454C424.033 20.7155 424.229 20.8671 424.415 20.9944C424.46 21.0255 424.512 21.0597 424.549 21.0832C424.574 21.0988 424.598 21.114 424.622 21.1288C424.669 21.1584 424.716 21.1864 424.762 21.2129C425.132 21.425 425.428 21.543 425.655 21.6236C425.922 21.7147 425.944 21.7151 426.041 21.7425C426.122 21.7641 426.191 21.7802 426.249 21.7931C426.508 21.8472 426.499 21.8397 426.564 21.8504C426.657 21.8629 426.635 21.8587 426.624 21.8576C426.596 21.8541 426.488 21.8449 426.41 21.8389C426.209 21.8236 425.997 21.8101 425.774 21.7968C425.309 21.7693 424.831 21.7448 424.371 21.7222C423.428 21.6761 422.401 21.6315 421.481 21.5927C419.553 21.512 417.715 21.4416 416.02 21.3787C412.728 21.2568 410.311 21.1757 409.934 21.1674ZM257.855 413.803C257.865 413.804 257.874 413.804 257.884 413.804C247.624 413.549 253.983 413.559 253.501 413.546C231.653 412.828 237.44 413.214 234.021 413.158C226.688 412.987 227.884 412.706 215.512 412.352C235.959 412.937 217.349 412.313 216.779 412.158C214.506 411.606 243.976 413.396 254.166 413.448C255.588 413.469 245.111 413.061 248.748 413.102C260.568 413.28 297.219 414.583 257.855 413.803ZM101.158 12.3235C96.3809 12.3341 60.4126 11.1593 69.9535 11.3112C71.4912 11.3358 108.142 12.3085 101.158 12.3235ZM236.107 167.16C244.76 167.128 224.707 166.755 220.984 166.811C219.139 166.839 232.305 167.174 236.107 167.16ZM95.3702 165.321C85.0369 165.355 74.1484 166.018 86.9979 165.826C88.4166 165.803 96.5128 165.391 95.3702 165.321ZM95.5481 135.602C106.17 136.616 105.534 136.229 97.7588 135.61C95.0023 135.401 95.2193 135.572 95.5481 135.602ZM360.819 167.575C359.761 167.585 347.392 167.691 347.82 167.763C352.41 167.809 367.759 167.584 360.819 167.575ZM92.187 135.415C97.1464 135.72 91.4689 135.097 85.0062 134.831C84.1463 134.792 83.2538 134.757 82.3055 134.703C81.826 134.675 81.3294 134.642 80.7871 134.59C80.4832 134.559 80.2298 134.532 79.8387 134.472C79.6494 134.442 79.4895 134.416 79.2071 134.356C78.9187 134.288 78.7485 134.262 78.1699 134.06C78.6595 134.235 78.8483 134.275 79.1006 134.339C79.3439 134.397 79.5438 134.436 79.7046 134.465C80.0535 134.528 80.3404 134.567 80.6157 134.601C81.1669 134.669 81.6446 134.711 82.1458 134.752C83.1188 134.829 84.0702 134.883 85.0005 134.939C88.4271 135.135 91.7683 135.389 92.187 135.415ZM264.214 17.5107C269.493 17.5181 284.658 18.0018 293.29 18.228C294.171 18.4416 270.364 17.6543 264.214 17.5107ZM139.094 165.761C129.302 165.804 150.271 166.105 148.3 165.914C148.06 165.902 139.482 165.758 139.094 165.761ZM346.139 86.7623C348.321 86.9695 347.751 86.8681 346.054 86.6503C342.385 86.166 332.728 85.1696 337.059 85.7429C337.373 85.7763 345.136 86.6443 346.043 86.7522C346.089 86.7572 346.122 86.7607 346.139 86.7623ZM248.528 77.6899C253.88 78.2311 276.712 80.2569 267.838 79.3544C266.454 79.2189 248.944 77.6313 248.528 77.6899ZM233.411 413.274C236.306 413.572 219.465 412.95 217.056 412.796C216.107 412.753 229.637 412.918 233.411 413.274ZM164.86 142.009C170.363 142.525 184.761 144.001 187.242 144.147C180.475 143.491 163.032 141.625 164.86 142.009ZM183.503 166.226C175.019 165.919 160.542 165.783 164.114 166.096C180.119 166.253 162.149 165.825 183.503 166.226ZM101.706 117.723C97.2789 118.326 93.8532 119.109 94.3749 119.044C99.2426 118.434 106.064 117.221 101.706 117.723ZM389.15 164.862C389.326 164.99 403.623 166.457 401.687 166.18C401.085 166.088 388.889 164.74 389.15 164.862ZM403.107 14.3402C396.623 15.1839 416.456 12.2115 422.011 11.3017C424.978 11.07 403.951 14.2679 403.107 14.3402ZM224.439 102.357C225.083 102.11 202.921 104.917 211.673 103.986C213.874 103.751 224.214 102.441 224.439 102.357ZM316.366 84.1747C331.309 85.306 268.667 79.5671 285.11 81.2857C286.309 81.4048 315.056 84.055 316.366 84.1747ZM213.983 74.6178C216.594 74.9041 215.202 75.3537 204.554 73.9805C203.146 73.8 209.748 74.3668 208.607 74.208C207.905 74.1634 184.678 71.3883 183.602 71.1796C182.435 71.0398 183.78 71.4004 182.6 71.2635C181.322 71.1099 167.04 69.0926 159.185 67.148C158.175 66.9039 157.287 66.6693 156.491 66.4406C155.576 66.1773 154.778 65.9195 154.06 65.6594C153.204 65.3488 152.37 65.0012 151.594 64.6035C151.085 64.3419 150.596 64.0578 150.112 63.7258C149.863 63.5539 149.653 63.4002 149.369 63.1685C149.029 62.8885 148.688 62.5718 148.353 62.1996C147.7 61.4326 146.997 60.6031 146.503 58.7397C146.055 56.9921 146.394 55.0971 146.93 53.9298C148.24 51.3281 149.064 51.0519 149.888 50.3339C150.678 49.76 151.094 49.535 151.634 49.2394C152.715 48.6732 153.226 48.4703 153.891 48.1948C156.139 47.3099 156.847 47.1256 157.386 46.9545C161.002 45.8843 166.882 44.7434 173.698 43.5997C198.12 39.5504 231.215 36.118 258.172 33.0323C269.497 31.7534 279.705 30.5812 287.734 29.6923C277.727 30.8646 267.959 32.02 258.187 33.1628C244.39 34.7766 230.638 36.3585 216.52 38.049C223.568 36.8361 181.081 42.6776 205.911 39.2061C203.01 39.5932 194.386 40.6341 183.011 42.3119C177.298 43.1723 170.972 44.1483 164.11 45.6054C160.67 46.384 157.286 47.0578 153.075 48.7914C152.806 48.9084 152.569 49.0159 152.278 49.1566C151.952 49.3143 151.63 49.4813 151.308 49.6636C150.984 49.8474 150.67 50.0393 150.331 50.2707C149.895 50.5697 149.45 50.9125 148.994 51.3478C148.36 51.9403 146.282 54.1139 146.5 57.4576C146.947 61.0587 148.451 62.0272 149.461 63.0061C150.287 63.6842 150.985 64.0879 151.742 64.4791C152.295 64.7609 152.857 65.0083 153.444 65.2405C154.618 65.6983 155.422 65.9507 156.538 66.277C184.267 72.5296 209.696 73.847 213.954 74.6147C213.964 74.6158 213.974 74.6168 213.983 74.6178ZM53.5578 166.666C53.6147 166.653 53.6689 166.641 53.7204 166.629C54.2203 166.512 54.4925 166.45 54.4726 166.441C54.455 166.432 54.1524 166.475 53.7058 166.556C53.3496 166.622 52.8941 166.703 52.172 166.868C51.9855 166.912 51.7804 166.962 51.5214 167.033C51.2409 167.115 50.9819 167.176 50.3558 167.425C50.0224 167.589 49.6715 167.63 48.5247 168.494C48.1656 168.786 47.7264 169.18 47.2492 169.839C46.6659 170.642 45.9289 172.096 45.9932 173.975C46.4731 178.209 48.4912 178.805 48.8835 179.268C49.2007 179.49 49.5046 179.66 49.7024 179.761C49.8839 179.855 50.0461 179.929 50.1944 179.992C50.5163 180.128 50.6671 180.177 50.8541 180.24C51.2198 180.358 51.4227 180.407 51.6348 180.459C54.2168 180.988 55.5809 181.011 57.6385 181.201C65.8917 181.766 76.6163 182.675 78.1907 182.74C75.5111 182.414 65.3098 181.545 57.6514 181.04C56.5013 180.952 55.446 180.864 54.3733 180.749C53.8402 180.691 53.3252 180.63 52.7335 180.537C52.433 180.488 52.1357 180.439 51.6987 180.339C51.6041 180.317 51.4685 180.284 51.3369 180.249C51.2049 180.213 51.0637 180.173 50.863 180.108C50.671 180.043 50.4685 179.975 50.1192 179.821C49.8301 179.684 49.2978 179.463 48.5224 178.836C47.9965 178.378 47.36 177.831 46.7138 176.49C45.9443 174.997 45.9797 172.608 46.5877 171.298C47.2303 169.82 47.7518 169.406 48.1738 168.964C48.6353 168.534 48.8744 168.38 49.1114 168.218C49.6051 167.897 49.8333 167.796 50.0722 167.681C50.3212 167.566 50.4398 167.52 50.5941 167.459C51.13 167.256 51.4057 167.186 51.6504 167.115C52.1303 166.984 52.4392 166.915 52.6978 166.855C53.2078 166.74 53.4798 166.685 53.5578 166.666ZM204.442 165.628C207.458 165.629 210.322 165.288 226.107 165.658C226.121 165.658 226.135 165.658 226.15 165.658C230.765 165.766 225.504 165.798 226.349 165.84C226.656 165.857 241.055 166.205 229.095 166.101C210.857 165.94 227.381 165.803 217.657 165.688C216.465 165.674 198.073 165.665 199.131 165.722C199.25 165.729 204.775 165.749 205.693 165.778C209.153 165.888 207.468 165.986 207.955 165.997C209.541 166.03 238.652 166.162 242.88 166.38C244.256 166.457 196.481 166.041 194.625 165.989C193.453 165.957 193.953 165.638 192.729 165.592C192.092 165.568 172.879 165.472 170.382 165.416C169.655 165.399 169.102 165.384 168.696 165.371C171.609 165.503 154.198 165.309 154.731 165.203C155.023 165.16 167.049 165.314 167.448 165.327C167.635 165.332 167.797 165.338 167.949 165.343C165.504 165.19 206.022 165.656 197.276 165.375C209.038 165.41 195.619 165.623 204.442 165.628ZM260.942 166.052C259.719 166.074 258.518 166.096 257.304 166.118C277.873 166.244 301.596 166.64 325.283 166.715C331.158 166.73 324.744 166.517 331.709 166.573C331.881 166.575 332.06 166.576 332.248 166.578C338.519 166.633 345.555 166.805 342.086 166.857C341.622 166.864 336.887 166.832 331.708 166.792C328.3 166.765 324.605 166.737 322.016 166.732C303.045 166.685 307.811 166.874 306.711 166.877C305.501 166.876 293.543 166.667 287.006 166.615C270.601 166.487 263.098 166.523 240.667 166.136C253.615 166.158 246.522 165.827 260.942 166.052ZM317.957 90.255C318.185 90.1918 319.555 90.002 321.435 89.756C325.97 89.1651 333.538 88.223 336.868 87.7618C336.329 87.9307 327.379 89.0644 321.442 89.8094C320.092 89.9799 318.877 90.1343 317.957 90.255ZM384.403 345.152C388.54 345.481 357.771 341.577 365.864 342.747C367.667 343.006 380.554 344.663 384.403 345.152ZM246.283 328.567C242.177 328.187 258.675 330.051 258.685 329.924C258.636 329.864 246.795 328.604 246.283 328.567ZM338.059 160.429C337.232 160.349 325.937 159.147 325.581 159.101C318.094 158.133 355.372 162.082 338.059 160.429ZM87.3463 281.281C85.3492 281.703 83.7036 282.264 82.8513 282.729C82.6672 282.826 82.6232 282.855 82.7179 282.808C82.8139 282.761 83.0377 282.65 83.2907 282.541C83.8374 282.303 84.4904 282.08 85.1465 281.896C87.7519 281.173 91.4172 280.632 95.2054 280.114C102.751 279.113 110.265 278.336 103.601 278.984C102.936 278.997 88.4373 280.844 87.3463 281.281ZM148.419 274.847C144.943 275.069 129.497 276.271 129.304 276.368C129.001 276.456 146.671 275.091 148.419 274.847ZM104.593 116.615C103.669 116.621 109.909 115.758 116.843 114.867C121.824 114.226 127.142 113.565 130.102 113.176C131.113 113.176 124.086 114.059 116.859 114.988C112.13 115.595 107.311 116.229 104.593 116.615ZM180.753 144.687C172.742 143.906 165.651 143.216 159.469 142.616C108.769 137.776 116.489 138.261 159.486 142.442C167.179 143.201 176.003 144.086 185.834 145.09C185.907 145.232 186.178 145.215 180.753 144.687ZM85.9958 119.271C84.8926 119.519 83.0114 119.838 80.3578 120.474C79.9766 120.569 79.6444 120.655 79.1862 120.789C78.9438 120.86 78.7164 120.931 78.4486 121.024C78.2785 121.083 78.1033 121.147 77.9157 121.221C77.8218 121.258 77.7248 121.298 77.6232 121.342C77.5706 121.365 77.5261 121.384 77.4619 121.413C77.3832 121.449 77.3014 121.487 77.216 121.529C76.8497 121.716 76.5541 121.848 75.8678 122.349C75.4122 122.699 74.8264 123.177 74.1759 124.118C73.7288 124.518 72.2389 127.935 73.3139 130.503C73.5149 131.106 73.8493 131.729 74.0669 132.059C74.2769 132.386 74.4941 132.667 74.706 132.91C75.1312 133.396 75.5298 133.731 75.8776 133.989C76.2248 134.245 76.5345 134.429 76.7894 134.566C76.9608 134.658 77.1173 134.734 77.2621 134.8C77.8187 135.053 78.31 135.194 78.5145 135.251C78.7759 135.324 79.0018 135.376 79.212 135.419C79.3977 135.457 79.5429 135.484 79.6978 135.51C80.019 135.564 80.2421 135.593 80.4852 135.624C82.2742 135.83 83.5768 135.874 84.9465 135.955C87.1985 136.075 89.354 136.2 91.2647 136.328C90.7797 136.335 88.2057 136.189 84.9425 136.03C83.7855 135.968 82.5935 135.92 81.0455 135.77C80.6623 135.73 80.2542 135.687 79.6664 135.589C79.519 135.564 79.3784 135.538 79.2038 135.502C79.0031 135.461 78.7878 135.411 78.5406 135.344C78.3329 135.287 77.9232 135.172 77.4076 134.954C77.2767 134.898 77.1361 134.834 76.9828 134.758C76.9062 134.72 76.8264 134.679 76.7432 134.635C76.6164 134.566 76.477 134.487 76.3299 134.395C75.7508 134.022 74.9509 133.48 74.108 132.27C72.988 131.016 72.3729 127.179 73.4483 125.269C74.1007 123.839 74.7357 123.248 75.2628 122.743C75.5261 122.504 75.7626 122.321 75.9761 122.168C76.1181 122.067 76.2271 121.995 76.3419 121.922C76.5668 121.78 76.7653 121.669 76.9466 121.574C77.1278 121.479 77.2922 121.401 77.4451 121.332C77.5491 121.285 77.648 121.243 77.7434 121.204C77.934 121.125 78.1107 121.058 78.281 120.998C78.6269 120.876 78.7982 120.823 79.0502 120.747C79.3013 120.672 79.4894 120.62 79.6743 120.571C82.5782 119.835 84.5588 119.541 85.9958 119.271ZM420.854 350.155C415.681 349.557 392.064 346.372 396.308 346.837C397.286 346.929 422.911 350.28 420.854 350.155ZM330.909 159.873C332.853 160.275 307.334 157.574 305.374 157.33C297.5 156.341 328.844 159.703 330.909 159.873ZM225.153 101.319C229.638 100.61 242.435 99.1269 250.656 98.1199C246.938 98.7136 232.132 100.469 225.153 101.319ZM165.758 108.482C166.27 108.411 177.733 107.012 178.259 106.955C187.693 105.948 155.197 109.917 165.758 108.482ZM272.053 415.58C271.664 415.583 262.894 415.426 262.588 415.411C254.756 415.127 281.098 415.592 272.053 415.58Z" fill="black"/>
</svg>
