<svg width="306" height="411" viewBox="0 0 306 411" fill="none" xmlns="http://www.w3.org/2000/svg">
<path stroke="#000" stroke-width="1" d="M56.5203 383.688C55.9724 383.6 54.8757 383.41 53.5947 383.179C50.723 382.667 46.8631 381.925 44.8505 381.51C46.4268 381.746 50.3646 382.478 53.6151 383.064C57.2701 383.727 59.8946 384.227 56.5203 383.688ZM264.698 341.279C267.249 341.685 269.818 342.096 272.366 342.505C265.13 341.167 255.409 339.469 248.705 338.235C247.603 338.032 250.491 338.397 247.881 337.928C245.295 337.465 245.755 337.745 241.968 337.099C237.731 336.369 218.333 332.849 211.607 331.715C201.708 330.033 191.734 328.379 181.808 326.83C167.279 324.475 153.348 322.975 138.213 320.882C137.307 320.738 136.402 320.584 135.5 320.424C136.471 320.589 137.378 320.733 138.217 320.859C153.447 322.819 146.596 321.873 138.251 320.642C134.295 320.014 130.101 319.154 127.787 318.659C126.306 318.193 126.044 319.178 104.924 312.777C103.449 312.314 101.877 311.808 100.2 311.256C84.0552 305.736 99.0345 310.533 72.2775 301.123C86.8224 306.724 80.6829 304.589 70.1541 300.693C65.7856 298.769 60.6057 297.942 54.6493 291.695C54.4507 291.458 54.1715 291.112 53.8598 290.683C53.3663 289.987 52.5302 288.698 52.4093 286.6C52.2846 284.461 53.2247 282.614 53.9074 281.739C55.3472 279.963 56.0964 279.756 56.7106 279.364C57.9161 278.732 58.6045 278.531 59.3825 278.274C60.8696 277.811 62.3294 277.479 63.899 277.15C67.048 276.497 70.6571 275.903 74.3923 275.335C81.4011 274.264 88.9297 273.298 93.6994 272.735C97.2947 272.303 102.752 271.522 107.516 271.082C110.804 270.779 113.3 270.664 118.189 270.301C129.063 269.509 139.891 269.061 150.754 269.051C162.672 269.044 174.515 269.572 186.403 270.359C173.089 270.012 196.818 271.238 197.855 271.406C203.255 271.914 178.802 270.236 188.471 270.986C201.988 271.874 215.442 273.1 228.779 274.175C221.454 273.522 230.458 274.143 238.519 274.636C242.536 274.882 246.301 275.069 247.842 275.191C246.743 274.809 264.231 276.321 281.616 274.521C284.425 274.277 287.864 273.775 288.463 273.476C288.481 273.473 288.395 273.5 288.135 273.693C287.889 273.881 287.393 274.298 286.954 275.096C286.504 275.88 286.305 276.987 286.358 277.657C286.399 278.353 286.546 278.702 286.609 278.861C286.753 279.166 286.658 278.919 286.448 278.655C286.231 278.366 285.933 278.021 285.57 277.64C279.682 271.246 274.989 266.999 272.949 265.384C272.22 264.792 274.172 266.516 273.586 266.082C272.914 265.823 270.253 262.371 258.044 255.415C255.352 253.997 256.441 254.423 254.999 253.729C254.137 253.32 248.77 251.231 242.966 249.433C241.415 248.952 248.318 250.639 240.552 248.543C237.375 247.782 231.964 246.52 222.843 244.705C235.715 247.028 180.448 238.769 165.627 230.715C165.129 230.482 164.697 230.279 164.329 230.105C164.751 230.312 165.18 230.523 165.617 230.736C167.386 231.597 169.174 232.377 170.972 233.094C168.87 232.281 167.09 231.509 165.585 230.807C159.563 227.985 157.991 227.327 156.139 226.453C147.954 222.449 137.884 217.978 129.226 215.364C128.141 215.017 127.072 214.684 126.055 214.373C115.648 211.271 115.518 211.516 103.243 208.1C106.153 208.932 109.057 209.779 111.951 210.643C103.484 208.28 94.9475 206.048 86.4025 203.953C106.274 208.539 82.1384 202.84 80.5449 202.545C78.0105 201.968 81.6794 202.67 77.4417 201.71C77.0028 201.62 77.6054 201.863 71.0823 200.449C70.3364 200.29 69.6206 200.138 68.9735 200.002C57.6913 197.709 59.3349 197.961 53.9357 197.029C53.4086 196.975 55.2215 197.251 45.3502 195.927C41.008 195.382 37.9075 195.112 35.512 194.846C34.5517 194.738 33.7396 194.634 32.9644 194.509C32.1358 194.354 31.6083 194.329 30.1424 193.801C29.762 193.641 29.243 193.468 28.304 192.805C27.7633 192.378 27.1829 192.008 26.2999 190.626C25.5159 189.538 24.9379 186.82 25.4338 185.186C25.8955 183.389 26.5186 182.692 26.9811 182.099C27.4231 181.582 27.7083 181.343 27.9807 181.115C28.4441 180.741 28.7268 180.575 28.9079 180.464C29.2633 180.253 29.4083 180.188 29.4329 180.175C29.4592 180.164 29.3985 180.192 29.1693 180.32C29.0482 180.389 28.9292 180.455 28.6679 180.625C28.405 180.807 28.1158 180.973 27.4838 181.576C27.2143 181.844 26.7508 182.319 26.2781 183.115C25.8342 183.839 25.1514 185.421 25.2725 187.256C25.39 189.191 26.2017 190.591 26.9047 191.456C27.5061 192.196 28.1188 192.656 28.4639 192.895C29.972 193.859 30.3975 193.849 30.8899 194.03C31.3307 194.159 31.6915 194.238 31.996 194.3C33.2399 194.543 34.2901 194.658 35.518 194.792C40.1741 195.228 46.1731 195.909 46.7212 195.996C48.3111 196.357 37.6127 193.665 64.2698 198.584C55.315 196.797 54.4614 196.538 53.4429 196.345C52.5382 196.065 37.0735 194.183 35.9775 194.157C35.8439 194.144 35.7164 194.131 35.5945 194.118C33.6424 193.916 32.4608 193.75 31.5595 193.55C31.1141 193.453 30.8071 193.36 30.8418 193.386C30.8676 193.408 31.1685 193.518 31.4749 193.609C32.6762 193.964 34.0504 194.166 33.1575 194.053C32.9204 194.006 32.5914 194.01 31.1691 193.638C31.079 193.612 30.9497 193.574 30.8213 193.532C30.6947 193.491 30.544 193.441 30.351 193.367C30.1716 193.297 29.9339 193.202 29.6181 193.043C29.4717 192.97 29.2739 192.866 29.0292 192.714C28.7789 192.555 28.5579 192.417 28.1301 192.055C27.5865 191.549 25.5583 189.849 25.7463 186.302C26.1739 183.025 27.6181 182.185 28.0808 181.66C29.2459 180.696 29.6084 180.638 29.9925 180.433C31.2647 179.886 31.6712 179.829 32.2784 179.643C40.9503 177.7 51.7171 178.345 55.4455 177.798C64.4062 178.451 51.3408 177.201 33.028 179.602C32.2198 179.853 33.2146 179.537 34.9412 179.272C36.6368 179.013 38.7562 178.86 40.8993 178.754C45.1989 178.546 49.7348 178.507 50.1913 178.494C72.4573 178.273 60.1002 178.067 64.9957 177.81C67.5438 177.69 76.5551 177.974 68.2372 177.624C73.0622 177.632 75.9666 177.662 77.7607 177.688C81.7607 177.722 78.8454 177.798 77.7595 177.829C77.3991 177.838 77.2126 177.846 77.4435 177.853C77.5375 177.855 77.6431 177.858 77.7593 177.86C79.8687 177.936 86.1479 177.691 86.9287 177.653C88.1908 177.619 83.8039 177.909 88.7975 177.738C89.5755 177.71 97.5996 177.113 87.2801 177.532C101.027 176.866 99.9725 176.603 104.659 176.579C114.183 175.129 111.627 176.308 115.427 175.979C125.497 175.048 122.508 174.856 123.042 174.782C126.675 174.296 154.591 171.224 161.532 170.351C158.828 171.003 139.372 172.933 135.052 173.478C120.628 175.337 155.448 171.317 144.998 172.947C149.391 172.319 153.785 171.686 158.186 171.058C166.318 170.41 154.821 171.808 176.643 169.272C180.186 168.63 161.211 171.033 165.004 170.421C167.225 170.046 179.893 168.622 180.145 168.548C180.371 168.444 168.945 169.786 170.736 169.482C174.58 168.678 216.631 164.871 184.67 168.095C193.576 167.184 198.207 167.219 205.973 166.471C211.046 166.142 182.445 167.021 225.284 164.835C226.144 164.918 208.131 165.662 207.68 165.807C207.027 165.877 210.302 166.141 210.872 166.131C211.711 166.134 220.251 165.414 230.618 165.383C243.905 165.41 259.937 165.091 264.996 164.968C262.82 164.783 274.293 164.865 283.329 162.998C290.034 161.658 294.199 158.408 296.066 156.968C296.732 156.492 295.693 157.145 295.146 157.501C294.548 157.884 294.058 158.176 294.442 157.886C294.904 157.546 295.28 157.217 296.379 156.467C296.171 156.649 295.806 156.693 294.736 158.031C294.256 158.636 293.344 160.325 293.449 162.223C293.467 163.95 294.45 165.613 294.878 166.094C295.324 166.653 295.726 166.993 296.047 167.239C296.229 167.376 296.301 167.422 296.393 167.484C296.481 167.542 296.562 167.592 296.638 167.637C296.941 167.817 297.149 167.909 297.246 167.953C297.485 168.058 297.585 168.09 297.64 168.109C297.701 168.13 297.717 168.135 297.72 168.136C297.713 168.133 297.531 168.086 297.322 168.04C296.904 167.947 296.385 167.842 295.806 167.731C294.681 167.516 293.39 167.285 292.036 167.049C289.291 166.57 286.334 166.074 283.308 165.573C277.313 164.581 271.302 163.615 267.366 163.024C264.895 162.654 263.226 162.415 261.911 162.233C258.226 161.728 258.73 161.888 258.332 161.829C254.12 161.199 257.522 161.597 254.895 161.21C250.999 160.631 223.909 156.642 222.561 156.47C222.163 156.419 226.534 157.232 220.656 156.407C219.63 156.264 220.305 156.151 202.826 153.699C181.785 150.752 217.388 156.073 208.623 155.017C195.168 152.752 195.554 153.116 191.894 152.561C190.628 152.369 181.22 150.745 170.964 149.283C178.331 150.303 185.695 151.325 193.061 152.351C185.833 151.257 171.777 149.283 165.819 148.375C162.907 147.931 165.347 148.068 159.02 147.164C157.681 146.975 152.288 146.718 168.869 148.87C170.164 149.243 162.316 147.992 158.646 147.518C158.097 147.447 155.86 147.436 151.239 146.581C150.117 146.377 162.444 147.219 130.897 143.383C129.879 143.26 133.39 143.871 132.396 143.754C131.719 143.673 123.664 142.486 122.813 142.383C121.91 142.273 125.737 142.937 124.663 142.81C119.1 142.15 111.922 140.65 123.331 142.294C119.487 141.69 115.744 141.103 111.895 140.505C113.727 140.929 112.637 140.813 110.482 140.504C107.855 140.124 103.607 139.499 100.735 139.17C67.13 135.786 89.6024 138.344 83.8127 137.88C74.4726 137.327 81.6599 137.193 67.7825 136.465C66.4788 136.479 83.2571 137.446 50.4994 135.769C55.3154 135.933 60.1841 136.144 65.0157 136.406C62.2432 135.852 47.5252 135.626 46.3942 135.63C34.5372 135.325 41.2211 135.5 27.2002 135.179C24.2398 135.265 20.289 132.04 19.6241 129.474C18.7011 126.919 18.8766 125.086 19.0962 123.447C19.5169 120.106 22.0326 115.395 25.1223 111.965C29.7935 107.102 28.9553 108.009 25.7639 111.09C24.2249 112.72 22.1866 115.089 20.5567 118.486C19.7615 120.22 18.9832 122.164 18.8055 124.976C18.7668 126.402 18.7521 128.082 19.8713 130.431C20.8083 132.793 24.4644 135.379 27.1861 135.365C31.8106 135.605 34.538 135.606 34.9026 135.672C34.9288 135.674 32.3288 135.717 27.1769 135.487C23.9705 135.559 19.964 132.081 19.3375 129.542C18.4326 126.985 18.6036 125.22 18.7887 123.668C19.2543 120.626 20.3183 118.414 21.5091 116.363C23.921 112.325 27.1187 109.251 30.1244 106.909C36.2478 102.21 41.7368 100.25 42.189 100.012C45.1187 98.9423 40.5837 100.544 36.0865 103.122C31.5967 105.587 27.3766 109.456 29.4612 107.791C29.9833 106.994 42.7897 97.9481 58.3265 95.549C74.9464 92.737 92.2568 92.9428 98.0475 92.7457C110.696 92.6147 116.421 93.1268 116.477 92.5744C120.041 93.0882 123.183 92.72 124.799 92.7204C144.287 92.735 144.316 92.7856 160.958 92.6053C164.629 92.5592 167.723 92.6744 169.02 92.6264C169.776 92.5971 168.368 92.4514 172.061 92.3323C177.199 92.3541 207.883 91.0922 209.98 90.6499C212.286 90.5914 197.184 91.7451 199.913 91.6654C207.787 91.1533 215.568 90.4199 222.908 89.0898C225.934 88.5352 228.854 87.9971 231.907 87.4255C236.436 86.5723 234.157 87.1165 236.096 86.7454C237.006 86.6478 252.367 83.2473 251.564 83.2503C250.924 83.5411 234.442 86.9946 222.89 88.993C215.082 90.3412 209.588 90.7091 214.845 90.0626C216.468 89.8503 220.693 89.3506 222.877 88.9182C224.159 88.676 224.866 88.5059 224.368 88.49C234.049 86.6937 244.049 84.9792 252.914 82.6063C254.038 82.29 255.045 81.9775 255.91 81.6507C256.311 81.5006 256.708 81.3247 256.857 81.2449C256.939 81.2039 256.96 81.18 256.823 81.2782C256.674 81.4187 256.36 81.5234 255.667 82.5967C255.389 83.0351 254.92 84.061 254.855 85.1985C254.769 86.3619 255.064 87.4729 255.455 88.243C256.199 89.6327 256.755 89.8821 256.9 90.024C257.299 90.2882 256.987 90.0754 256.718 89.9802C256.039 89.7045 255.075 89.4102 253.975 89.1222C249.697 88.0264 244.844 87.2142 240 86.4403C216.432 83.2697 191.544 81.6832 167.179 79.6761C190.253 81.3366 216.363 83.1181 240.025 86.2818C242.485 86.668 244.754 87.0427 247.104 87.4708C248.788 87.7777 252.752 88.5341 255.357 89.3081C256.056 89.514 256.592 89.702 256.921 89.836C257.26 89.9611 257.327 90.0784 256.852 89.6855C256.569 89.4322 256.159 89.0333 255.744 88.251C255.294 87.4135 255.104 86.3758 255.115 85.6739C255.119 84.9571 255.228 84.5816 255.242 84.5255C255.268 84.4713 255.194 84.7208 255.169 85.3774C255.074 86.8884 255.792 88.3341 256.18 88.8216C256.587 89.3812 256.935 89.6421 257.043 89.7274C257.338 89.941 257.267 89.8638 257.115 89.7996C256.95 89.7228 256.733 89.6333 256.414 89.5184C256.147 89.4222 255.83 89.3171 255.458 89.2041C254.086 88.7881 252.441 88.3994 250.745 88.0411C247.344 87.3273 243.751 86.7228 240.046 86.143C223.44 83.8258 204.831 82.5437 189.839 81.2137C189.141 81.1545 191.715 81.2208 189.102 80.9894C184.244 80.5539 168.276 79.5415 165.664 79.285C165.202 79.2353 174.26 79.7497 171.517 79.421C164.498 78.5788 162.602 79.1 156.575 78.631C151.879 78.2677 120.348 75.5324 112.463 75.093C104.085 74.6517 135.721 77.0468 133.37 77.0314C111.973 75.556 90.2915 73.6582 70.0443 71.7885C69.6883 71.7554 72.7817 72.1857 68.2498 71.7784C60.3756 71.0599 58.4153 70.6511 54.4942 70.2089C50.4567 69.7938 35.5976 68.0084 33.7703 67.5894C33.5179 67.5455 36.4308 67.7698 36.9196 67.8276C43.3271 68.6123 45.6594 69.1012 46.1754 69.1729C48.2668 69.4277 50.6424 69.5952 52.4996 69.8018C55.7049 70.1565 57.6179 70.4471 61.8563 70.8779C64.8601 71.1801 61.9634 70.7228 64.8873 71.0163C65.8751 71.126 77.2163 72.5731 78.3067 72.2596C78.2524 71.7134 49.3175 71.1739 19.3555 64.0703C18.7232 63.8079 18.0995 63.514 17.4081 63.0667C17.2351 62.954 17.0578 62.8305 16.8751 62.6914C16.6683 62.5279 16.5938 62.4869 16.1578 62.0769C15.4569 61.3953 14.578 60.3091 14.1824 58.6403C13.3679 54.9047 15.7084 52.4569 16.7706 51.662C17.5271 51.0761 18.1061 50.7754 18.7068 50.4852C20.7698 49.5538 22.1855 49.2582 23.512 48.9201C26.3579 48.2505 28.8004 47.8509 31.2706 47.4625C36.087 46.7215 40.7859 46.1671 44.6202 45.7327C52.5418 44.8474 58.4305 44.3063 60.3638 44.099C52.3829 44.803 44.4324 45.5463 36.3908 46.5567C52.6647 44.5548 72.0248 42.7345 73.4486 43.0562C108.83 39.917 144.696 38.126 179.067 33.2836C203.087 29.3446 227.055 25.0056 250.935 20.3175C261.289 18.2982 255.888 19.7102 272.31 16.27C272.516 16.2266 272.723 16.1828 272.931 16.1388C272.725 16.1768 272.517 16.2152 272.307 16.254C268.068 17.034 263.778 17.8133 259.531 18.5717C261.947 18.1057 266.629 17.1851 272.264 16.0456C278.873 14.6821 287.13 13.1029 293.8 11.3834C294.171 11.2829 294.55 11.1863 294.885 11.1034C295.049 11.0628 295.213 11.0223 295.281 11.0042C295.307 10.9983 295.33 10.9879 295.17 11.0402C295.074 11.0768 294.973 11.0942 294.531 11.3087C294.304 11.44 293.984 11.5361 293.201 12.2445C292.827 12.622 292.196 13.2072 291.71 14.594C291.204 15.9441 291.45 17.8439 291.945 18.788C293.207 21.2769 294.883 21.5887 295.06 21.7233C295.416 21.8619 295.698 21.927 295.756 21.9413C295.964 21.9903 296.059 22.0031 296.095 22.0093C296.188 22.0235 296.175 22.0202 296.161 22.0187C296.126 22.0143 296.02 22.0039 295.928 21.9959C295.718 21.9775 295.482 21.9599 295.247 21.9433C294.77 21.9097 294.263 21.8782 293.776 21.849C292.795 21.7905 291.797 21.7364 290.879 21.6879C288.988 21.5884 287.248 21.5034 285.667 21.4283C282.55 21.2806 280.108 21.1754 278.929 21.1337C278.047 21.1031 276.904 21.3223 266.933 20.9105C258.136 20.5497 256.667 20.282 251.941 20.0408C250.307 19.9578 248.627 19.8878 247.027 19.8255C244.898 19.7431 243.026 19.6801 242.313 19.6434C241.424 19.5968 241.097 19.4566 238.907 19.3425C232.027 18.9856 237.605 19.5754 230.777 18.8808C232.374 18.932 234.144 18.9905 235.769 19.043C227.484 18.6364 216.147 17.9793 228.373 18.3973C230.481 18.4695 228.671 18.5162 230.232 18.5812C237.206 18.8702 242.78 19.0994 247.051 19.2729C267.968 20.129 260.335 19.7252 247.056 19.147C238.891 18.7924 228.356 18.3673 221.072 18.1287C215.595 17.7178 184.572 16.5467 183.578 16.471C182.143 16.3601 187.472 16.4348 180.499 16.0225C179.037 15.9347 137.624 14.3366 152.562 14.7087C155.635 14.7848 175.473 15.6519 180.266 15.8425C169.053 14.9961 142.615 14.4623 139.654 14.3271C127.682 13.7768 162.677 14.9376 135.689 13.7872C114.932 12.9033 134.437 13.9581 126.425 13.7397C121.967 13.6185 98.4894 12.3762 99.1144 12.7678C91.0675 12.4781 95.7816 12.477 94.79 12.4225C93.7892 12.3693 77.9914 11.8338 72.8316 11.5461C72.2106 11.5111 74.1744 11.4011 73.5328 11.3594C72.2941 11.2821 57.0142 10.6966 56.3897 10.6872C55.9985 10.6825 59.6414 10.9976 58.1394 10.9767C56.3849 10.9517 41.6991 10.3134 40.8851 10.3278C39.7376 10.3529 57.885 11.0459 54.8491 11.1082C46.4852 10.7201 32.8648 10.2887 27.3278 10.2128C28.687 10.2253 36.7875 10.5496 39.6097 10.6798C38.2681 10.8978 20.862 10.1841 26.8204 10.2113C23.0364 10.1729 25.6144 10.3395 23.4799 10.3619C22.9218 10.3668 17.5363 10.1529 16.5033 10.158C16.3661 10.1618 21.912 10.4909 20.7989 10.5008C18.7807 10.5186 2.48583 9.83147 1.1491 9.75068C-2.60068 9.52332 10.6875 9.97529 11.8067 9.90591C11.9602 9.89451 0.672147 9.20868 0.497718 9.18165C-0.150866 8.9416 12.4152 9.60808 10.9886 9.35757C7.87553 9.18997 4.77384 9.02283 1.6611 8.85524C13.6705 9.15035 35.8631 10.1556 41.5991 10.1681C23.7946 9.50778 5.18466 8.74098 5.24495 8.24454C5.26555 8.03528 12.9453 8.22536 12.6519 8.15997C11.5228 7.92277 0.866483 7.69577 0.470907 7.66954C0.147166 7.64468 -0.000354381 7.62732 2.48064e-05 7.6163C2.50023e-05 7.61629 2.51982e-05 7.61629 2.53941e-05 7.61628C0.00845036 7.50472 15.1998 8.04376 15.961 8.02371C17.243 7.98523 10.4981 7.33649 10.5103 7.25434C10.7514 7.24757 21.5622 7.6001 17.9219 7.30741C14.2412 7.01161 4.7686 6.62202 4.43941 6.59346C2.63437 6.4327 19.1979 7.02881 19.6915 6.99748C19.9493 6.98197 11.0718 6.46002 10.8105 6.40341C10.5931 6.34842 17.3524 6.52349 20.0222 6.48683C22.0133 6.45989 16.2329 6.14122 17.2511 6.1658C17.9764 6.18414 33.6285 6.8244 34.397 6.83674C35.5431 6.85537 31.8852 6.57692 32.4197 6.56641C33.1802 6.55095 38.2221 6.80326 37.5672 6.72873C37.0868 6.67348 17.5065 5.42929 17.639 5.31569C17.8735 5.12227 38.5952 6.43451 19.3254 4.84751C19.189 4.83668 14.4947 4.70215 14.3627 4.69183C11.4694 4.42644 26.5401 4.81443 8.11967 4.10273C42.3977 5.24488 12.389 3.97172 17.4786 3.83753C19.4425 3.78626 32.7248 4.27385 32.7902 4.25681C31.507 4.0378 27.2624 3.99393 25.8327 3.8539C25.0373 3.77579 36.9367 4.08494 34.2644 3.86153C32.8832 3.74622 20.2716 3.2528 19.746 3.21986C14.7604 2.90803 20.8834 3.04092 19.7914 2.91933C19.0633 2.83797 11.4582 2.52369 11.257 2.50617C10.9408 2.47393 21.2776 2.6868 23.4388 2.70157C25.0788 2.71201 18.9351 2.37297 20.0784 2.39499C26.9658 2.52872 41.5964 3.50086 27.503 2.40002C26.6463 2.33281 21.3101 2.12819 21.152 2.11531C17.8599 1.83192 27.6847 2.21977 29.4465 2.16957C32.4695 2.08253 18.3523 1.62399 30.0973 1.95512C21.2975 1.45864 16.385 1.26402 6.07551 0.881858C34.627 1.93944 44.7113 1.80626 13.0295 0.527738C23.1006 0.947001 22.008 0.595124 25.0113 0.712226C26.8719 0.785107 41.483 1.68664 34.8117 0.72895C33.9778 0.609293 25.0864 0.355435 27.8757 0.293927C49.18 1.20765 28.3419 0.201408 28.3106 0.176965C28.6055 -0.214961 80.6593 2.2394 89.6118 2.55937C100.005 2.93041 109.222 2.98898 111.489 3.08126C118.924 3.3851 112.75 3.29423 114.409 3.42146C116.066 3.54791 137.196 4.1031 138.269 4.16422C142.356 4.39989 138.199 4.42108 138.623 4.44811C143.676 4.77202 172.055 5.78643 179.975 6.15762C179.745 6.02378 163.82 5.35915 173.745 5.56776C185.346 5.81241 186.008 6.3876 186.301 6.42371C206.679 7.26203 227.096 8.104 247.487 8.96377C255.885 9.31848 264.145 9.67056 272.485 10.0371C276.619 10.2191 280.844 10.4077 284.962 10.6C287.053 10.6979 289.113 10.7961 291.234 10.9041C292.242 10.9556 293.34 11.0132 294.384 11.0735C294.908 11.1038 295.449 11.1363 295.995 11.1735C296.265 11.1921 296.537 11.2114 296.857 11.2386C296.999 11.2509 297.174 11.2663 297.38 11.2896C297.497 11.3033 297.597 11.3142 297.804 11.3467C297.88 11.3591 298.052 11.3867 298.28 11.4415C298.35 11.4584 298.654 11.5322 298.982 11.6619C299.182 11.7918 300.674 12.1186 301.753 14.2699C302.2 15.1194 302.41 16.8295 301.949 18.0251C301.508 19.2498 300.947 19.7646 300.605 20.1056C299.899 20.7372 299.584 20.842 299.358 20.9693C298.907 21.1873 298.748 21.2277 298.592 21.2836C298.308 21.3767 298.18 21.408 298.054 21.4423C297.816 21.5051 297.661 21.5426 297.503 21.5825C297.197 21.6591 296.923 21.7296 296.646 21.8053C288.988 23.7863 281.853 25.1373 274.462 26.6976C266.692 28.3017 258.911 29.8695 251.117 31.3995C251.547 31.4995 264.379 28.9589 274.49 26.8342C280.992 25.4777 286.362 24.3021 286.681 24.2469C288.216 23.9926 282.765 25.2319 274.516 26.9597C258.294 30.4127 231.224 35.5553 226.497 36.3316C231.9 35.3937 237.293 34.4385 242.691 33.4635C233.568 35.5791 213.119 38.9252 199.798 41.3632C195.505 42.1559 203.798 40.8488 203.626 40.8847C198.799 41.8653 191.02 43.0899 196.799 41.9232C186.699 43.7967 186.481 43.7033 180.926 44.579C180.022 44.7201 178.938 44.8856 177.547 45.0875C177.105 45.1418 181.029 44.7453 173.749 45.8076C170.293 46.3765 152.09 48.2688 149.645 48.5768C148.678 48.7243 157.931 48.3555 159.049 47.7749C178.904 45.8032 165.371 46.8877 173.075 45.9689C174.039 45.8201 172.527 46.2818 180.993 44.9876C183.391 44.5964 186.57 44.0621 190.861 43.309C189.526 43.707 185.614 44.4275 181.027 45.1924C173.196 46.4968 163.522 47.373 161.064 47.6746C155.617 48.2818 169.741 47.1678 181.044 45.2944C185.752 44.5002 189.882 43.7484 191.628 43.3442C188.947 44.1553 193.901 43.0174 201.056 41.7877C208.875 40.4368 205.483 41.1363 209.71 40.3889C221.273 38.3185 216.425 38.9397 225.991 37.4113C216.59 38.4477 242.256 34.3022 249.724 32.9869C237.635 35.3863 225.526 37.6943 213.391 39.9088C214.082 39.8219 214.797 39.7305 215.495 39.6417C212.293 40.2143 209.102 40.778 205.9 41.3368C206.405 41.212 206.904 41.0884 207.416 40.9622C190.966 44.0865 186.883 44.458 185.534 44.6904C184.06 44.9337 182.581 45.1763 181.065 45.4238C164.409 47.9981 146.067 49.4317 129.877 50.8378C127.222 51.0545 129.059 51.155 109.706 52.5341C103.532 52.9722 109.34 52.3283 102.356 52.9149C93.6446 54.0978 93.8057 53.7008 91.1917 53.9118C83.7624 54.5148 79.2251 55.0192 78.5248 55.0793C69.288 55.8763 55.9801 57.028 45.8934 58.1901C45.7049 58.213 50.9491 57.7735 44.4437 58.4626C43.6698 58.5507 40.3531 58.8241 35.6673 59.3841C33.4543 59.6507 30.6974 60.0137 28.0223 60.5136C26.6665 60.7701 25.3221 61.0639 24.3249 61.394C24.2221 61.4282 24.1366 61.4584 24.0718 61.4822C23.977 61.518 23.9261 61.5411 23.936 61.5338C23.9459 61.5256 24.0165 61.4893 24.1688 61.3809C24.2135 61.3334 24.8166 60.9873 25.44 59.974C26.1018 59.0298 26.5417 56.7851 25.874 55.2135C25.2988 53.6921 24.3498 53.0585 24.289 52.9989C23.8617 52.6844 23.8104 52.7209 23.9883 52.79C26.617 53.8099 32.2587 54.7186 36.7788 55.3195C32.3059 54.6197 27.2109 53.7862 24.2016 52.7202C27.2322 54.7152 66.8349 58.554 57.2231 57.3737C51.5338 56.7215 37.3561 55.3781 36.0624 54.7249C48.2955 57.1799 119.699 62.7741 125.226 63.2297C125.993 63.3028 121.254 63.0599 122.315 63.1591C123.147 63.2402 139.465 64.4724 141.63 64.685C142.919 64.8131 135.698 64.3369 136.281 64.4273C136.793 64.5018 157.18 66.1152 158.367 66.0459C153.33 65.7252 139.271 64.5938 146.669 65.0249C147.627 65.0815 152.517 65.5584 153.683 65.6263C164.417 66.2502 132.405 63.8535 127.465 63.4609C147.541 64.8285 178.684 67.3641 201.97 69.1707C211.405 70.0878 187.935 68.2177 198.662 69.211C220.716 71.2974 204.595 69.5228 205.25 69.5593C210.691 69.8488 229.531 72.3525 229.512 71.851C236.323 72.6783 235.437 72.5877 242.019 73.5109C243.297 73.7064 244.605 73.9057 246.5 74.2158C244.948 73.9141 243.596 73.6576 242.04 73.3765C242.023 73.3735 242.007 73.3704 241.99 73.3674C242.007 73.3696 242.024 73.3717 242.04 73.3739C245.269 73.8041 249.246 74.4297 253.642 75.3867C255.792 75.8686 258.095 76.4059 260.616 77.3095C261.32 77.5692 261.897 77.7937 262.759 78.2134C263.557 78.6479 264.416 78.9616 265.913 80.4557C266.307 80.8816 266.659 81.3019 267.077 82.0373C267.522 82.8271 267.888 83.851 267.984 84.9596C268.091 86.0906 267.891 87.2682 267.527 88.196C267.154 89.1327 266.815 89.621 266.421 90.1412C264.903 91.9422 264.045 92.2294 263.261 92.7086C257.789 95.2491 254.772 95.4506 252.178 96.0999C249.739 96.6009 248.456 96.8068 248.947 96.6856C251.667 95.9534 256.271 95.1146 261.256 93.195C261.99 92.8874 262.571 92.6352 263.45 92.1249C263.654 92.004 263.849 91.8823 264.064 91.7369C264.323 91.5615 264.583 91.3689 264.848 91.1484C265.316 90.753 266.08 90.0672 266.722 88.9087C267.435 87.7921 267.88 85.319 267.301 83.6826C266.715 81.8742 265.998 81.1934 265.401 80.5586C265.251 80.4101 265.083 80.2584 264.958 80.1521C264.845 80.0549 264.734 79.9641 264.624 79.8787C264.405 79.7079 264.193 79.558 263.987 79.4219C263.547 79.1335 263.258 78.9746 262.963 78.8168C260.658 77.6667 259.63 77.4693 259.222 77.316C257.555 76.8314 253.774 76.0538 241.932 74.0674C239.441 73.6471 236.284 73.1888 232.799 72.7052C229.099 72.4915 235.668 73.1814 241.914 74.1797C248.841 75.314 255.124 76.5714 245.875 75.0394C248.135 75.4259 251.826 76.0102 256.537 77.1723C257.701 77.4686 259.011 77.8258 260.376 78.3122C261.169 78.6017 261.852 78.8606 262.832 79.3763C263.224 79.5844 263.915 79.989 264.514 80.4893C265.209 81.1448 266.282 81.8599 266.913 84.3325C267.167 85.457 267.034 86.8445 266.629 87.8539C266.236 88.8436 265.831 89.3727 265.391 89.8917C265.286 90.0122 265.162 90.143 265.076 90.2301C264.992 90.3144 264.909 90.3946 264.827 90.4712C264.661 90.6245 264.497 90.7639 264.335 90.893C264.012 91.151 263.681 91.374 263.454 91.5167C262.397 92.1743 261.594 92.5106 260.791 92.8411C259.16 93.4888 257.836 93.8841 256.334 94.3121C245.039 97.3049 233.333 99.1679 225.039 100.748C220.197 101.627 216.454 102.06 214.956 102.277C214.134 102.351 218.037 102.463 205.906 103.361C200.157 103.747 214.034 102.56 211.379 102.689C203.036 105.39 93.9575 103.804 74.0597 106.057C72.7333 106.159 73.2051 106.006 71.932 106.113C69.9819 106.288 65.2517 106.728 60.5859 107.63C55.895 108.52 51.1463 109.978 48.1174 111.177C54.6202 108.995 51.4622 109.944 46.2179 112.183C40.8583 114.362 34.6948 119.382 33.2956 121.741C31.7247 123.866 31.4035 125.414 31.3878 125.594C31.3525 125.685 31.4435 125.301 30.8834 124.452C30.3527 123.567 28.8627 122.865 28.1284 122.899C28.9329 122.998 30.0862 123.065 31.8519 123.121C50.5738 123.471 79.8766 124.582 94.4186 126.702C93.9802 126.403 102.553 127.356 112.108 128.84C118.909 129.892 126.299 131.056 131.202 131.752C140.389 133.057 153.681 134.661 141.354 132.719C157.174 134.995 173.801 137.306 188.63 139.424C191.08 139.774 187.689 139.417 191.872 140.01C192.254 140.064 192.788 140.01 196.385 140.518C226.032 144.71 211.56 142.888 217.107 143.775C220.192 144.27 222.497 144.63 224.164 144.88C206.891 142.383 186.966 139.55 181.637 138.785C186.137 139.719 219.934 144.281 229.782 145.803C230.121 145.856 228.916 145.839 229.26 145.89C229.267 145.891 229.275 145.892 229.282 145.893C232.963 146.44 256.593 149.851 251.738 148.949C250.454 148.71 239.593 147.112 226.724 145.25C230.214 145.725 227.638 145.17 228.254 145.253C235.7 146.251 253.981 149.107 260.422 150.084C261.929 150.312 261.826 150.183 262.071 150.218C262.691 150.313 263.209 150.396 263.651 150.469C267.56 151.119 266.131 151.134 271.588 151.648C277.496 152.762 270.598 151.714 263.62 150.677C258.182 149.868 252.775 149.071 253.703 149.324C254.083 149.426 257.899 150.017 263.591 150.874C268.502 151.614 274.735 152.542 281.345 153.544C284.674 154.049 288.012 154.559 291.42 155.101C293.108 155.37 294.793 155.643 296.451 155.931C297.311 156.08 298.138 156.228 299.011 156.401C299.418 156.482 299.901 156.582 300.4 156.702C300.678 156.772 300.925 156.83 301.37 156.975C301.494 157.017 301.571 157.042 301.776 157.122C301.976 157.206 302.098 157.243 302.54 157.486C302.764 157.623 302.888 157.665 303.411 158.1C303.641 158.3 303.904 158.559 304.176 158.924C304.511 159.357 305.009 160.257 305.138 161.265C305.303 162.243 305.039 163.517 304.661 164.224C304.568 164.411 304.472 164.577 304.377 164.726C304.297 164.849 304.22 164.959 304.144 165.059C303.992 165.259 303.849 165.417 303.721 165.548C303.592 165.679 303.478 165.783 303.376 165.87C303.29 165.943 303.215 166.003 303.147 166.055C303.012 166.158 302.909 166.227 302.831 166.279C297.675 170.604 290.001 173.54 285.798 174.36C282.403 175.143 280.309 175.396 280.37 175.455C280.12 175.452 279.099 175.555 277.079 175.708C272.495 176.238 253.252 176.815 249.915 176.859C249.363 176.879 249.59 177.183 248.896 177.195C247.85 177.217 239.298 177.229 230.595 177.173C224.778 177.138 218.761 177.435 215.257 177.71C219.876 177.49 224.556 177.347 229.144 177.362C201.199 178.262 205.445 178.716 214.836 178.05C215.309 178.023 215.768 178.009 216.215 177.986C221.345 177.74 227.484 177.631 230.595 177.685C231.972 177.701 232.796 177.712 232.839 177.719C232.91 177.731 232.095 177.743 230.594 177.75C221.711 177.376 186.963 180.584 194.907 179.641C196.217 179.39 218.274 177.862 207.353 178.466C205.426 178.532 191.247 179.87 190.471 179.952C185.494 180.186 216.458 177.339 212.672 177.537C205.173 178.206 195.492 178.962 186.841 179.904C182.895 180.333 181.958 180.593 181.467 180.647C174.209 181.469 178.269 180.87 175.841 181.139C174.545 181.273 160.248 183.249 162.904 182.471C115.636 188.314 149.912 184.26 178.838 181.007C169.72 182.153 151.756 184.183 143.686 185.151C140.793 185.498 142.516 185.462 137.635 186.049C129.605 186.946 97.5401 190.826 77.6538 190.561C72.7309 190.503 68.6913 190.473 66.106 190.461C73.8153 190.429 71.5414 190.246 65.6194 190.244C59.6807 190.256 64.6559 190.485 63.501 190.51C62.8656 190.618 42.2849 190.136 35.6871 191.562C35.4729 191.623 35.282 191.68 35.1551 191.721C35.0447 191.752 34.92 191.816 35.2144 191.682C35.2921 191.645 35.421 191.582 35.63 191.452C35.8737 191.278 36.1952 191.149 36.9101 190.308C37.1015 190.07 37.308 189.775 37.5027 189.402C37.7106 189.008 37.9399 188.424 38.0473 187.79C38.3255 186.522 37.8655 184.795 37.4003 184.085C36.3314 182.424 35.8096 182.382 35.4803 182.119C34.8542 181.766 34.7405 181.771 34.6318 181.726C34.5366 181.695 34.5225 181.693 34.5244 181.693C34.5614 181.704 34.8306 181.756 35.0431 181.788C35.2689 181.824 35.4834 181.853 35.658 181.876C35.3097 181.83 34.9821 181.781 34.7441 181.738C34.631 181.719 34.532 181.697 34.5237 181.696C34.5219 181.696 34.5387 181.699 34.6279 181.728C34.7185 181.763 34.8603 181.792 35.3128 182.03C35.5895 182.196 35.9147 182.327 36.6188 183.039C36.9197 183.353 37.4774 184.043 37.8049 184.983C38.2036 186.038 38.2056 187.446 37.8961 188.41C37.2068 190.387 36.5075 190.697 36.1671 191.054C35.8185 191.34 35.6087 191.458 35.4795 191.534C35.199 191.691 35.1275 191.712 35.0739 191.736C35.0273 191.755 35.0277 191.753 35.0439 191.747C35.1265 191.714 35.4084 191.626 35.6826 191.546C37.6116 190.982 40.3866 190.886 41.7578 190.765C43.2316 190.663 43.8695 190.62 43.7382 190.601C43.6044 190.586 42.7052 190.596 41.1751 190.668C39.6973 190.754 37.26 190.844 35.6169 191.317C35.4302 191.369 35.2539 191.42 35.1182 191.463C34.9937 191.499 34.8583 191.555 35.0178 191.488C35.0627 191.468 35.1316 191.438 35.2752 191.36C35.4234 191.271 35.6159 191.19 36.1006 190.779C36.2272 190.667 36.3689 190.533 36.5241 190.361C36.7032 190.162 36.9214 189.888 37.1299 189.537C37.551 188.889 38.0957 187.336 37.773 185.833C37.4618 184.322 36.7431 183.548 36.3793 183.158C36.1789 182.953 35.9947 182.796 35.8311 182.671C35.6818 182.557 35.5792 182.488 35.4711 182.419C35.2541 182.283 35.1146 182.213 35.007 182.161C34.8966 182.107 34.8053 182.069 34.7501 182.047C34.6261 181.998 34.5601 181.977 34.5198 181.965C34.4396 181.94 34.451 181.946 34.481 181.953C34.8708 182.047 35.9523 182.198 36.9338 182.308C36.9712 182.312 37.0091 182.317 37.0475 182.321C37.0091 182.318 36.9711 182.314 36.9335 182.311C36.031 182.228 35.0376 182.117 34.5213 182.027C34.4711 182.019 34.4306 182.011 34.4441 182.017C34.4609 182.027 34.5078 182.03 34.7964 182.152C34.9682 182.234 35.1956 182.312 35.7224 182.693C35.8752 182.807 36.0615 182.96 36.2598 183.157C36.3607 183.258 36.4594 183.363 36.5735 183.499C36.7071 183.659 36.8448 183.842 36.979 184.055C37.5054 184.757 38.0296 186.654 37.6563 187.976C37.3028 189.388 36.7741 189.924 36.4265 190.335C36.1169 190.671 35.8429 190.879 35.6974 190.984C35.3523 191.227 35.2182 191.283 35.1133 191.337C34.7622 191.496 34.9316 191.404 35.0449 191.369C35.1814 191.32 35.3745 191.258 35.5817 191.193C36.0376 191.051 36.2847 190.985 36.7205 190.897C36.3053 190.973 36.052 191.03 35.5748 191.169C35.3869 191.224 35.2087 191.277 35.0709 191.321C34.9444 191.359 34.8053 191.418 34.9652 191.352C35.0133 191.33 35.077 191.303 35.2291 191.219C35.3809 191.126 35.5703 191.055 36.0958 190.588C36.3293 190.366 36.7466 189.974 37.1568 189.191C37.6318 188.353 37.9571 186.686 37.4979 185.324C37.1039 184.073 36.4359 183.411 36.1217 183.106C35.7249 182.74 35.5047 182.611 35.3112 182.489C35.1059 182.366 35.0051 182.319 34.8994 182.268C34.7952 182.219 34.7252 182.191 34.6714 182.17C34.5574 182.125 34.5044 182.109 34.4685 182.098C34.402 182.078 34.418 182.084 34.4537 182.092C34.8749 182.19 35.9477 182.337 36.9178 182.449C48.0388 183.429 63.2089 186.251 67.9528 187.212C68.9017 187.389 65.5315 186.57 66.0597 186.669C67.3096 186.899 69.283 187.29 71.5536 187.773C78.8779 189.309 89.3243 191.921 89.9611 192.044C90.6744 192.168 83.1392 190.238 85.959 190.851C86.5509 190.977 93.7933 192.909 100.942 194.713C103.596 195.383 102.035 194.837 102.704 195.003C108.276 196.406 104.944 195.723 115.091 198.462C121.113 200.119 125.924 201.322 132.988 203.53C134.639 204.05 136.404 204.63 138.334 205.307C136.347 204.607 134.576 204.015 132.998 203.498C115.792 198.115 122.73 200.164 133.049 203.338C137.7 204.799 143.046 206.666 147.13 208.323C149.296 209.261 147.812 208.09 160.434 214.148C136.573 203.637 160.045 214.227 170.864 219.287C172.427 219.998 173.799 220.54 174.693 220.884C175.072 221.017 175.099 221.267 178.509 222.416C178.808 222.505 178.393 222.296 181.625 223.262C213.324 230.921 193.082 226.055 199.098 227.594C201.691 228.206 217.746 231.083 222.107 231.959C223.113 232.16 222.619 232.172 226.489 232.952C233.04 234.276 238.94 235.473 243.393 236.508C243.606 236.558 243.816 236.608 244.023 236.658C244.556 236.881 244.654 236.66 253.423 239.686C255.873 240.587 258.586 241.694 255.182 240.225C252.033 238.913 247.985 237.515 243.408 236.443C232.222 233.783 218.368 231.247 209.215 229.375C197.613 226.981 234.319 234.015 236.266 234.646C236.967 234.797 229.763 233.315 237.063 234.933C238.82 235.327 240.993 235.797 243.432 236.34C249.985 237.748 258.032 240.625 264.35 244.137C265.086 244.436 271.786 248.832 271.429 248.7C271.252 248.361 260.484 242.385 261.974 243.387C262.209 243.427 269.02 247.232 269.808 247.902C270.843 248.623 273.217 251.043 274.532 252.036C277.895 254.58 275.794 252.813 277.943 254.487C281.331 256.962 289.799 265.15 293.874 269.585C295.857 271.498 297.289 274.021 297.467 274.478C296.333 271.895 295.125 270.769 293.966 269.496C292.799 268.279 291.528 266.917 290.261 265.61C291.792 267.175 293.025 268.484 293.991 269.472C296.142 271.765 297.962 273.864 298.158 277.311C298.206 278.966 297.621 280.302 297.226 280.973C296.816 281.668 296.56 281.936 296.458 282.073C296.254 282.324 296.573 281.993 296.679 281.878C296.782 281.732 296.66 282.096 295.556 283.052C292.983 284.908 292.459 284.679 291.241 285.071C290.079 285.346 288.491 285.651 285.347 286.025C285.125 286.052 284.192 286.165 282.855 286.307C276.184 287.285 258.393 287.561 258.818 287.522C272.98 287.344 267.75 287.508 268.395 287.551C270.89 287.491 274.073 287.197 277.413 286.934C279.644 286.76 281.443 286.584 282.869 286.44C293.124 285.18 285.654 286.323 282.893 286.666C281.835 286.807 281.391 286.877 282.773 286.749C282.814 286.745 282.857 286.741 282.9 286.737C284.799 286.572 288.622 285.937 289.593 285.698C291.114 285.388 292.024 285.143 292.854 284.868C293.705 284.524 294.387 284.474 296.17 282.949C297.235 281.986 297.965 280.644 298.234 279.718C298.522 278.764 298.523 278.235 298.535 277.997C298.518 277.535 298.54 278.24 298.209 279.374C297.894 280.538 296.983 281.89 296.286 282.52C295.578 283.193 295.138 283.431 295.286 283.331C295.945 282.803 297.173 281.829 297.904 279.805C298.643 277.755 298.187 275.605 297.657 274.369C296.533 271.823 295.238 270.578 294.122 269.344C291.615 266.662 289.79 264.58 293.453 268.198C289.874 264.33 289.176 264.035 286.148 260.969C279.947 254.933 289.501 263.742 291.772 266.26C292.767 267.269 293.665 268.201 294.465 269.012C295.831 270.501 297.16 271.643 298.355 274.739C298.945 276.207 299.146 279.354 297.612 281.563C296.177 283.677 294.674 284.337 293.6 284.863C289.355 286.55 286.645 286.537 282.928 287.004C279.884 287.32 276.245 287.654 271.667 287.883C265.355 288.22 257.944 288.28 255.043 288.212C253.587 288.227 242.368 287.438 237.655 287.347C236.477 287.336 235.682 287.386 235.569 287.54C228.954 286.995 218.702 285.574 211.963 285.029C205.91 284.541 207.813 284.986 207.247 284.949C206.374 284.891 199.08 284.276 196.608 284.133C193.715 283.963 195.149 284.173 190.561 283.888C179.152 283.218 179.473 283.013 178.302 282.915C164.723 282.018 170.658 282.75 167.644 282.646C166.509 282.622 159.365 282.308 150.763 282.294C138.151 282.213 122.316 283.154 117.423 283.619C120.772 283.309 124.124 283.032 127.478 282.79C121.465 282.931 115.102 283.738 114.978 283.426C113.8 284.007 101.38 284.811 97.6725 285.286C96.2077 285.458 96.3358 285.532 94.5046 285.752C90.1626 286.269 82.5262 287.248 76.3637 288.194C72.3653 288.796 69.0434 289.393 67.6221 289.697C59.7351 291.646 66.3723 289.902 76.4189 288.554C85.0821 287.302 95.3383 286.16 96.9067 286C93.8358 286.336 84.2742 287.535 76.4569 288.802C66.9969 290.284 60.8991 291.904 69.7621 290.204C71.5713 289.9 74.3905 289.334 76.479 288.946C77.3715 288.778 78.1628 288.635 78.6143 288.565C88.8835 287.023 80.8347 288.39 81.6385 288.294C83.0088 288.119 89.7594 287.008 91.556 286.821C92.1561 286.765 88.3203 287.382 98.1674 286.24C95.4261 286.641 85.3281 287.84 76.5173 289.196C69.8313 290.17 63.8749 291.43 63.3726 291.737C63.2112 291.801 63.4494 291.764 63.5572 291.778C63.6048 291.787 63.5653 291.822 63.4162 291.893C63.3582 291.92 63.2319 291.983 63.3458 291.938C63.3781 291.924 63.4362 291.899 63.5471 291.838C63.6649 291.77 63.8199 291.692 64.1819 291.413C64.5139 291.09 65.167 290.813 66.0748 288.929C66.5099 287.986 66.7913 286.422 66.5303 285.072C66.2818 283.697 65.7393 282.829 65.3604 282.3C65.7188 282.739 65.7628 282.952 67.2276 283.89C68.6514 284.782 71.2347 286.012 74.8002 287.424C74.5627 287.295 74.337 287.17 74.0983 287.039C74.451 287.175 74.7769 287.298 75.134 287.432C86.3907 291.625 97.7897 295.668 109.158 299.226C110.006 299.49 110.848 299.749 111.694 300.005C111.217 299.89 110.076 299.58 109.128 299.322C107.726 298.94 106.76 298.689 109.093 299.432C109.786 299.652 110.758 299.953 112.097 300.353C117.232 301.866 113.491 300.555 113.96 300.69C115.547 301.074 126.326 304.616 140.407 306.899C152.99 308.63 169.722 310.497 184.008 312.866C200.207 315.437 214.275 317.885 220.039 318.862C225.693 319.821 241.457 322.425 242.656 322.637C248.631 323.67 267.261 327.047 276.204 328.677C278.031 329.009 279.429 329.262 280.266 329.41C283.434 329.971 280.45 329.271 283.28 329.793C285.924 330.283 283.155 329.931 283.941 330.081C284.887 330.262 286.781 330.609 289.36 331.09C290.641 331.329 292.117 331.605 293.73 331.922C294.552 332.084 295.404 332.254 296.342 332.459C296.833 332.567 297.308 332.673 297.939 332.839C298.255 332.926 298.597 333.012 299.202 333.229C299.383 333.296 299.509 333.342 299.792 333.466C299.921 333.522 300.059 333.586 300.208 333.662C300.396 333.756 300.609 333.872 300.846 334.019C301.344 334.385 302.225 334.742 303.423 336.679C304.015 337.661 304.409 339.168 304.395 340.254C304.398 341.361 304.214 341.956 304.162 342.196C303.768 343.621 303.436 344.099 303.135 344.65C302.833 345.163 302.551 345.563 302.263 345.937C301.689 346.677 301.098 347.301 300.4 347.912C293.388 353.711 286.451 354.49 279.854 356.194C266.6 359.06 253.762 361.417 248.483 362.365C253.004 361.532 268.85 358.461 279.804 355.964C286.289 354.534 291.315 352.678 291.027 352.721C290.767 352.959 281.613 355.374 279.823 355.713C279.8 355.717 279.776 355.721 279.752 355.725C276.655 356.299 266.73 358.7 261.257 359.671C260.637 359.779 263.03 359.104 253.22 360.937C249.844 361.568 241.032 363.405 232.102 364.861C230.395 365.19 227.73 365.689 224.374 366.309C207.13 369.519 171.614 375.849 154.76 377.894C150.147 378.487 146.989 378.825 146.105 378.96C145.962 379.013 155.796 377.985 149.169 378.832C140.353 379.859 148.237 378.69 137.945 379.532C136.297 379.755 109.149 381.313 107.459 381.629C107.429 381.632 107.406 381.634 107.391 381.636C104.715 381.942 105.371 381.949 107.475 381.823C111.967 381.525 123.194 380.9 122.981 380.939C122.417 381.021 113.723 381.552 107.498 382.1C104.113 382.389 101.412 382.651 101.122 382.672C100.343 382.722 116.759 380.879 96.9978 382.853C99.2703 382.664 101.542 382.485 103.809 382.319C94.5184 383.26 93.5981 383.178 91.3407 383.395C84.3189 384.114 76.7591 385.318 65.5005 386.403C62.5213 386.694 67.4279 385.901 67.0515 385.937C63.492 386.263 59.0474 387.27 53.7758 387.806C53.7388 387.81 53.7018 387.814 53.6649 387.818C53.634 387.821 53.6768 387.812 53.7736 387.793C54.6527 387.618 60.1153 386.685 53.7464 387.621C51.7969 387.928 48.6564 388.38 44.2952 389.326C45.6662 389.05 47.0933 388.801 48.5508 388.565C47.9164 388.696 46.4304 388.975 44.5705 389.393C42.786 389.788 40.2514 390.464 39.7245 390.936C39.6524 390.982 39.6311 390.999 39.7066 390.947C39.7902 390.88 39.9455 390.804 40.4038 390.331C40.7534 389.902 42.0147 388.726 41.9787 386.011C41.7509 383.309 40.5552 382.41 40.1243 381.932C39.9056 381.729 39.7153 381.585 39.5744 381.486C39.4529 381.401 39.3544 381.34 39.2761 381.294C39.1356 381.212 39.0686 381.182 39.0415 381.169C38.9863 381.144 39.0541 381.174 39.1494 381.206C39.5748 381.357 40.3781 381.576 41.1388 381.76C42.7032 382.139 44.3384 382.474 45.8235 382.769C48.8054 383.357 51.1761 383.776 52.0237 383.935C52.5292 384.028 52.9938 384.114 53.4152 384.193C59.7405 385.353 53.5889 384.491 61.729 385.834C56.204 384.699 82.6287 388.78 81.0763 388.719C84.8036 388.998 107.318 392.14 117.94 393.131C124.634 393.842 138.335 394.827 140.466 394.972C143.058 395.175 142.258 395.338 146.947 395.692C147.036 395.699 147.182 395.708 147.38 395.72C150.141 395.904 163.092 396.525 174.582 397.09C176.965 397.214 181.976 397.717 177.529 397.673C169.925 397.624 155.587 396.647 155.763 396.848C155.961 397.129 175.307 397.835 180.523 397.959C204.591 398.662 190.69 398.562 191.308 398.664C192.91 398.889 206.087 399.059 206.627 399.065C208.901 399.16 199.581 399.205 199.426 399.303C199.263 399.454 211.958 399.824 209.07 399.843C204.936 399.895 193.266 399.513 192.522 399.499C182.891 399.44 196.081 400.04 199.722 400.233C200.823 400.297 196.433 400.316 197.346 400.343C211.31 400.736 200.297 399.937 209.584 400.065C217.876 400.153 207.209 400.306 207.524 400.315C207.934 400.338 217.838 400.398 219.4 400.467C220.168 400.551 194.388 400.752 195.461 400.905C203.691 400.999 211.912 401.019 220.133 400.982C220.798 401.233 208.937 401.016 207.728 401.019C205.262 401.051 212.132 401.224 211.839 401.296C211.672 401.346 203.618 401.462 210.899 401.584C213.389 401.622 218.665 401.488 227.783 401.628C196.026 401.836 218.037 401.99 218.97 402.084C219.879 402.172 204.736 402.349 223.122 402.335C223.917 402.804 222.733 402.49 217.501 402.565C211.098 402.633 225.894 402.906 202.484 402.606C203.813 402.87 222.629 402.937 223.633 402.928C224.488 402.943 220.319 403.055 221.807 403.091C239.451 403.466 227.348 403.307 232.439 403.558C232.894 403.591 249.595 403.529 236.889 403.69C213.739 403.938 204.073 403.422 200.171 404.057C217.276 404.596 238.066 403.981 243.242 403.906C251.223 403.801 242.971 404.036 243.946 404.062C244.292 404.073 251.146 403.973 251.247 403.981C256.121 404.452 220.694 404.36 209.511 404.274C212.515 404.371 215.489 404.459 218.494 404.539C214.432 404.537 210.369 404.52 206.305 404.487C225.66 404.753 206.991 404.575 202.16 404.915C201.067 404.996 213.798 404.976 199.282 405.07C209.989 405.254 206.572 405.305 216.256 405.233C216.01 405.425 194.21 405.45 185.604 405.279C215.986 405.999 198.665 405.175 224.925 405.571C229.787 405.358 217.252 405.417 218.283 405.376C221.945 405.26 230.557 405.45 240.9 404.916C242.586 404.827 235.447 404.692 246.01 404.583C246.899 404.574 250.8 404.624 252.725 404.654C253.424 404.664 253.855 404.673 253.832 404.677C253.658 404.707 253.265 404.733 252.726 404.756C250.573 404.851 246.239 404.882 245.992 404.933C245.795 404.984 251.117 404.898 252.728 404.877C253.024 404.873 253.197 404.872 253.201 404.874C253.244 404.907 253.059 404.933 252.729 404.954C251.339 405.047 247.151 405.036 247.932 405.072C248.429 405.096 250.51 405.116 252.731 405.136C258.261 405.184 264.975 405.237 252.736 405.424C250.057 405.463 246.501 405.507 241.8 405.542C247.151 405.447 250.672 405.364 252.734 405.311C256.437 405.214 255.643 405.203 252.733 405.236C248.493 405.287 239.695 405.416 234.218 405.489C231.315 405.528 230.614 405.641 226.497 405.693C221.229 405.761 215.046 405.694 212.312 405.698C209.371 405.693 226.058 406.081 201.918 405.811C214.207 406.243 235.926 405.896 247.986 405.891C250.018 405.894 251.597 405.9 252.742 405.91C257.04 405.942 256.075 406.028 252.746 406.129C245.984 406.353 229.364 406.53 226.701 406.542C225.548 406.556 229.411 406.687 228.641 406.699C227.397 406.756 203.902 406.624 201.599 406.671C199.286 406.769 210.2 406.754 210.923 406.874C211.409 407.016 183.084 406.751 198.417 407.041C208.997 407.265 228.458 406.901 231.751 407.227C216.195 407.348 200.67 407.288 185.109 406.942C193.618 407.287 202.134 407.546 210.639 407.736C193.189 407.664 178.091 407.179 161.497 406.627C201.348 408.596 148.536 406.552 147.947 406.309C147.752 406.362 163.432 407.558 165.958 407.691C161.437 407.552 153.917 407.236 146.676 406.819C131.617 405.946 117.789 404.732 134.446 406.471C129.958 406.036 119.098 405.272 119.228 405.291C120.579 405.708 144.309 407.497 140.425 407.337C135.918 407.223 129.669 406.45 122.773 405.827C87.4905 402.236 97.0124 404.486 61.809 399.033C62.4944 399.181 63.2176 399.335 63.8924 399.479C59.6331 398.793 55.3389 398.069 51.092 397.31C48.0165 396.759 44.9907 396.202 41.8715 395.556C40.3143 395.231 38.7381 394.89 37.0387 394.443C36.1636 394.203 35.3065 393.987 33.9956 393.464C33.6332 393.314 33.2348 393.143 32.6817 392.832C32.3382 392.631 32.0691 392.479 31.5234 392.05C31.2719 391.845 31.0179 391.632 30.6419 391.226C30.4656 391.034 30.2848 390.817 30.1048 390.571C29.9084 390.303 29.6729 389.934 29.4769 389.543C28.5326 388.08 28.5091 384.626 29.3918 383.183C30.1769 381.617 30.8169 381.144 31.2395 380.731C32.068 380.02 32.3839 379.876 32.5992 379.727C41.1956 375.4 45.6572 375.912 51.69 374.658C69.9476 371.901 87.9921 369.801 106.345 368.232C110.537 367.889 114.724 367.607 118.891 367.358C126.335 366.725 139.428 366.057 153.043 364.211C167.233 362.322 182.275 359.658 192.1 357.966C195.979 357.313 215.075 354.012 216.524 353.764C219.199 353.332 204.547 356.034 211.188 354.926C211.7 354.84 216.345 354.006 221.915 352.984C231.596 351.213 244.039 348.868 242.556 349.031C238.938 349.693 227.628 351.884 225.768 352.184C218.061 353.367 249.259 347.918 276.79 342.161C282.814 340.848 289.194 339.064 291.002 337.104C290.969 337.135 290.98 337.121 290.935 337.177C290.911 337.209 290.874 337.255 290.789 337.398C290.704 337.579 290.568 337.672 290.284 338.678C290.251 338.885 289.858 340.045 290.248 341.865C290.458 342.781 290.797 343.504 291.22 344.152C291.582 344.701 291.934 345.082 292.265 345.393C292.793 345.884 293.222 346.14 293.43 346.264C293.553 346.336 293.661 346.393 293.755 346.441C293.83 346.479 293.894 346.51 293.952 346.536C294.389 346.728 294.376 346.701 294.379 346.707C294.34 346.694 294.105 346.631 293.875 346.577C293.393 346.462 292.827 346.34 292.261 346.223C291.145 345.993 290.006 345.773 288.937 345.569C286.771 345.157 284.839 344.803 283.166 344.498C279.802 343.886 277.595 343.498 276.964 343.399C279.161 343.855 281.355 344.312 283.536 344.771C280.232 344.148 276.965 343.542 273.633 342.926C270.663 342.376 267.668 341.824 264.698 341.279ZM42.3442 390.523C41.9144 390.667 41.4024 390.837 40.9672 391.009C40.7528 391.093 40.5666 391.176 40.4503 391.236C40.3158 391.308 40.3349 391.296 40.0638 391.47C39.9787 391.523 39.9682 391.542 40.1782 391.387C40.3799 391.142 40.9025 391.156 42.0195 389.04C42.5548 388.019 42.8623 385.851 42.3284 384.326C41.8605 382.853 41.1874 382.126 40.7917 381.699C39.9784 380.897 39.698 380.822 39.5053 380.695C39.1681 380.517 39.2499 380.575 39.3502 380.606C39.4607 380.646 39.6521 380.709 39.8653 380.772C40.7542 381.037 41.9326 381.319 43.1069 381.58C45.4697 382.103 47.8988 382.567 49.8496 382.911C50.9876 383.111 52.2094 383.308 53.5358 383.512C60.9876 384.661 69.8167 385.618 64.937 385.432C61.1202 384.836 57.2977 384.212 53.5268 383.562C50.5217 383.043 47.567 382.517 44.6828 381.939C43.2585 381.651 41.8116 381.342 40.5809 381.026C39.9928 380.878 39.329 380.671 39.2437 380.634C39.2374 380.634 39.2836 380.645 39.5194 380.777C39.6725 380.869 39.8118 380.94 40.1868 381.235C40.3626 381.379 40.551 381.534 40.8544 381.862C40.997 382.017 41.1477 382.197 41.3011 382.408C41.4683 382.636 41.6741 382.957 41.8484 383.305C42.6981 384.595 42.7189 387.817 41.9261 389.084C41.2286 390.468 40.7237 390.799 40.448 391.079C39.91 391.535 39.9215 391.472 40.0283 391.414C40.259 391.266 40.2728 391.26 40.3725 391.207C40.4626 391.16 40.6075 391.094 40.8023 391.018C41.1924 390.866 41.7476 390.689 42.3442 390.523ZM208.871 369.631C201.225 370.915 207.078 369.478 213.352 368.493C214.048 368.383 219.209 367.878 208.871 369.631ZM127.756 380.639C128.074 380.621 134.814 380.201 135.058 380.18C141.113 379.94 120.806 381.209 127.756 380.639ZM86.8655 292.04C94.836 294.847 89.1763 292.496 84.1883 290.843C83.8721 290.739 86.3417 291.855 86.8655 292.04ZM92.5282 294.051C98.6187 296.544 111.317 299.987 101.365 296.798C100.399 296.501 92.2453 293.949 92.5282 294.051ZM181.59 374.256C182.44 373.999 190.349 372.715 193.72 372.148C193.651 372.274 184.903 373.698 181.59 374.256ZM218.532 318.755C218.185 318.774 245.544 323.535 247.415 323.754C243.096 323.032 218.866 318.715 218.532 318.755ZM147.878 308.204C148.531 308.3 158.105 309.42 157.844 309.317C153.134 308.619 144.773 307.762 147.878 308.204ZM107.526 285.26C108.031 285.223 100.919 285.234 117.685 284.197C120.145 284.054 111.38 284.881 112.258 284.839C114.081 284.72 115.533 284.622 116.691 284.536C108.906 285.166 100.829 286.06 100.049 286.116C96.3601 286.357 107.294 285.264 107.526 285.26ZM180.616 283.655C182.233 283.646 192.548 284.383 194.898 284.61C195.301 284.648 193.525 284.735 198.178 285.075C201.911 285.355 196.348 284.68 203.629 285.301C210.992 285.942 201.133 285.297 201.781 285.365C202.638 285.44 214.049 286.292 213.682 286.399C213.409 286.471 201.2 285.38 198.192 285.18C194.329 284.913 198.997 285.427 192.555 284.914C188.509 284.602 190.774 284.474 189.92 284.398C189.201 284.307 175.06 283.624 180.638 283.657C180.631 283.657 180.624 283.656 180.616 283.655ZM118.797 284.366C118.212 284.418 117.529 284.474 116.691 284.536C117.401 284.477 118.102 284.42 118.797 284.366ZM63.4627 386.747C66.8035 386.368 58.9587 387.512 53.8521 388.287C52.8925 388.431 52.0519 388.557 51.3734 388.652C51.3555 388.626 52.3604 388.435 53.836 388.186C57.2046 387.61 63.0225 386.795 63.4627 386.747ZM126.01 283.657C137.596 283.153 129.081 283.567 118.797 284.366C122.063 284.079 122.117 283.866 126.01 283.657ZM279.823 355.713C280.344 355.621 280.666 355.582 280.719 355.627C280.282 355.705 279.966 355.757 279.765 355.786C279.403 355.837 279.44 355.811 279.753 355.73C279.775 355.725 279.798 355.719 279.823 355.713ZM292.711 332.061C289.33 331.473 289.626 331.574 291.372 331.922C292.231 332.096 293.483 332.339 294.863 332.621C295.553 332.763 296.266 332.911 297.062 333.097C297.464 333.193 297.865 333.287 298.45 333.463C298.777 333.568 299.055 333.634 299.8 333.972C300.173 334.182 300.681 334.285 301.913 335.444C302.532 336.049 303.515 337.349 303.823 339.073C304.119 340.77 303.771 341.814 303.721 342.084C303.259 343.71 302.904 344.123 302.583 344.694C302.262 345.207 301.971 345.596 301.688 345.947C301.126 346.64 300.596 347.164 300.119 347.589C299.708 347.967 299.293 348.325 299.333 348.312C299.339 348.319 299.761 347.98 300.161 347.637C300.656 347.21 301.203 346.68 301.777 345.981C302.066 345.627 302.361 345.237 302.685 344.72C303.009 344.15 303.369 343.724 303.828 342.111C303.879 341.832 304.289 340.593 303.86 338.709C303.637 337.783 303.269 337.025 302.826 336.372C302.467 335.845 302.066 335.418 301.729 335.113C301.171 334.608 300.695 334.324 300.422 334.166C300.095 333.98 299.898 333.889 299.71 333.804C299.005 333.496 298.692 333.415 298.39 333.319C297.81 333.146 297.377 333.043 296.992 332.951C296.193 332.762 295.517 332.621 294.906 332.495C293.7 332.247 292.807 332.078 292.711 332.061ZM76.6875 288.306C76.9248 288.4 75.9691 288.097 74.9987 287.792C73.503 287.321 71.9877 286.848 74.938 287.954C76.3998 288.49 78.9377 289.397 83.061 290.804C73.4378 287.215 83.628 290.895 83.4959 290.791C83.329 290.664 79.4216 289.249 75.0636 287.619C70.5065 285.996 66.1922 283.751 65.8616 283.211C65.4664 282.941 65.668 283.409 67.6363 284.504C69.5669 285.58 72.9283 286.896 75.0406 287.68C75.7353 287.941 76.3078 288.157 76.6673 288.299C76.674 288.301 76.6808 288.304 76.6875 288.306ZM284.632 257.875C286.539 259.327 291.937 264.719 295.238 268.262C295.386 268.415 295.529 268.566 295.667 268.715C295.536 268.587 295.388 268.441 295.221 268.279C293.367 266.498 288.386 261.187 284.632 257.875ZM38.23 59.2725C33.9932 59.8505 30.2555 60.4387 27.3591 61.0688C26.5552 61.2447 25.9265 61.3999 25.3833 61.5509C24.7134 61.7377 24.3171 61.8835 24.1552 61.9541C24.1056 61.9697 24.2141 61.9512 24.6248 61.635C24.95 61.3665 25.5442 60.8772 26.1014 59.7621C26.6687 58.7013 26.927 56.7805 26.4276 55.3383C25.9608 53.8969 25.2246 53.177 24.8193 52.8068C24.538 52.5625 24.41 52.4854 24.2919 52.409C24.0729 52.2757 24.0637 52.2925 24.1741 52.3377C25.3905 52.8419 27.9509 53.3931 28.9752 53.6199C30.2344 53.8929 31.0183 54.054 31.0304 54.0842C31.06 54.1152 30.315 54.0154 29.0454 53.7871C28.011 53.602 25.4393 53.1004 24.08 52.5668C23.9161 52.5099 23.9662 52.4629 24.4765 52.8512C24.642 53.0043 25.8618 53.8678 26.3243 55.9606C26.8187 58.1876 25.7239 60.1858 25.0666 60.8586C24.3095 61.6507 24.2476 61.5679 24.113 61.6773C24.0075 61.74 24.0059 61.7339 24.0838 61.7017C24.2447 61.6347 24.4825 61.5483 24.8729 61.4297C25.7249 61.1762 26.4795 60.9972 27.6662 60.7488C28.5976 60.5561 29.885 60.3209 31.0782 60.1273C31.5298 60.0005 40.2611 58.9284 38.23 59.2725ZM230.349 100.896C227.104 101.247 237.675 99.2937 244.768 97.9193C246.397 97.6122 252.362 96.563 245.599 98.0645C245.759 97.7615 235.341 99.7226 230.349 100.896ZM132.547 283.171C135.721 282.86 145.117 282.671 150.764 282.726C151.112 282.728 151.446 282.73 151.764 282.732C151.482 282.742 151.146 282.752 150.764 282.76C146.608 282.826 136.986 282.994 132.547 283.171ZM114.873 62.6688C118.517 62.9762 120.964 62.9592 120.343 62.8933C117.56 62.596 110.731 62.2207 114.873 62.6688ZM99.0547 285.764C98.5713 285.683 112.293 284.231 113.272 284.431C110.337 284.626 99.4006 285.761 99.0547 285.764ZM291.748 264.854C293.317 266.478 285.032 258.231 282.187 255.948C282.567 255.974 290.862 263.728 291.748 264.854ZM173.404 67.1148C176.645 67.3824 184.823 68.0286 185.7 68.0149C186.85 67.9983 174.891 67.0974 173.404 67.1148ZM125.391 2.75275C124.956 2.69716 137.645 2.94442 143.207 3.24126C153.876 3.8101 125.848 2.79782 125.391 2.75275ZM80.5287 59.9108C70.3053 58.7922 81.6339 60.0063 81.2377 59.7587C74.3562 59.1634 57.2663 57.4832 68.973 58.8217C71.262 59.0817 77.2863 59.6112 80.5287 59.9108ZM89.9783 60.8037C91.0675 60.8306 98.4398 61.2374 92.0829 60.7171C89.1777 60.4789 84.307 60.2953 89.9783 60.8037ZM203.579 5.87344C212.744 6.43571 170.557 4.59588 169.329 4.51474C168.685 4.47123 168.262 4.43778 168.021 4.41427C166.466 4.40874 158.463 4.09064 157.567 3.90619C159.95 4.01612 166.498 4.27206 167.245 4.31913C167.575 4.33967 167.82 4.35631 167.99 4.36991C170.778 4.35542 201.839 5.76544 203.579 5.87344ZM273.588 9.02019C262.987 8.82566 261.22 8.29195 262.109 8.31435C273.574 8.62177 266.042 8.6365 266.439 8.66943C267.261 8.73081 275.365 8.929 273.554 9.01867C273.565 9.01918 273.576 9.01968 273.588 9.02019ZM217.94 6.54493C217.482 6.53179 208.648 6.15097 208.267 6.12803C201.02 5.67198 226.095 6.75231 217.94 6.54493ZM236.327 287.651C236.843 287.691 237.273 287.725 237.627 287.754C239.823 287.932 239.244 287.948 237.619 287.874C236.223 287.811 234.003 287.667 232.193 287.501C231.852 287.466 230.677 287.201 236.327 287.651ZM94.9985 61.1823C96.4574 61.3736 133.951 64.4628 131.716 64.0145C128.517 63.8339 85.9321 60.249 94.9985 61.1823ZM151.301 105.562C157.961 105.528 150.696 105.813 147.152 105.732C145.837 105.702 149.622 105.57 151.301 105.562ZM80.5703 287.902C78.3348 288.272 76.9695 288.462 76.4115 288.506C75.9479 288.545 75.9632 288.497 76.3944 288.394C77.0226 288.241 78.6832 287.949 81.0481 287.671C81.2747 287.644 80.8421 287.857 80.5703 287.902ZM204.753 104.104C181.566 105.46 186.937 105.226 217.238 102.495C216.247 102.656 215.366 102.796 214.407 102.939C219.105 102.424 222.715 101.863 225.162 101.424C233.072 100.003 230.525 100.478 225.169 101.463C219.8 102.483 211.82 103.34 208.225 103.656C204.95 103.951 207.709 103.851 204.776 104.103C204.768 104.104 204.761 104.104 204.753 104.104ZM116.395 105.625C94.4188 105.193 136.364 105.369 148.5 105.298C136.774 105.558 121.552 105.529 142.273 105.735C111.984 105.817 124.592 105.591 123.378 105.571C121.962 105.554 117.319 105.643 116.395 105.625ZM174.638 105.274C175.95 105.242 185.568 105.097 189.1 104.915C184.209 105.358 166.143 105.553 174.638 105.274ZM249.984 32.8279C250.744 32.5287 252.649 32.0559 260.117 30.6205C257.821 31.1556 253.091 32.1576 249.984 32.8279ZM39.0765 381.424C42.6139 382.614 53.5011 384.49 50.2648 383.774C49.8858 383.758 38.2357 381.371 39.0765 381.424ZM204.004 69.8841C205.07 69.9265 233.919 72.6542 223.92 71.5432C220.969 71.1444 194.742 68.9374 204.004 69.8841ZM55.9563 57.6712C58.4217 57.9458 68.065 58.8676 68.2274 58.8416C68.9395 58.8004 57.0641 57.6905 55.9563 57.6712ZM63.7902 386.338C64.4508 386.498 80.11 388.843 78.4041 388.497C75.1466 387.922 61.4883 385.929 63.7902 386.338ZM259.775 288.29C261.15 288.295 262.935 288.444 263.421 288.441C264.52 288.816 289.606 286.783 280.052 287.774C278.404 288.733 242.422 288.485 237.935 287.655C236.16 287.357 251.321 288.451 255.05 288.423C255.714 288.43 256.136 288.276 259.764 288.291C259.768 288.291 259.771 288.29 259.775 288.29ZM288.749 24.7403C289.112 24.5933 292.333 23.9439 296.889 22.6931C297.15 22.6196 297.411 22.5502 297.713 22.4727C297.869 22.4322 298.024 22.3939 298.274 22.3273C298.407 22.2905 298.54 22.2581 298.858 22.1544C299.032 22.0925 299.208 22.0483 299.724 21.8029C299.99 21.6558 300.341 21.5427 301.162 20.8291C301.571 20.4317 302.226 19.8546 302.773 18.4228C303.354 17.0165 303.123 14.9112 302.579 13.8895C301.225 11.2389 299.457 10.9468 299.273 10.8002C298.877 10.6478 298.552 10.5726 298.466 10.5519C298.194 10.4881 298.019 10.4617 297.926 10.4467C297.685 10.4099 297.59 10.4006 297.456 10.3854C297.237 10.3618 297.053 10.3463 296.895 10.3335C296.559 10.3067 296.275 10.2879 295.973 10.2685C295.406 10.2326 294.783 10.1978 294.249 10.1692C293.103 10.1078 291.98 10.0525 290.835 9.99656C288.615 9.8886 286.44 9.78605 284.536 9.69287C280.785 9.50965 278.019 9.35975 278.171 9.3143C281.384 9.45211 284.629 9.59357 287.851 9.7419C289.474 9.81684 291.085 9.89294 292.709 9.97587C293.522 10.0175 294.329 10.0602 295.166 10.1095C295.58 10.1341 296.009 10.1607 296.445 10.1919C296.674 10.2085 296.901 10.2257 297.167 10.2502C297.313 10.264 297.454 10.2774 297.665 10.3039C297.763 10.3166 297.917 10.336 298.142 10.3771C298.217 10.3908 298.299 10.407 298.393 10.4279C298.506 10.4539 298.532 10.4564 298.788 10.5278C298.897 10.5592 299.02 10.5974 299.163 10.6481C299.234 10.6734 299.311 10.7019 299.392 10.7347C299.487 10.7733 299.517 10.7831 299.724 10.8786C300.067 11.0403 300.504 11.2804 300.984 11.6695C301.044 11.7179 301.104 11.7685 301.164 11.8212C301.194 11.8479 301.222 11.8732 301.255 11.9029C301.304 11.948 301.353 11.9945 301.402 12.0422C301.597 12.2329 301.787 12.4452 301.956 12.664C302.297 13.101 302.544 13.5604 302.673 13.8459C303.209 14.8645 303.462 16.9168 302.909 18.3512C302.38 19.8206 301.707 20.4374 301.297 20.8457C300.452 21.6018 300.077 21.7255 299.809 21.8767C299.275 22.135 299.092 22.1809 298.912 22.2454C298.587 22.3522 298.45 22.3856 298.315 22.4227C298.061 22.4899 297.907 22.5274 297.75 22.5675C297.446 22.644 297.183 22.7128 296.915 22.7868C294.074 23.5798 291.415 24.1429 288.749 24.7403ZM274.428 27.7352C272.12 28.1723 272.775 28.0092 274.649 27.605C277.726 26.9437 284.058 25.6168 286.624 25.088C286.684 25.176 276.563 27.3165 274.666 27.6883C274.557 27.7101 274.476 27.7261 274.428 27.7352ZM109.962 63.0262C112.829 63.2231 104.033 62.3121 106.005 62.4315C107.305 62.5134 113.653 63.0984 115.732 63.1989C116.311 63.2253 109.769 62.5144 107.901 62.3708C105.203 62.1636 107.806 62.5242 104.861 62.2862C95.1504 61.499 86.5162 60.664 77.4007 59.8435C76.578 59.7699 82.9396 60.4496 75.9425 59.816C74.9174 59.7201 68.3829 58.9797 60.0147 58.1525C46.9743 57.0475 34.6584 55.9937 23.9006 53.0037C23.7464 52.9418 23.7377 52.9116 23.9588 53.054C24.0142 53.0907 24.0842 53.1397 24.1696 53.2069C24.2171 53.2446 24.2433 53.265 24.3235 53.3346C24.4174 53.4169 24.5244 53.5181 24.6423 53.6453C25.0939 54.1231 25.8454 55.1959 25.9611 56.7311C26.0855 58.2734 25.4821 59.5505 24.9945 60.201C24.5057 60.865 24.0838 61.1275 24.0323 61.1704C23.7862 61.34 23.7698 61.3223 23.898 61.2705C24.1406 61.1674 24.5621 61.0194 25.2009 60.8401C25.7119 60.6969 26.2826 60.554 26.9744 60.3979C29.496 59.831 32.5887 59.3194 35.697 58.8525C35.3786 58.8846 32.2026 59.2716 28.7096 59.9121C28.2844 59.9908 27.8734 60.0704 27.4838 60.1496C27.0125 60.2462 26.562 60.3448 26.1593 60.4391C25.7414 60.5376 25.4395 60.6119 25.0382 60.7226C24.6314 60.8354 24.308 60.9384 24.0847 61.0176C23.8964 61.0779 23.6295 61.2097 23.7865 61.1224C23.8205 61.1011 23.8739 61.067 23.9481 61.013C23.9996 60.9742 24.167 60.8571 24.4034 60.6205C24.8406 60.1898 25.6919 59.0952 25.7867 57.4286C25.8982 55.6744 25.0221 54.3067 24.5392 53.8057C24.4117 53.6655 24.2978 53.5579 24.2 53.4725C24.1204 53.4036 24.0911 53.3811 24.0438 53.3441C23.9577 53.2775 23.8904 53.2318 23.8393 53.199C23.6365 53.0736 23.684 53.1217 23.8282 53.1799C24.1617 53.3281 24.8251 53.5299 24.966 53.5697C42.6536 57.7514 78.889 60.3365 99.2775 62.1465C104.535 62.5797 101.992 62.267 104.27 62.4494C106.07 62.5925 103.939 62.6128 109.962 63.0262ZM39.5778 390.642C39.5679 390.646 39.5577 390.651 39.547 390.657C39.4499 390.697 39.3603 390.781 39.7691 390.436C39.973 390.206 40.4189 390.013 41.1243 388.563C41.4471 387.883 41.7336 386.579 41.5385 385.442C41.3463 384.227 40.882 383.461 40.5035 382.942C39.778 382.016 39.3867 381.856 39.1962 381.716C38.9728 381.58 38.909 381.56 38.8723 381.544C38.815 381.525 38.94 381.584 39.1045 381.643C39.8242 381.906 41.2395 382.264 42.6659 382.576C45.6178 383.222 49.0452 383.828 51.7597 384.323C50.8029 384.062 48.0696 383.566 44.9724 382.945C43.4255 382.633 41.7819 382.288 40.3885 381.928C39.7216 381.759 38.9899 381.526 38.8878 381.474C38.8833 381.476 38.9125 381.472 39.1975 381.644C39.3294 381.728 39.5734 381.88 39.9312 382.215C40.1498 382.425 40.3852 382.672 40.6663 383.08C40.9851 383.562 41.2827 384.079 41.506 385.01C41.7109 385.87 41.6845 386.899 41.4673 387.704C41.2654 388.488 40.9371 389.068 40.7029 389.418C40.1933 390.154 39.9009 390.353 39.739 390.502C39.4095 390.767 39.4436 390.719 39.5486 390.66C39.5587 390.653 39.5684 390.647 39.5778 390.642ZM146.9 48.8811C144.09 49.1535 135.42 49.8533 134.728 49.9665C133.775 50.1304 146.327 49.0751 146.9 48.8811ZM205.113 228.465C204.835 228.423 198.309 227.114 198.076 227.05C192.274 225.733 211.855 229.664 205.113 228.465ZM51.0974 183.529C45.9343 182.794 40.683 182.316 39.0157 181.989C42.2372 182.29 51.7347 183.478 51.0974 183.529ZM235.227 177.67C234.164 177.485 249.58 177.539 252.495 177.473C251.429 177.613 235.964 177.838 235.227 177.67ZM248.78 32.4166C258.003 30.6201 255.996 30.6985 261.872 29.6655C262.815 29.4968 266.055 29.5081 255.863 31.2949C254.026 31.6119 261.139 30.0624 248.78 32.4166ZM222.229 101.789C222.887 101.648 223.914 101.456 225.125 101.22C228.444 100.573 233.363 99.6874 237.018 98.9917C236.119 99.2502 229.551 100.487 225.138 101.29C224.007 101.497 222.984 101.667 222.229 101.789ZM92.0708 390.611C96.3626 391.422 116.451 393.529 111.502 392.844C110.793 392.784 94.8614 391.019 92.0708 390.611ZM156.019 282.175C161.201 282.171 156.384 281.996 150.763 282.007C147.432 282.012 143.808 282.099 141.809 282.201C143.173 282.161 147.306 282.106 150.763 282.124C153.47 282.134 155.775 282.177 156.019 282.175ZM182.696 180.847C183.091 180.791 191.851 179.914 192.261 179.891C199.467 179.317 174.635 181.806 182.696 180.847ZM103.312 195.049C100.187 194.293 79.695 189.16 75.0321 188.106C79.5983 188.762 107.232 195.837 103.312 195.049ZM210.784 39.6034C217.388 38.4186 223.653 37.3103 229.709 36.233C228.463 36.5866 211.49 39.5712 210.784 39.6034ZM214.836 178.05C215.309 178.023 215.768 178.009 216.215 177.986C215.748 178.007 215.288 178.028 214.836 178.05ZM61.553 55.7544C56.0077 56.2373 57.1475 56.3254 57.5007 56.2948C61.726 55.9447 67.8375 55.2217 61.553 55.7544ZM41.8159 382.56C43.0616 383.002 48.3856 384.032 53.2943 384.875C54.9542 385.165 56.6324 385.453 57.9639 385.69C57.4061 385.544 55.5838 385.208 53.3089 384.793C49.448 384.094 44.3084 383.14 41.8159 382.56ZM92.9162 105.588C85.9334 105.518 114.343 104.79 120.429 104.981C120.85 105.05 93.9004 105.494 92.9162 105.588ZM130.418 282.403C129.861 282.259 117.99 283.167 120.522 283.077C122.127 282.984 130.748 282.453 130.418 282.403ZM134.824 105.034C137.517 104.991 143.798 105.112 141.587 105.196C138.752 105.305 134.125 105.047 134.824 105.034ZM150.929 66.3304C152.099 66.4398 167.905 67.512 161.38 66.876C156.889 66.4374 156.138 66.5737 155.074 66.4929C153.877 66.4016 128.558 64.2269 150.929 66.3304ZM108.509 127.857C102.509 127.115 95.2632 126.247 88.9781 125.668C91.549 125.774 105.978 127.358 108.509 127.857ZM176.227 282.562C174.765 282.106 135.776 281.577 157.918 281.992C159.2 281.907 180.575 282.895 176.227 282.562ZM248.78 32.4166C247.599 32.6455 246.284 32.8948 244.706 33.1865C246.271 32.8891 247.59 32.6418 248.78 32.4166ZM143.072 48.897C145.208 48.6122 134.366 49.5446 131.169 49.8581C130.195 50.0657 142.806 48.9441 143.072 48.897ZM88.4861 125.758C84.867 125.471 78.2892 124.874 73.8029 124.581C74.5704 124.513 86.9411 125.488 88.4861 125.758ZM263.922 176.752C271.123 176.606 280.269 175.677 280.452 175.462C280.604 175.458 280.99 175.426 281.604 175.352C281.864 175.321 283.707 175.044 285.843 174.566C288.657 173.976 292.119 172.814 294.082 171.951C300.668 168.532 295.288 172.561 285.87 174.691C266.059 178.162 233.274 177.426 271.975 176.141C269.256 176.388 266.599 176.581 263.922 176.752ZM130.825 203.076C131.377 203.268 132.124 203.515 132.911 203.773C137.656 205.271 145.386 208.037 142.961 207.087C141.796 206.603 136.355 204.674 132.954 203.639C130.614 202.913 129.235 202.528 130.825 203.076ZM89.2776 189.875C88.2478 189.924 80.7504 190.231 77.6566 190.226C76.908 190.234 76.4375 190.245 76.3808 190.259C76.7822 190.267 77.2088 190.274 77.6561 190.281C84.3813 190.423 94.5177 189.702 89.2776 189.875ZM160.411 214.97C162.715 216.08 165.727 217.25 165.457 217.113C163.168 215.959 156.588 213.036 160.411 214.97ZM229.549 35.4945C225.814 36.1379 213.923 38.4652 211.353 39.0618C210.859 39.1219 209.563 39.3174 207.159 39.6986C207.166 39.6973 207.174 39.696 207.181 39.6947C206.066 39.8719 193.79 42.0257 180.854 44.1422C155.998 47.6823 129.165 49.9167 172.007 45.6144C174.148 45.3273 171.256 45.6627 179.72 44.4316C180.072 44.377 180.317 44.3832 180.884 44.3231C181.205 44.2882 181.627 44.2331 182.223 44.1364C186.102 43.5335 206.746 40.052 210.86 39.2057C210.898 39.2186 211.171 39.1888 211.743 39.1037C216.832 38.3639 232.47 35.0043 229.549 35.4945ZM111.46 188.232C109.198 188.414 102.141 189.045 101.377 189.186C104.91 188.989 116.678 187.834 111.46 188.232ZM175.032 282.121C170.524 281.782 159.115 281.599 162.56 281.776C164.666 281.821 180.225 282.454 175.032 282.121ZM40.5835 190.561C66.0607 189.839 46.6405 190.32 50.5365 190.057C47.1902 190.169 43.8233 190.303 40.5835 190.561ZM246.807 8.60925C247.077 8.62277 247.307 8.63562 247.5 8.64778C248.796 8.72786 248.555 8.77732 247.495 8.77782C246.308 8.78263 243.799 8.7106 241.502 8.53942C240.06 8.43255 244.519 8.49543 246.807 8.60925ZM59.0792 0.966658C62.6151 1.34873 45.2957 0.502371 52.0556 0.615031C52.3696 0.622341 58.8199 0.947025 59.0792 0.966658ZM190.253 6.43543C193.092 6.39069 194.939 6.44747 202.858 6.81493C191.134 6.376 201.953 6.96607 190.253 6.43543ZM280.37 175.455C280.419 175.455 280.459 175.455 280.452 175.462C280.399 175.463 280.375 175.46 280.37 175.455ZM182.32 223.903C185.25 224.958 194.002 226.946 191.43 226.211C191.163 226.172 183.548 224.209 182.32 223.903ZM211.353 39.0618C211.786 39.0093 211.571 39.064 210.86 39.2057C210.823 39.1937 211.005 39.1437 211.353 39.0618ZM137.133 205.351C137.27 205.356 135.344 204.668 132.882 203.864C128.983 202.582 123.777 201.048 123.443 200.96C117.185 199.313 126.181 201.836 132.853 203.957C134.514 204.482 136.035 204.981 137.133 205.351ZM84.1098 286.209C83.3997 286.316 87.9841 285.953 90.7617 285.505C92.9165 285.153 86.732 285.796 84.1098 286.209ZM163.261 5.39071C158.814 5.20787 152.664 4.95574 151.489 4.78207C154.478 4.92387 163.347 5.30214 163.261 5.39071ZM65.8504 1.41524C71.0872 1.48142 82.9587 1.96642 90.57 2.30161C90.711 2.50148 70.7521 1.56954 65.8504 1.41524ZM241.347 33.3339C240.987 33.4014 230.085 35.4062 231.601 35.2491C233.813 35.0347 244.43 32.8164 241.347 33.3339ZM105.261 283.848C110.12 283.283 98.8743 284.091 93.7637 284.952C91.127 285.353 104.444 283.901 105.261 283.848ZM209.723 230.132C216.136 231.284 200.29 228.119 198.118 227.774C201.018 228.391 207.44 229.723 209.723 230.132ZM70.6607 189.73C50.1625 189.317 61.305 190.046 64.9652 189.974C65.452 189.963 71.1446 189.739 70.6607 189.73ZM142.456 396.472C145.344 396.628 134.604 395.652 133.202 395.647C132.33 395.665 140.613 396.391 142.456 396.472ZM224.164 144.88C225.013 145.003 225.876 145.128 226.724 145.25C226.09 145.164 225.24 145.042 224.164 144.88ZM267.669 247.72C254.625 239.764 255.415 241.63 254.303 240.949C252.161 240.089 247.695 238.408 243.196 237.342C242.132 237.084 241.088 236.84 240.093 236.617C241.123 236.841 242.158 237.071 243.204 237.306C248.212 238.434 253.1 240.039 257.792 242.06C256.256 241.369 250.538 238.813 243.258 237.078C230.175 233.88 212.95 230.632 212.417 230.571C211.188 230.458 223.686 232.839 224.051 232.942C224.573 233.062 226.455 233.805 227.612 234.057C228.445 234.242 235.3 235.636 243.157 237.505C253.848 239.832 265.054 245.958 267.669 247.72ZM37.3522 182.766C37.1853 182.745 37.0313 182.726 36.8886 182.707C35.5402 182.532 34.6048 182.336 34.3893 182.245C34.3756 182.237 34.3784 182.232 34.4413 182.248C34.5056 182.268 34.5929 182.279 34.932 182.44C35.0103 182.478 35.1121 182.53 35.2539 182.616C35.4023 182.708 35.5154 182.776 35.7699 182.978C36.1544 183.351 37.1521 183.98 37.5457 186.145C37.6967 187.188 37.4758 188.191 37.1596 188.886C36.8669 189.53 36.5708 189.896 36.3216 190.179C36.1109 190.413 35.9278 190.575 35.7738 190.7C35.637 190.81 35.5352 190.882 35.4409 190.945C35.0955 191.17 34.9964 191.202 34.9231 191.24C34.8593 191.27 34.8475 191.274 34.8556 191.271C34.8746 191.264 34.967 191.231 35.0855 191.19C35.2333 191.139 35.339 191.08 35.5245 190.994C35.7943 190.875 35.9636 190.754 36.7102 190.603C36.2512 190.684 35.9706 190.748 35.4943 190.888C35.2844 190.949 35.0877 191.008 34.9442 191.055C34.8223 191.09 34.648 191.178 34.961 191.033C35.0553 190.983 35.1771 190.932 35.4961 190.706C35.6305 190.608 35.8847 190.415 36.1728 190.102C36.4961 189.719 36.9892 189.219 37.3188 187.901C37.6669 186.666 37.1769 184.895 36.6855 184.241C36.5602 184.042 36.4318 183.871 36.3071 183.722C36.2007 183.596 36.1086 183.498 36.0147 183.404C35.8298 183.22 35.6563 183.078 35.5143 182.973C35.0246 182.619 34.8153 182.549 34.6584 182.475C34.3952 182.366 34.3596 182.367 34.3508 182.362C34.346 182.36 34.3916 182.371 34.4458 182.382C34.99 182.493 35.9808 182.617 36.8875 182.716C37.036 182.732 37.1909 182.749 37.3522 182.766ZM289.089 264.222C292.112 267.23 278.224 254.1 277.467 253.974C275.017 251.746 286.952 261.487 289.089 264.222ZM143.834 207.88C144.568 207.995 157.79 213.926 157.632 213.839C154.457 211.962 136.217 204.79 143.834 207.88ZM38.5478 190.361C43.0611 189.92 52.4685 189.968 51.3941 189.774C51.3866 189.774 51.3791 189.774 51.3716 189.774C47.0362 189.872 42.5746 189.977 38.5478 190.361ZM121.94 282.042C112.842 282.374 117.171 282.422 125.216 282.025C127.641 281.739 123.433 281.991 121.94 282.042ZM92.892 284.539C91.4893 284.668 82.8171 285.769 76.1575 286.849C70.8241 287.687 66.9085 288.525 68.5948 288.278C69.2083 288.186 72.5823 287.565 76.1799 286.995C80.4716 286.302 85.0543 285.637 85.4227 285.594C86.4626 285.477 81.7458 286.282 89.6826 285.204C89.2036 285.197 93.7551 284.451 92.892 284.539ZM114.409 282.39C105.361 282.909 103.382 283.6 110.165 282.96C112.813 282.723 115.702 282.322 114.409 282.39ZM151.299 280.874C151.133 280.872 150.954 280.87 150.762 280.868C147.178 280.812 139.083 280.9 133.43 281.297C139.205 281.065 144.986 280.942 150.762 280.947C152.964 280.949 155.171 280.97 157.377 281.008C158.299 280.938 154.14 280.908 151.277 280.874C151.284 280.874 151.291 280.874 151.299 280.874ZM10.9696 0.333758C18.2173 0.757461 1.51171 0.125157 0.803244 0.0647797C-1.29044 -0.125086 7.73158 0.144484 10.9696 0.333758ZM198.753 402.758C200.766 402.836 202.087 403.024 206.515 402.977C202.055 402.814 197.599 402.631 193.143 402.427C189.663 402.647 196.553 402.675 198.753 402.758ZM215.788 403.937C215.155 403.94 218.606 404.398 210.451 404.065C204.961 403.875 234.868 403.729 240.287 403.8C234.317 403.961 221.219 403.91 215.788 403.937ZM268.25 405.322C268.621 405.358 257.194 405.606 255.91 405.595C248.972 405.569 266.38 405.191 268.25 405.322ZM231.95 405.717C237.296 405.769 225.459 405.898 221.941 405.841C221.577 405.766 231.133 405.716 231.95 405.717ZM84.1349 9.64707C89.9075 10.1797 95.0657 9.75117 86.2014 9.51795C85.7777 9.50671 83.889 9.62249 84.1349 9.64707ZM257.138 405.955C251.817 405.95 263.601 405.722 267.14 405.694C267.47 405.775 257.956 405.959 257.138 405.955ZM88.1724 10.5193C95.7947 11.0443 93.1584 10.2195 92.1874 10.1509C88.2768 9.87704 74.7202 9.60504 71.9649 9.56259C92.1849 10.2804 84.5774 10.2719 88.1724 10.5193ZM123.513 11.5331C130.605 11.7468 112.488 10.8593 108.986 10.9161C112.54 11.0518 121.488 11.4724 123.513 11.5331ZM166.609 13.5297C170.484 13.7145 181.754 14.2397 183.716 14.2078C179.525 14.0554 168.27 13.4817 166.609 13.5297ZM175.255 14.2232C181.235 14.6226 182.667 14.2349 175.783 14.0846C175.514 14.0787 175.034 14.2056 175.255 14.2232ZM208.805 15.7692C212.773 16.1113 217.183 15.8617 210.877 15.5884C208.981 15.5072 208.382 15.7313 208.805 15.7692ZM97.7265 11.6811C103.316 11.9858 110.583 11.973 98.5957 11.4491C102.795 11.5733 107.009 11.6982 111.221 11.823C95.5321 11.0081 96.6909 11.4853 92.1634 11.2825C85.892 11.0012 86.3889 10.6669 87.6607 10.6075C82.4815 10.6131 60.5691 9.7222 47.8871 9.24626C59.0183 9.7915 77.0933 10.6872 88.0786 11.1936C91.2033 11.3379 94.2665 11.3658 96.94 11.4859C101.219 11.6787 97.4131 11.6632 97.7045 11.6802C97.7118 11.6805 97.7192 11.6808 97.7265 11.6811ZM252.944 17.6239C264.46 18.3174 257.147 17.5691 250.673 17.3715C250.388 17.3654 252.643 17.6061 252.944 17.6239ZM272.476 406.983C260.726 407.11 264.402 406.849 252.76 407.114C249.087 407.192 243.799 407.323 236 407.475C249.557 407.089 236.75 407.285 239.396 407.155C241.522 407.055 249.449 407.026 244.845 406.916C246.388 406.944 249.309 406.939 252.757 406.911C262.839 406.829 277.452 406.575 278.683 406.318C278.672 406.319 278.661 406.32 278.649 406.321C279.459 406.249 277.372 406.939 272.476 406.983ZM166.618 14.6663C170.481 15.3523 171.968 14.5765 179.521 15.3243C189.598 15.1041 151.762 14.1827 147.205 13.4609C188.272 15.2078 120.065 11.817 148.723 13.7944C125.123 12.5361 140.98 13.5765 137.332 13.5292C133.414 13.4776 120.082 12.8137 120.744 13.0372C120.751 13.0375 120.758 13.0378 120.766 13.0381C128.906 13.3573 137.124 13.68 145.279 14.0005C137.264 13.2484 154.016 14.0619 159.632 14.6378C161.984 14.6482 164.302 14.6573 166.618 14.6663ZM120.405 12.3746C121.219 12.4174 138.963 13.0844 137.843 12.9536C135.47 12.802 110.222 11.8341 120.405 12.3746ZM42.1882 9.27309C48.5568 9.53391 58.4333 10.0195 61.9153 10.0019C55.5233 9.73997 45.6609 9.25493 42.1882 9.27309ZM224.346 27.5611C216.388 29.1803 240.974 24.6192 233.839 25.7981C233.491 25.8606 224.737 27.4868 224.346 27.5611ZM185.14 15.3487C193.38 15.8495 189.494 15.1763 183.381 15.0581C183.025 15.0513 184.761 15.3257 185.14 15.3487ZM259.963 407.293C259.772 407.341 256.762 407.407 252.765 407.468C245.729 407.582 235.619 407.641 233.081 407.653C234.504 407.575 245.33 407.426 252.763 407.32C257.039 407.264 260.199 407.237 259.963 407.293ZM30.9378 9.28426C43.6175 10.2532 60.8677 10.4352 62.7545 10.5236C64.6282 10.6117 61.6801 10.6889 62.107 10.7116C63.068 10.7619 83.1014 11.563 84.0556 11.5883C84.7517 11.606 81.1286 11.1805 85.2774 11.2625C77.205 11.0903 40.6398 9.4998 38.741 9.45319C37.272 9.41783 48.3411 10.1608 30.9599 9.28516C30.9525 9.28486 30.9452 9.28456 30.9378 9.28426ZM67.4741 10.7767C62.4786 10.4565 76.4933 11.0139 79.8895 11.1955C87.4143 11.5988 68.1201 10.8168 67.4741 10.7767ZM101.174 12.26C102.795 12.3523 117.233 12.9662 118.452 12.8866C111.648 12.4402 97.5395 12.0507 101.174 12.26ZM261.927 18.8957C265.67 19.0389 275.983 19.5923 276.574 19.5073C272.776 19.352 262.508 18.8067 261.927 18.8957ZM183.573 408.197C189.825 408.45 175.325 408.125 171.091 407.9C170.863 407.831 183.037 408.191 183.573 408.197ZM186.491 16.4865C188.663 16.6081 234.061 18.4029 240.399 18.6217C234.2 18.2703 189.23 16.4005 187.219 16.3617C186.629 16.3499 186.209 16.4695 186.491 16.4865ZM88.4769 12.522C84.3155 12.5188 81.6003 12.208 81.084 12.1844C75.949 11.9493 65.2914 11.5519 67.6333 11.4869C76.6961 11.9215 96.7562 12.5292 88.4769 12.522ZM265.115 19.7877C280.455 20.3926 250.979 18.9387 254.823 19.282C255.065 19.3024 263.49 19.723 265.115 19.7877ZM181.412 16.3258C178.033 16.3199 132.702 14.3439 125.412 14.0465C131.965 14.0662 137.191 14.4688 145.955 14.8153C148.319 14.9086 147.69 14.7794 147.944 14.7897C152.019 14.952 148.951 14.9455 151.48 15.051C153.07 15.1164 186.232 16.334 181.412 16.3258ZM86.1001 12.5404C83.5585 12.5321 55.2569 11.4177 54.1119 11.3457C45.5904 10.8091 83.908 12.4174 86.1001 12.5404ZM185.58 16.7184C180.674 16.8045 158.204 15.6876 173.582 16.1759C175.091 16.2248 181.269 16.6042 185.58 16.7184ZM263.434 19.9899C264.204 20.0285 280.223 20.7923 280.508 20.7187C278.174 20.5674 254.888 19.526 263.434 19.9899ZM255.119 19.9434C255.527 19.9588 251.728 19.619 259.266 19.9643C259.876 19.9933 261.097 20.2415 270.513 20.5805C272.434 20.6496 275.419 20.6506 275.187 20.6322C265.396 19.8772 235.727 19.2231 255.119 19.9434ZM85.574 12.6802C87.1042 12.8267 83.3859 12.9242 80.0943 12.6636C78.6832 12.5514 81.3111 12.5091 85.574 12.6802ZM279.249 15.0554C283.847 14.0044 278.729 15.0512 272.327 16.3494C266.22 17.5921 258.954 19.0543 258.239 19.2157C258.826 19.1593 266.473 17.6693 272.353 16.476C275.98 15.7424 278.875 15.1398 279.249 15.0554ZM168.865 408.896C168.872 408.896 168.88 408.897 168.887 408.897C160.996 408.544 165.89 408.615 165.52 408.598C148.719 407.648 153.16 408.078 150.531 407.984C148.749 407.903 147.623 407.814 146.619 407.718C144.428 407.505 142.812 407.286 136.298 406.891C152.029 407.813 137.718 406.887 137.28 406.719C136.483 406.423 140.895 406.806 146.648 407.263C153.328 407.802 161.823 408.395 166.035 408.506C167.127 408.543 159.075 408.026 161.874 408.105C170.97 408.421 199.137 409.981 168.865 408.896ZM77.535 12.5811C73.8885 12.5799 46.2841 11.3102 53.6099 11.4874C54.7917 11.516 82.8873 12.5841 77.535 12.5811ZM281.153 164.111C287.037 162.997 273.279 165.056 270.251 165.055C268.89 165.215 278.706 164.733 281.153 164.111ZM173.803 169.635C165.935 170.532 157.725 172.021 167.487 170.821C168.525 170.692 174.709 169.607 173.803 169.635ZM128.085 93.4254C119.83 93.2493 120.318 93.604 126.387 93.5864C128.522 93.5813 128.344 93.4311 128.085 93.4254ZM224.389 156.248C225.225 156.382 234.604 157.731 234.302 157.604C230.839 157.047 219.11 155.391 224.389 156.248ZM130.702 93.3717C125.812 93.4409 134.23 93.6885 140.199 93.4301C137.166 93.4555 131.213 93.3643 130.702 93.3717ZM202.543 18.2013C206.655 18.2258 218.204 18.7485 224.853 19.0009C225.577 19.2189 207.262 18.3616 202.543 18.2013ZM207.407 166.638C199.883 167.319 216.023 166.274 214.557 166.236C214.325 166.227 207.682 166.601 207.407 166.638ZM132.488 76.529C137.914 76.8365 120.727 75.3534 125.445 75.917C125.675 75.9435 132.19 76.5127 132.488 76.529ZM57.3147 70.0289C61.3392 70.5126 79.0367 72.1396 72.1682 71.3923C71.0463 71.2864 57.6071 69.9732 57.3147 70.0289ZM150.056 408.092C151.012 408.231 149.16 408.165 146.6 408.018C143.186 407.824 138.53 407.462 137.466 407.36C136.929 407.311 142.505 407.534 146.615 407.791C148.048 407.882 149.304 407.983 150.056 408.092ZM74.1673 94.5756C70.6519 94.8187 62.7407 95.5529 58.4942 96.4459C57.4194 96.6575 56.6287 96.8389 56.2257 96.9455C56.8647 96.8068 57.6335 96.6501 58.5023 96.4889C64.8696 95.2405 75.4404 94.6707 74.1673 94.5756ZM241.848 165.646C238.5 165.559 233.919 165.519 230.618 165.53C227.542 165.544 225.524 165.676 226.912 165.779C228.595 165.75 229.771 165.743 230.618 165.736C236.23 165.679 227.653 165.554 241.848 165.646ZM158.125 93.0605C154.713 93.0715 152.107 93.3461 152.49 93.3569C156.183 93.4583 161.514 93.1343 158.125 93.0605ZM137.286 143.776C137.445 143.911 148.335 145.414 146.882 145.134C146.409 145.041 137.126 143.66 137.286 143.776ZM248.125 20.596C243.199 21.4589 258.178 18.4166 262.637 17.6226C264.846 17.3627 248.752 20.4995 248.125 20.596ZM250.701 83.721C251.294 83.5509 234.811 87.0913 241.36 85.8736C243.042 85.5964 250.554 83.8612 250.701 83.721ZM109.471 75.0652C120.973 75.825 72.7755 71.6751 85.4223 72.9758C86.3961 73.0962 108.467 75.015 109.471 75.0652ZM30.5208 66.9671C32.4394 67.2303 31.6814 67.988 22.8336 65.8157C21.6446 65.5297 27.237 66.6242 26.2219 66.3527C26.1012 66.3231 25.5123 66.2094 24.1854 65.9049C23.5667 65.7612 22.8719 65.5908 22.1542 65.3928C21.2592 65.146 20.217 64.8295 19.2144 64.4139C18.5365 64.1303 17.8521 63.8103 17.0613 63.278C16.6303 62.9524 16.3928 62.8979 15.3808 61.7844C14.545 60.8358 13.5626 59.0266 13.6493 56.91C13.9016 52.7079 16.946 51.1496 17.1807 50.9228C17.951 50.4218 18.6256 50.1113 19.2987 49.8349C20.223 49.4614 21.1497 49.177 22.0461 48.9322C22.7666 48.7367 23.505 48.5594 24.2405 48.3963C26.9157 47.811 29.0163 47.4912 29.2051 47.4496C30.0869 47.2873 29.0109 47.2834 29.9138 47.1139C31.1363 46.8274 42.1136 45.5149 47.9265 44.9411C58.7735 43.812 59.9625 43.604 60.8282 43.5112C63.4282 43.2675 67.7757 42.9791 73.039 42.5263C99.4833 40.2435 139.799 37.1818 160.509 35.221C142.11 37.0295 124.369 38.5386 105.869 40.0766C111.268 39.3272 78.6421 42.5088 97.7208 40.6096C94.169 40.9368 79.5021 42.0962 62.8893 43.6261C54.5825 44.4006 45.7412 45.2747 37.5717 46.3279C33.354 46.8805 29.6108 47.4149 25.6885 48.2003C23.767 48.6033 21.9264 48.9899 19.7458 49.7943C19.6156 49.8439 19.503 49.8879 19.357 49.9473C19.1706 50.0233 18.9846 50.1031 18.7976 50.1882C18.4235 50.3587 18.0456 50.5491 17.648 50.7845C17.4492 50.9025 17.2454 51.0321 17.0345 51.1795C16.929 51.2532 16.8218 51.3314 16.7127 51.4152C16.5665 51.5267 16.3432 51.7089 16.1495 51.8877C15.3774 52.6055 14.3343 53.7991 13.9187 55.7648C13.4466 57.7464 14.2306 60.1187 15.1258 61.2393C15.5553 61.8355 16.0529 62.3119 16.3851 62.5916C16.6092 62.7816 16.8244 62.9442 17.0316 63.089C17.8599 63.6607 18.5663 63.9884 19.2688 64.2815C20.0862 64.6164 20.8756 64.8703 21.6936 65.1058C22.5089 65.337 22.9676 65.4502 23.6076 65.6047C24.209 65.7485 24.835 65.887 25.4032 66.0067C25.8784 66.107 26.3419 66.2005 26.7861 66.2875C27.6746 66.4613 28.4856 66.6088 29.1623 66.7288C29.7601 66.835 30.1925 66.9097 30.4989 66.9635C30.5062 66.9647 30.5135 66.9659 30.5208 66.9671ZM142.81 173.034C147.596 172.301 122.944 175.148 120.891 175.541C124.133 175.261 142.207 173.136 142.81 173.034ZM257.742 164.572C260.004 164.433 262.307 164.204 273.932 163.579C273.943 163.578 273.953 163.577 273.963 163.576C277.299 163.336 273.501 163.767 274.122 163.743C274.441 163.815 284.493 162.742 276.13 163.788C262.774 164.866 274.91 163.667 267.694 164.112C266.873 164.218 252.895 164.823 253.734 164.818C253.833 164.824 257.981 164.688 258.71 164.682C261.29 164.678 260.059 164.829 260.42 164.824C261.41 164.806 277.722 164.216 283.279 162.765C284.272 162.561 285.013 162.376 285.402 162.294C285.551 162.257 284.776 162.516 283.298 162.853C276.657 164.85 251.394 165.197 250.301 165.195C249.412 165.189 249.79 164.859 248.867 164.839C248.396 164.855 233.735 165.059 231.832 165.005C231.328 164.997 230.926 164.988 230.619 164.98C230.586 164.979 230.555 164.978 230.524 164.978C230.56 164.979 230.591 164.981 230.619 164.982C230.843 164.995 230.823 165.005 230.619 165.014C229.232 165.011 219.155 165.285 219.532 165.208C219.747 165.116 229.195 164.893 229.546 164.947C229.694 164.95 229.822 164.954 229.941 164.957C229.702 164.943 229.976 164.928 230.619 164.917C235.18 164.907 258.161 164.613 252.313 164.518C261.242 164.235 251.039 164.823 257.742 164.572ZM295.257 156.687C294.407 157.355 293.862 157.808 293.249 158.263C294.083 157.7 294.555 157.275 296.173 156.154C296.096 156.205 295.988 156.277 295.84 156.388C295.689 156.504 295.52 156.63 295.213 156.921C294.921 157.206 294.56 157.582 294.147 158.23C293.672 158.977 293.147 160.173 293.078 161.618C293.004 163.001 293.373 164.29 293.868 165.224C294.448 166.268 294.7 166.466 295.032 166.838C295.346 167.162 295.625 167.391 295.864 167.57C295.997 167.669 296.06 167.711 296.13 167.759C296.198 167.805 296.263 167.847 296.325 167.885C296.571 168.038 296.763 168.138 296.918 168.213C297.037 168.271 297.119 168.307 297.196 168.34C297.352 168.405 297.439 168.435 297.488 168.453C297.701 168.524 297.609 168.491 297.544 168.477C297.374 168.434 297.077 168.369 296.767 168.306C296.145 168.179 295.44 168.049 294.743 167.924C293.32 167.67 291.834 167.421 290.344 167.176C287.348 166.683 284.242 166.191 281.112 165.699C274.83 164.714 268.429 163.729 261.836 162.735C258.374 162.214 254.795 161.679 251.283 161.163C246.72 160.491 251.963 161.474 245.958 160.533C241.175 159.784 235.886 158.814 238.514 159.155C239.161 159.239 248.897 160.795 253.776 161.501C257.616 162.057 260.194 162.418 261.851 162.638C266.63 163.279 264.765 162.904 265.412 162.997C266.381 163.134 275.386 164.604 280.336 165.36C284.041 165.925 287.202 166.406 290.151 166.874C291.624 167.108 293.08 167.344 294.539 167.599C295.252 167.724 295.993 167.858 296.665 167.993C296.976 168.055 297.34 168.132 297.554 168.185C297.662 168.21 297.765 168.243 297.638 168.203C297.595 168.188 297.563 168.178 297.438 168.131C297.377 168.107 297.302 168.076 297.209 168.035C297.162 168.014 297.113 167.991 297.053 167.963C296.972 167.923 296.88 167.877 296.774 167.819C296.668 167.76 296.548 167.691 296.412 167.604C296.344 167.56 296.272 167.512 296.195 167.458C296.111 167.4 295.96 167.29 295.825 167.18C295.547 166.953 295.217 166.654 294.859 166.214C294.616 165.947 293.774 164.737 293.517 163.446C293.191 162.179 293.394 160.39 293.898 159.314C294.428 158.142 294.845 157.735 295.195 157.342C295.55 156.971 295.797 156.78 295.957 156.655C296.127 156.526 296.247 156.445 296.329 156.391C292.133 159.501 289.84 161.003 283.966 162.439C287.987 161.352 288.657 160.752 289.557 160.315C290.513 159.718 291.131 159.718 295.257 156.687ZM200.815 82.5064C200.25 82.5686 189.997 81.6303 186.183 81.3484C186.826 81.2837 197.127 82.211 200.815 82.5064ZM215.527 332.341C218.685 332.682 195.283 328.672 201.427 329.869C202.785 330.128 212.585 331.831 215.527 332.341ZM109.578 313.915C106.433 313.067 118.988 316.822 119.033 316.614C119.007 316.598 109.967 314.061 109.578 313.915ZM98.3923 139.333C97.8047 139.254 89.2117 138.319 88.9457 138.301C83.2749 137.455 111.525 140.691 98.3923 139.333ZM131.426 269.658C120.183 270.177 154.061 269.132 143.702 269.289C143.185 269.255 131.967 269.594 131.426 269.658ZM178.499 269.983C175.823 269.81 163.879 269.28 163.714 269.362C163.48 269.408 177.145 270.025 178.499 269.983ZM160.418 92.3412C159.135 92.1566 174.628 92.1321 179.974 91.9234C181.281 92.1215 165.812 92.298 160.418 92.3412ZM61.2235 94.8353C127.875 90.6638 114.141 90.8141 58.3051 95.4347C57.89 95.5111 57.4764 95.59 57.0645 95.6715C56.9907 95.5943 56.882 95.5989 58.2859 95.3323C58.8941 95.2193 59.8018 95.0557 61.2235 94.8353ZM146.239 92.2928C143.86 92.435 136.413 92.4056 131.376 92.3995C132.289 92.3054 142.613 92.3297 146.239 92.2928ZM243.351 337.477C239.267 336.921 221.371 333.593 224.571 334.081C225.318 334.187 244.851 337.641 243.351 337.477ZM92.9789 138.926C94.4649 139.214 75.105 137.405 73.5983 137.337C67.6203 136.682 91.4372 138.685 92.9789 138.926ZM251.035 82.6616C251.828 82.4151 252.972 82.0865 254.169 81.6967C254.815 81.4864 255.414 81.277 255.951 81.0598C256.18 80.9677 256.457 80.8425 256.562 80.7871C256.624 80.7563 256.662 80.7328 256.634 80.7492C256.612 80.7641 256.522 80.8123 256.301 80.9979C256.183 81.0996 256.085 81.1824 255.866 81.4182C255.653 81.6523 255.394 81.9746 255.133 82.4294C254.584 83.208 253.977 85.5895 254.502 87.2386C254.706 88.062 255.117 88.814 255.369 89.1775C255.633 89.5685 255.885 89.8458 256.09 90.0479C256.31 90.2613 256.426 90.3483 256.526 90.4258C256.626 90.501 256.699 90.5491 256.748 90.5798C257.049 90.7353 256.345 90.3872 255.764 90.2086C254.467 89.7739 252.79 89.3651 251.401 89.0597C252.03 89.1641 253.196 89.3995 254.482 89.7392C255.09 89.8994 255.791 90.1074 256.307 90.2972C256.58 90.3965 256.782 90.4847 256.861 90.5241C256.888 90.5359 256.89 90.5433 256.77 90.4655C256.639 90.3679 256.492 90.3088 255.997 89.7939C255.761 89.5328 255.524 89.2582 255.204 88.6976C254.868 88.1029 254.552 87.2731 254.448 86.339C254.183 84.3533 255.111 82.5294 255.561 81.9716C256.13 81.221 256.353 81.1093 256.526 80.9606C256.695 80.8349 256.705 80.8385 256.696 80.8418C256.642 80.8725 256.442 80.972 256.15 81.0922C255.904 81.1944 255.538 81.3319 255.208 81.4459C253.788 81.9359 252.287 82.3375 251.035 82.6616ZM207.057 90.2683C207.496 90.2604 215.935 89.3701 216.35 89.2758C223.374 88.6611 199.163 91.2126 207.057 90.2683ZM179.761 410.787C179.466 410.789 172.707 410.564 172.474 410.545C166.452 410.2 186.716 410.868 179.761 410.787Z" fill="black"/>
</svg>
