<svg width="306" height="411" viewBox="0 0 306 411" fill="none" xmlns="http://www.w3.org/2000/svg">
<path stroke="#000" stroke-width="1" d="M74.8599 386.632C73.26 386.418 66.7721 385.371 63.9871 384.92C67.205 385.269 80.6639 387.428 74.8599 386.632ZM283.853 340.263C281.833 340.917 279.669 341.505 277.49 342.044C282.372 340.987 289.254 339.119 291.035 337.145C291.005 337.174 291.02 337.158 290.976 337.214C290.954 337.246 290.918 337.292 290.835 337.435C290.751 337.614 290.616 337.716 290.342 338.695C290.305 338.88 290.11 339.478 290.144 340.622C290.167 341.767 290.641 343.204 291.261 344.107C292.414 345.744 293.135 345.974 293.452 346.208C294.17 346.607 294.233 346.58 294.343 346.63C294.477 346.673 294.354 346.63 294.226 346.596C293.595 346.427 295.299 346.709 293.699 346.305C291.601 345.839 291.947 346.115 288.556 345.482C286.438 345.088 280.059 343.879 273.675 342.694C268.615 341.753 263.57 340.823 260.833 340.336C237.795 336.242 214.52 332.26 191.448 328.383C215.32 332.205 191.305 328.029 184.636 327.047C184.035 326.958 183.666 326.965 181.822 326.744C179.167 326.446 173.441 325.557 159.497 323.648C145.525 321.797 156.54 322.911 138.263 320.569C136.573 320.315 134.642 320 132.44 319.595C134.953 320.129 136.864 320.486 138.236 320.736C142.359 321.457 141.571 321.4 138.207 320.923C133.697 320.301 124.76 318.466 117.074 316.353C115.872 316.032 110.843 314.648 104.923 312.78C97.7471 310.531 89.2993 307.598 84.3213 305.837C81.2096 304.742 76.4216 303.215 72.3205 301.694C71.5468 301.407 70.8151 301.126 70.098 300.845C68.093 300.045 66.1044 299.27 62.7543 297.67C60.1085 296.355 56.4614 294.435 53.7967 290.732C53.2515 289.982 52.3807 288.522 52.3242 286.423C52.2654 284.3 53.1571 282.618 53.7841 281.775C55.1026 280.092 55.8034 279.852 56.3573 279.474C57.409 278.872 57.9692 278.689 58.5332 278.475C59.5897 278.097 60.4228 277.877 61.235 277.668C62.8385 277.263 64.3113 276.963 65.7766 276.68C68.7069 276.119 71.5168 275.664 74.3748 275.223C86.6124 273.347 98.9073 271.884 111.385 270.842C99.2135 272.401 120.974 270.224 121.977 270.283C126.957 270.028 104.446 271.784 113.352 271.169C125.769 270.145 138.24 269.547 150.754 269.52C150.775 269.52 150.795 269.52 150.815 269.52C150.795 269.52 150.774 269.52 150.754 269.52C147.002 269.509 147.903 269.442 150.754 269.373C155.604 269.229 166.054 269.396 168.796 269.627C167.004 268.596 225.274 273.921 233.862 274.557C235.288 274.635 228.297 273.992 238.513 274.72C241.319 274.904 245.419 275.184 251.315 275.421C254.279 275.532 253.147 275.624 254.705 275.654C255.64 275.668 261.256 275.405 267.183 275.47C269.22 275.312 256.907 276.688 281.641 274.768C282.946 274.626 284.314 274.472 285.658 274.263C283.219 274.504 283.739 274.387 285.991 274.011C286.527 273.914 287.162 273.789 287.704 273.644C287.975 273.573 288.219 273.495 288.351 273.442C288.475 273.4 288.498 273.338 288.126 273.588C287.816 273.787 286.705 274.748 286.351 276.403C286.029 278.021 286.475 278.844 286.524 278.997C286.7 279.293 286.17 278.465 285.45 277.76C276.66 269.306 258.332 258.865 253.623 256.079C255.362 257.133 257.088 258.197 258.801 259.274C250.217 254.084 248.501 253.417 246.528 252.309C244.193 251.027 241.592 249.618 238.883 248.183C232.318 244.702 225.067 241.072 219.586 238.463C210.516 234.171 210.373 234.397 199.756 229.415C202.264 230.624 204.767 231.837 207.266 233.059C199.929 229.646 192.551 226.298 185.132 222.948C202.429 230.356 181.444 221.266 180.052 220.653C177.843 219.673 181.068 220.968 177.379 219.326C176.996 219.155 177.504 219.541 171.808 216.973C171.054 216.632 170.312 216.294 169.671 216C160.132 211.604 161.56 212.061 156.964 209.912C156.537 209.737 157.966 210.437 149.667 206.746C123.023 196.62 149.952 206.398 150.85 207.147C152.276 207.836 143.06 202.835 165.969 213.797C158.231 210.118 157.578 209.543 156.719 209.139C155.901 208.636 142.908 203.035 142.111 202.94C135.518 200.669 141.247 202.866 139.959 202.438C139.555 202.304 136.887 201.337 133.442 200.239C128.035 198.499 120.728 196.452 118.213 196.043C110.774 193.604 121.322 196.345 133.482 200.113C134.464 200.421 135.433 200.73 136.403 201.046C137.109 201.249 135.684 200.733 133.513 200.015C129.68 198.733 123.411 196.871 122.913 196.732C103.626 191.314 114.203 194.67 109.924 193.717C107.673 193.226 99.8262 190.929 107.044 193.148C89.4182 188.61 100.145 191.212 99.0166 190.883C97.3078 190.4 91.1042 188.956 90.3345 188.763C89.2037 188.471 93.1769 189.321 88.7058 188.2C87.9596 188.014 80.6984 186.476 89.9875 188.788C77.5509 185.793 78.5514 186.266 74.3951 185.017C73.9605 184.955 73.5579 184.897 73.184 184.841C65.9532 183.792 68.0978 183.358 64.8903 182.709C55.925 181.006 58.4564 181.994 57.9777 181.919C56.1266 181.681 48.1903 180.467 39.7126 179.639C38.5998 179.502 37.6568 179.415 36.0618 179.088C35.8461 179.04 35.6152 178.987 35.3021 178.9C34.981 178.803 34.6447 178.725 33.8833 178.381C33.674 178.281 33.4914 178.194 33.1453 177.988C32.8228 177.787 32.4722 177.576 31.8786 177.027C31.4089 176.569 30.4362 175.6 29.9021 173.777C29.2879 171.823 29.8439 169.511 30.4997 168.423C30.7916 167.888 31.0994 167.477 31.3825 167.15C31.6401 166.854 31.8395 166.662 32.0429 166.479C32.4719 166.102 32.6929 165.957 32.9464 165.787C33.3989 165.494 33.6858 165.356 33.9125 165.245C34.7998 164.836 35.111 164.764 35.4854 164.637C35.8332 164.526 36.1149 164.445 36.3801 164.369C43.169 162.806 46.5595 163.243 48.8842 163.01C47.432 163.363 43.5711 162.894 36.4164 164.496C36.1403 164.574 35.8477 164.657 35.4837 164.772C35.0898 164.909 34.7734 164.967 33.7637 165.458C33.4788 165.609 33.1413 165.774 32.5391 166.229C32.2082 166.494 31.8406 166.77 31.2521 167.502C30.9526 167.891 30.6659 168.305 30.352 169.001C30.03 169.727 29.7786 170.643 29.7555 171.669C29.7205 172.693 29.9784 173.812 30.3125 174.57C30.6282 175.311 31.0246 175.894 31.3989 176.34C31.9929 177.049 32.6062 177.489 32.9017 177.688C33.6506 178.177 33.9906 178.296 34.3102 178.435C35.4306 178.866 35.7714 178.893 36.2099 179C37.7396 179.311 38.6798 179.407 39.7237 179.541C43.2271 179.944 45.961 180.252 47.2764 180.392C55.6172 181.307 45.6892 179.965 39.7537 179.277C38.0912 179.058 36.6497 178.802 35.7837 178.53C34.8026 178.208 36.3266 178.619 38.1628 178.768C37.7395 178.72 37.3104 178.668 36.8012 178.586C36.5368 178.543 36.2758 178.498 35.9256 178.421C35.5591 178.33 35.2464 178.292 34.3409 177.926C34.0662 177.805 33.8415 177.712 33.342 177.407C33.1064 177.256 32.874 177.107 32.4752 176.764C32.1086 176.431 31.6818 176.05 31.138 175.16C30.6593 174.401 30.1297 172.911 30.2317 171.482C30.2885 170.111 30.8718 168.885 31.2387 168.328C31.445 168.003 31.6524 167.736 31.8481 167.511C32.0238 167.31 32.1655 167.168 32.3115 167.03C32.4551 166.895 32.5898 166.779 32.7159 166.678C32.8307 166.585 32.9221 166.517 33.0171 166.448C33.7708 165.923 34.0638 165.819 34.3688 165.669C34.6422 165.544 34.8459 165.463 35.0275 165.393C35.715 165.133 36.114 165.015 36.527 164.883C40.2832 163.787 42.9325 163.738 45.6691 163.467C53.3442 163.484 42.6345 163.744 62.911 163.389C66.2606 163.094 48.5529 163.605 52.1238 163.381C54.2118 163.186 65.9937 163.076 66.1861 163.033C66.4265 162.948 55.7931 163.112 57.4958 162.996C61.1539 162.597 99.6773 163.088 70.3497 163.053C75.0961 163.06 78.491 163.239 81.933 163.369C84.3512 163.464 86.8358 163.535 89.824 163.508C94.4044 163.476 68.6787 162.497 107.271 163.119C108.092 163.347 91.8478 162.971 91.4097 162.989C90.8043 163.006 93.7881 163.537 94.267 163.568C96.1058 163.645 135.45 163.994 143.775 164.388C140.487 164.05 173.514 164.82 177.113 164.778C178.073 164.769 174.49 164.54 175.515 164.536C181.914 164.526 199.154 165.077 207.177 165.162C216.138 165.262 214.994 165.093 215.5 165.099C219.436 165.139 216.292 165.217 218.688 165.235C220.201 165.245 225.129 165.285 230.618 165.298C238.706 165.327 247.771 165.236 248.527 165.208C248.887 165.196 244.827 165.077 250.233 164.972C251.187 164.91 250.635 165.316 266.546 164.622C285.454 163.452 253.329 164.996 261.199 164.362C273.496 164.201 272.963 163.748 276.176 163.509C276.807 163.433 279.592 163.314 283.239 162.582C285.987 162.046 289.158 161.06 291.961 159.393C289.391 160.933 286.461 162.025 283.273 162.741C280.667 163.342 278.074 163.695 275.245 163.977C277.53 163.778 280.358 163.47 283.289 162.814C288.524 161.741 292.69 159.371 295.43 157.222C295.766 156.979 296.088 156.756 296.428 156.544C296.288 156.641 296.092 156.76 295.682 157.125C295.255 157.575 294.584 157.993 293.867 159.924C293.163 161.881 293.729 164.256 294.52 165.415C294.608 165.559 294.731 165.737 294.787 165.812C294.849 165.898 294.911 165.979 294.973 166.056C295.096 166.209 295.215 166.344 295.329 166.464C295.558 166.704 295.765 166.887 295.949 167.035C297.114 167.897 297.214 167.79 297.407 167.898C297.583 167.965 297.633 167.974 297.681 167.985C297.725 167.994 297.749 167.996 297.756 167.992C297.787 167.977 297.722 167.932 297.553 167.868C297.214 167.74 296.337 167.506 293.927 167.089C293.375 166.993 292.078 166.883 292.225 167.004C292.279 167.061 292.739 167.182 293.782 167.389C294.305 167.494 294.976 167.62 295.819 167.781C296.252 167.864 296.695 167.95 297.142 168.044C297.34 168.086 297.584 168.141 297.681 168.166C297.723 168.174 297.759 168.192 297.525 168.107C297.334 168.012 297.231 168.073 296.208 167.401C295.846 167.14 295.329 166.746 294.746 165.98C293.968 165.065 292.942 162.553 293.644 160.221C294.36 157.971 295.161 157.508 295.593 157.038C296.025 156.654 296.22 156.54 296.361 156.442C294.879 157.47 294.308 157.989 293.331 158.661C293.076 158.768 293.268 158.614 293.735 158.271C294.274 157.89 294.701 157.515 296.328 156.391C296.119 156.567 295.783 156.623 294.763 157.844C294.359 158.339 293.424 159.801 293.358 161.661C293.258 163.43 293.976 165.048 294.616 165.903C295.499 167.101 296.283 167.512 296.488 167.656C296.789 167.844 297.067 167.975 297.153 168.014C297.397 168.125 297.533 168.17 297.587 168.189C297.654 168.212 297.685 168.221 297.691 168.223C297.712 168.228 297.543 168.182 297.376 168.144C297.029 168.063 296.535 167.962 296.112 167.881C295.205 167.706 294.302 167.551 293.569 167.435C293.096 167.362 291.104 167.327 286.884 166.465C285.887 166.29 297.164 167.035 268.338 163.336C267.401 163.218 270.645 163.816 269.726 163.702C269.154 163.629 264.151 162.855 261.869 162.516C261.419 162.45 261.088 162.402 260.949 162.384C260.533 162.331 261.217 162.468 261.857 162.599C262.527 162.734 263.152 162.863 262.653 162.802C262.388 162.769 262.117 162.734 261.842 162.696C256.902 162.028 251.549 160.797 261.424 162.291C257.933 161.714 254.472 161.143 250.963 160.566C254.669 161.482 245.47 159.861 240.629 159.163C209.613 154.697 230.341 157.971 224.991 157.313C216.39 156.258 223.026 156.591 210.27 154.924C209.092 154.772 224.435 157.268 194.412 152.755C198.841 153.387 203.289 154.022 207.719 154.656C205.215 153.933 191.7 152.355 190.668 152.211C178.86 150.552 186.858 151.576 169.306 149.229C167.744 149.021 164.336 148.442 160.995 148.005C147.087 146.188 179.28 150.746 180.138 151.02C180.539 151.143 145.962 146.152 144.762 145.954C139.74 145.086 160.461 148.135 156.536 147.388C155.498 147.191 128.501 143.374 110.432 140.865C103.868 139.952 98.4974 139.213 95.8886 138.84C84.5306 137.212 79.4055 136.09 79.3058 136.619C76.1377 135.68 73.2781 135.696 71.8254 135.52C65.8573 134.79 62.0952 134.435 58.8682 134.201C58.0642 134.137 57.2689 134.082 56.2766 133.956C55.7243 133.872 55.2952 133.857 54.0918 133.507C53.711 133.378 53.4593 133.326 52.6368 132.898C52.4475 132.795 52.2409 132.673 52.014 132.52C51.899 132.442 51.7877 132.362 51.6537 132.259C51.482 132.126 51.3003 131.974 51.1107 131.794C50.3707 131.047 49.3939 130.024 49.0094 127.743C48.8543 126.693 48.9744 125.606 49.2451 124.743C49.4722 124.019 49.7216 123.546 49.9921 123.105C50.5259 122.251 51.0875 121.746 51.3116 121.542C51.8873 121.03 52.3822 120.739 52.6095 120.605C52.8819 120.445 53.1671 120.302 53.3467 120.217C53.5239 120.132 53.6925 120.058 53.8578 119.988C54.2134 119.84 54.4004 119.772 54.6727 119.673C55.1428 119.505 55.6028 119.36 55.9688 119.249C56.8041 118.998 57.5146 118.808 58.2883 118.609C61.3186 117.838 64.711 117.096 69.7013 116.076C73.0613 115.392 75.8843 115.019 77.0727 114.765C77.763 114.618 76.4613 114.687 79.7951 114.004C80.0261 113.958 80.3156 113.9 80.661 113.833C87.1224 112.545 112.648 108.184 114.649 107.934C116.731 107.662 102.83 110.062 105.333 109.78C115.411 108.009 125.073 106.28 135.22 104.527C139.431 103.801 137.291 104.285 139.113 103.97C139.878 103.837 154.414 101.21 153.792 101.277C152.327 101.429 107.428 109.336 119.218 107.083C121.482 106.647 129.598 105.484 128.265 105.406C159.827 99.9397 191.455 94.5894 222.879 88.932C231.436 87.3701 239.955 85.8474 248.179 83.9773C240.257 85.8816 231.687 87.4667 222.907 89.0837C207.248 91.943 191.011 94.7081 175.538 97.4271C172.23 98.0085 161.036 99.9285 162.424 99.844C181.193 96.6106 204.158 92.5446 222.925 89.1845C224.745 88.8582 226.382 88.5647 228.116 88.2518C228.746 88.1382 226.461 88.7042 228.819 88.2887C233.18 87.5588 247.405 84.4951 249.545 83.9345C250.023 83.8716 242.126 85.8027 244.557 85.3867C250.708 84.3222 252.588 83.2746 256.532 81.8218C256.745 81.7329 257.001 81.6146 257.112 81.554C257.145 81.5443 257.129 81.519 256.799 81.8153C256.678 81.9308 256.308 82.2765 255.944 82.9161C255.588 83.4651 255.055 85.0423 255.303 86.4235C255.403 87.1057 255.632 87.7252 255.886 88.1967C256.156 88.6871 256.323 88.8846 256.519 89.1165C256.702 89.3266 256.876 89.4831 256.978 89.5673C257.072 89.6458 257.146 89.6984 257.197 89.7328C257.399 89.8589 257.245 89.7475 257.011 89.6483C256.538 89.4334 255.62 89.1221 254.707 88.8633C250.762 87.7488 245.236 86.7607 240.08 85.9276C233.801 84.9222 227.926 84.142 225.176 83.8481C219.711 83.2825 233.112 85.0233 240.041 86.1786C242.812 86.6316 244.516 86.9584 243.943 86.91C242.582 86.693 241.404 86.5137 240.021 86.3064C222.176 83.7168 203.772 81.4217 186.614 79.2396C186.289 79.1988 189.092 79.6943 184.976 79.1912C177.81 78.3123 175.953 77.8702 172.47 77.3837C168.727 76.8734 155.381 75.0799 153.632 74.7413C153.419 74.7021 156.115 74.8878 156.532 74.9399C162.344 75.6713 164.377 76.1912 164.897 76.2664C166.872 76.5422 168.844 76.7067 170.643 76.9496C173.621 77.3513 175.242 77.6533 179.17 78.1673C181.877 78.5208 179.286 78.0149 181.894 78.357C182.852 78.4859 193.135 80.1834 194.144 79.9047C194.238 79.3935 131.704 73.3921 107.781 65.18C105.691 64.1155 103.64 63.9542 101.047 59.8607C100.521 58.9232 100.065 57.1394 100.216 55.7767C100.328 54.4024 100.779 53.3238 101.236 52.5242C101.997 51.2164 102.839 50.4882 103.205 50.1532C102.335 50.9866 100.714 52.2768 100.219 55.4912C99.813 58.9475 101.832 61.3165 102.734 62.1723C104.958 64.1708 106.211 64.5424 107.752 65.2486C113.258 67.4187 118.067 68.3791 123.052 69.4735C118.162 68.3976 113.111 67.4127 107.722 65.3223C106.109 64.5922 104.824 64.2359 102.537 62.1368C101.556 61.2072 99.6409 58.6788 100.107 55.3555C100.631 52.2472 102.123 51.0143 102.982 50.1601C106.467 47.3546 108.371 47.0613 110.296 46.2744C113.949 45.0208 116.286 44.5478 116.768 44.5694C137.813 39.3793 158.448 36.7405 179.063 33.2618C210.241 28.1488 241.324 22.3729 272.257 16.0136C274.513 15.5498 276.78 15.0807 279.036 14.6087C287.326 12.8536 284.701 13.8111 293.845 11.5514C294.184 11.4589 294.541 11.3662 294.881 11.2806C295.046 11.239 295.219 11.1958 295.309 11.1716C295.347 11.1621 295.384 11.1486 295.258 11.1882C295.181 11.2161 295.099 11.2292 294.713 11.4057C294.495 11.5234 294.24 11.5919 293.519 12.1813C293.14 12.5318 292.552 13.0041 291.992 14.304C291.379 15.6022 291.553 17.7339 292.094 18.7217C292.282 19.3433 293.539 20.7418 293.847 20.873C294.323 21.228 294.82 21.4515 294.99 21.5208C295.337 21.6647 295.578 21.7288 295.722 21.7666C295.919 21.8167 296.048 21.8379 296.089 21.8451C296.188 21.8617 296.195 21.8611 296.188 21.8608C296.165 21.8583 296.079 21.85 295.994 21.843C295.808 21.8275 295.564 21.8103 295.347 21.7963C294.865 21.7651 294.345 21.736 293.789 21.7069C294.29 21.7479 294.797 21.7907 295.274 21.8354C295.505 21.8574 295.739 21.8804 295.948 21.9043C296.036 21.9148 296.14 21.9279 296.173 21.9348C296.186 21.9375 296.196 21.9418 296.102 21.9288C296.069 21.9237 295.965 21.9096 295.761 21.8616C295.697 21.8462 295.412 21.7788 295.063 21.6414C294.96 21.6003 294.477 21.4134 293.95 21.0506C293.817 20.9589 293.677 20.8543 293.535 20.7362C293.46 20.6741 293.403 20.6251 293.311 20.5401C293.194 20.4318 293.078 20.3149 292.966 20.1918C292.513 19.7024 292.167 19.0961 292.016 18.7574C291.521 17.8181 291.285 15.9082 291.799 14.5774C292.29 13.2142 292.909 12.6494 293.28 12.2786C294.046 11.5936 294.361 11.4981 294.579 11.3723C295.009 11.164 295.106 11.1469 295.199 11.111C295.352 11.0592 295.326 11.0685 295.298 11.0732C295.224 11.0888 295.059 11.126 294.893 11.1634C294.557 11.2396 294.178 11.3289 293.81 11.4216C291.623 11.9748 289.251 12.4262 286.84 12.9031C288.358 12.5723 290.935 12.0637 293.776 11.2977C294.131 11.2021 294.502 11.1082 294.841 11.0253C295.006 10.9846 295.175 10.9436 295.252 10.9237C295.283 10.9169 295.312 10.9053 295.162 10.9539C295.072 10.9878 294.978 11.0031 294.55 11.2052C294.323 11.3317 294.023 11.4188 293.249 12.0849C292.86 12.4605 292.231 13.0038 291.69 14.3899C291.114 15.7538 291.334 17.8334 291.866 18.8265C292 19.1212 292.268 19.6145 292.637 20.063C292.819 20.2876 293.023 20.5016 293.226 20.6866C293.35 20.7999 293.475 20.9038 293.596 20.9978C294.085 21.3736 294.52 21.5894 294.819 21.7201C295.177 21.8741 295.419 21.9434 295.598 21.9923C295.846 22.0575 295.946 22.0725 296.025 22.0871C296.133 22.1054 296.161 22.1073 296.16 22.1072C296.155 22.106 296.093 22.0987 296.009 22.0907C295.862 22.0762 295.662 22.0597 295.451 22.0435C295.038 22.012 294.596 21.9823 294.145 21.9534C293.232 21.8951 292.298 21.8407 291.303 21.7849C289.369 21.6766 287.307 21.5691 285.23 21.4637C281.048 21.2519 276.755 21.0465 272.732 20.8591C264.707 20.4857 257.932 20.1923 255.58 20.1158C254.925 20.0955 253.945 20.2788 247.018 20.0464C246.301 20.0226 245.508 19.9937 244.625 19.9587C236.51 19.6375 235.217 19.3772 230.867 19.1555C227.234 18.9709 223.154 18.8551 222.056 18.798C221.219 18.754 220.874 18.6132 218.911 18.5095C212.622 18.18 217.651 18.7448 211.472 18.0796C213.004 18.1276 214.467 18.1727 216.034 18.2222C208.433 17.8473 198.073 17.2332 209.249 17.6044C211.195 17.6693 209.522 17.7222 210.967 17.7819C267.203 20.1048 222.286 17.9872 202.574 17.3638C197.5 16.9717 169.135 15.9142 168.211 15.8411C166.897 15.7354 171.774 15.791 165.396 15.4038C164.037 15.3208 126.14 13.8691 139.799 14.188C142.609 14.2533 160.798 15.0514 165.182 15.2246C154.909 14.4181 130.665 13.9754 127.96 13.8508C116.972 13.3412 149.042 14.3808 124.338 13.325C105.343 12.5138 123.143 13.4983 115.854 13.3097C111.728 13.2022 90.2596 12.0425 90.8157 12.4312C83.4475 12.1694 87.7649 12.152 86.8569 12.101C85.9489 12.0516 71.4514 11.5693 66.7362 11.2997C66.1638 11.2668 67.9746 11.1505 67.3833 11.1108C66.2224 11.0368 52.2352 10.504 51.675 10.4973C51.3178 10.4939 54.6435 10.7961 53.2719 10.7806C51.6731 10.7619 38.209 10.1734 37.4549 10.1903C36.4118 10.2197 53.0356 10.8504 50.2601 10.9234C42.5964 10.5639 30.1021 10.1785 25.0391 10.1219C26.273 10.1293 33.7192 10.4269 36.2886 10.5468C35.0707 10.7698 19.1089 10.1151 24.5736 10.1221C21.1024 10.0965 23.4668 10.2544 21.5088 10.2839C20.9934 10.2906 16.0673 10.0954 15.1171 10.1039C14.9943 10.1083 20.067 10.418 19.0493 10.4319C17.2079 10.4569 2.26918 9.82508 1.04586 9.74891C-2.39089 9.53432 9.78966 9.94111 10.812 9.86778C10.9516 9.85581 0.611318 9.20864 0.450824 9.18218C-0.142732 8.94438 11.3716 9.56796 10.0639 9.32229C7.21515 9.16548 4.3697 9.00879 1.51815 8.85185C12.5194 9.10584 32.8666 10.0359 38.1112 10.0283C21.8122 9.42938 4.74539 8.7255 4.80492 8.22904C4.82555 8.01978 11.86 8.18354 11.5927 8.11921C10.5567 7.88581 0.794799 7.69529 0.431397 7.67037C0.134767 7.64662 -0.000380083 7.62976 2.48064e-05 7.61874C2.50023e-05 7.61874 2.51982e-05 7.61873 2.53941e-05 7.61873C0.00876075 7.50717 13.927 7.99429 14.6271 7.97174C15.8025 7.92891 9.62096 7.30315 9.63252 7.22098C9.853 7.21337 19.7645 7.52922 16.4276 7.2489C13.0519 6.96554 4.37479 6.6084 4.07223 6.58092C2.41791 6.42631 17.5993 6.96605 18.0486 6.93291C18.2906 6.91676 10.1488 6.42482 9.91058 6.36915C9.71011 6.31485 15.9118 6.46718 18.3525 6.42117C20.1741 6.38732 14.8855 6.0887 15.8164 6.10972C16.478 6.12546 30.8142 6.71205 31.5268 6.72211C32.5787 6.73689 29.2224 6.47075 29.7129 6.45844C30.4107 6.44042 35.0383 6.67583 34.4374 6.6035C33.9896 6.54959 16.0446 5.37211 16.1749 5.25841C16.3786 5.06374 35.3838 6.30596 17.7216 4.78454C17.5991 4.77428 13.2935 4.65559 13.173 4.64574C10.5221 4.39024 24.3343 4.7269 7.45399 4.07802C38.8603 5.10303 11.3711 3.93265 16.0328 3.781C17.8256 3.72275 29.9984 4.16508 30.0607 4.14791C28.8777 3.933 25.0058 3.90433 23.6889 3.7689C22.9647 3.69369 33.8605 3.96191 31.4151 3.74775C30.1415 3.63683 18.5917 3.18673 18.1116 3.15564C13.5468 2.86097 19.155 2.97286 18.1542 2.85499C17.4919 2.77631 10.5165 2.48771 10.3332 2.47093C10.0457 2.43986 19.5123 2.61724 21.4969 2.62481C23.0006 2.62968 17.3685 2.31151 18.4183 2.32972C24.7374 2.44027 38.1275 3.36181 25.2262 2.30959C24.4402 2.24527 19.5464 2.05869 19.4015 2.04636C16.3817 1.77407 25.3974 2.12892 27.0058 2.07246C29.7778 1.97518 16.8427 1.56486 27.6009 1.85574C19.541 1.38943 15.0361 1.21145 5.59127 0.864547C31.751 1.82458 40.9999 1.65731 11.9649 0.486754C21.2003 0.871934 20.1888 0.523362 22.946 0.63043C24.6568 0.697202 38.0423 1.54873 31.928 0.613764C31.1563 0.496649 23.0216 0.273659 25.5752 0.202535C45.1054 1.04387 25.9828 0.107628 25.9745 0.0841237C26.2439 -0.30881 73.9515 1.96813 82.1396 2.25669C91.6678 2.59229 100.121 2.61947 102.189 2.70357C109.009 2.98214 103.345 2.91223 104.866 3.03382C106.378 3.15434 125.791 3.63871 126.715 3.69364C130.483 3.91613 126.649 3.95066 127.04 3.97633C131.681 4.2833 157.683 5.19881 164.947 5.54211C164.735 5.40913 150.142 4.80034 159.236 4.97409C169.877 5.17838 170.471 5.75059 170.745 5.78589C196.305 6.83468 221.955 7.88831 247.487 8.96401C255.885 9.31865 264.145 9.67065 272.485 10.0372C276.619 10.2191 280.844 10.4076 284.962 10.5999C287.053 10.6978 289.113 10.7959 291.234 10.9039C292.242 10.9554 293.34 11.0131 294.384 11.0733C294.908 11.1036 295.449 11.1361 295.995 11.1733C296.265 11.1919 296.537 11.2112 296.857 11.2384C296.999 11.2507 297.174 11.2661 297.381 11.2895C297.497 11.3031 297.598 11.314 297.804 11.3466C297.88 11.359 298.053 11.3866 298.28 11.4413C298.351 11.4582 298.654 11.5321 298.983 11.6618C299.183 11.7919 300.676 12.1188 301.755 14.2712C302.202 15.1212 302.413 16.8322 301.952 18.0284C301.51 19.2537 300.949 19.7688 300.607 20.11C299.9 20.7419 299.585 20.8467 299.359 20.9741C298.907 21.1922 298.749 21.2327 298.592 21.2886C298.309 21.3817 298.18 21.413 298.055 21.4473C297.817 21.5101 297.662 21.5476 297.504 21.5875C297.198 21.6641 296.924 21.7347 296.647 21.8103C290.707 23.3795 285.196 24.4403 279.506 25.6558C279.895 25.6877 288.13 24.1654 296.687 21.9553C296.963 21.879 297.236 21.808 297.542 21.7307C297.701 21.6905 297.856 21.6527 298.096 21.5888C298.223 21.5539 298.353 21.5218 298.644 21.4261C298.804 21.3684 298.967 21.3268 299.433 21.1008C299.668 20.9677 299.991 20.8605 300.721 20.2032C301.072 19.8514 301.65 19.3149 302.098 18.0517C302.564 16.8205 302.344 15.0798 301.888 14.2101C301.766 13.9391 301.518 13.4856 301.178 13.0774C301.014 12.8765 300.81 12.6671 300.649 12.523C300.535 12.4201 300.421 12.326 300.309 12.241C299.866 11.9029 299.448 11.6998 299.198 11.5924C298.861 11.4489 298.624 11.3808 298.435 11.33C298.188 11.2654 298.034 11.2384 297.916 11.2174C297.738 11.1868 297.582 11.1672 297.499 11.157C297.276 11.1306 297.162 11.1206 297.002 11.1061C296.738 11.0829 296.497 11.0652 296.248 11.0478C295.784 11.0159 295.315 10.9879 294.895 10.9639C294.029 10.9145 293.139 10.869 292.359 10.8304C290.723 10.7497 289.265 10.6837 287.966 10.6251C285.421 10.5109 283.74 10.4383 283.57 10.4217C282.779 10.3431 283.966 10.3626 286.53 10.4569C287.841 10.5058 289.407 10.5691 291.282 10.6547C292.178 10.6956 293.219 10.7454 294.262 10.8009C294.757 10.8272 295.347 10.8603 295.899 10.8955C296.199 10.9148 296.481 10.9337 296.808 10.9599C296.97 10.973 297.152 10.9885 297.354 11.0101C297.492 11.0256 297.566 11.0323 297.799 11.067C297.852 11.0751 297.902 11.0832 297.968 11.0949C298.059 11.1111 298.161 11.1307 298.285 11.1592C298.378 11.1818 298.62 11.2333 298.992 11.3702C299.093 11.4995 300.672 11.6193 302.006 14.1557C302.465 15.0378 302.698 16.7825 302.237 18.0446C301.791 19.3441 301.196 19.9075 300.84 20.2695C300.086 20.9583 299.755 21.0671 299.509 21.2079C299.028 21.4433 298.86 21.4863 298.695 21.5459C298.398 21.6443 298.265 21.6772 298.137 21.7126C297.893 21.7774 297.739 21.8153 297.58 21.8556C297.274 21.9332 297.001 22.0044 296.721 22.0816C289.525 23.9771 281.676 25.4898 274.522 26.9905C266.169 28.7069 259.131 30.0851 257.014 30.4716C261.946 29.5553 266.889 28.6207 271.821 27.673C263.489 29.7401 244.784 33.011 232.617 35.4314C228.692 36.2178 236.283 34.9216 236.115 34.9599C231.721 35.9278 224.601 37.1469 229.871 35.9881C219.09 38.1604 220.629 37.684 212.336 39.1656C211.906 39.2411 215.499 38.7385 208.935 39.9656C205.862 40.5546 189.417 43.3888 187.231 43.8587C186.325 44.064 194.775 43.1675 195.719 42.5441C213.647 39.6563 201.397 41.3529 208.349 40.1431C209.412 39.9457 207.015 40.6776 224.458 37.3666C221.225 38.4483 201.022 41.7111 197.58 42.3354C190.483 43.6968 219.857 38.7965 225.168 37.4013C222.715 38.2122 227.258 37.0717 233.78 35.857C240.932 34.5191 237.83 35.2133 241.694 34.4751C252.254 32.437 247.835 33.0415 256.577 31.547C249.122 32.4079 265.68 29.5194 274.704 27.8748C276.137 27.6158 277.349 27.3975 278.269 27.2313C277.095 27.4793 275.928 27.7248 274.725 27.9768C264.857 30.0454 254.973 32.0547 245.06 34.0046C245.709 33.9164 246.352 33.829 246.99 33.7424C244.055 34.3072 241.15 34.8608 238.221 35.4133C238.684 35.2894 239.132 35.1682 239.602 35.0428C224.565 38.1348 220.836 38.5146 219.607 38.7439C207.493 40.931 193.97 43.2841 181.061 45.4056C177.072 46.0619 173.139 46.6984 169.347 47.3122C166.949 47.7107 168.598 47.6293 151.115 50.3552C145.54 51.2475 150.769 50.1665 144.476 51.2863C136.737 53.1511 136.824 52.7791 134.498 53.2182C127.881 54.4955 123.986 55.5597 123.364 55.7076C120.405 56.427 116.859 57.3265 113.791 58.4969C113.043 58.7852 112.326 59.1044 111.858 59.3619C111.606 59.4986 111.454 59.6051 111.435 59.6202C111.416 59.6122 111.655 59.5434 112.15 58.6906C112.418 58.2011 112.694 57.4471 112.721 56.529C112.767 55.6276 112.455 54.6274 112.216 54.1842C111.627 53.1053 111.349 53.0629 111.321 53.0057C111.295 52.989 111.45 53.0944 111.683 53.2125C111.889 53.3187 112.177 53.4526 112.537 53.5998C114.34 54.3305 116.565 54.9479 118.688 55.4818C118.901 55.5355 114.463 54.2476 119.969 55.6875C121.812 56.3247 140.032 60.4358 156.54 62.4522C152.26 61.8022 148.06 61.1417 143.796 60.4335C148.73 61.4035 183.989 65.9263 175.398 64.605C170.132 63.8273 157.169 62.4628 155.848 61.8637C167.415 63.8157 232.503 71.5397 237.669 72.6392C238.393 72.7558 233.978 72.247 234.966 72.4064C235.324 72.464 238.487 72.9064 242.027 73.4583C246.515 74.1413 251.754 75.1233 252.871 75.3992C254.092 75.6537 247.306 74.436 247.838 74.6018C248.137 74.6966 252.849 75.4173 258.135 76.8365C259.415 77.1986 260.872 77.6225 262.495 78.3669C263.369 78.8174 264.245 79.1151 265.768 80.6179C266.17 81.0505 266.511 81.4516 266.94 82.215C267.376 83.0035 267.719 84.0162 267.798 85.085C267.887 86.1836 267.685 87.2881 267.344 88.1588C266.996 89.0336 266.686 89.492 266.327 89.9793C265.549 90.9673 265.142 91.2522 264.651 91.6493C264.14 92.0363 263.855 92.21 263.523 92.4126C262.844 92.815 262.405 93.0243 261.997 93.2205C261.13 93.6246 260.765 93.7686 260.587 93.8609C261.245 93.5943 262.089 93.2707 263.28 92.61C263.595 92.4318 263.906 92.2433 264.257 92.0018C264.683 91.7074 265.131 91.3611 265.606 90.8912C266.156 90.3273 266.847 89.5795 267.411 88.1555C268.051 86.6231 268.011 84.3852 267.338 82.8952C265.952 80.0349 264.754 79.6823 263.935 79.0566C263.454 78.7609 263.202 78.6311 262.841 78.4492C262.507 78.2823 262.14 78.1189 261.892 78.0136C260.73 77.526 259.817 77.2366 258.936 76.9656C255.697 76.0301 254.134 75.6598 257.765 76.4919C258.273 76.6266 259.674 76.9995 261.441 77.7055C261.886 77.8866 262.313 78.0705 262.861 78.3449C263.119 78.4749 263.372 78.6116 263.621 78.7566C263.894 78.9152 264.236 79.1311 264.536 79.3471C265.08 79.7335 265.92 80.4285 266.581 81.3619C267.267 82.2386 267.906 83.9605 267.946 85.0496C268.049 86.2522 267.812 87.4041 267.468 88.2694C267.122 89.1243 266.823 89.5656 266.498 90.0184C265.813 90.9178 265.426 91.2156 265.078 91.5245C264.737 91.8131 264.447 92.0211 264.253 92.1576C264.083 92.2777 263.958 92.3612 263.873 92.4187C263.704 92.5322 263.697 92.5444 263.834 92.469C263.988 92.3777 264.191 92.2777 264.771 91.8532C265.042 91.6513 265.361 91.397 265.733 91.0341C266.135 90.6365 266.763 89.9593 267.287 88.9276C267.899 87.8403 268.382 85.6043 267.856 83.7916C267.636 82.8971 267.165 81.9864 266.817 81.4825C266.465 80.9568 266.083 80.5223 265.705 80.155C262.947 77.7958 261.669 77.7289 259.978 77.0644C253.645 75.0798 246.285 74.0564 242.043 73.3569C241.054 73.2031 240.241 73.0803 239.73 73.0031C240.505 73.1113 241.278 73.2221 242.047 73.3351C246.346 73.9831 251.066 74.7045 256.347 75.9555C257.603 76.2621 259.057 76.6417 260.576 77.1677C261.4 77.4605 262.135 77.7262 263.239 78.2897C263.697 78.5284 264.403 78.9244 265.112 79.4898C265.404 79.7173 266.011 80.2487 266.48 80.838C266.737 81.1604 266.94 81.4325 267.232 81.9425C267.519 82.4514 267.778 83.0471 267.954 83.7111C268.323 85.0143 268.267 86.6824 267.826 87.9473C267.351 89.2931 266.903 89.8644 266.386 90.5144C265.823 91.1715 265.533 91.4073 265.145 91.7328C264.789 92.0256 264.382 92.3047 264.144 92.4569C262.986 93.188 262.143 93.5422 261.3 93.8944C259.649 94.5589 258.285 94.971 256.841 95.3887C245.801 98.3541 235.045 100.078 225.26 101.961C223.652 102.261 221.968 102.575 220.418 102.866C214.534 103.836 222.734 102.294 225.225 101.77C226.068 101.594 226.296 101.53 225.213 101.704C224.807 101.769 224.207 101.869 223.361 102.013C203.297 105.404 218.085 103.155 217.436 103.29C212.509 104.322 195.455 106.611 195.534 107.148C188.279 108.341 190.603 107.864 180.384 109.725C181.739 109.527 183.097 109.328 184.445 109.13C173.141 111.433 148.957 114.826 150.756 114.453C155.569 113.45 168.132 111.521 169.201 111.328C170.78 111.041 175.061 109.742 192.474 107.188C199.497 105.582 164.977 111.747 180.645 108.749C170.038 110.651 126.334 117.981 120.075 119.259C119.323 119.414 122.902 119.157 112.077 120.873C106.934 121.69 119.281 119.507 116.93 119.837C114.403 120.199 100.448 122.566 82.9013 125.811C78.1721 126.695 73.232 127.636 68.2174 128.683C65.6969 129.215 63.1929 129.756 60.7896 130.382C60.2034 130.536 59.6172 130.7 59.1386 130.853C59.0097 130.894 58.8982 130.931 58.8054 130.963C58.695 131.002 58.6067 131.035 58.5547 131.056C58.4951 131.079 58.4639 131.097 58.5446 131.056C58.593 131.031 58.6639 130.995 58.8113 130.9C58.9062 130.839 59.0272 130.755 59.1813 130.628C59.3462 130.483 59.4767 130.401 59.8652 129.931C60.0377 129.715 60.227 129.442 60.4072 129.09C60.497 128.914 60.5839 128.718 60.6616 128.502C60.7373 128.298 60.8482 127.915 60.8994 127.575C61.1868 126.132 60.5241 124.41 59.9942 123.769C59.4291 122.997 58.8899 122.657 58.6754 122.512C58.403 122.336 58.1995 122.239 58.0434 122.17C57.5613 121.97 57.5247 121.995 57.5074 121.984C57.5093 121.986 57.7509 122.025 57.9865 122.051C58.4898 122.108 59.1221 122.157 59.7749 122.206C80.4772 123.976 100.24 127.104 112.134 128.652C115.335 129.094 117.975 129.462 119.849 129.724C121.068 129.895 120.594 129.944 121.784 130.111C125.455 130.622 138.863 132.35 145.416 133.341C131.845 131.189 158.274 134.944 164.984 135.937C175.178 137.44 174.517 137.551 178.92 138.229C195.871 140.842 222.262 144.197 235.369 146.571C234.809 146.103 251.991 149.056 263.587 150.909C265.586 151.227 267.308 151.497 268.864 151.729C277.221 152.97 289.473 154.559 278.157 152.647C281.948 153.228 285.828 153.82 289.72 154.434C291.659 154.741 293.616 155.054 295.556 155.383C296.557 155.554 297.537 155.725 298.559 155.92C299.063 156.017 299.591 156.122 300.176 156.255C300.322 156.289 300.471 156.324 300.647 156.369C300.803 156.408 301.006 156.462 301.218 156.525C301.463 156.604 301.685 156.655 302.278 156.921C302.411 156.982 302.688 157.118 302.971 157.298C303.159 157.433 303.879 157.82 304.627 158.897C305.167 159.674 305.678 160.976 305.554 162.41C305.449 163.872 304.703 164.99 304.385 165.377C303.558 166.354 303.255 166.433 303.042 166.602C298.893 170.054 291.735 173.551 285.865 174.669C284.752 174.915 283.561 175.149 282.411 175.337C279.968 175.707 283.291 175.118 279.184 175.67C278.805 175.71 278.302 175.936 274.867 176.243C246.905 177.843 260.582 176.706 255.336 176.87C252.442 176.886 250.298 176.893 248.758 176.906C262.356 176.686 277.722 176.263 285.789 174.321C287.257 173.999 288.425 173.674 289.254 173.427C288.607 173.578 287.406 173.895 285.77 174.232C275.603 176.596 251.463 176.806 243.508 176.858C243.194 176.857 244.286 176.691 243.967 176.693C243.961 176.693 243.954 176.693 243.947 176.693C242.237 176.703 235.936 176.748 230.596 176.77C225.242 176.796 220.842 176.825 223.118 176.933C223.731 176.961 226.52 176.991 230.596 177.004C234.787 177.016 240.332 177.008 246.377 176.937C243.115 177.004 245.555 177.156 244.979 177.169C241.706 177.242 236.16 177.251 230.595 177.207C224.452 177.16 218.227 177.059 215.085 177.02C213.694 177.003 213.803 177.117 213.578 177.115C208.124 177.039 210.38 176.739 204.752 177.012C194.895 176.51 223.266 177.136 221.302 176.838C219.739 176.727 156.651 175.95 156.838 176.234C156.621 176.197 155.757 176.141 153.977 176.064C150.034 175.895 132.482 175.64 129.459 175.65C128.945 175.653 129.145 175.963 128.508 175.956C126.929 175.935 105.482 175.353 97.4853 175.437C101.796 175.536 106.107 175.641 110.454 175.749C84.3249 175.379 88.3594 175.554 97.0775 175.746C97.5176 175.753 97.9259 175.77 98.3399 175.777C105.071 175.933 113.722 176.132 113.856 176.158C114.247 176.228 91.4552 175.927 81.8299 175.776C77.9797 175.712 76.1876 175.65 78.6106 175.585C78.8746 175.578 80.1049 175.585 81.8314 175.602C87.4726 175.654 97.9842 175.828 90.1168 175.576C89.2565 175.548 85.4042 175.511 81.8323 175.489C78.2235 175.465 74.9005 175.459 74.5163 175.446C72.5164 175.375 76.7131 175.313 81.8341 175.277C88.5787 175.226 97.1006 175.224 95.0893 175.077C91.1193 175.142 86.5384 175.104 81.8358 175.066C78.2446 175.037 74.6323 175.009 71.1977 175.024C67.5783 175.041 66.7145 175.2 66.2401 175.203C59.5296 175.267 63.3494 175.093 61.0752 175.11C59.8537 175.078 46.829 175.718 49.2911 175.202C45.1154 175.39 41.3487 175.635 39.7567 176.176C39.5053 176.251 39.2743 176.323 39.1476 176.369C39.0889 176.39 39.0497 176.408 39.1132 176.384C39.1463 176.37 39.2098 176.345 39.3425 176.277C39.4994 176.184 39.6788 176.132 40.2479 175.643C40.5102 175.392 40.9892 174.986 41.4678 173.975C42.0523 172.923 42.0679 170.71 41.4231 169.588C40.8285 168.424 40.3264 168.082 39.9753 167.78C39.6569 167.533 39.4477 167.418 39.2864 167.33C38.708 167.039 38.6904 167.077 38.6268 167.048C38.5619 167.028 38.7211 167.065 38.8653 167.088C39.53 167.198 40.3865 167.291 41.1047 167.364C48.1215 168.019 46.727 167.825 41.1223 167.208C40.3637 167.119 39.4735 167.007 38.8475 166.886C38.7172 166.863 38.5691 166.819 38.7299 166.866C38.7743 166.88 38.8535 166.904 38.9982 166.964C39.163 167.039 39.3731 167.099 39.9337 167.487C40.0539 167.572 40.2786 167.745 40.486 167.944C40.5934 168.046 40.7062 168.162 40.8225 168.295C40.9414 168.43 41.1113 168.644 41.2562 168.866C41.8448 169.601 42.4357 171.723 41.9801 173.152C41.549 174.678 40.9696 175.183 40.6394 175.562C40.4718 175.734 40.3223 175.865 40.191 175.972C40.0691 176.07 39.9823 176.133 39.8947 176.193C39.5522 176.425 39.4234 176.477 39.3272 176.526C39.2286 176.573 39.1945 176.586 39.1727 176.595C39.1354 176.61 39.1771 176.594 39.2383 176.574C39.3672 176.532 39.5843 176.467 39.8208 176.4C44.5096 175.314 55.1307 175.39 63.8172 175.288C57.7702 175.515 45.5341 175.288 39.8512 176.506C39.6191 176.573 39.4068 176.636 39.279 176.679C39.2178 176.699 39.1767 176.715 39.2101 176.702C39.2646 176.67 39.2969 176.703 39.8621 176.352C40.0256 176.242 40.1935 176.135 40.523 175.835C40.7963 175.566 41.3149 175.109 41.8054 174.019C42.3918 172.898 42.3848 170.641 41.7286 169.472C41.4625 168.904 41.1019 168.431 40.8624 168.167C40.6276 167.906 40.4099 167.712 40.2182 167.558C39.5412 167.041 39.2989 166.979 39.0981 166.881C38.9325 166.81 38.8334 166.778 38.7833 166.761C38.587 166.702 38.7327 166.747 38.8572 166.768C39.4654 166.883 40.3701 166.992 41.1372 167.076C41.456 167.111 41.7757 167.144 42.0888 167.176C44.7133 167.441 43.158 167.1 47.7175 167.575C52.0153 168.001 63.6181 169.621 75.8331 172.285C90.4806 175.422 106.067 179.565 112.191 181.229C105.281 179.458 107.253 180.152 112.579 181.556C117.9 182.978 113.493 181.551 114.537 181.807C115.342 182.001 128.377 185.582 137.196 188.43C140.692 189.546 143.523 190.537 144.702 190.95C141.576 189.852 139.087 189.066 137.181 188.477C130.224 186.38 131.043 186.717 137.123 188.66C139.402 189.405 142.402 190.389 146.003 191.711C143.688 190.915 141.368 190.175 139.053 189.472C148.665 192.046 167.238 201.431 172.124 203.566C172.915 203.919 170.151 202.477 170.6 202.677C171.586 203.121 173.102 203.821 174.878 204.638C180.994 207.45 190.198 211.652 190.758 211.867C191.373 212.099 184.967 209.086 187.391 210.11C187.886 210.321 194.04 213.293 200.19 216.027C202.466 217.04 201.157 216.296 201.732 216.548C206.534 218.665 203.626 217.573 212.357 221.556C218.749 224.494 223.599 226.501 232.329 230.855C203.596 216.8 227.862 228.311 239.868 234.332C241.266 235.035 240.842 234.654 244.859 236.705C246.382 237.488 248.519 238.611 251.614 240.322C248.482 238.694 246.265 237.588 244.78 236.857C241.252 235.131 242.013 235.567 244.715 236.981C249.708 239.55 261.114 245.799 264.609 247.913C264.947 248.117 264.99 248.315 268.03 250.14C268.288 250.299 267.973 249.966 270.795 251.682C297.23 268.857 280.26 257.978 285.202 261.401C286.31 262.283 290.376 264.992 294.455 269.024C295.358 269.955 296.282 270.952 297.206 272.397C297.969 273.728 299.588 276.186 298.377 280.011C296.889 283.619 294.658 284.288 293.607 284.877C292.42 285.406 291.606 285.618 290.994 285.785C289.867 286.039 290.172 285.977 286.272 286.542C285.102 286.698 283.992 286.825 282.922 286.944C277.8 287.526 273.163 287.895 269.6 288.031C269.106 288.024 269.052 287.964 260.938 288.056C258.66 288.069 256.097 288.092 259.336 288.181C265.218 288.337 274.185 288.097 282.937 287.095C286.269 286.62 289.157 286.76 293.954 284.757C295.154 284.131 297.123 283.118 298.328 280.299C299.456 277.389 298.59 275.017 298.041 273.767C296.793 271.203 295.624 270.115 294.553 268.929C294.112 268.467 293.661 268.021 293.238 267.615C290.184 264.854 291.495 265.775 294.649 268.835C295.625 269.893 296.792 270.92 298.124 273.512C298.699 274.771 299.732 277.251 298.484 280.439C297.128 283.497 295.005 284.448 293.775 285.068C288.763 287.038 285.815 286.876 282.958 287.293C279.836 287.627 277.476 287.805 277.041 287.839C276.372 287.899 283.221 287.246 276.249 287.791C270.288 288.267 259.401 288.76 250.638 288.324C249.964 288.312 242.98 287.708 243.313 287.699C243.601 287.74 254.346 288.117 252.79 287.964C252.59 287.965 245.775 287.693 244.892 287.573C243.79 287.449 240.923 286.601 239.467 286.487C238.606 286.422 238.064 286.386 237.721 286.37C236.622 286.318 237.606 286.477 235.76 286.338C230.607 285.977 212.929 284.245 212.346 284.437C215.264 284.699 218.177 284.962 221.1 285.223C204.854 283.867 211.773 284.558 209.469 284.407C206.984 284.248 207.7 284.094 202.24 283.632C201.048 283.473 178.222 281.933 178.639 282.118C191.255 282.729 186.568 282.732 187.148 282.762C189.353 282.926 192.192 282.981 195.158 283.206C216.045 284.87 194.955 283.43 199.883 283.879C201.584 284.032 204.972 284.184 205.691 284.25C208.037 284.464 208.055 284.628 209.623 284.746C213.268 285.023 209.036 284.437 209.324 284.45C212.584 284.579 225.382 285.849 217.389 285.417C222.165 285.913 222.751 285.661 226.545 286.095C234.101 286.946 222.753 285.968 219.698 285.74C208.707 284.962 205.463 284.5 189.996 283.418C184.421 283.036 177.832 282.808 175.252 282.692C173.627 282.56 158.316 281.534 157.858 282.383C155.806 282.322 153.347 282.215 150.763 282.125C145.865 281.949 140.483 281.847 136.478 282.007C130.979 282.237 132.736 282.463 132.224 282.492C131.445 282.532 124.789 282.858 122.549 283.058C119.914 283.282 121.237 283.291 117.066 283.644C106.684 284.582 106.936 284.352 105.866 284.419C93.4604 285.479 98.9214 285.352 96.1926 285.679C94.9788 285.833 86.049 286.832 76.3799 288.302C73.5397 288.732 70.6656 289.194 67.9778 289.709C66.6521 289.965 65.3442 290.24 64.2369 290.528C63.6979 290.667 63.1789 290.826 62.9394 290.919C62.8444 290.946 62.7579 291.028 63.1905 290.763C63.4217 290.56 63.839 290.502 64.7581 289.078C65.1864 288.395 65.6643 286.962 65.4848 285.61C65.3213 284.246 64.7873 283.415 64.4618 282.957C65.2927 284.325 68.3894 285.758 69.8314 286.382C67.2162 285.28 65.1152 284.103 64.4151 283.125C65.3874 285.115 71.8608 287.295 71.574 287.545C71.9374 287.522 73.1148 287.921 74.7355 288.495C78.4693 289.828 84.249 292.104 86.4932 292.892C87.7691 293.342 87.699 293.224 89.2982 293.786C93.9883 295.446 103.105 298.598 108.804 300.36C110.695 300.95 112.206 301.401 113.058 301.644C119.797 303.508 115.652 302.255 108.899 300.055C100.827 297.436 89.0269 293.157 87.4302 292.566C90.5939 293.712 101.745 297.575 108.998 299.741C115.232 301.606 118.578 302.462 111.501 300.239C110.813 300.018 109.964 299.769 109.069 299.512C106.899 298.893 104.467 298.228 103.52 297.924C94.47 294.979 101.638 297.146 100.936 296.892C99.7425 296.47 93.7396 294.632 92.1825 294.053C91.6647 293.857 95.0819 294.884 86.5 291.829C89.3108 292.717 100.714 296.777 109.106 299.395C113.473 300.773 117.024 301.787 118.12 302.078C119.265 302.243 112.23 300.48 132.939 305.708C132.704 305.622 132.47 305.536 132.237 305.449C134.958 306.022 137.683 306.529 140.399 306.952C149.212 308.255 158.933 309.162 168.285 310.522C166.94 310.416 160.001 309.633 168.715 310.801C173.721 311.494 170.052 310.782 170.501 310.84C171.536 310.978 176.64 311.699 184.009 312.859C208.298 316.643 257.183 325.366 268.851 327.455C270.574 327.762 273.268 328.227 276.195 328.732C282.13 329.752 288.814 330.913 289.579 331.059C290.546 331.239 291.882 331.489 293.504 331.81C294.313 331.97 295.183 332.145 296.169 332.361C296.662 332.47 297.169 332.583 297.811 332.75C298.167 332.846 298.467 332.92 299.08 333.131C299.432 333.267 299.717 333.325 300.664 333.851C301.07 334.136 301.927 334.447 303.187 336.202C303.877 337.187 304.405 338.727 304.439 339.999C304.485 341.264 304.265 341.956 304.211 342.21C303.815 343.642 303.48 344.123 303.177 344.676C302.873 345.191 302.589 345.592 302.299 345.967C301.721 346.709 301.127 347.334 300.426 347.945C292.347 354.389 284.783 354.763 279.846 356.158C277.957 356.567 276.457 356.88 275.618 357.059C272.711 357.675 275.5 357.259 272.906 357.784C270.494 358.267 272.957 357.613 272.242 357.752C267.803 358.667 241.894 363.709 224.481 366.891C218.463 368 213.45 368.902 210.7 369.365C212.975 368.967 218.397 367.949 224.461 366.783C235.82 364.605 249.479 361.883 249.037 361.892C248.892 361.907 240.962 363.28 239.342 363.637C236.963 363.965 229.603 365.628 224.428 366.603C223.706 366.739 223.024 366.863 222.403 366.967C221.831 367.063 224.034 366.435 215.042 368.043C211.945 368.596 203.866 370.25 195.645 371.499C189.881 372.533 172.248 375.7 154.761 377.907C136.114 380.246 118.324 380.662 116.21 381.072C116.079 381.084 124.879 380.629 118.943 381.091C111.073 381.74 118.111 380.798 108.954 381.445C108.787 381.457 108.264 381.499 107.454 381.567C101.73 381.971 81.9753 384.179 81.2501 384.33C73.5521 385.468 95.8589 383.002 95.5457 383.126C94.7781 383.23 76.2613 385.384 75.5123 385.503C74.7955 385.571 89.8423 383.393 71.7281 385.758C73.8067 385.531 75.8881 385.31 77.9711 385.096C69.4514 386.221 68.6171 386.133 66.5554 386.389C62.6959 386.882 58.6314 387.56 53.8559 388.314C50.722 388.821 47.1924 389.341 43.5244 390.027C41.1541 390.495 45.0397 389.417 44.7744 389.482C42.9132 389.778 40.3386 390.582 39.8112 391.075C39.7017 391.134 39.6711 391.219 40.237 390.728C40.5227 390.415 41.096 390.076 41.7738 388.401C42.5605 386.714 41.8881 383.737 41.1203 382.862C40.7724 382.346 40.4956 382.065 40.2426 381.825C40.038 381.635 39.8619 381.498 39.7155 381.393C39.4684 381.217 39.305 381.131 39.229 381.091C39.0494 381.001 39.0656 381.021 39.1048 381.038C39.3447 381.153 40.0753 381.403 40.7916 381.638C40.8727 381.664 40.295 381.537 39.7659 381.403C39.5129 381.34 39.2593 381.27 39.1312 381.236C38.9914 381.197 38.9925 381.207 39.0055 381.227C39.0281 381.25 38.9507 381.23 39.0051 381.264C39.0643 381.299 39.3542 381.421 40.0436 381.621C41.4179 382.024 44.3119 382.691 49.2103 383.601C47.8579 383.319 46.5396 383.037 45.2185 382.74C46.2135 382.921 49.4523 383.532 53.4119 384.214C60.2427 385.408 68.9951 386.768 70.7151 387.037C78.6305 388.279 71.6868 387.457 79.6643 388.598C74.6016 387.633 98.861 390.895 97.4455 390.896C100.871 391.061 121.536 393.612 131.278 394.367C135.467 394.73 142.639 395.208 147.396 395.467C149.614 395.592 151.318 395.68 151.938 395.721C154.319 395.874 153.584 396.05 157.89 396.319C159.117 396.405 171.956 396.86 183.246 397.35C185.426 397.45 190.026 397.909 185.951 397.905C178.978 397.916 165.825 397.13 165.985 397.334C166.169 397.6 183.919 398.072 188.693 398.164C210.761 398.689 198.015 398.695 198.584 398.789C200.059 399 212.118 399.101 212.629 399.109C214.718 399.192 206.161 399.28 206.029 399.38C205.875 399.529 217.513 399.844 214.868 399.876C211.073 399.941 200.385 399.624 199.699 399.616C190.874 399.622 202.965 400.131 206.301 400.308C207.311 400.367 203.287 400.409 204.123 400.431C216.91 400.754 206.832 400.008 215.342 400.097C222.939 400.154 213.17 400.345 213.446 400.354C213.837 400.374 222.912 400.4 224.338 400.466C225.038 400.539 201.418 400.847 202.399 401.004C209.943 401.05 217.469 401.038 225.016 400.979C225.594 401.227 214.768 401.047 213.636 401.058C211.378 401.099 217.669 401.245 217.406 401.319C217.259 401.369 209.871 401.516 216.544 401.611C218.857 401.64 223.64 401.485 232.015 401.61C202.937 401.899 223.083 401.995 223.945 402.085C224.79 402.17 210.876 402.389 227.759 402.326C228.493 402.793 227.394 402.48 222.6 402.57C216.734 402.66 230.297 402.873 208.842 402.667C210.06 402.92 227.314 402.924 228.226 402.917C229.021 402.93 225.165 403.052 226.541 403.084C242.74 403.426 231.593 403.291 236.301 403.532C236.71 403.562 252.022 403.493 240.365 403.66C219.15 403.93 210.298 403.478 206.722 404.13C222.425 404.576 241.43 403.948 246.194 403.874C253.51 403.769 245.937 404.004 246.841 404.03C247.078 404.037 251.017 403.98 252.715 403.958C253.203 403.952 253.51 403.949 253.529 403.951C254.328 404.03 253.968 404.094 252.717 404.148C247.112 404.419 223.686 404.302 215.288 404.305C218.02 404.39 220.783 404.469 223.51 404.541C219.794 404.55 216.075 404.547 212.351 404.531C230.07 404.727 212.966 404.611 208.553 404.978C207.548 405.065 219.219 404.985 205.916 405.148C215.73 405.28 212.575 405.347 221.472 405.241C221.243 405.429 201.268 405.54 193.383 405.443C221.217 405.977 205.357 405.242 229.402 405.558C233.875 405.334 222.396 405.42 223.317 405.378C226.677 405.253 234.564 405.421 244.055 404.884C245.6 404.795 239.059 404.661 248.736 404.551C249.276 404.545 251.091 404.566 252.724 404.591C254.425 404.614 255.935 404.641 255.897 404.649C255.534 404.717 254.201 404.762 252.727 404.796C250.886 404.84 248.867 404.864 248.72 404.9C248.586 404.935 250.847 404.907 252.728 404.88C254.137 404.859 255.294 404.84 255.32 404.846C255.41 404.933 254.082 404.971 252.729 404.993C251.4 405.014 250.039 405.018 250.486 405.04C250.776 405.056 251.659 405.069 252.731 405.084C257.982 405.148 268.829 405.198 252.736 405.426C250.627 405.454 248.022 405.484 244.875 405.51C248.265 405.443 250.859 405.384 252.734 405.338C259.651 405.166 257.585 405.167 252.733 405.235C248.524 405.295 242.147 405.394 237.919 405.461C235.298 405.503 234.613 405.618 230.861 405.677C226.022 405.754 220.346 405.705 217.855 405.719C215.164 405.727 230.464 406.047 208.333 405.876C219.602 406.241 239.477 405.855 250.537 405.859C251.369 405.861 252.103 405.863 252.742 405.866C260.164 405.897 258.016 406.023 252.746 406.163C245.754 406.358 233.219 406.503 231.048 406.526C230.001 406.541 233.51 406.666 232.816 406.679C231.677 406.73 210.161 406.669 208.043 406.737C205.924 406.845 215.93 406.781 216.581 406.9C217.035 407.029 191.078 406.919 205.129 407.123C214.8 407.283 232.678 406.876 235.667 407.202C221.443 407.344 207.181 407.339 192.937 407.11C200.732 407.391 208.53 407.604 216.327 407.764C200.343 407.759 186.509 407.375 171.304 407.032C207.812 408.568 159.432 407.081 158.892 406.915C158.71 406.963 173.082 407.928 175.396 408.042C168.757 407.917 155.077 407.376 146.67 406.915C138.921 406.492 135.653 406.388 146.524 407.337C142.411 406.994 132.424 406.47 132.557 406.489C133.285 406.669 141.021 407.285 146.624 407.649C150.597 407.914 153.49 408.089 152.011 408.081C150.433 408.071 148.608 407.971 146.613 407.825C143.387 407.589 139.715 407.233 135.813 406.944C103.411 404.189 112.161 406.162 79.8329 401.766C80.4668 401.893 81.1166 402.021 81.7516 402.146C71.497 400.7 61.3081 399.103 51.0975 397.282C48.0223 396.73 44.9966 396.173 41.8781 395.527C40.3212 395.201 38.7455 394.861 37.0472 394.413C36.1728 394.173 35.3162 393.957 34.0083 393.436C33.6468 393.285 33.2495 393.115 32.6983 392.805C32.3561 392.605 32.088 392.453 31.5446 392.026C31.294 391.822 31.0412 391.61 30.6668 391.206C30.4913 391.014 30.3113 390.799 30.1322 390.553C29.9367 390.286 29.7022 389.92 29.5071 389.53C28.5672 388.074 28.5438 384.637 29.4224 383.2C30.2039 381.641 30.8411 381.17 31.2621 380.759C32.0872 380.05 32.4024 379.907 32.6175 379.758C41.1968 375.44 45.6651 375.948 51.6957 374.696C64.9033 372.671 77.9605 371.105 91.137 369.709C94.8092 369.237 100.13 368.613 106.328 368.031C121.138 366.634 139.966 365.951 153.029 364.102C155.169 363.832 157.166 363.563 158.979 363.313C162.511 362.887 179.975 360.256 181.304 360.029C183.751 359.685 170.345 361.915 176.422 361.023C177.697 360.91 207.283 355.771 205.139 355.942C201.819 356.529 191.465 358.456 189.761 358.704C184.106 359.543 201.47 356.535 221.871 352.747C244.673 348.586 271.097 343.485 273.36 342.868C271.368 343.227 269.357 343.579 267.344 343.925C270.493 343.308 273.659 342.674 276.757 342.014C279.208 341.491 281.597 340.922 283.853 340.263ZM51.5432 383.318C52.1042 383.392 52.7266 383.483 53.519 383.609C57.5987 384.26 64.3888 385.474 68.6944 386.099C75.7564 387.156 87.8925 388.143 82.6073 388.094C72.8951 386.78 63.1443 385.312 53.51 383.66C52.8275 383.542 52.2101 383.435 51.5432 383.318ZM174.219 375.614C167.142 376.627 172.572 375.411 178.362 374.623C179.003 374.533 183.777 374.197 174.219 375.614ZM99.8643 382.676C100.155 382.636 106.19 382.094 106.398 382.091C111.819 381.751 93.6321 383.389 99.8643 382.676ZM144.194 307.803C151.794 308.733 146.258 307.748 141.651 307.224C141.358 307.193 143.696 307.742 144.194 307.803ZM149.61 308.485C155.578 309.474 167.927 310.461 158.193 309.268C157.232 309.144 149.319 308.434 149.61 308.485ZM148.829 378.977C149.305 378.856 151.994 378.552 154.799 378.208C156.804 377.963 158.855 377.704 160.173 377.533C160.126 377.6 157.599 377.953 154.81 378.292C152.587 378.564 150.207 378.822 148.829 378.977ZM267.468 327.359C267.343 327.375 271.299 328.105 276.149 328.985C283.446 330.3 292.899 332.021 293.995 332.187C291.557 331.718 282.967 330.12 276.166 328.89C271.451 328.034 267.597 327.347 267.468 327.359ZM203.17 316.282C203.796 316.4 212.477 317.844 212.239 317.723C208.024 316.893 200.31 315.729 203.17 316.282ZM78.36 288.877C77.9806 288.752 82.0895 290.682 74.9478 287.93C73.6294 287.414 71.9161 286.729 69.9142 285.766C68.0232 284.91 74.9209 287.678 74.3034 287.354C72.8041 286.74 71.6762 286.256 70.7841 285.864C72.1655 286.455 73.6371 287.025 75.086 287.562C80.0833 289.413 84.385 290.953 84.8964 291.164C88.0348 292.461 78.5549 288.956 78.36 288.877ZM108.066 284.819C109.529 284.575 118.928 283.848 121.071 283.762C121.439 283.746 119.853 284.068 124.083 283.781C127.487 283.566 122.391 283.621 129.014 283.293C135.708 283.003 126.783 283.602 127.361 283.594C128.142 283.536 138.495 283.001 138.171 283.171C137.939 283.247 126.849 283.654 124.11 283.883C120.611 284.137 124.865 284.012 119.002 284.383C115.323 284.634 117.337 284.195 116.559 284.238C115.903 284.238 103.051 285.581 108.086 284.818C108.079 284.819 108.073 284.819 108.066 284.819ZM69.2158 285.165C69.6407 285.357 70.1484 285.585 70.7841 285.864C70.2448 285.634 69.7148 285.399 69.2158 285.165ZM41.9756 390.497C42.8208 390.289 42.7007 390.351 42.0338 390.561C41.7161 390.663 41.2548 390.814 40.8683 390.966C40.6736 391.043 40.5065 391.117 40.397 391.173C40.2739 391.239 40.2796 391.234 40.0188 391.402C39.9238 391.459 39.9158 391.485 40.2211 391.249C40.3794 391.118 40.6324 390.929 41.0673 390.412C41.4716 389.889 42.2847 388.893 42.5059 386.891C42.5984 385.917 42.4606 384.946 42.1706 384.116C41.9173 383.383 41.5622 382.795 41.268 382.397C41.0037 382.038 40.7499 381.769 40.5281 381.56C40.3461 381.388 40.1888 381.26 40.0497 381.155C39.5382 380.78 39.3948 380.739 39.2976 380.685C39.1491 380.618 39.2847 380.681 39.4434 380.732C39.6063 380.788 39.8263 380.857 40.0632 380.926C41.0106 381.201 42.1 381.464 42.8824 381.664C42.9071 381.697 41.9585 381.518 40.7737 381.23C40.205 381.093 39.5006 380.895 39.2254 380.793C39.171 380.775 39.1477 380.76 39.2855 380.828C39.3587 380.866 39.4704 380.921 39.6981 381.071C39.7975 381.136 39.9641 381.251 40.1601 381.414C40.2623 381.499 40.3509 381.576 40.4909 381.711C40.6332 381.848 40.7874 382.011 40.9488 382.207C41.227 382.537 41.7415 383.263 42.05 384.181C42.4186 385.213 42.5063 386.556 42.2488 387.665C41.6823 389.867 40.8078 390.463 40.5046 390.821C40.1386 391.166 39.9965 391.248 39.9268 391.301C39.8636 391.344 39.8819 391.33 39.947 391.289C40.2515 391.096 40.2328 391.112 40.4137 391.026C40.5731 390.953 40.8013 390.865 41.0281 390.787C41.4834 390.63 41.892 390.518 41.9756 390.497ZM65.3992 283.076C65.2493 282.916 65.1335 282.769 64.9932 282.57C65.387 283.113 66.037 284.176 66.1626 285.774C66.2966 287.389 65.7145 288.823 65.2411 289.559C64.2538 291.01 63.8458 291.075 63.5824 291.303C63.1061 291.606 63.1306 291.557 63.141 291.565C63.2098 291.542 63.4569 291.464 63.6346 291.417C64.0038 291.318 64.1902 291.284 64.1273 291.314C64.0774 291.342 63.7734 291.436 63.4428 291.559C63.2907 291.613 63.097 291.702 63.2188 291.655C63.3103 291.596 63.4061 291.638 64.1695 291.025C64.5412 290.647 65.3334 290.173 66.041 288.139C66.3666 287.155 66.4209 285.732 66.1339 284.673C65.86 283.599 65.4311 282.922 65.1156 282.481C65.4454 282.896 65.6231 283.085 66.2962 283.563C66.9481 284.018 68.0008 284.598 69.2158 285.165C68.0461 284.632 67.5086 284.397 66.9678 284.138C66.4515 283.886 65.8625 283.561 65.3992 283.076ZM239.342 363.637C239.794 363.574 240.086 363.554 240.132 363.602C238.937 363.763 238.836 363.749 239.342 363.637ZM264.12 359.025C272.58 357.195 255.326 360.576 255.46 360.656C255.511 360.697 263.784 359.102 264.12 359.025ZM134.727 306.237C135.463 306.363 123.966 304.745 140.332 307.382C140.441 307.397 140.551 307.411 140.662 307.426C140.55 307.408 140.44 307.39 140.333 307.372C133.472 306.16 138.419 306.978 140.354 307.241C140.783 307.299 141.063 307.333 141.04 307.322C141 307.3 140.761 307.253 140.363 307.181C137.363 306.774 125.264 304.211 122.347 303.292C119.684 302.877 132.284 305.825 134.708 306.233C134.714 306.234 134.72 306.235 134.727 306.237ZM229.253 287.567C227.071 287.532 220.225 286.914 215.617 286.512C217.782 286.56 224.61 287.19 229.253 287.567ZM125.489 56.8589C156.164 62.2368 160.32 63.0799 131.985 58.3114C131.487 58.2445 123.611 56.5503 125.489 56.8589ZM133.826 117.921C130.842 118.199 140.576 116.461 146.983 115.446C148.429 115.217 153.829 114.523 147.723 115.634C147.876 115.313 138.4 116.851 133.826 117.921ZM64.8022 290.891C66.559 290.312 71.7606 289.38 76.4423 288.709C78.4269 288.418 80.2962 288.16 81.7755 287.956C80.7149 288.154 78.7295 288.464 76.4593 288.82C72.3322 289.459 67.2236 290.309 64.8022 290.891ZM228.149 71.5588C231.461 72.0245 233.769 72.1428 233.189 72.0432C230.594 71.5947 224.348 70.9285 228.149 71.5588ZM85.5611 291.891C85.8619 292.086 78.3421 289.44 74.9067 288.039C74.0497 287.692 73.4747 287.429 73.3313 287.322C73.713 287.474 74.2637 287.689 74.9421 287.945C78.5822 289.327 85.3263 291.758 85.5611 291.891ZM220.534 286.774C218.548 286.559 228.826 287.341 231.967 287.62C231.695 287.712 221.827 286.922 220.534 286.774ZM246.32 97.7046C243.327 98.3356 235.92 99.7601 235.12 99.991C234.089 100.307 244.985 98.1546 246.32 97.7046ZM114.94 2.32769C114.564 2.27453 126.105 2.47448 131.276 2.75506C141.031 3.28609 115.323 2.3698 114.94 2.32769ZM196.712 67.6319C187.381 66.2569 197.741 67.7556 197.361 67.4977C191.059 66.7032 175.423 64.6923 186.151 66.269C188.242 66.5758 193.77 67.2485 196.712 67.6319ZM205.335 68.7875C206.369 68.8493 213.102 69.4875 207.293 68.7679C204.574 68.4319 200.223 68.1223 205.335 68.7875ZM186.584 5.17417C195.034 5.70597 156.302 4.01347 155.196 3.93688C154.609 3.89573 154.223 3.86384 154.004 3.84122C152.547 3.83985 145.283 3.55256 144.416 3.3693C146.638 3.47254 152.572 3.70287 153.296 3.74896C153.597 3.76827 153.821 3.784 153.975 3.79698C156.546 3.77366 184.935 5.07061 186.584 5.17417ZM250.743 8.03618C249.582 8.01996 248.509 7.99671 247.529 7.96872C240.685 7.77684 239.485 7.3688 240.213 7.38617C250.744 7.64065 243.873 7.69211 244.184 7.72108C244.501 7.74578 246.052 7.78901 247.535 7.83562C249.668 7.90411 251.662 7.97807 250.713 8.03491C250.723 8.03533 250.733 8.03576 250.743 8.03618ZM199.736 5.79304C199.337 5.78249 191.23 5.43345 190.889 5.41216C184.241 4.98231 207.199 5.9701 199.736 5.79304ZM158.536 282.452C164.27 282.625 158.638 282.648 154.834 282.554C154.523 282.55 153.479 282.331 158.536 282.452ZM209.952 69.3249C211.056 69.4805 235.286 72.6714 241.994 73.6746C243.351 73.8629 243.968 73.9322 243.641 73.8368C243.377 73.7973 242.823 73.7099 242.008 73.583C234.047 72.2394 202.406 68.184 209.952 69.3249ZM63.6759 130.532C69.4409 129.261 63.0937 130.841 60.3061 131.535C59.2903 131.778 62.1742 130.859 63.6759 130.532ZM101.638 297.695C107.604 299.51 106.24 299.54 101.151 297.702C100.952 297.629 101.404 297.623 101.638 297.695ZM111.11 121.705C90.5544 125.517 95.2216 123.87 122.143 119.396C121.305 119.578 120.462 119.761 119.63 119.941C150.641 114.632 121.768 119.613 114.182 120.998C111.322 121.52 113.744 121.222 111.13 121.703C111.124 121.704 111.117 121.704 111.11 121.705ZM81.0898 123.691C97.3545 126.346 75.0958 122.863 59.8169 121.65C58.9988 121.586 58.2197 121.521 57.7736 121.456C57.6748 121.442 57.5962 121.427 57.629 121.433C57.6514 121.438 57.6897 121.445 57.8219 121.485C57.9866 121.545 58.1054 121.546 58.7268 121.882C58.8736 121.966 59.0421 122.07 59.2346 122.211C59.4175 122.343 59.7855 122.638 60.1144 123.015C60.4548 123.404 60.8164 123.91 61.1082 124.622C61.4388 125.415 61.5968 126.424 61.5012 127.325C61.4574 127.775 61.3609 128.196 61.2382 128.564C61.147 128.838 61.0417 129.085 60.9319 129.305C60.7116 129.744 60.4779 130.075 60.2685 130.332C60.1634 130.46 60.0635 130.571 59.9699 130.668C59.8744 130.766 59.8386 130.8 59.7772 130.857C59.665 130.962 59.5643 131.047 59.4744 131.118C59.0947 131.412 58.9773 131.461 58.8786 131.519C58.7817 131.572 58.745 131.588 58.7332 131.594C58.7188 131.59 59.3729 131.362 59.8194 131.235C60.3088 131.09 60.8185 130.952 61.2598 130.835C60.6665 131.003 60.0378 131.187 59.5032 131.364C59.2358 131.453 59.0028 131.537 58.8412 131.604C58.7754 131.631 58.7204 131.659 58.764 131.643C58.7786 131.637 58.8397 131.611 58.9493 131.55C59.0089 131.517 59.058 131.49 59.1709 131.417C59.2928 131.337 59.4478 131.229 59.6452 131.063C59.7442 130.979 59.8514 130.882 59.9742 130.759C60.154 130.577 60.3598 130.346 60.5779 130.034C60.7949 129.722 61.0262 129.325 61.2195 128.821C61.4212 128.329 61.6537 127.336 61.5889 126.446C61.4497 124.465 60.5374 123.343 59.9384 122.722C59.2328 122.046 59.0067 121.971 58.7096 121.788C58.1333 121.482 58.0213 121.475 57.8586 121.415C57.7218 121.371 57.6848 121.363 57.6543 121.355C57.5776 121.336 57.8287 121.375 58.0565 121.394C58.556 121.442 59.1946 121.483 59.8266 121.522C66.8246 121.991 70.8941 122.348 59.8459 121.267C59.0855 121.2 58.1455 121.113 57.743 121.034C58.1219 121.096 59.0456 121.171 59.8486 121.23C84.5859 123.578 73.5486 122.864 74.6703 122.921C75.9936 123.099 80.2021 123.552 81.0898 123.691ZM84.2769 126.382C85.4641 126.139 94.0457 124.683 97.1882 124.103C94.1951 124.768 85.6563 126.292 83.0697 126.712C82.1237 126.865 81.9448 126.869 83.055 126.633C83.3534 126.569 83.7539 126.487 84.2769 126.382ZM278.509 27.0728C279.19 26.778 280.934 26.3243 287.782 24.9069C285.687 25.4382 281.326 26.4243 278.509 27.0728ZM57.9172 385.214C62.5858 386.035 71.9234 387.541 69.0808 386.942C68.7743 386.898 57.9407 385.149 57.9172 385.214ZM218.45 102.672C217.442 102.852 191.505 107.439 200.497 106.008C203.21 105.592 226.799 101.332 218.45 102.672ZM174.23 64.8845C176.404 65.1746 185.263 66.2843 185.457 66.272C186.069 66.2331 175.194 64.901 174.23 64.8845ZM81.5609 389.035C82.179 389.166 96.5553 391.041 94.9966 390.751C91.9995 390.262 79.4452 388.696 81.5609 389.035ZM179.458 282.925C180.667 282.988 182.258 283.242 182.674 283.27C183.651 283.268 205.824 284.873 197.335 284.435C195.902 284.226 164.082 282.248 159.975 282.374C158.381 282.089 171.94 282.708 175.252 282.903C175.835 282.929 176.216 282.76 179.448 282.926C179.451 282.925 179.454 282.925 179.458 282.925ZM281.875 9.4225C280.88 9.50287 254.623 8.4533 254.935 8.30436C263.922 8.66755 272.885 9.03262 281.875 9.4225ZM295.277 10.1153C301.121 10.5748 287.574 9.79997 283.823 9.62226C283.787 9.52287 294.379 10.0228 295.277 10.1153ZM223.605 71.7059C226.24 72.0179 218.194 70.7591 220.003 70.9572C221.173 71.0825 226.979 71.9245 228.91 72.1266C229.439 72.1756 223.462 71.1821 221.739 70.9685C219.285 70.6593 221.657 71.1185 218.953 70.7684C210.07 69.6227 202.167 68.5324 193.853 67.4859C193.1 67.3915 198.914 68.2306 192.507 67.4213C191.513 67.2948 185.579 66.393 177.916 65.4246C160.976 63.6481 148.522 61.7386 127.511 58.0369C128.272 58.3181 144.046 61.1053 144.987 61.201C162.766 64.0816 194.964 68.0227 213.81 70.4266C218.681 71.0508 216.327 70.6458 218.397 70.9088C220.057 71.122 218.089 71.0539 223.605 71.7059ZM55.423 384.892C57.6039 385.473 65.453 386.661 70.4729 387.434C68.7366 387.001 60.2763 385.791 55.423 384.892ZM184.723 44.3266C183.903 44.4656 182.516 44.6913 180.985 44.9381C177.843 45.4447 174.131 46.0331 173.701 46.142C173.175 46.2755 177.599 45.5959 180.998 45.0223C182.942 44.6946 184.538 44.4049 184.723 44.3266ZM290.088 264.737C289.878 264.508 284.731 260.618 284.52 260.505C282.244 258.807 285.003 260.667 287.641 262.676C290.265 264.663 292.768 266.89 290.088 264.737ZM158.35 196.321C154.016 194.342 149.404 192.565 147.941 191.859C150.865 192.914 158.942 196.443 158.35 196.321ZM116.043 176.143C115.072 175.925 129.128 176.279 131.778 176.341C130.805 176.414 116.74 176.298 116.043 176.143ZM277.387 26.6581C285.806 24.9117 283.982 24.9821 289.374 23.9544C290.267 23.7719 293.221 23.8125 283.88 25.5694C282.198 25.8772 288.7 24.3652 277.387 26.6581ZM126.516 118.637C128.619 118.133 135.388 116.991 139.918 116.212C138.915 116.487 129.73 118.064 126.516 118.637ZM107.542 392.486C111.49 393.177 129.92 394.795 125.377 394.231C124.72 394.184 110.125 392.818 107.542 392.486ZM85.57 286.834C91.6466 285.912 82.5633 287.019 76.3417 288.053C74.8712 288.292 73.5755 288.522 72.6683 288.7C73.317 288.589 74.712 288.367 76.3524 288.123C80.1365 287.553 85.2226 286.885 85.57 286.834ZM67.3339 175.531C67.7001 175.518 75.7943 175.554 76.1457 175.568C82.7527 175.74 59.9288 175.65 67.3339 175.531ZM202.277 216.676C199.56 215.557 182.015 207.582 178.183 205.699C181.991 207.235 205.664 218.02 202.277 216.676ZM242.661 33.6936C248.691 32.5264 254.414 31.4399 259.96 30.3846C258.83 30.729 243.311 33.6595 242.661 33.6936ZM97.0775 175.746C97.5176 175.753 97.9259 175.77 98.3399 175.777C97.9079 175.767 97.498 175.756 97.0775 175.746ZM110.915 58.9738C110.885 58.9637 111.372 58.7005 111.745 57.4637C112.118 56.2923 111.665 54.8125 111.435 54.4666C111.17 53.9722 111.005 53.8252 110.959 53.7563C110.897 53.6801 110.881 53.6551 110.875 53.6354C110.87 53.5761 110.921 53.5521 110.973 53.5959C111.029 53.6875 111.693 54.0577 112.011 55.7243C112.283 57.4667 111.385 58.7261 111.21 58.8981C110.938 59.1975 110.987 59.0941 111.092 59.023C111.189 58.9465 111.353 58.8369 111.511 58.739C111.823 58.5468 111.995 58.4432 111.85 58.4893C111.774 58.5157 111.651 58.5636 111.419 58.682C111.215 58.7814 110.933 58.9599 110.915 58.9738ZM61.118 386.142C62.8226 386.607 71.3299 387.833 76.2021 388.579C74.7994 388.249 65.037 386.79 61.118 386.142ZM102.52 126.902C108.92 127.961 82.8095 124.605 77.319 123.849C76.9506 123.641 101.618 126.726 102.52 126.902ZM63.1211 290.46C63.0784 290.454 62.851 290.515 62.7274 290.558C62.6864 290.563 62.6163 290.624 62.9693 290.404C63.1662 290.23 63.4803 290.2 64.3019 289.013C64.698 288.406 65.1906 287.218 65.0825 285.865C64.9803 284.529 64.439 283.65 64.1191 283.207C64.4016 283.591 64.6473 283.853 65.03 284.167C65.4056 284.475 65.9135 284.806 66.3886 285.076C67.3485 285.617 68.0551 285.915 67.4402 285.573C67.1216 285.389 66.3504 284.965 65.692 284.502C65.0036 284.015 64.6271 283.66 64.2234 283.131C64.5867 283.621 65.2648 284.795 65.2199 286.38C65.1775 287.953 64.4733 289.038 64.1113 289.496C63.2966 290.457 63.0602 290.454 62.9026 290.577C62.6359 290.719 62.7434 290.644 62.8084 290.617C62.9773 290.538 63.1722 290.461 63.1211 290.46ZM64.0207 122.284C62.9387 122.202 61.1727 122.048 59.7967 121.917C57.9128 121.746 57.3359 121.565 58.0135 121.616C58.4577 121.643 59.112 121.692 59.8092 121.753C62.0839 121.943 64.537 122.321 64.0207 122.284ZM262.17 79.0421C262.269 79.0899 262.445 79.1734 262.685 79.2974C262.934 79.4289 263.189 79.5575 263.687 79.8768C264.157 80.2039 264.641 80.4681 265.523 81.4739C266.189 82.0702 267.719 85.041 266.763 87.547C265.951 89.7918 264.855 90.4834 264.187 91.0569C263.779 91.367 263.51 91.5377 263.209 91.7225C262.921 91.8982 262.583 92.0823 262.336 92.2096C261.302 92.7384 260.39 93.0957 259.524 93.4174C256.301 94.5645 254.153 95.1379 257.294 94.3333C261.708 93.0566 262.704 92.3105 264.499 90.9797C264.568 90.9236 264.681 90.8315 264.836 90.6929C265.004 90.5388 265.144 90.4207 265.484 90.0444C265.789 89.6977 266.156 89.238 266.51 88.5478C266.887 87.8331 267.318 86.5225 267.202 85.1427C266.912 82.1658 265.172 80.8058 264.379 80.1529C263.442 79.4464 262.772 79.1217 262.018 78.7688C259.372 77.6047 257.005 77.0724 255.174 76.6245C253.493 76.2333 252.359 76.0203 253.091 76.203C253.97 76.5367 255.851 76.4685 262.17 79.0421ZM248.11 147.943C242.686 147.198 236.143 146.179 230.482 145.355C232.81 145.611 245.843 147.498 248.11 147.943ZM103.939 284.368C102.601 284.196 67.0773 288.981 87.2678 286.394C88.4324 286.16 107.932 284.075 103.939 284.368ZM277.387 26.6581C276.551 26.8304 275.643 27.0142 274.571 27.2272C274.283 27.2842 273.984 27.3434 273.67 27.405C273.983 27.3418 274.282 27.2814 274.57 27.2235C275.636 27.0089 276.546 26.8272 277.387 26.6581ZM181.248 44.567C181.701 44.4695 181.514 44.4813 180.923 44.5637C178.987 44.8347 172.656 45.8579 170.437 46.2564C169.635 46.4967 179.068 44.9482 180.933 44.623C181.114 44.5917 181.225 44.5721 181.248 44.567ZM230.029 145.426C226.789 145.008 220.821 144.077 216.8 143.498C217.49 143.507 228.659 145.132 230.029 145.426ZM142.165 176.094C148.716 176.255 156.785 176.361 156.909 176.253C157.045 176.272 157.362 176.296 157.89 176.323C158.423 176.35 165.442 176.41 168.495 176.495C186.75 177.019 97.9753 175.482 149.435 176.01C147.006 176.038 144.594 176.066 142.165 176.094ZM225.871 227.944C229.194 229.663 238.672 234.184 236.255 232.926C234.581 232.013 222.555 226.191 225.871 227.944ZM91.6139 176.406C92.7014 176.675 102.657 179.058 102.926 179.068C97.2499 177.519 86.6774 175.111 91.6139 176.406ZM251.527 241.131C253.589 242.268 256.333 243.546 256.096 243.404C254.04 242.155 248.096 239.143 251.527 241.131ZM259.792 29.6478C256.375 30.2754 245.515 32.5633 243.169 33.1547C242.715 33.2138 241.533 33.4054 239.33 33.7823C239.336 33.781 239.343 33.7798 239.35 33.7785C236.465 34.614 148.063 49.763 207.392 39.8169C209.258 39.4936 206.682 39.828 214.242 38.4959C214.743 38.4074 215.014 38.4655 216.547 38.1934C220.1 37.5824 238.959 34.1283 242.719 33.2972C242.755 33.3101 243.006 33.2808 243.528 33.1973C248.196 32.4649 262.462 29.1683 259.792 29.6478ZM71.7301 171.996C72.5643 172.179 74.1048 172.495 75.7186 172.827C78.0466 173.306 80.4486 173.803 80.8578 173.838C79.7471 173.574 77.71 173.122 75.743 172.712C72.0874 171.948 68.6924 171.338 71.7301 171.996ZM102.799 284.102C98.6695 284.422 88.3017 285.847 91.4523 285.537C93.3723 285.295 107.537 283.687 102.799 284.102ZM135.126 188.158C111.98 181.178 129.588 186.507 126.005 185.585C129.045 186.413 132.083 187.264 135.126 188.158ZM226.183 7.74638C229.974 7.93587 225.557 8.01959 221.305 7.69713C219.965 7.59516 224.104 7.64265 226.183 7.74638ZM54.1656 0.768615C57.4118 1.13886 41.5265 0.351061 47.7259 0.440834C48.0176 0.44723 53.937 0.750236 54.1656 0.768615ZM174.35 5.7829C176.994 5.72978 178.587 5.77598 185.93 6.11855C175.093 5.71782 185.172 6.27597 174.35 5.7829ZM156.838 176.234C156.88 176.241 156.916 176.247 156.909 176.253C156.862 176.246 156.842 176.24 156.838 176.234ZM271.279 252.475C273.803 254.148 280.97 258.872 278.911 257.35C278.729 257.181 272.402 253.018 271.279 252.475ZM243.169 33.1547C243.565 33.1033 243.37 33.1572 242.719 33.2972C242.685 33.2851 242.852 33.2355 243.169 33.1547ZM231.235 230.796C231.558 230.814 219.995 225.219 219.517 225.031C212.777 222.061 226.474 228.435 231.235 230.796ZM98.0153 297.726C98.6365 297.926 94.734 296.325 92.2606 295.567C90.3447 294.985 95.6831 296.987 98.0153 297.726ZM149.623 4.83356C145.599 4.66835 139.897 4.43484 138.86 4.2669C141.545 4.39611 149.728 4.74576 149.623 4.83356ZM60.378 1.19436C65.1364 1.241 76.0778 1.68796 83.0175 1.99564C83.1626 2.19569 64.8377 1.33063 60.378 1.19436ZM270.576 27.5393C270.242 27.6048 260.27 29.5632 261.671 29.4103C263.693 29.2044 273.395 27.0361 270.576 27.5393ZM79.626 291.074C75.3638 289.601 85.0057 293.452 89.5638 294.815C91.897 295.539 80.334 291.343 79.626 291.074ZM293.277 268.545C293.649 268.896 293.93 269.172 294.115 269.354C294.628 269.868 294.576 269.788 294.149 269.32C292.571 267.37 285.625 261.956 284.256 261.178C286.584 262.814 291.518 266.784 293.277 268.545ZM107.936 180.874C126.154 186.158 116.364 182.801 113.099 181.974C112.638 181.855 107.491 180.745 107.936 180.874ZM153.777 397.182C155.81 397.251 150.489 396.837 147.322 396.633C146.353 396.573 145.585 396.534 145.285 396.545C144.977 396.556 145.929 396.651 147.314 396.762C149.489 396.939 152.739 397.147 153.777 397.182ZM248.758 176.906C247.95 176.918 247.147 176.928 246.377 176.937C246.958 176.925 247.728 176.914 248.758 176.906ZM246.617 286.688C260.029 287.785 258.672 287.13 259.823 287.188C262.368 287.218 268.271 287.322 273.091 287.014C267.585 287.382 262.089 287.501 256.607 287.467C259 287.551 271.893 287.78 282.88 286.545C285.047 286.322 287.182 286.098 289.386 285.667C291.57 284.996 293.998 285.375 297.248 281.315C298.789 279.007 298.421 276.216 297.987 275.015C297.543 273.682 297.061 272.954 296.692 272.371C295.941 271.251 295.491 270.788 295.412 270.696C295.158 270.462 295.573 270.909 296.36 272.036C296.749 272.623 297.251 273.35 297.742 274.636C298.202 275.794 298.739 278.344 297.466 280.712C296.201 282.986 294.613 283.725 293.582 284.256C292.507 284.76 291.651 285.004 290.951 285.196C289.538 285.565 288.696 285.686 288.584 285.709C288.018 285.804 286.008 285.739 284.903 285.848C284.662 285.874 283.926 285.958 282.83 286.07C275.422 287.295 250.898 287.209 246.617 286.688ZM146.184 192.213C143.27 191.102 142.477 190.7 141.095 190.265C140.638 190.125 140.495 190.214 138.913 189.733C141.336 190.512 143.769 191.333 146.184 192.213ZM222.708 285.499C218.962 285.03 235.793 286.471 236.367 286.491C239.245 286.825 225.743 285.912 222.708 285.499ZM236.937 233.752C237.248 233.912 241.132 235.883 244.4 237.587C246.898 238.885 249.03 240.013 249.01 239.957C248.188 239.497 246.438 238.549 244.445 237.501C239.165 234.713 232.205 231.301 236.937 233.752ZM136.944 189.109C132.559 187.676 124.27 185.151 125.162 185.622C125.168 185.624 125.175 185.625 125.181 185.627C129.115 186.74 133.02 187.881 136.944 189.109ZM66.0158 285.844C68.9619 287.693 70.2059 288.033 69.4276 287.647C68.8118 287.273 66.0504 285.984 64.4541 284.491C63.4734 283.732 64.9236 285.216 66.0158 285.844ZM90.094 295.548C91.5738 296.126 102.598 299.916 108.409 301.624C111.128 302.439 112.694 302.854 111.603 302.471C111.273 302.353 110.054 301.984 108.451 301.491C104.163 300.188 97.1022 297.887 96.6696 297.724C95.7652 297.394 99.9826 298.649 93.0194 296.291C93.4032 296.494 89.3478 295.267 90.094 295.548ZM71.5537 288.702C72.5336 289.136 73.4334 289.503 74.2392 289.817C79.5245 291.862 80.2682 291.771 75.1989 289.887C74.9136 289.78 74.612 289.67 74.3321 289.57C72.3698 288.872 70.6604 288.301 71.5537 288.702ZM81.0886 286.178C79.984 286.321 78.2289 286.558 76.1597 286.866C72.6593 287.387 68.2763 288.115 65.148 288.925C68.6398 288.149 72.4253 287.547 76.1762 286.973C79.6395 286.448 83.1566 285.952 86.6327 285.495C87.4635 285.299 83.6723 285.841 81.069 286.181C81.0755 286.18 81.082 286.179 81.0886 286.178ZM10.0771 0.299796C16.7184 0.698766 1.41139 0.123505 0.761884 0.065534C-1.15703 -0.117203 7.1137 0.121722 10.0771 0.299796ZM205.423 402.838C207.262 402.906 208.465 403.087 212.54 403.02C208.45 402.876 204.359 402.717 200.279 402.54C197.092 402.782 203.399 402.767 205.423 402.838ZM221.035 403.947C220.463 403.952 223.598 404.397 216.146 404.093C211.101 403.915 238.547 403.685 243.477 403.769C238.014 403.93 226.004 403.9 221.035 403.947ZM269.116 405.306C269.445 405.343 258.981 405.581 257.803 405.568C251.437 405.538 267.402 405.173 269.116 405.306ZM235.85 405.692C240.751 405.737 229.908 405.881 226.672 405.834C226.371 405.758 235.1 405.691 235.85 405.692ZM77.1053 9.36251C82.3817 9.87487 87.106 9.42852 78.9953 9.22617C78.6078 9.2164 76.8805 9.33879 77.1053 9.36251ZM258.928 405.93C254.052 405.921 264.848 405.702 268.099 405.677C268.401 405.758 259.676 405.935 258.928 405.93ZM80.7949 10.2205C87.796 10.7201 85.3667 9.90373 84.4834 9.83876C80.8801 9.57747 68.4897 9.35319 65.9435 9.31928C84.488 9.96854 77.5008 9.98539 80.7949 10.2205ZM113.184 11.1131C119.694 11.3028 103.073 10.4769 99.8728 10.5461C103.125 10.6695 111.313 11.0587 113.184 11.1131ZM152.684 12.9605C156.198 13.1302 166.567 13.6175 168.344 13.5778C164.516 13.4408 154.181 12.9057 152.684 12.9605ZM160.596 13.6233C166.069 14.0014 167.387 13.6087 161.08 13.4828C160.834 13.4778 160.394 13.6065 160.596 13.6233ZM191.355 15.0502C194.924 15.3751 199.023 15.1118 193.232 14.861C191.513 14.7874 190.974 15.0141 191.355 15.0502ZM89.5481 11.3495C94.6745 11.6352 101.332 11.5973 90.3451 11.1145C94.1979 11.2245 98.0621 11.335 101.913 11.4451C87.5463 10.6844 88.5969 11.1571 84.4575 10.9703C78.6917 10.7096 79.1674 10.3745 80.3265 10.3105C75.5679 10.3334 55.5013 9.51789 43.8842 9.0854C54.0886 9.59282 70.635 10.426 80.7068 10.895C83.5593 11.0282 86.3875 11.0465 88.8285 11.157C92.7472 11.335 89.2611 11.3327 89.5279 11.3487C89.5346 11.349 89.5414 11.3492 89.5481 11.3495ZM231.764 16.7335C242.311 17.3767 235.681 16.6639 229.713 16.492C229.462 16.4874 231.513 16.718 231.764 16.7335ZM272.991 406.972C261.57 407.09 266.039 406.805 252.76 407.135C249.579 407.21 245.298 407.319 239.567 407.446C251.985 407.053 240.243 407.255 242.673 407.123C244.623 407.022 251.898 406.994 247.665 406.883C248.739 406.905 250.58 406.907 252.756 406.896C261.842 406.848 277.473 406.584 278.693 406.319C278.683 406.32 278.673 406.321 278.662 406.322C279.402 406.256 277.503 406.928 272.991 406.972ZM152.688 14.0969C156.201 14.7683 157.591 13.9884 164.5 14.7091C173.745 14.4539 139.039 13.664 134.873 12.9581C172.536 14.5634 110.048 11.4103 136.276 13.2868C114.631 12.1095 129.177 13.0956 125.829 13.0608C122.277 13.0242 110.027 12.405 110.634 12.6262C110.641 12.6264 110.647 12.6267 110.654 12.627C118.147 12.9196 125.624 13.2117 133.118 13.5048C125.824 12.7826 141.092 13.5346 146.284 14.0927C148.431 14.0946 150.518 14.094 152.688 14.0969ZM110.325 11.9648C111.08 12.0053 127.362 12.6119 126.295 12.4833C124.161 12.3416 101.003 11.4598 110.325 11.9648ZM38.6552 9.13142C44.5071 9.37115 53.5449 9.82251 56.7307 9.79277C50.8926 9.55349 41.8508 9.10194 38.6552 9.13142ZM254.791 21.7214C247.5 23.3129 270.012 18.8427 263.468 19.9969C263.157 20.0557 255.13 21.6513 254.791 21.7214ZM169.649 14.7136C177.176 15.1842 173.672 14.5272 168.034 14.4291C167.707 14.4236 169.3 14.6919 169.649 14.7136ZM261.521 407.27C261.304 407.327 257.443 407.406 252.765 407.471C246.567 407.562 238.973 407.612 236.893 407.627C238.068 407.553 246.194 407.423 252.763 407.322C257.699 407.249 261.776 407.204 261.521 407.27ZM28.3439 9.18089C39.9556 10.1063 55.7746 10.2298 57.5014 10.3117C59.2261 10.3937 56.5119 10.4804 56.9048 10.5018C57.8171 10.55 76.1162 11.2803 77.026 11.3037C77.6624 11.319 74.3515 10.9063 78.1443 10.9737C70.7545 10.8295 37.2443 9.36376 35.4995 9.32341C34.1481 9.29284 44.2975 9.99828 28.3642 9.18172C28.3574 9.18145 28.3507 9.18117 28.3439 9.18089ZM61.8281 10.5487C57.2515 10.2456 70.1062 10.7556 73.1982 10.9248C80.0987 11.3025 62.3998 10.5858 61.8281 10.5487ZM92.7087 11.9166C94.189 12.0031 107.427 12.5677 108.541 12.4838C102.298 12.0605 89.3809 11.7199 92.7087 11.9166ZM240.021 17.9668C241.556 18.0237 244.504 18.1648 247.093 18.2838C250.311 18.4311 253.129 18.5521 253.452 18.5047C251.968 18.4484 249.613 18.3351 247.096 18.219C243.747 18.0638 240.316 17.913 240.021 17.9668ZM191.532 408.377C197.267 408.581 183.973 408.369 180.097 408.194C179.889 408.124 191.047 408.372 191.532 408.377ZM170.888 15.8467C172.913 15.9629 214.474 17.5917 220.261 17.7822C214.61 17.4588 173.417 15.7526 171.559 15.7194C171.015 15.7096 170.629 15.8306 170.888 15.8467ZM81.0666 12.2219C77.2624 12.2332 74.7712 11.9317 74.2895 11.9095C69.6023 11.6926 59.8182 11.331 61.9711 11.2583C70.287 11.6623 88.6445 12.2003 81.0666 12.2219ZM242.921 18.8431C256.985 19.3745 229.987 18.061 233.507 18.3844C233.747 18.4048 241.486 18.7888 242.921 18.8431ZM166.226 15.7037C163.127 15.7101 121.574 13.8913 114.923 13.6198C120.891 13.6155 125.72 14.0017 133.728 14.3169C135.882 14.4014 135.323 14.2752 135.553 14.2844C139.32 14.4339 136.498 14.4377 138.814 14.5343C140.251 14.5935 170.652 15.6954 166.226 15.7037ZM78.8922 12.2486C76.5473 12.2483 50.6235 11.2311 49.5814 11.1633C41.7879 10.6565 76.8668 12.1325 78.8922 12.2486ZM170.049 16.0816C165.549 16.1851 144.969 15.1474 159.056 15.5815C160.444 15.6254 166.083 15.982 170.049 16.0816ZM241.409 19.0543C241.633 19.0671 244.234 19.1876 247.049 19.3132C251.538 19.5127 256.853 19.739 257.072 19.693C256.044 19.6331 251.434 19.421 247.053 19.232C241.712 19.0014 237.051 18.8192 241.409 19.0543ZM233.786 19.0448C234.125 19.0569 230.734 18.7377 237.57 19.0468C238.162 19.0739 239.116 19.2994 247.038 19.5804C247.314 19.5902 247.596 19.6001 247.886 19.6099C249.69 19.6713 252.333 19.652 252.173 19.637C250.782 19.5307 249.097 19.4327 247.048 19.3349C236.003 18.8042 218.661 18.5002 233.786 19.0448ZM78.4106 12.3902C79.8062 12.5312 76.4207 12.6423 73.3804 12.3919C72.0817 12.2844 74.518 12.2342 78.4106 12.3902ZM287.973 21.1774C285.509 21.1025 286.012 21.1601 287.982 21.2799C288.974 21.3405 290.342 21.4176 291.882 21.5069C292.615 21.5497 293.478 21.6001 294.289 21.6518C294.671 21.6763 295.123 21.7061 295.498 21.7345C295.707 21.7501 295.897 21.7657 296.043 21.7795C296.128 21.7875 296.189 21.7944 296.198 21.7959C296.201 21.7961 296.178 21.7946 296.078 21.7775C296.003 21.7635 295.913 21.7502 295.676 21.688C295.508 21.6418 295.279 21.5762 294.942 21.4307C294.655 21.3052 294.247 21.1021 293.785 20.7466C293.67 20.6576 293.554 20.5604 293.435 20.4518C293.242 20.2758 293.051 20.0745 292.879 19.8622C292.531 19.4386 292.278 18.9732 292.152 18.695C291.667 17.7769 291.44 15.9015 291.947 14.6064C292.43 13.2816 293.032 12.7375 293.395 12.3777C294.138 11.7173 294.442 11.6256 294.653 11.505C295.069 11.3053 295.161 11.2901 295.25 11.2567C295.396 11.2093 295.367 11.2208 295.338 11.2277C295.261 11.2478 295.096 11.2885 294.931 11.3295C294.595 11.4127 294.222 11.5082 293.861 11.6065C290.035 12.6368 286.145 13.4106 285.695 13.5394C286.06 13.4879 290.075 12.7296 293.892 11.7201C294.254 11.6229 294.628 11.5286 294.964 11.4468C295.128 11.4064 295.293 11.3663 295.37 11.3467C295.401 11.3398 295.429 11.3286 295.286 11.3753C295.2 11.4082 295.109 11.4233 294.701 11.6204C294.493 11.7398 294.194 11.8298 293.465 12.4826C293.112 12.8353 292.522 13.374 292.057 14.6716C291.57 15.938 291.795 17.7504 292.265 18.6428C293.545 21.1078 295.117 21.29 295.229 21.4126C295.575 21.5421 295.797 21.5896 295.862 21.6057C296.057 21.6503 296.126 21.6582 296.16 21.6641C296.238 21.6754 296.217 21.6711 296.195 21.6685C296.147 21.6625 296.036 21.6514 295.932 21.6421C295.709 21.6221 295.466 21.6034 295.21 21.5848C294.721 21.5494 294.175 21.5146 293.702 21.4853C292.714 21.4246 291.741 21.3705 290.953 21.3277C289.319 21.2394 288.188 21.1845 287.973 21.1774ZM178.064 409.213C178.071 409.213 178.078 409.214 178.085 409.214C170.856 408.951 175.338 408.966 175 408.953C159.607 408.216 163.679 408.605 161.268 408.547C156.099 408.368 156.949 408.089 148.225 407.718C162.645 408.331 149.526 407.683 149.125 407.526C147.54 406.973 168.287 408.797 175.472 408.856C176.472 408.878 169.094 408.46 171.658 408.505C179.987 408.694 205.799 410.018 178.064 409.213ZM71.0408 12.3184C67.6817 12.329 42.4133 11.1548 49.1193 11.3066C50.1952 11.3309 75.9555 12.3036 71.0408 12.3184ZM159.313 165.174C165.399 165.144 151.301 164.768 148.685 164.823C147.39 164.852 156.64 165.188 159.313 165.174ZM60.2836 163.458C52.994 163.535 45.2506 164.328 54.3732 164.012C55.3562 163.976 61.1352 163.521 60.2836 163.458ZM68.9684 134.473C76.3493 135.527 75.9572 135.137 70.5077 134.49C68.578 134.269 68.7515 134.443 68.9684 134.473ZM246.906 165.712C246.16 165.717 237.504 165.791 237.781 165.864C240.99 165.919 251.777 165.742 246.906 165.712ZM66.6197 134.266C70.7814 134.674 64.1959 133.635 58.923 133.476C58.6562 133.465 58.3896 133.456 58.1145 133.445C58.3736 133.464 58.6418 133.484 58.9208 133.505C61.8133 133.696 66.1823 134.219 66.6197 134.266ZM185.602 17.5043C189.343 17.5129 199.927 17.9937 206.036 18.2218C206.678 18.4365 189.955 17.6491 185.602 17.5043ZM91.0964 163.795C84.291 163.849 98.9002 164.129 97.5962 163.941C97.3895 163.928 91.3772 163.791 91.0964 163.795ZM243.181 86.3435C245.686 86.708 242.934 86.1628 240.116 85.6986C237.534 85.2699 234.839 84.894 236.894 85.2937C237.004 85.3142 238.623 85.5738 240.097 85.8211C241.655 86.0798 243.046 86.3242 243.181 86.3435ZM175.015 77.2395C178.765 77.774 194.76 79.785 188.545 78.888C187.589 78.7542 175.309 77.1796 175.015 77.2395ZM160.835 408.662C162.872 408.963 151 408.322 149.301 408.163C148.638 408.12 158.18 408.302 160.835 408.662ZM117.394 140.934C121.258 141.451 131.285 142.917 133.067 143.068C128.321 142.413 116.191 140.559 117.394 140.934ZM122.338 164.24C116.378 163.934 106.186 163.803 108.701 164.115C119.95 164.267 107.343 163.844 122.338 164.24ZM67.1878 117.025C64.0718 117.647 61.7207 118.453 62.0709 118.386C65.5079 117.731 70.3391 116.491 67.1878 117.025ZM274.185 163.697C274.394 163.838 284.269 165.296 282.957 165.025C282.482 164.922 274.12 163.592 274.185 163.697ZM276.465 14.8724C271.951 15.7055 285.666 12.764 289.626 11.9554C291.656 11.716 277.06 14.7862 276.465 14.8724ZM152.905 101.676C153.336 101.431 137.885 104.216 144.007 103.291C145.531 103.061 152.753 101.759 152.905 101.676ZM222.464 83.6994C232.902 84.8277 189.153 79.0939 200.623 80.8105C201.445 80.9241 221.578 83.5785 222.464 83.6994ZM150.778 74.2156C152.576 74.4926 151.613 74.947 144.148 73.5993C143.179 73.4248 147.776 73.9696 146.983 73.8147C146.533 73.7724 130.246 71.0734 129.452 70.8734C128.648 70.7426 129.558 71.0911 128.744 70.9633C127.782 70.8169 117.761 68.8179 112.264 67.1557C111.346 66.8874 110.539 66.6329 109.823 66.3917C108.988 66.11 108.263 65.8408 107.617 65.579C105.666 64.7325 104.295 64.1975 102.287 62.3154C101.901 61.9357 101.324 61.2689 100.899 60.5554C100.468 59.8345 100.114 59.0528 99.8869 58.0175C99.4505 55.9912 99.8982 54.2238 100.386 53.1091C100.943 51.8861 101.313 51.4657 101.701 50.9639C102.063 50.5171 102.435 50.1504 102.62 49.9736C103.055 49.5595 103.347 49.328 103.624 49.1194C107.275 46.5487 111.28 45.522 116.29 44.1142C134.65 39.3736 159.594 35.8571 178.968 32.687C185.495 31.6459 191.379 30.6987 196.153 29.9554C190.359 30.9114 184.656 31.8602 178.986 32.7974C168.199 34.5813 157.484 36.3287 146.425 38.2453C151.346 37.0032 121.596 42.9918 138.983 39.4288C137.036 39.8097 131.404 40.7997 123.894 42.454C120.118 43.3084 115.908 44.2691 111.217 45.8331C108.806 46.774 106.595 47.123 102.873 50.1343C102.423 50.5411 101.76 51.2336 101.245 52.0425C100.696 52.8748 100.052 54.3007 99.9623 55.8632C99.7617 59.4022 101.8 61.5684 102.669 62.3971C104.886 64.3447 106.147 64.7247 107.684 65.4156C128.609 72.102 147.583 73.3936 150.758 74.2127C150.765 74.2136 150.772 74.2146 150.778 74.2156ZM40.3149 179.194C40.026 179.174 39.8481 179.165 39.7663 179.165C39.6875 179.166 39.6894 179.174 39.7635 179.19C41.1162 179.356 58.3281 181.468 60.043 181.725C57.1385 181.047 41.0575 179.167 40.3149 179.194ZM137.066 163.64C139.186 163.641 141.204 163.3 152.295 163.671C152.305 163.671 152.316 163.671 152.326 163.671C155.57 163.78 151.871 163.811 152.464 163.853C152.682 163.87 162.797 164.22 154.393 164.114C141.573 163.952 153.191 163.816 146.356 163.7C145.518 163.686 132.591 163.678 133.33 163.734C133.414 163.741 137.298 163.761 137.944 163.791C140.376 163.9 139.19 163.998 139.533 164.009C140.646 164.042 161.111 164.176 164.08 164.396C165.049 164.471 131.464 164.051 130.163 164.002C129.34 163.97 129.689 163.65 128.83 163.605C128.382 163.58 114.883 163.488 113.116 163.433C112.606 163.416 112.219 163.401 111.935 163.389C113.998 163.519 101.714 163.332 102.12 163.226C102.311 163.183 110.754 163.331 111.061 163.345C111.192 163.35 111.306 163.356 111.412 163.361C109.678 163.206 138.182 163.667 132.029 163.387C140.3 163.422 130.866 163.636 137.066 163.64ZM176.779 164.073C175.922 164.094 175.071 164.116 174.22 164.137C188.674 164.269 205.34 164.673 221.978 164.777C226.195 164.8 221.373 164.567 226.862 164.649C228.165 164.668 229.478 164.697 230.619 164.73C233.561 164.811 235.452 164.915 233.782 164.946C233.579 164.95 232.374 164.938 230.619 164.916C227.484 164.878 222.59 164.803 219.681 164.79C206.359 164.724 209.703 164.919 208.931 164.92C208.084 164.919 199.681 164.701 195.088 164.646C183.567 164.51 178.289 164.543 162.527 164.151C171.627 164.176 166.646 163.843 176.779 164.073ZM218.073 89.6874C218.283 89.5972 220.409 89.2053 222.848 88.7653C225.879 88.2193 229.404 87.5917 231.261 87.2319C230.881 87.3816 226.704 88.1433 222.86 88.8272C221.017 89.1557 219.157 89.4857 218.073 89.6874ZM264.414 340.932C267.328 341.26 245.877 337.394 251.505 338.552C252.735 338.804 261.737 340.449 264.414 340.932ZM168.134 324.569C165.262 324.2 176.783 326.019 176.772 325.889C176.757 325.832 168.503 324.605 168.134 324.569ZM238.44 159.279C237.886 159.203 229.977 158.004 229.722 157.957C224.505 156.994 250.576 160.928 238.44 159.279ZM61.0109 277.875C54.2163 280.114 61.6964 277.488 66.6295 276.785C71.9872 275.811 77.2768 275.039 72.5565 275.68C72.1206 275.69 61.7998 277.513 61.0109 277.875ZM104.144 271.602C101.679 271.82 90.803 273.001 90.6598 273.098C90.4566 273.184 102.919 271.842 104.144 271.602ZM69.1486 115.912C68.3561 115.921 74.837 114.655 80.6187 113.607C83.099 113.154 85.4726 112.727 87.006 112.439C87.5876 112.437 84.4908 113.014 80.6407 113.724C76.5918 114.469 71.6531 115.391 69.1486 115.912ZM128.444 143.604C121.439 142.631 115.45 141.8 110.399 141.1C79.6903 136.906 84.034 137.281 110.424 140.922C116.478 141.767 123.739 142.802 132.012 144.007C132.069 144.15 132.201 144.126 128.444 143.604ZM55.7637 118.859C55.6082 118.915 55.4008 118.988 55.1616 119.073C54.9251 119.159 54.6859 119.246 54.3357 119.381C54.0277 119.504 53.6085 119.666 53.0273 119.956C52.846 120.048 52.652 120.151 52.4357 120.278C52.3248 120.343 52.2228 120.405 52.0843 120.495C51.9124 120.607 51.7263 120.735 51.5205 120.894C51.3147 121.053 51.0889 121.241 50.8395 121.483C50.5903 121.722 50.0767 122.263 49.656 122.958C49.438 123.314 49.2211 123.735 49.0367 124.229C48.8505 124.705 48.6103 125.623 48.5851 126.458C48.4736 128.209 49.2229 130.01 49.8422 130.858C50.4834 131.806 51.2661 132.432 51.6472 132.702C52.0447 132.985 52.387 133.177 52.6863 133.328C52.8359 133.403 52.976 133.467 53.1055 133.523C53.2049 133.566 53.2994 133.604 53.3898 133.639C53.5706 133.709 53.735 133.766 53.888 133.815C54.2175 133.92 54.3928 133.963 54.6014 134.014C54.8015 134.062 54.9885 134.1 55.1307 134.128C55.7605 134.246 56.1823 134.293 56.6059 134.341C57.4368 134.431 58.1501 134.48 58.8431 134.532C61.2929 134.705 63.7809 134.937 65.9149 135.168C65.4143 135.169 62.2227 134.848 58.8368 134.615C58.2125 134.568 57.5518 134.521 56.7902 134.441C56.398 134.398 55.9917 134.351 55.4729 134.264C55.1935 134.216 54.9249 134.167 54.5071 134.064C54.3083 134.013 54.0964 133.957 53.7709 133.849C53.4405 133.732 53.1761 133.654 52.5035 133.308C52.1928 133.143 51.8367 132.932 51.4259 132.619C50.8739 132.193 50.1582 131.548 49.5218 130.472C48.9147 129.555 48.2977 127.428 48.5791 125.806C48.8857 123.963 49.3216 123.408 49.7626 122.677C50.7613 121.291 51.1294 121.156 51.5561 120.793C51.7562 120.642 51.9544 120.509 52.1046 120.413C52.2257 120.337 52.3396 120.268 52.4482 120.206C52.6651 120.081 52.8607 119.979 53.0442 119.889C53.2012 119.812 53.3188 119.758 53.4479 119.7C53.6966 119.589 53.9486 119.488 54.1084 119.426C54.4694 119.286 54.8029 119.171 55.0512 119.088C55.3164 118.999 55.5775 118.916 55.7637 118.859ZM289.799 345.855C287.081 345.445 277.239 343.571 273.648 342.844C272.468 342.604 271.954 342.484 272.701 342.601C272.785 342.614 273.134 342.676 273.662 342.771C277.544 343.456 291.023 345.98 289.799 345.855ZM233.425 158.725C234.803 159.131 216.92 156.434 215.575 156.194C210.088 155.21 231.981 158.557 233.425 158.725ZM153.322 100.645C156.434 99.9422 165.373 98.4695 171.11 97.4706C168.517 98.0614 158.192 99.8007 153.322 100.645ZM111.859 107.762C112.207 107.694 120.24 106.296 120.59 106.243C127.168 105.245 104.537 109.183 111.859 107.762ZM188.051 410.999C187.783 411.002 181.595 410.84 181.377 410.824C175.856 410.535 194.427 411.017 188.051 410.999Z" fill="black"/>
</svg>
