<svg width="306" height="411" viewBox="0 0 306 411" fill="none" xmlns="http://www.w3.org/2000/svg">
<path stroke="#000" stroke-width="2" d="M50.8175 382.677C49.12 382.394 41.591 380.935 39.6634 380.267C41.7744 380.912 57.4149 383.784 50.8175 382.677ZM262.748 341.047C265.394 341.425 267.946 341.794 270.574 342.195C263.233 340.901 253.215 339.38 246.305 338.267C245.165 338.084 248.146 338.397 245.451 337.976C242.816 337.565 243.235 337.827 239.38 337.261C234.997 336.609 215.021 333.473 208.081 332.448C190.106 329.772 171.969 327.187 153.899 324.379C145.932 323.128 138.039 321.958 130.127 320.919C156.76 324.443 129.981 320.479 122.474 319.745C121.213 319.569 121.207 319.931 110.302 318.443C106.237 317.83 100.731 316.816 93.3754 314.937C80.0904 311.347 86.6785 312.802 77.139 309.912C74.3783 309.042 70.2844 307.755 64.0484 305.683C85.28 313.081 64.1731 306.35 47.7405 300.264C47.0219 300 45.0032 299.257 42.2477 298.218C38.3219 296.31 32.5441 295.904 25.9792 288.186C25.3891 287.398 24.3746 285.588 24.5434 283.253C24.7196 280.95 25.7875 279.53 26.3949 278.822C27.7197 277.402 28.3073 277.231 28.8441 276.899C29.8675 276.362 30.4431 276.18 31.0147 275.978C32.133 275.603 33.0018 275.386 33.8746 275.172C35.5928 274.761 37.1619 274.455 38.6518 274.177C41.6317 273.626 44.2772 273.21 46.4132 272.877C46.4383 272.873 46.4635 272.869 46.4888 272.865C50.156 272.291 55.6708 271.314 60.5259 270.696C63.8795 270.271 66.4298 270.062 71.4342 269.515C88.569 267.668 105.609 266.587 122.849 266.576C129.063 266.58 135.292 266.799 141.457 267.089C127.75 266.983 152.184 267.785 153.249 267.958C158.811 268.379 133.632 267.087 143.606 267.681C157.501 268.358 171.33 269.379 185.123 270.474C173.805 269.496 200.149 271.282 204.949 271.88C203.845 271.528 220.847 273.234 238.516 274.678C254.954 276.077 271.925 275.775 276.454 275.195C278.011 275.024 270.296 275.597 281.618 274.543C283.144 274.377 285.071 274.184 286.893 273.839C287.34 273.753 287.763 273.655 288.076 273.563C288.379 273.484 288.608 273.348 288.311 273.516C288.169 273.61 287.835 273.81 287.374 274.373C286.915 274.909 286.405 275.987 286.325 276.917C286.226 277.851 286.406 278.464 286.496 278.737C286.596 279.02 286.641 279.06 286.612 279.015C286.557 278.916 286.386 278.674 286.262 278.509C286.136 278.34 286.043 278.216 285.973 278.117C285.837 277.926 285.819 277.862 285.596 277.615C285.488 277.498 285.347 277.35 285.146 277.144C284.312 276.325 279.821 272 275.164 267.572C274.312 266.755 276.741 268.809 276.291 268.32C275.718 268.056 273.011 263.874 258.925 255.682C264.47 259.404 254.601 252.153 240.488 248.812C227.031 245.29 209.915 247.35 204.42 248.095C206.66 247.847 208.88 247.631 211.082 247.466C200.161 248.548 198.023 249.237 195.479 249.562C187.015 250.577 174.513 253.392 162.888 248.235C161.248 247.477 159.684 246.774 158.233 246.139C148.037 241.791 147.937 241.991 135.813 237.464C138.692 238.547 141.551 239.663 144.387 240.816C136.075 237.599 127.586 234.737 118.966 231.968C134.438 236.718 123.419 233.237 116.852 231.239C114.973 230.666 113.455 230.221 113.1 230.114C110.548 229.35 114.252 230.321 109.991 229.055C109.548 228.933 110.152 229.221 103.552 227.329C89.7124 223.457 91.9191 223.964 86.0824 222.408C85.5445 222.281 87.398 222.837 77.2773 220.32C45.0724 212.807 77.4631 220.164 78.6977 220.561C80.3088 221.008 69.4659 217.478 96.6514 224.926C87.5423 222.373 86.6611 221.959 85.6349 221.676C84.7292 221.39 68.8132 217.481 67.9265 217.335C60.076 215.615 66.9382 217.341 65.4053 217.018C64.9334 216.921 61.9735 216.216 58.2239 215.417C50.246 214.418 40.5738 206.519 38.6849 203.467C35.8126 198.799 36.4512 199.72 39.2147 203.593C41.8805 207.505 49.4345 213.776 58.2518 215.285C59.2121 215.484 60.2026 215.693 61.1842 215.903C61.9521 216.042 60.5235 215.693 58.2716 215.191C52.765 214.494 44.0452 208.85 43.7072 208.064C38.2914 203.119 36.7204 199.15 35.5807 197.26C34.5234 195.272 34.2378 194.804 34.1109 194.691C33.9955 194.594 34.0985 194.934 34.0962 195.071C34.0991 195.224 33.9496 195.047 33.4375 194.213C33.2401 193.891 32.924 193.401 32.8916 193.377C32.8883 193.367 32.9742 193.519 33.4071 193.835C33.8114 194.144 34.7133 194.557 35.5363 194.63C34.3831 194.496 33.3657 194.341 33.1512 194.318C32.9375 194.294 33.6899 194.466 35.5238 194.741C34.679 194.687 33.6335 194.225 33.1788 193.862C33.5724 194.195 34.5457 194.704 35.5176 194.796C34.1195 194.618 33.2215 194.583 31.1901 194.09C30.9082 194.011 30.5547 193.919 29.9507 193.671C29.6038 193.518 29.2437 193.381 28.5033 192.886C28.2076 192.686 27.5869 192.221 27.0269 191.555C26.3274 190.717 25.4318 189.349 25.3015 187.212C25.1756 185.19 26.0408 183.464 26.5429 182.756C27.1581 181.872 27.5473 181.554 27.9141 181.23C28.581 180.678 28.9478 180.491 29.244 180.321C29.8129 180.016 30.1113 179.905 30.3687 179.801C31.3261 179.44 31.7151 179.352 32.1577 179.22C35.7312 178.279 37.0181 178.398 37.6966 178.301C38.3148 178.261 38.1566 178.295 37.7101 178.355C36.8146 178.454 34.4328 178.84 35.1326 178.752C37.8387 178.305 45.0937 177.97 46.043 177.962C47.41 177.941 42.6803 178.184 48.0323 178.074C48.9132 178.057 57.4471 177.698 46.4307 177.845C61.1114 177.571 59.8449 177.548 64.8008 177.837C74.7835 177.25 72.0856 178.222 75.9801 178.278C76.6114 178.288 77.2033 178.296 77.7556 178.303C85.7332 178.301 83.2181 177.832 83.7071 177.822C87.2927 177.874 115.75 175.716 122.841 174.748C120.063 175.437 100.265 176.982 95.851 177.25C81.2071 178.494 116.604 175.831 105.967 177.072C110.42 176.567 114.959 176.006 119.424 175.426C127.715 174.819 115.995 176.257 138.253 173.663C141.871 173.021 122.506 175.463 126.385 174.836C128.652 174.49 141.568 173.001 141.824 172.907C142.064 172.813 130.397 174.22 132.23 173.902C136.195 173.25 178.913 168.492 146.436 172.395C155.491 171.341 160.217 171.252 168.077 170.216C173.183 169.579 144.365 172.04 187.499 167.503C188.431 167.601 170.244 169.392 169.793 169.482C169.134 169.58 172.469 169.705 173.035 169.668C175.008 169.392 219.136 164.707 228.948 165.47C228.246 165.424 228.981 165.377 230.618 165.356C237.826 165.347 262.838 165.142 266.011 164.784C267.062 164.715 263.122 164.708 264.249 164.642C268.274 164.369 276.548 164.274 283.303 162.874C288.203 161.902 292.074 159.952 294.638 158.003C295.181 157.612 295.618 157.255 296.505 156.658C296.307 156.825 295.983 156.884 295.018 158.039C294.637 158.506 293.761 159.877 293.684 161.617C293.579 163.289 294.215 164.794 294.837 165.653C295.664 166.806 296.439 167.226 296.621 167.356C296.908 167.537 297.154 167.656 297.259 167.705C297.726 167.913 297.738 167.893 297.779 167.911C297.812 167.921 297.665 167.881 297.539 167.853C297.246 167.786 296.921 167.72 296.598 167.658C295.973 167.538 295.364 167.433 294.909 167.358C293.938 167.197 293.332 167.112 292.958 167.066C292.164 166.965 292.318 167.025 292.064 166.982C287.731 166.259 291.245 166.732 288.569 166.298C285.756 165.828 270.774 163.537 261.91 162.237C258.45 161.725 255.901 161.352 255.499 161.299C255.095 161.246 259.608 162.087 253.54 161.225C252.509 161.08 253.173 160.965 235.258 158.428C213.622 155.37 250.215 160.877 241.202 159.774C227.361 157.437 227.81 157.811 224.032 157.235C222.743 157.038 213.086 155.368 202.556 153.855C210.108 154.909 217.674 155.969 225.236 157.031C217.795 155.898 203.387 153.858 197.278 152.921C194.303 152.464 196.785 152.61 190.305 151.677C188.928 151.48 183.393 151.197 200.411 153.432C201.743 153.811 193.674 152.519 189.922 152.028C189.354 151.954 187.073 151.935 182.313 151.053C181.172 150.843 193.81 151.753 161.448 147.747C160.409 147.619 163.996 148.248 162.979 148.126C162.295 148.043 154.047 146.813 153.135 146.699C152.2 146.582 156.167 147.275 155.054 147.139C149.367 146.449 141.953 144.898 153.673 146.613C149.782 145.995 145.848 145.371 141.953 144.755C146.085 145.715 135.782 143.977 130.359 143.221C95.6311 138.397 118.837 141.91 112.848 141.191C111.867 141.074 111.078 140.976 110.428 140.89C104.593 140.163 109.249 140.187 96.5306 138.884C95.1996 138.855 112.341 140.588 78.8849 137.367C83.8326 137.743 88.7743 138.179 93.7044 138.684C90.902 137.978 75.8763 137.086 74.7109 137.053C61.5261 136.265 70.4442 136.551 50.8238 135.882C49.0538 135.833 45.2383 135.617 41.4877 135.567C25.889 135.332 62.025 136.262 62.9691 136.652C63.2271 136.603 38.529 135.761 27.1773 135.482C24.3605 135.425 21.1721 133.121 20.184 131.237C19.0484 129.338 18.8809 127.988 18.7429 126.979C18.557 125.009 18.7681 124.188 18.7825 123.915C18.9556 122.739 19.1133 122.288 19.1188 122.282C19.1361 122.274 19.024 122.706 18.8979 123.579C18.8019 124.449 18.5664 125.739 19.0051 127.994C19.2419 129.062 19.7015 130.643 21.079 132.278C22.4415 133.982 25.0582 135.274 27.1863 135.362C32.94 135.594 38.9051 135.609 36.4699 135.474C35.993 135.428 33.0663 135.453 27.1987 135.198C25.5902 135.101 23.5731 134.394 22.0994 133.071C20.5964 131.743 19.8459 130.222 19.4356 128.936C18.6843 126.38 18.9255 124.652 19.1764 123.099C19.769 120.037 20.9778 117.698 22.3638 115.537C25.1789 111.249 28.9855 107.85 33.1212 105.096C41.4041 99.6142 50.8296 96.9332 58.3228 95.5287C64.4117 94.4226 69.274 94.0846 71.7283 93.8821C84.9963 92.9867 90.8162 93.5256 90.8968 92.9363C94.6232 93.36 97.8568 92.9396 99.507 92.9148C119.597 92.699 119.644 92.798 136.772 92.7079C140.559 92.6927 143.744 92.847 145.082 92.8162C145.859 92.7975 144.407 92.6304 148.214 92.5651C153.523 92.5606 185.188 92.2481 187.502 92.1008C189.839 92.1388 174.185 92.5618 176.992 92.6242C188.309 92.3561 199.236 91.8911 210.382 90.8012C215.05 90.3125 212.665 90.6743 214.637 90.4481C215.042 90.3991 219.176 89.8807 222.921 89.1594C227.095 88.3686 231.004 87.5994 230.688 87.6375C230.284 87.6907 227.254 88.2461 222.898 89.0312C209.749 91.618 182.42 92.3647 192.632 91.8302C195.174 91.6998 204.185 91.3499 202.74 91.1308C209.578 90.6331 216.416 89.9555 222.855 88.7988C232.82 86.9587 242.99 85.2204 252.272 82.8171C253.361 82.5229 254.516 82.1819 255.435 81.8584C255.933 81.6829 256.318 81.5322 256.649 81.3813C256.793 81.316 256.904 81.2572 256.933 81.2409C256.955 81.2331 256.896 81.2426 256.591 81.5099C256.463 81.6276 256.202 81.8666 255.884 82.3208C255.728 82.5457 255.562 82.8215 255.408 83.1556C255.221 83.559 255.052 84.0567 254.958 84.6099C254.754 85.7313 254.942 86.9839 255.315 87.8551C255.724 88.7991 256.045 89.1343 256.323 89.4568C256.461 89.6069 256.583 89.7209 256.685 89.8096C256.77 89.8836 256.831 89.9312 256.888 89.9737C256.998 90.056 257.064 90.0951 257.089 90.1101C257.129 90.1329 257.069 90.0957 256.934 90.0358C256.428 89.8039 255.359 89.4567 254.322 89.18C249.97 88.0347 244.971 87.2026 240.005 86.408C222.664 83.9782 204.267 82.682 186.137 81.153C203.366 82.4328 222.301 83.7622 240.03 86.2501C244.716 87.0001 249.339 87.7774 253.561 88.8198C254.566 89.0719 255.608 89.369 256.345 89.6337C256.761 89.781 257.059 89.9134 257.164 89.9694C257.203 89.9879 257.176 89.9883 256.969 89.8344C256.917 89.7945 256.864 89.7531 256.784 89.6834C256.692 89.6035 256.584 89.5021 256.463 89.3711C256.341 89.2401 256.205 89.0793 256.063 88.8802C255.991 88.7788 255.923 88.6776 255.843 88.5466C255.752 88.3954 255.661 88.2278 255.574 88.0433C254.721 86.6461 255.085 83.6439 255.785 82.7785C256.072 82.2833 256.367 81.9569 256.546 81.7767C256.706 81.6175 256.825 81.522 256.903 81.4625C257.18 81.2689 256.929 81.4467 256.65 81.5625C256.038 81.839 255.09 82.1707 254.118 82.4685C251.104 83.5315 238.715 86.022 240.238 85.8578C243.456 85.212 246.791 84.5157 250.084 83.7078C251.669 83.3173 253.368 82.8657 254.808 82.3982C255.532 82.1635 256.222 81.9111 256.707 81.6926C256.937 81.5912 257.122 81.4856 257.092 81.5018C257.086 81.507 256.989 81.563 256.791 81.7389C256.649 81.8706 256.157 82.3116 255.731 83.1808C255.186 84.1416 254.97 86.1732 255.481 87.4411C256.013 88.8355 256.468 89.157 256.778 89.4886C257.313 89.9582 257.295 89.8617 257.188 89.8256C256.921 89.6912 256.267 89.4448 255.543 89.2258C254.119 88.7919 252.429 88.3966 250.699 88.0331C247.251 87.3139 243.665 86.7145 240.046 86.147C229.629 84.6261 218.842 83.7356 209.337 82.8345C208.612 82.7679 211.28 82.8606 208.59 82.6041C203.642 82.1194 187.357 81.0259 184.6 80.7567C184.086 80.7006 193.45 81.2645 190.621 80.9212C183.333 80.0376 181.512 80.5624 175.29 80.0698C170.472 79.6809 138.133 76.8982 130.044 76.4707C121.446 76.0266 153.917 78.4318 151.482 78.4191C129.546 76.9202 107.299 75.0314 86.5398 73.2664C86.174 73.2352 89.3488 73.6486 84.6996 73.2662C76.6531 72.5977 74.5919 72.2053 70.6111 71.805C66.4509 71.4069 51.3566 69.8982 49.3754 69.5728C49.1232 69.5363 52.2312 69.6843 52.651 69.7226C59.2334 70.3472 61.4532 70.8047 62.0679 70.8724C64.3378 71.1071 66.5202 71.2201 68.5368 71.4168C71.908 71.7443 73.7295 72.0034 78.1481 72.4083C81.2254 72.6886 78.2764 72.2537 81.2367 72.5238C82.2589 72.6241 93.8956 74.0145 95.0073 73.6995C94.8905 73.0937 52.9437 71.8202 19.362 64.0538C18.4552 63.667 17.5823 63.2768 16.4866 62.3546C15.5595 61.5619 14.0938 59.8771 14.0273 57.2718C13.9909 54.7367 15.2949 53.0478 16.1637 52.2112C18.8342 49.9798 19.7896 50.1229 20.8935 49.6535C22.1325 49.2621 22.9002 49.0769 23.883 48.844C24.9071 48.6071 25.69 48.4481 26.545 48.2819C30.0417 47.6147 32.9728 47.2011 35.6591 46.8301C40.9388 46.1169 44.7003 45.7095 46.2944 45.5141C37.8994 46.4954 30.3005 46.9518 20.8167 49.4954C39.085 45.1986 58.0449 44.2091 59.7478 44.2829C99.6964 40.4713 140.209 38.6759 179.068 33.2897C200.139 29.8343 221.164 26.0707 242.127 22.0355C252.878 19.9775 247.063 21.4631 264.699 17.8243C260.135 18.6523 255.544 19.4719 250.947 20.2788C254.544 19.5984 262.999 17.9575 272.27 16.0743C279.675 14.5479 287.861 12.9547 293.804 11.3966C294.18 11.2942 294.561 11.1969 294.896 11.1138C295.059 11.0732 295.221 11.0329 295.287 11.0154C295.311 11.0099 295.332 11 295.168 11.0539C295.069 11.0916 294.964 11.1098 294.516 11.3295C294.282 11.4663 293.963 11.5616 293.172 12.2886C292.802 12.6677 292.17 13.2696 291.701 14.6597C291.219 16.0072 291.473 17.8519 291.956 18.7821C292.138 19.2069 292.646 20.0266 293.238 20.5608C293.638 20.9318 293.963 21.1483 294.27 21.329C294.954 21.7062 295.057 21.7025 295.271 21.7865C295.453 21.8493 295.616 21.8931 295.695 21.9127C295.764 21.9302 295.822 21.9434 295.871 21.954C296.082 21.9977 296.098 21.9959 296.141 22.0031C296.199 22.0111 296.165 22.0061 296.133 22.0029C296.057 21.9948 295.942 21.9844 295.801 21.973C295.557 21.9533 295.259 21.9324 294.982 21.914C294.395 21.8755 293.872 21.8449 293.298 21.8124C292.199 21.7506 291.224 21.7007 290.279 21.6538C288.445 21.5633 287.091 21.5038 286.203 21.4695C285.391 21.441 284.128 21.6476 273.94 21.2176C264.863 20.8379 263.418 20.5717 258.554 20.3224C254.428 20.1127 249.915 19.9754 248.693 19.9122C248.118 19.8823 247.756 19.8173 247.031 19.7439C246.599 19.6987 246.029 19.6504 245.17 19.6056C238.05 19.2372 243.866 19.838 236.812 19.1328C238.52 19.1889 240.269 19.2469 241.928 19.3011C233.459 18.8852 221.805 18.2137 234.359 18.6469C236.512 18.7213 234.664 18.7662 236.256 18.8328C240.33 19.0022 243.963 19.1529 247.05 19.2804C280.289 20.6697 265.533 19.9213 247.056 19.1444C240.089 18.8528 232.538 18.5573 226.864 18.3693C221.245 17.9517 189.434 16.7462 188.368 16.6676C186.903 16.5555 192.327 16.6343 185.245 16.2173C183.745 16.1277 141.262 14.4848 156.561 14.8721C159.731 14.9522 180.081 15.8408 185.003 16.0369C173.415 15.1746 146.369 14.6154 143.3 14.4758C131.036 13.9133 166.902 15.1103 139.254 13.9325C117.975 13.0269 137.94 14.1009 129.753 13.8752C125.146 13.7478 101.089 12.4817 101.71 12.8731C93.4545 12.5749 98.293 12.5789 97.2748 12.5233C96.2694 12.4699 80.0253 11.9161 74.7386 11.6232C74.0967 11.5874 76.1265 11.4801 75.4632 11.4374C74.1767 11.3582 58.5095 10.7569 57.8718 10.747C57.471 10.7418 61.2046 11.0607 59.6654 11.0383C57.8573 11.011 42.7898 10.3571 41.9575 10.3708C40.7787 10.3947 59.396 11.1068 56.2856 11.1661C47.7127 10.7694 33.725 10.3231 28.0438 10.2413C29.4459 10.2556 37.7473 10.588 40.65 10.7216C39.2659 10.9378 21.4112 10.2058 27.5233 10.2393C23.6415 10.1969 26.2863 10.3662 24.0967 10.3863C23.5251 10.3907 17.996 10.1709 16.9371 10.1749C16.7954 10.1786 22.4894 10.5137 21.3464 10.5225C19.273 10.538 2.55373 9.83353 1.18143 9.75128C-2.66653 9.51991 10.9689 9.98606 12.1181 9.9179C12.2761 9.90668 0.691163 9.20873 0.512414 9.18153C-0.153663 8.94077 12.7426 9.62072 11.2781 9.36866C8.08226 9.19769 4.90036 9.02728 1.70586 8.85635C14.031 9.16433 36.8005 10.1932 42.6896 10.2119C24.4234 9.5327 5.31949 8.74576 5.38269 8.24944C5.40332 8.04018 13.2849 8.23849 12.9834 8.17278C11.8251 7.93439 0.888974 7.69597 0.483286 7.66932C0.151012 7.64412 -0.000348476 7.6266 2.48064e-05 7.61558C2.50023e-05 7.61558 2.51982e-05 7.61557 2.53941e-05 7.61557C0.00837028 7.504 15.5982 8.0593 16.3785 8.04002C17.6938 8.0029 10.7727 7.34697 10.785 7.26483C11.0326 7.25833 22.1248 7.62233 18.3896 7.32576C14.6136 7.02608 4.89182 6.62633 4.55435 6.59743C2.70245 6.43476 19.6973 7.04846 20.2066 7.01777C20.4682 7.00242 11.3609 6.4711 11.0921 6.41418C10.8697 6.35899 17.8026 6.54114 20.5453 6.50744C22.589 6.48266 16.6545 6.15769 17.7002 6.1834C18.4468 6.20261 34.5084 6.85957 35.2947 6.87264C36.4701 6.89247 32.7182 6.61018 33.2663 6.60022C34.0456 6.58553 39.2199 6.84324 38.5513 6.76815C38.0496 6.71203 17.9659 5.44731 18.0972 5.33366C18.3419 5.14066 39.5982 6.4747 19.8287 4.86732C19.6854 4.85622 14.871 4.71678 14.7351 4.7063C11.7659 4.43781 27.2304 4.84187 8.32806 4.11051C43.5038 5.28927 12.7096 3.98408 17.931 3.85527C19.9483 3.80618 33.5786 4.30796 33.6439 4.29091C32.3295 4.07064 27.9684 4.02201 26.5034 3.88054C25.6859 3.80153 37.8987 4.12347 35.1555 3.89716C33.7411 3.78049 20.7963 3.27348 20.2584 3.24005C15.1384 2.92273 21.4268 3.06237 20.3048 2.93955C19.554 2.85726 11.7534 2.53501 11.5462 2.51725C11.2209 2.48463 21.8305 2.70863 24.0464 2.72563C25.729 2.73781 19.4257 2.39226 20.5986 2.41549C27.6622 2.55641 42.6813 3.5444 28.2154 2.42835C27.3366 2.36025 21.862 2.14999 21.6997 2.13694C18.3232 1.8501 28.3981 2.24815 30.2121 2.20008C33.3159 2.11634 18.822 1.64243 30.8793 1.9863C21.846 1.48029 16.8076 1.28054 6.22711 0.887324C35.525 1.97536 45.878 1.85313 13.3628 0.540613C23.6963 0.970581 22.5769 0.61761 25.6575 0.737866C27.5714 0.812924 42.5566 1.72972 35.7136 0.765022C34.8605 0.64458 25.7319 0.381047 28.5959 0.322586C50.4555 1.25896 29.077 0.230673 29.0439 0.206158C29.3324 -0.18604 82.784 2.32539 91.9414 2.6538C102.609 3.03607 112.077 3.10495 114.405 3.19977C121.997 3.51008 115.693 3.41385 117.387 3.54253C119.13 3.67248 140.803 4.25011 141.874 4.31117C146.055 4.55078 141.795 4.56769 142.234 4.59533C147.434 4.92527 176.519 5.96921 184.688 6.35101C184.411 6.21519 168.06 5.53259 178.305 5.75463C190.21 6.01217 190.856 6.58679 191.173 6.62389C209.958 7.39741 228.742 8.17315 247.487 8.96367C255.885 9.3184 264.145 9.6705 272.485 10.0371C276.619 10.2191 280.844 10.4077 284.962 10.6C287.053 10.6979 289.113 10.7961 291.234 10.9041C292.242 10.9556 293.34 11.0132 294.384 11.0735C294.908 11.1038 295.449 11.1363 295.994 11.1735C296.265 11.1922 296.537 11.2114 296.857 11.2386C296.999 11.2509 297.174 11.2664 297.38 11.2897C297.497 11.3033 297.597 11.3142 297.804 11.3468C297.879 11.3592 298.052 11.3867 298.28 11.4415C298.35 11.4584 298.653 11.5322 298.981 11.6618C299.182 11.7918 300.673 12.1185 301.752 14.2695C302.199 15.1188 302.409 16.8287 301.948 18.0241C301.508 19.2487 300.947 19.7634 300.604 20.1043C299.898 20.7359 299.583 20.8406 299.357 20.9679C298.906 21.1858 298.747 21.2263 298.591 21.2822C298.308 21.3752 298.18 21.4066 298.054 21.4409C297.816 21.5037 297.661 21.5412 297.503 21.5811C297.197 21.6576 296.923 21.7282 296.646 21.8039C288.988 23.7848 281.853 25.1358 274.462 26.6961C263.742 28.9093 252.967 31.0595 242.209 33.1293C242.796 33.2726 265.017 28.8246 274.485 26.8091C276.938 26.2955 278.568 25.9522 278.728 25.927C279.691 25.7736 277.974 26.1721 274.507 26.9165C261.297 29.8495 222.737 37.1938 216.926 38.0852C222.479 37.143 228.018 36.1829 233.555 35.2031C224.187 37.3294 203.19 40.6891 189.51 43.1225C185.088 43.9163 193.604 42.6111 193.438 42.6448C188.487 43.6242 180.477 44.8489 186.426 43.6821C184.159 44.0926 182.407 44.4015 180.938 44.6536C174.392 45.7175 174.196 45.5989 166.436 46.5118C165.93 46.5648 170.027 46.2502 162.566 47.1339C159.094 47.5843 140.36 49.3295 137.931 49.6333C136.913 49.7759 146.421 49.4592 147.537 48.896C167.854 47.1537 154.039 48.0704 161.876 47.2809C163.126 47.0617 160.297 48.0086 180.332 45.0632C176.561 46.3203 153.454 48.4676 149.613 48.8126C141.62 49.6988 174.488 46.8357 181.015 45.1224C181.047 45.1156 181.077 45.1088 181.107 45.1021C181.076 45.1112 181.046 45.1201 181.016 45.1288C180.087 45.4064 180.186 45.4279 181.042 45.2864C182.535 45.0374 186.227 44.3119 190.792 43.5483C198.817 42.1991 195.347 42.8959 199.676 42.1503C211.553 40.077 206.584 40.6979 216.399 39.166C206.754 40.2074 233.106 36.0456 240.774 34.7184C228.354 37.1339 215.922 39.4512 203.456 41.6695C204.179 41.58 204.9 41.4907 205.617 41.4016C202.321 41.9764 199.057 42.5383 195.76 43.0986C196.274 42.9748 196.804 42.8481 197.324 42.7229C189.532 44.1705 184.453 45.0118 181.084 45.5385C177.15 46.1408 175.445 46.2682 174.725 46.3701C156.472 48.7344 135.841 50.3397 117.65 51.8434C114.921 52.0636 116.806 52.1437 96.9575 53.5562C90.6424 54.0088 96.5947 53.3485 89.4212 53.9577C80.4902 55.1728 80.6828 54.7775 77.9854 55.0029C70.3782 55.646 65.7453 56.1919 65.0083 56.2596C55.5895 57.1459 41.7753 58.4229 31.8686 60.0526C31.6795 60.0849 36.8121 59.4013 30.494 60.3942C29.9351 60.493 28.6735 60.6684 26.8033 61.0454C26.3376 61.1409 25.8799 61.2418 25.4671 61.3417C24.9647 61.4649 24.4752 61.609 24.2276 61.6918C24.0993 61.731 23.964 61.7966 24.1041 61.7119C24.1786 61.6618 24.2591 61.6184 24.5145 61.4116C24.8452 61.1224 25.5135 60.5746 26.0555 59.2394C26.6391 57.9818 26.5152 55.6711 25.7981 54.4921C25.1324 53.2619 24.4499 52.8622 24.3674 52.785C23.9684 52.5053 23.9048 52.5314 24.066 52.6C29.4524 54.5831 41.9306 56.1884 52.0887 57.2211C47.1832 56.6341 42.6097 56.0494 37.7931 55.3335C43.3025 56.4403 82.8545 60.0451 73.2284 58.9416C67.2983 58.3128 52.7436 57.2282 51.2547 56.6402C64.1998 58.536 137.405 64.1356 143.085 64.6075C143.872 64.6809 139.02 64.4365 140.106 64.5361C140.931 64.613 157.729 65.8663 159.934 66.0842C161.258 66.2145 153.849 65.7263 154.442 65.8176C154.973 65.8893 175.917 67.5505 177.115 67.4883C171.964 67.1499 157.501 65.9865 165.112 66.435C166.105 66.4943 171.086 66.9807 172.314 67.0547C183.346 67.7073 150.444 65.2255 145.389 64.8409C166.043 66.2374 197.84 68.7879 221.929 70.9374C231.598 71.9896 207.517 69.7984 218.502 70.9292C241.16 73.3879 224.625 71.3354 225.305 71.3804C228.365 71.616 236.027 72.5607 242.009 73.5741C246.623 74.3553 250.44 75.0802 250.444 74.8395C254.605 75.679 256.142 76.1035 258.108 76.651C259.085 76.9471 260.16 77.2024 262.198 78.0641C262.489 78.1919 262.799 78.3373 263.119 78.503C263.279 78.5861 263.444 78.675 263.613 78.7718C263.786 78.8703 264.037 79.0219 264.261 79.1712C264.742 79.5047 265.149 79.7565 265.94 80.5819C266.31 80.9899 266.635 81.3727 267.054 82.1139C267.484 82.8854 267.85 83.9014 267.941 85.03C268.043 86.1852 267.821 87.4051 267.416 88.3668C267.04 89.2604 266.643 89.8272 266.209 90.3568C265.737 90.9139 265.456 91.1594 265.117 91.4521C264.798 91.7236 264.432 91.9887 264.167 92.1651C263.097 92.8709 262.197 93.2784 261.274 93.6694C262.276 93.254 263.216 92.9279 264.765 91.8242C265.493 91.1801 266.791 90.5373 267.792 87.6008C268.264 86.0697 268.107 84.1463 267.522 82.8058C266.866 81.3219 266.357 80.8347 265.774 80.2129C266.381 80.8485 267.001 81.424 267.668 83.102C268.282 84.6263 268.25 86.8757 267.57 88.4092C267.008 89.7742 266.231 90.6261 265.696 91.1527C265.198 91.6399 264.659 92.0424 264.248 92.3179C262.624 93.3718 261.511 93.774 260.343 94.2287C258.047 95.0755 255.894 95.6446 253.66 96.1945C249.163 97.282 244.697 98.1144 240.598 98.8427C232.44 100.273 226.187 101.167 227.193 100.958C232.543 99.8433 246.693 97.333 247.949 96.9916C248.88 96.7747 250.503 96.317 254.463 95.2278C256.589 94.5423 258.714 94.3246 263.224 92.0452C263.813 91.682 264.593 91.2799 265.677 90.0773C266.257 89.3639 266.953 88.5182 267.301 86.67C267.628 84.9017 267.013 82.9987 266.3 81.9604C264.966 80.0623 264 79.6776 263.204 79.1683C262.845 78.9642 262.483 78.7816 262.111 78.6098C261.763 78.4496 261.484 78.3309 261.156 78.1987C258.649 77.2168 256.377 76.6468 253.839 76.0238C251.697 75.6726 252.717 75.9285 255.015 76.4896C256.243 76.7972 257.727 77.1642 259.538 77.7537C260.431 78.0543 261.373 78.3709 262.631 78.9971C263.198 79.2901 263.99 79.7097 264.874 80.4851C265.443 81.0126 265.961 81.4992 266.579 82.6748C267.21 83.8648 267.494 85.6832 267.078 87.1983C266.149 90.1238 264.909 90.6398 264.212 91.2709C263.77 91.5931 263.538 91.7314 263.222 91.9185C262.935 92.0872 262.588 92.2693 262.37 92.3763C261.37 92.8669 260.566 93.1665 259.799 93.4406C258.398 93.9309 257.335 94.2216 256.777 94.3704C256.207 94.5184 256.165 94.5129 256.862 94.289C257.579 94.0327 258.796 93.7531 261.515 92.5695C254.454 95.6085 239.711 98.0814 225.045 100.783C209.826 103.401 195.394 103.706 191.788 104.024C190.921 104.067 194.967 104.335 182.588 104.575C176.708 104.672 190.865 104.204 188.179 104.202C181.088 105.53 94.5311 102.472 60.5893 107.647C55.615 108.58 51.8682 109.771 49.5135 110.636C48.3376 111.075 48.747 110.794 47.5831 111.26C43.9852 112.131 31.8251 120.377 31.3663 124.987C31.7109 123.891 32.2967 123.007 32.4929 122.718C32.7232 122.392 32.6456 122.539 32.3964 122.995C32.1535 123.444 31.7363 124.269 31.5388 125.034C31.4357 125.376 31.4457 125.774 31.4404 125.525C31.4107 125.387 31.4197 125.015 30.8924 124.257C30.4158 123.491 28.9901 122.716 28.142 122.72C33.5596 122.916 41.2064 123.004 44.3199 123.126C55.9574 123.52 55.1946 123.745 60.216 124.011C75.1355 124.811 96.3784 126.314 112.133 128.661C116.722 129.325 120.834 129.958 124.224 130.54C123.465 129.977 149.745 134.379 161.741 136.113C171.139 137.465 184.804 139.141 172.152 137.134C188.364 139.491 205.448 141.886 220.648 144.075C223.174 144.439 219.691 144.064 223.979 144.678C224.364 144.732 224.924 144.683 228.611 145.208C259.003 149.543 244.173 147.652 249.876 148.569C253.014 149.076 255.391 149.449 257.115 149.711C239.373 147.12 218.935 144.193 213.48 143.403C218.105 144.36 252.754 149.082 262.886 150.666C263.232 150.72 262.001 150.697 262.353 150.75C262.36 150.751 262.368 150.752 262.375 150.753C262.667 150.797 263.08 150.859 263.582 150.933C269.731 151.824 290.002 154.86 285.42 153.988C284.181 153.747 275.134 152.351 263.622 150.664C262.391 150.483 261.061 150.288 259.73 150.093C263.345 150.592 260.676 150.019 261.314 150.106C262.022 150.202 262.812 150.313 263.656 150.434C272.331 151.675 288.291 154.215 294.374 155.279C295.927 155.547 295.833 155.42 296.088 155.463C297.853 155.779 298.965 156.028 299.796 156.245C300.23 156.358 300.575 156.456 301.033 156.601C301.15 156.639 301.251 156.673 301.42 156.732C301.578 156.788 301.723 156.839 302.013 156.964C302.154 157.027 302.271 157.076 302.564 157.234C302.846 157.412 303.08 157.463 303.875 158.225C304.058 158.412 304.238 158.616 304.452 158.92C304.746 159.341 305.045 159.903 305.228 160.586C305.657 161.893 305.241 163.861 304.652 164.703C303.618 166.236 303.178 166.25 302.951 166.461C302.647 166.607 301.724 167.462 299.245 169.236C296.65 170.722 296.313 170.74 297.403 170.131C297.939 169.814 298.816 169.294 299.857 168.593C300.842 167.945 302.276 166.842 302.913 166.403C302.995 166.349 303.103 166.275 303.247 166.165C303.384 166.058 303.584 165.904 303.866 165.613C304.147 165.3 304.456 165.004 304.876 164.116C305.271 163.312 305.465 161.93 305.234 160.94C305.053 159.922 304.427 158.969 304.191 158.698C303.906 158.34 303.637 158.09 303.402 157.896C303.286 157.8 303.171 157.714 303.077 157.648C303.01 157.601 302.947 157.558 302.886 157.519C302.764 157.441 302.653 157.376 302.551 157.319C301.81 156.931 301.625 156.909 301.377 156.817C300.93 156.673 300.675 156.612 300.378 156.538C299.857 156.411 299.383 156.312 298.931 156.221C298.012 156.037 297.151 155.881 296.275 155.726C294.561 155.424 292.915 155.154 291.504 154.929C288.706 154.486 286.842 154.225 287.434 154.388C287.677 154.454 289.165 154.707 291.589 155.116C292.819 155.324 294.244 155.564 295.903 155.858C296.707 156.002 297.607 156.164 298.551 156.35C299.029 156.445 299.519 156.544 300.085 156.676C300.225 156.709 300.368 156.743 300.537 156.787C300.688 156.825 300.882 156.877 301.084 156.938C301.316 157.013 301.523 157.061 302.076 157.308C302.183 157.356 302.449 157.485 302.706 157.647C302.884 157.769 303.529 158.128 304.187 159.031C304.677 159.693 305.199 160.886 305.126 162.2C305.078 163.579 304.384 164.677 304.073 165.06C303.293 165.998 303 166.071 302.8 166.232C299.348 169.079 292.309 172.955 285.761 174.189C264.982 177.722 243.832 176.585 243.861 177.063C243.627 177.031 242.64 176.998 240.64 176.96C238.956 176.929 235.013 176.923 230.596 176.907C223.757 176.868 215.55 177.379 213.479 177.545C212.92 177.592 213.164 177.884 212.468 177.931C210.738 177.928 186.953 179.771 178.071 181.013C182.878 180.533 187.678 180.075 192.482 179.654C163.503 182.634 167.978 182.39 177.656 181.375C178.139 181.323 178.61 181.284 179.07 181.235C186.558 180.48 196.151 179.633 196.299 179.652C196.889 179.477 147.676 185.064 157.104 183.736C158.427 183.527 181.222 181.079 169.916 182.149C167.948 182.328 153.307 184.081 152.533 184.15C147.374 184.588 179.322 180.719 175.382 180.977C167.652 182.03 157.688 183.085 148.782 184.172C144.724 184.667 143.749 184.933 143.25 184.994C135.761 185.893 139.951 185.25 137.454 185.538C136.109 185.709 121.361 187.66 124.104 186.881C75.1447 191.695 110.742 188.938 140.538 185.382C131.148 186.653 112.624 188.554 104.2 189.238C101.239 189.488 102.957 189.525 97.9095 189.922C94.4933 190.161 86.9471 190.742 77.6528 190.678C63.9383 190.644 44.5952 190.075 35.6979 191.599C35.4677 191.664 35.2579 191.726 35.1313 191.766C35.0703 191.786 35.0298 191.801 35.0608 191.789C35.1107 191.76 35.147 191.783 35.6668 191.469C35.8254 191.366 35.9675 191.277 36.2697 191.02C36.4154 190.894 36.5802 190.739 36.7615 190.535C36.981 190.289 37.2314 189.966 37.4716 189.531C38.0166 188.667 38.4628 186.645 37.8793 185.078C37.3866 183.656 36.6599 183.012 36.2973 182.674C35.4834 181.994 35.232 181.956 35.0096 181.837C34.8096 181.749 34.7081 181.717 34.6479 181.697C34.4213 181.628 34.5634 181.675 34.6818 181.696C35.2691 181.813 36.1812 181.93 36.9662 182.022C39.4483 182.298 41.1815 183.702 42.0364 184.586C42.9266 185.509 43.3955 186.249 43.7676 186.829C43.1627 185.894 42.4526 184.895 41.2679 183.915C40.1126 182.931 38.3732 182.197 36.9598 182.078C34.9619 181.883 35.2264 181.981 36.9434 182.223C38.617 182.372 40.5543 183.403 41.6258 184.487C42.7471 185.572 43.3802 186.594 43.9424 187.533C45.726 190.767 45.6489 190.668 45.5933 190.377C45.483 190.019 45.0726 189.072 45.3647 189.619C45.675 190.068 47.203 193.843 49.749 196.953C52.2519 200.15 56.537 202.466 60.7818 203.293C64.5456 204.094 67.5726 204.79 68.852 205.074C65.5652 204.334 62.8809 203.765 60.7726 203.337C57.2156 202.582 55.9774 201.833 56.0376 201.944C56.133 202.001 57.5966 202.831 60.7315 203.531C63.2674 204.082 66.5261 204.807 70.3748 205.705C67.7534 205.147 65.1261 204.606 62.4905 204.089C73.1855 206.227 95.1515 212.199 101.195 213.865C102.146 214.115 98.7788 213.033 99.3144 213.175C103.438 214.237 115.167 217.69 120.594 219.467C122.15 219.966 123.187 220.297 123.375 220.346C123.728 220.438 122.061 219.861 120.628 219.362C119.159 218.85 117.92 218.418 119.365 218.838C119.498 218.877 119.961 219.03 120.659 219.264C123.149 220.104 128.804 222.017 134.435 223.894C137.111 224.789 135.548 224.111 136.223 224.334C141.842 226.245 138.486 225.205 148.677 228.991C155.171 231.477 160.25 233.374 168.065 236.941C168.886 237.319 169.798 237.654 170.834 237.934C169.781 237.647 168.87 237.303 168.072 236.926C148.141 228.015 156.861 231.723 168.149 236.757C171.045 238.127 175.056 238.55 178.49 238.464C180.72 238.261 178.424 238.731 192.203 236.944C163.468 240.826 200.123 236.094 208.926 234.884C209.38 234.847 209.534 234.95 213.594 234.626C213.939 234.609 213.427 234.494 217.227 234.283C235.41 233.767 238.777 235.809 238.341 235.471C237.94 235.42 233.826 234.868 237.285 235.445C238.182 235.604 240.484 235.975 243.361 236.641C249.852 237.996 258.815 241.64 261.747 243.216C262.72 243.724 262.264 243.537 265.997 245.608C272.581 249.338 277.99 253.365 281.753 256.561C282.15 256.975 282.265 256.956 288.933 263.364C290.791 265.192 292.815 267.214 290.312 264.563C282.325 255.341 262.435 241.428 248.403 237.797C242.111 236.039 249.075 237.405 257.287 240.892C265.571 244.269 274.385 250.457 275.194 251.104C275.835 251.543 269.309 247.045 275.857 251.722C280.748 255.199 288.834 262.253 294.784 268.701C295.798 269.765 296.831 270.874 297.863 272.665C298.004 273.03 298.706 273.792 299.11 276.397C299.294 277.681 299.078 279.801 298.053 281.444C297.053 283.094 295.796 283.96 294.872 284.498C291.201 286.341 289.469 286.134 289.581 286.206C289.692 286.171 290.581 286.032 292.162 285.521C292.963 285.241 293.947 284.916 295.293 284.021C296.556 283.261 298.737 280.885 298.862 278.077C298.998 275.431 298.157 274.016 297.655 273.021C297.105 272.035 296.598 271.388 296.221 270.916C295.446 269.972 295.084 269.639 295.439 270.059C295.481 270.117 295.913 270.58 296.565 271.467C297.166 272.431 298.291 273.501 298.742 276.712C298.959 278.319 298.333 280.68 297.244 282.003C296.185 283.366 295.172 283.957 294.42 284.384C292.914 285.177 292.069 285.351 291.716 285.46C289.959 285.966 286.34 285.795 284.705 285.953C283.802 286.049 283.227 286.108 282.839 286.155C281.415 286.321 282.668 286.293 280.525 286.494C274.651 287.343 254.358 287.206 253.726 287.268C257.06 287.373 260.388 287.425 263.75 287.406C245.153 287.302 253.09 287.348 250.456 287.375C247.635 287.306 248.422 287.161 242.209 286.799C241.882 286.779 240.162 286.682 237.711 286.52C229.982 286.014 215.142 284.742 215.533 284.849C229.757 285.924 224.472 285.723 225.121 285.786C227.583 286.008 230.828 286.131 234.182 286.386C235.456 286.483 236.722 286.576 237.702 286.645C255.345 287.746 234.243 286.7 239.541 287.07C241.475 287.218 245.34 287.305 246.153 287.347C248.822 287.493 248.855 287.652 250.652 287.707C254.822 287.818 249.962 287.427 250.293 287.424C253.997 287.515 268.681 287.68 259.539 287.919C265.025 288.021 265.676 287.696 270.049 287.669C278.757 287.49 265.715 288.099 262.203 288.049C252.215 288.134 247.831 287.866 237.664 287.215C235.007 287.032 231.97 286.8 228.338 286.513C222.038 286.014 214.588 285.513 211.694 285.273C209.861 285.117 192.61 283.13 192.048 283.891C185.341 283.25 174.856 281.884 167.944 281.409C161.737 280.984 163.695 281.412 163.115 281.381C162.219 281.331 154.742 280.809 152.194 280.703C149.246 280.576 150.685 280.761 145.995 280.548C134.314 280.067 134.611 279.878 133.421 279.801C120.012 279.261 125.249 279.826 122.858 279.837C122.777 279.839 122.687 279.84 122.588 279.841C119.739 279.426 79.4999 281.371 71.0812 282.857C74.5074 282.42 77.9414 282.016 81.3777 281.644C75.2046 282.018 68.7139 283.063 68.567 282.757C67.38 283.382 54.6685 284.652 50.8818 285.272C49.6559 285.459 49.5064 285.545 48.4607 285.728C48.2347 285.767 47.9702 285.811 47.6543 285.861C45.7791 286.158 43.286 286.553 40.6442 287.047C39.3161 287.297 37.9593 287.569 36.7137 287.874C36.1044 288.024 35.4921 288.194 35.1238 288.324C34.9573 288.376 34.7999 288.468 35.0796 288.317C35.2475 288.182 35.5115 288.192 36.4034 287.125C36.8074 286.612 37.5375 285.405 37.5362 283.772C37.5356 282.142 36.8545 281.017 36.4926 280.523C37.5139 282.302 42.6707 284.378 44.176 284.975C45.3632 285.44 46.2462 285.756 46.8486 285.966C48.2422 286.448 48.0797 286.345 46.8899 285.856C45.817 285.409 43.8582 284.634 41.6895 283.607C39.4823 282.569 37.3649 281.302 36.8077 280.293C37.2499 280.858 38.1613 282.529 37.8776 284.543C37.5772 286.504 36.7275 287.366 36.3201 287.827C35.4605 288.664 35.2806 288.637 35.1607 288.728C34.9766 288.82 35.1967 288.721 35.4251 288.655C35.9084 288.504 36.6237 288.325 37.3212 288.169C38.7467 287.851 40.2448 287.575 41.6608 287.328C44.4851 286.84 46.9739 286.474 48.5399 286.244C49.277 286.137 49.854 286.054 50.1258 286.014C49.7116 286.076 49.155 286.16 48.5415 286.255C46.7598 286.531 44.2085 286.934 41.4056 287.457C40.0085 287.719 38.5402 288.012 37.1856 288.341C36.5171 288.504 35.849 288.687 35.4186 288.835C35.2257 288.897 35.0289 288.999 35.282 288.876C35.432 288.764 35.6563 288.787 36.5884 287.826C37.032 287.314 37.911 286.255 38.1065 284.291C38.2875 282.294 37.4106 280.75 36.9733 280.172C37.7993 281.728 43.4226 283.992 45.402 284.704C47.6517 285.494 47.2824 285.39 42.6951 283.38C41.5435 282.857 39.9677 282.159 38.9036 281.552C37.8039 280.926 37.4481 280.588 37.2341 280.341C37.1764 280.272 37.1172 280.197 37.0549 280.113C37.4145 280.616 37.9649 281.49 38.1698 282.889C38.3929 284.262 37.9822 285.819 37.5482 286.605C36.6162 288.257 36.0615 288.43 35.78 288.686C35.2143 289.066 35.219 289.009 35.2054 289.026C35.2357 289.009 35.5014 288.914 35.728 288.847C36.1969 288.706 36.6031 288.609 36.866 288.549C37.3814 288.436 37.3403 288.469 37.047 288.563C36.7685 288.654 36.2561 288.812 35.9325 288.93C35.6025 289.048 35.4507 289.12 35.5561 289.089C36.0857 288.813 42.9094 287.283 44.7061 287.048C45.2516 286.973 42.218 287.594 48.5981 286.624C49.3697 286.51 50.3091 286.37 51.4222 286.206C50.8007 286.321 49.8269 286.484 48.6073 286.684C46.6926 287 44.1482 287.41 41.3898 287.923C40.0178 288.179 38.5777 288.464 37.256 288.78C36.6047 288.935 35.9548 289.111 35.5504 289.247C35.3722 289.301 35.1899 289.397 35.4835 289.25C35.6552 289.124 35.9044 289.141 36.9052 288.105C37.3806 287.554 38.3184 286.42 38.5252 284.325C38.7172 282.195 37.7814 280.546 37.3113 279.926C37.9805 281.434 44.3882 284.07 47.178 285.088C48.3442 285.526 49.2116 285.846 49.6807 286.014C50.9638 286.42 43.1478 283.339 66.1384 291.898C65.8835 291.771 65.6242 291.642 65.3682 291.515C70.655 293.347 75.9551 295.121 81.2457 296.769C88.8642 299.138 96.5126 301.264 104.165 302.886C102.74 302.677 95.4144 301.188 104.599 303.199C109.889 304.248 106.015 303.277 106.497 303.37C107.147 303.489 109.276 303.919 112.501 304.425C120.812 305.683 138.368 307.458 156.104 310.38C180.969 314.237 207.769 318.142 216.391 319.438C222.197 320.294 238.45 322.59 239.668 322.777C246.288 323.766 267.858 327.143 276.204 328.678C277.224 328.862 277.968 328.996 278.544 329.098C281.779 329.67 278.737 328.96 281.632 329.493C284.345 329.993 281.504 329.629 282.311 329.783C283.337 329.978 285.43 330.36 288.305 330.892C289.734 331.158 291.363 331.46 293.151 331.806C294.048 331.981 294.984 332.165 296.028 332.388C296.532 332.497 297.084 332.617 297.734 332.783C298.085 332.875 298.404 332.953 299.009 333.158C299.342 333.283 299.645 333.351 300.552 333.842C300.672 333.909 300.798 333.985 300.933 334.071C301.069 334.157 301.282 334.302 301.477 334.452C301.834 334.727 302.449 335.24 303.04 336.074C303.722 336.988 304.332 338.555 304.384 339.887C304.451 341.208 304.218 341.937 304.164 342.195C303.769 343.625 303.436 344.102 303.135 344.654C302.833 345.167 302.55 345.567 302.262 345.941C301.688 346.681 301.098 347.303 300.401 347.913C293.308 353.758 286.407 354.494 279.854 356.194C266.495 359.081 253.675 361.431 248.352 362.389C252.894 361.551 268.597 358.517 279.806 355.97C286.816 354.445 292.399 352.286 292.098 352.324C291.811 352.615 282.37 355.214 280.543 355.552C280.319 355.593 280.053 355.645 279.748 355.707C275.973 356.492 266.714 358.694 261.46 359.631C260.824 359.742 263.286 359.054 253.216 360.938C249.749 361.585 240.71 363.465 231.543 364.963C229.928 365.274 227.459 365.737 224.374 366.308C204.13 371.82 169.902 353.123 155.819 355.666C149.901 356.42 145.963 357.581 144.984 357.887C144.85 357.837 153.804 355.966 147.787 357.382C139.82 359.624 146.983 357.052 137.479 360.054C136.74 360.226 121.936 365.904 111.944 366.307C107.977 366.641 105.139 366.67 104.845 366.692C99.7429 366.853 105.618 367.08 111.97 366.621C117.147 366.285 122.461 365.098 122.284 365.146C121.886 365.269 117.206 366.359 111.984 366.783C105.494 367.369 98.4583 367.167 97.9718 367.154C97.1262 367.143 114.939 367.032 93.5827 366.795C95.9939 366.93 98.4313 367.038 100.895 367.091C90.8246 367.004 90.0083 366.568 87.6263 366.467C80.7642 366.167 73.071 365.54 63.9723 366.414C63.7109 366.438 63.4156 366.484 63.1012 366.555C62.2607 366.771 62.5033 366.629 62.955 366.429C63.3981 366.234 63.9641 366.105 63.8677 366.113C62.049 366.209 59.0211 368.248 55.3603 371.435C55.2143 371.535 57.166 369.673 57.3669 369.48C57.6362 369.401 55.7253 369.882 49.1478 378.236C50.0612 377.092 50.9956 375.977 51.9489 374.912C51.3952 375.583 49.8103 377.49 47.9245 380.099C46.977 381.404 45.9611 382.868 44.9094 384.434C44.3973 385.195 43.8517 386.018 43.3006 386.841C43.0249 387.251 42.7429 387.672 42.4091 388.148C42.3246 388.269 42.2411 388.386 42.157 388.503C42.0563 388.642 41.9476 388.789 41.8365 388.935C41.7391 389.062 41.5731 389.276 41.3725 389.508C41.1688 389.701 41.0007 390.083 39.7327 390.948C39.633 391.009 39.6192 391.036 39.8841 390.831C40.0212 390.718 40.2447 390.548 40.6175 390.112C40.9764 389.658 41.6594 388.841 41.9347 387.154C42.2195 385.445 41.548 383.711 41.0055 382.954C40.4931 382.194 40.0775 381.867 39.8451 381.672C39.329 381.272 39.1964 381.239 39.1003 381.182C38.9408 381.106 39.0677 381.167 39.1999 381.21C39.3505 381.262 39.5526 381.325 39.7521 381.383C40.6217 381.635 41.6087 381.867 42.4915 382.066C44.2508 382.458 45.6417 382.729 46.2537 382.854C53.7589 384.32 49.0691 383.597 53.3774 384.405C54.0214 384.524 54.9576 384.689 56.1322 384.889C50.4908 383.7 77.5428 388.059 75.9575 387.977C79.7797 388.295 102.859 391.632 113.764 392.7C120.635 393.464 134.69 394.544 136.876 394.702C139.536 394.922 138.712 395.08 143.526 395.464C143.91 395.494 145.294 395.581 147.381 395.703C152.759 396.025 162.765 396.519 171.872 396.995C174.315 397.128 179.453 397.645 174.896 397.588C167.089 397.517 152.387 396.472 152.565 396.672C152.766 396.958 172.615 397.748 177.965 397.883C202.668 398.65 188.402 398.512 189.029 398.617C190.67 398.847 204.188 399.041 204.755 399.047C207.094 399.145 197.505 399.175 197.365 399.273C197.18 399.424 210.215 399.814 207.254 399.828C203.004 399.875 191.033 399.471 190.278 399.454C180.394 399.373 193.93 400.005 197.667 400.203C198.801 400.27 194.281 400.28 195.222 400.308C209.559 400.727 198.247 399.909 207.785 400.051C216.294 400.15 205.338 400.289 205.668 400.298C206.087 400.322 216.265 400.395 217.857 400.464C218.638 400.553 192.19 400.715 193.291 400.866C201.719 400.977 210.174 401.01 218.614 400.98C219.261 401.232 207.14 401.002 205.876 401.003C203.349 401.031 210.4 401.214 210.089 401.285C209.941 401.336 201.646 401.44 209.13 401.572C211.707 401.613 217.084 401.486 226.448 401.632C193.888 401.811 216.441 401.986 217.41 402.081C218.359 402.17 202.78 402.332 221.681 402.336C222.501 402.805 221.271 402.491 215.905 402.561C209.327 402.62 224.528 402.915 200.496 402.581C201.86 402.85 221.18 402.939 222.201 402.929C223.09 402.945 218.776 403.054 220.316 403.09C238.437 403.478 225.984 403.311 231.243 403.564C231.718 403.598 248.816 403.54 235.795 403.698C212.038 403.938 202.119 403.398 198.12 404.028C215.699 404.6 236.972 403.991 242.328 403.916C250.482 403.811 242.031 404.046 243.038 404.072C243.396 404.083 250.454 403.982 250.521 403.99C255.583 404.463 219.143 404.368 207.706 404.26C210.758 404.36 213.861 404.452 216.914 404.535C212.75 404.529 208.585 404.507 204.418 404.468C224.264 404.76 205.119 404.559 200.159 404.889C199.052 404.969 212.093 404.97 197.21 405.039C208.177 405.241 204.685 405.288 214.628 405.227C214.371 405.421 191.993 405.415 183.17 405.217C214.342 406.003 196.568 405.147 223.514 405.573C228.52 405.363 215.661 405.413 216.696 405.372C220.469 405.26 229.267 405.458 239.923 404.925C241.654 404.836 234.323 404.701 245.168 404.593C246.171 404.583 251.21 404.646 252.725 404.673C253.028 404.679 253.196 404.683 253.181 404.685C253.087 404.701 252.932 404.716 252.726 404.73C250.959 404.853 245.388 404.886 245.149 404.942C244.866 405.005 252.53 404.869 252.532 404.883C252.793 405.061 246.168 405.038 247.137 405.081C247.692 405.108 250.189 405.13 252.732 405.151C258.136 405.195 263.907 405.247 252.736 405.423C249.927 405.465 246.082 405.514 240.826 405.551C246.983 405.445 250.73 405.356 252.734 405.302C255.505 405.228 254.988 405.215 252.733 405.238C248.707 405.282 238.967 405.422 233.054 405.496C230.105 405.533 229.353 405.647 225.142 405.696C219.725 405.76 213.369 405.687 210.574 405.687C207.561 405.678 224.701 406.091 199.908 405.785C212.524 406.241 234.806 405.909 247.193 405.9C249.669 405.904 251.521 405.911 252.743 405.924C256.09 405.957 255.451 406.029 252.745 406.117C246.317 406.347 228.149 406.538 225.347 406.546C224.171 406.558 228.116 406.692 227.333 406.703C226.039 406.762 201.969 406.605 199.577 406.644C197.211 406.739 208.402 406.742 209.149 406.862C209.66 407.008 180.572 406.688 196.314 407.009C207.166 407.255 227.159 406.907 230.526 407.233C214.58 407.347 198.62 407.267 182.661 406.879C191.391 407.247 200.123 407.522 208.86 407.724C190.934 407.627 175.464 407.107 158.427 406.48C194.511 408.325 156.554 406.945 146.714 406.217C145.4 406.137 144.59 406.087 144.52 406.089C144.472 406.093 145.33 406.177 146.709 406.301C151.16 406.717 161.024 407.437 163.003 407.564C159.081 407.429 152.963 407.161 146.678 406.797C130.055 405.847 112.311 404.158 130.668 406.162C126.067 405.698 114.924 404.854 115.061 404.874C116.441 405.303 140.787 407.256 136.8 407.068C132.179 406.925 125.765 406.109 118.696 405.435C82.4935 401.566 92.2867 403.921 56.1738 398.098C56.9124 398.26 57.5821 398.41 58.3103 398.568C55.9066 398.164 53.5 397.748 51.0905 397.318C48.0149 396.767 44.989 396.211 41.8696 395.565C40.3123 395.239 38.7361 394.899 37.0363 394.451C36.161 394.211 35.3037 393.995 33.992 393.472C33.6294 393.322 33.2307 393.151 32.677 392.839C32.3332 392.639 32.0638 392.486 31.5175 392.057C31.2657 391.852 31.0114 391.638 30.6349 391.232C30.4584 391.039 30.2773 390.822 30.0972 390.575C29.9005 390.307 29.6647 389.938 29.4684 389.547C28.523 388.082 28.4994 384.623 29.3832 383.179C30.1694 381.61 30.8101 381.137 31.2332 380.724C32.0626 380.011 32.3787 379.868 32.5941 379.718C32.0351 380.08 31.7971 380.315 31.6216 380.477C31.5368 380.559 31.4754 380.622 31.4276 380.673C31.3943 380.708 31.3722 380.733 31.3515 380.756C31.2718 380.846 31.2549 380.87 31.2619 380.861C31.2697 380.852 31.3575 380.736 31.4287 380.636C31.593 380.408 31.7873 380.127 32.0077 379.803C32.4099 379.212 32.874 378.518 33.3097 377.872C34.2111 376.533 35.1432 375.17 36.1069 373.817C38.0367 371.107 40.0981 368.408 42.3879 365.794C47.0861 360.76 52.0787 354.925 61.834 352.935C80.2623 350.768 95.6833 354.395 110.832 352.945C112.684 352.794 114.51 352.568 116.318 352.26C123.289 351.612 136.867 344.138 154.1 341.972C171.87 340.638 184.701 347.466 193.739 349.502C197.642 351.098 215.483 354.102 216.583 353.346C217.767 353.318 215.118 353.497 212.824 353.391C210.535 353.293 208.657 353.114 211.718 353.434C212.198 353.458 216.889 353.921 221.915 352.984C231.73 351.187 243.818 348.906 242.339 349.071C238.628 349.751 227.02 351.996 225.111 352.304C217.266 353.513 248.708 348.026 276.79 342.16C282.774 340.854 289.171 339.078 291.002 337.103C290.969 337.134 290.98 337.12 290.935 337.176C290.911 337.208 290.874 337.254 290.79 337.396C290.704 337.577 290.568 337.669 290.284 338.677C290.251 338.879 289.784 340.307 290.368 342.322C290.948 344.221 292.041 345.207 292.533 345.63C292.789 345.846 293.037 346.018 293.208 346.127C293.361 346.225 293.494 346.302 293.611 346.365C293.859 346.498 293.947 346.534 294.063 346.585C294.425 346.734 294.392 346.706 294.366 346.703C294.28 346.676 294.006 346.606 293.743 346.545C293.187 346.415 292.565 346.284 291.955 346.16C290.699 345.904 289.487 345.672 288.305 345.448C285.945 345.002 283.822 344.614 281.993 344.282C278.324 343.616 275.908 343.191 275.223 343.083C277.482 343.549 279.733 344.016 281.977 344.484C279.213 343.966 276.412 343.447 273.632 342.933C270.094 342.28 266.411 341.657 262.748 341.047ZM48.2755 380.57C47.6702 381.487 46.7716 382.796 45.733 384.344C45.2011 385.135 44.6603 385.947 44.0503 386.856C43.7401 387.318 43.4213 387.792 43.0768 388.287C42.8687 388.584 42.7221 388.794 42.4395 389.171C42.308 389.345 42.1885 389.504 41.9432 389.798C41.8191 389.943 41.7272 390.052 41.506 390.284C41.2215 390.567 40.9168 390.914 40.0654 391.472C39.9583 391.528 39.9476 391.59 40.495 391.124C40.7758 390.837 41.2899 390.499 41.995 389.085C42.7981 387.786 42.7446 384.53 41.8897 383.251C41.7138 382.903 41.5023 382.577 41.3389 382.356C41.1842 382.146 41.0324 381.965 40.8889 381.809C40.5826 381.481 40.3965 381.329 40.2186 381.184C39.8411 380.889 39.7018 380.818 39.547 380.726C39.3088 380.594 39.2602 380.584 39.2637 380.584C39.3392 380.623 39.9834 380.829 40.5336 380.972C41.6945 381.281 42.9861 381.561 44.0923 381.785C46.8447 382.34 50.3931 382.887 53.5634 383.355C59.0515 384.162 63.166 384.705 59.4232 384.524C57.443 384.2 55.4848 383.872 53.5315 383.535C50.5266 383.016 47.5722 382.489 44.6884 381.91C43.2645 381.623 41.8179 381.314 40.5882 380.998C40.0008 380.85 39.3373 380.643 39.2547 380.606C39.2491 380.607 39.2963 380.618 39.5337 380.751C39.6878 380.843 39.828 380.915 40.2049 381.212C40.3817 381.356 40.571 381.512 40.8758 381.841C41.019 381.998 41.1704 382.179 41.3245 382.39C41.4925 382.619 41.6992 382.942 41.8743 383.291C42.7278 384.587 42.7487 387.823 41.9524 389.095C41.2518 390.485 40.7445 390.819 40.4674 391.1C39.9265 391.558 39.9374 391.496 40.0439 391.438C41.3944 390.518 41.5882 390.1 41.7962 389.904C42.0029 389.666 42.1832 389.434 42.2785 389.309C42.3915 389.161 42.4969 389.018 42.6008 388.875C42.6903 388.751 42.7678 388.641 42.8511 388.522C43.1844 388.046 43.4576 387.637 43.7168 387.25C44.2517 386.448 44.7542 385.686 45.2535 384.939C46.2548 383.441 47.2547 381.984 48.2755 380.57ZM205.188 366.844C196.743 365.22 203.224 366.351 210.408 367.111C211.232 367.101 217.006 368.264 205.188 366.844ZM127.456 363.792C127.864 363.723 134.677 361.49 134.843 361.414C137.76 360.486 134.422 361.697 130.908 362.844C127.396 363.99 123.76 364.882 127.456 363.792ZM78.6148 296.261C79.6969 296.605 80.5358 296.86 81.1602 297.043C83.4727 297.716 82.9275 297.447 81.2177 296.859C79.8743 296.395 77.812 295.721 75.8477 295.134C75.5243 295.039 78.0751 296.092 78.6148 296.261ZM84.4441 298.084C90.7326 300.39 103.778 302.965 93.5292 300.411C92.5359 300.19 84.1515 298.007 84.4441 298.084ZM176.901 359.398C177.749 359.501 185.512 361.948 188.999 362.968C188.841 363.067 180.065 360.312 176.901 359.398ZM214.844 319.359C214.489 319.393 242.644 323.616 244.594 323.806C240.142 323.165 215.178 319.319 214.844 319.359ZM142.621 308.636C143.339 308.741 153.148 310.19 152.855 310.072C148.12 309.218 139.375 308.097 142.621 308.636ZM60.9786 284.871C61.5125 284.813 54.2062 285.093 71.3685 283.425C73.8868 283.19 64.9265 284.346 65.8242 284.272C67.6929 284.084 69.1696 283.932 70.3682 283.801C62.3942 284.724 54.1423 285.924 53.3471 286.01C49.5804 286.391 60.7408 284.882 60.9786 284.871ZM135.815 280.492C137.452 280.444 148.035 281.008 150.459 281.205C150.876 281.237 149.042 281.348 153.823 281.622C157.658 281.852 151.938 281.25 159.412 281.776C166.967 282.326 156.867 281.803 157.52 281.863C158.398 281.923 170.096 282.647 169.724 282.763C169.445 282.831 156.928 281.88 153.84 281.728C149.868 281.515 154.673 281.961 148.053 281.543C143.913 281.294 146.219 281.131 145.344 281.069C144.628 280.979 130.109 280.57 135.837 280.494C135.829 280.494 135.822 280.493 135.815 280.492ZM72.5236 283.551C71.9176 283.626 71.2156 283.708 70.3682 283.801C71.0876 283.716 71.803 283.633 72.5236 283.551ZM61.9482 367.056C63.1129 366.661 62.0703 366.947 60.157 368.171C58.2347 369.369 55.5711 371.85 54.1369 373.328C54.0753 373.33 55.8984 371.298 57.8592 369.697C59.8357 368.03 61.7809 367.106 61.9482 367.056ZM79.903 282.567C91.7748 281.613 83.0542 282.362 72.5236 283.551C75.8562 283.142 75.9177 282.925 79.903 282.567ZM280.543 355.552C281.056 355.46 281.407 355.413 281.46 355.458C280.076 355.712 279.951 355.701 280.543 355.552ZM291.289 331.787C287.547 331.148 288.207 331.314 290.431 331.748C291.531 331.964 293.038 332.252 294.583 332.562C295.359 332.719 296.154 332.881 297.005 333.077C297.427 333.176 297.855 333.275 298.453 333.454C298.79 333.563 299.071 333.628 299.836 333.977C300.231 334.203 300.744 334.297 302.011 335.529C302.624 336.141 303.595 337.512 303.856 339.199C304.111 340.842 303.781 341.819 303.732 342.086C303.434 343.196 303.176 343.631 302.957 344.07C302.736 344.486 302.543 344.791 302.362 345.062C302.003 345.595 301.696 345.976 301.434 346.285C300.913 346.894 300.585 347.199 300.615 347.193C300.633 347.182 300.993 346.867 301.529 346.258C301.799 345.948 302.109 345.57 302.468 345.04C302.831 344.425 303.234 344.091 303.823 342.109C303.873 341.831 304.343 340.397 303.76 338.352C303.179 336.419 302.035 335.373 301.493 334.914C300.266 333.958 299.938 333.933 299.529 333.729C298.854 333.45 298.537 333.369 298.21 333.27C297.589 333.091 297.139 332.987 296.668 332.877C295.753 332.667 294.901 332.493 294.136 332.338C292.585 332.028 291.44 331.814 291.289 331.787ZM68.1101 292.752C68.9329 293.038 55.918 289.163 74.6988 295.122C64.7567 291.733 75.2829 295.206 75.1416 295.099C74.7699 294.904 58.0202 289.255 54.3619 287.801C51.3969 286.983 65.389 291.804 68.0889 292.745C68.096 292.747 68.103 292.75 68.1101 292.752ZM273.341 288.762C270.839 289.072 262.914 289.258 257.617 289.139C260.089 289.059 267.978 289.092 273.341 288.762ZM24.8636 61.6894C24.5299 61.7965 24.3236 61.8753 24.1842 61.9364C24.1194 61.9647 24.1262 61.9688 24.2307 61.9091C24.2831 61.8788 24.3602 61.8319 24.4656 61.7576C24.5299 61.711 24.5396 61.7071 24.6799 61.595C24.8002 61.4973 24.9431 61.3717 25.1062 61.2035C25.714 60.6077 26.9324 58.8784 26.6778 56.4966C26.4062 54.152 25.0633 52.9952 24.7145 52.6971C24.1209 52.2245 24.0224 52.2609 24.1836 52.3138C29.1162 53.8863 35.9846 54.681 39.5854 55.2466C43.4663 55.8007 45.6416 56.0977 45.9434 56.1805C46.6285 56.2174 38.7602 55.9624 25.3327 52.9182C25.191 52.8804 24.3883 52.6303 24.1114 52.4894C23.9783 52.4336 23.9983 52.3978 24.3486 52.6276C24.4379 52.6887 24.5386 52.7613 24.68 52.8808C24.9173 53.0858 25.2367 53.3931 25.5815 53.8998C26.3076 54.8111 26.8775 57.1334 26.3583 58.6946C25.8994 60.3004 25.0973 61.0418 24.707 61.4026C24.4648 61.6102 24.4336 61.625 24.348 61.6891C24.275 61.7416 24.2203 61.7777 24.1808 61.8035C24.0181 61.9043 24.1235 61.8507 24.2463 61.814C24.4589 61.7463 24.809 61.6501 24.9783 61.6144C25.1568 61.5762 25.1328 61.5954 24.8636 61.6894ZM207.491 104.08C204.08 104.11 215.26 103.263 222.859 102.066C223.393 101.986 224.365 101.85 225.218 101.731C226.875 101.501 228.161 101.371 225.258 101.95C224.841 102.033 224.334 102.129 223.719 102.238C223.866 102 212.794 103.455 207.491 104.08ZM86.5979 281.827C90.0439 281.361 100.707 280.768 106.325 280.599C102.905 280.833 91.5593 281.437 86.5979 281.827ZM132.461 64.0439C136.189 64.35 138.725 64.3362 138.081 64.2695C135.203 63.9692 128.22 63.5973 132.461 64.0439ZM52.3129 285.696C51.8058 285.633 65.8542 283.659 66.8507 283.825C63.8358 284.131 52.6698 285.678 52.3129 285.696ZM263.266 289.003C260.969 289.01 272.839 288.724 276.445 288.403C276.167 288.606 264.75 289.106 263.266 289.003ZM192.561 68.6221C195.858 68.9025 204.197 69.5993 205.201 69.6032C206.339 69.5885 194.005 68.6021 192.561 68.6221ZM128.668 2.88613C128.263 2.83178 141.193 3.08902 146.966 3.39462C157.888 3.97398 129.123 2.93108 128.668 2.88613ZM97.1817 61.34C86.6787 60.2611 98.3267 61.4312 97.9047 61.1851C90.8237 60.604 73.2852 59.0391 85.3045 60.3028C87.6661 60.5497 93.8618 61.0518 97.1817 61.34ZM106.883 62.2052C108.023 62.2307 115.591 62.6236 109.056 62.115C106.039 61.8799 101.093 61.7136 106.883 62.2052ZM208.885 6.09241C218.377 6.66856 174.972 4.77646 173.739 4.69533C173.088 4.6515 172.659 4.61783 172.416 4.5942C170.833 4.58747 162.634 4.26115 161.69 4.07471C164.144 4.18761 170.857 4.45048 171.63 4.49866C171.964 4.51937 172.213 4.53613 172.384 4.54982C175.294 4.54026 207.078 5.98135 208.885 6.09241ZM280.747 9.34031C269.935 9.12449 268.028 8.58669 268.964 8.61098C280.752 8.94052 273.075 8.9437 273.392 8.97323C274.263 9.03674 282.607 9.25473 280.714 9.33882C280.725 9.33932 280.736 9.33981 280.747 9.34031ZM223.638 6.7813C223.171 6.76767 214.065 6.37484 213.724 6.35353C206.287 5.88901 232.006 6.99821 223.638 6.7813ZM192.812 284.012C199.276 284.602 192.916 284.234 188.616 283.819C188.262 283.784 187.099 283.495 192.812 284.012ZM112.055 62.5749C113.561 62.7496 152.042 65.8384 149.758 65.3991C146.475 65.1971 102.735 61.6452 112.055 62.5749ZM126.79 105.609C133.579 105.602 126.175 105.852 122.54 105.771C121.198 105.741 125.06 105.611 126.79 105.609ZM35.0678 288.69C35.0862 288.684 35.1454 288.661 35.271 288.59C35.4149 288.504 35.617 288.399 36.0383 288.024C36.3866 287.664 37.3023 286.945 37.7644 284.931C38.2314 282.812 37.2253 280.868 36.774 280.318C37.1289 280.782 37.3158 280.95 37.5073 281.148C37.6869 281.328 37.7811 281.433 37.7415 281.442C37.7068 281.453 37.5408 281.368 37.3315 281.211C37.1148 281.043 36.9098 280.87 36.6026 280.442C36.9156 280.884 37.4142 281.641 37.6147 282.943C37.8353 284.216 37.4255 285.737 36.9971 286.463C36.0683 288.015 35.5839 288.105 35.3391 288.326C34.8706 288.622 34.9671 288.536 35.0853 288.512C35.1874 288.479 35.0087 288.708 35.0678 288.69ZM181.369 105.263C157.733 105.837 163.264 105.332 194.092 104.407C193.13 104.49 192.147 104.57 191.184 104.647C226.915 102.475 193.613 104.834 184.916 104.989C181.621 105.113 184.396 105.154 181.392 105.263C181.384 105.263 181.377 105.263 181.369 105.263ZM91.1243 105.986C68.7355 106.158 111.483 105.175 123.917 105.339C111.949 105.582 96.3574 105.703 117.55 105.78C86.5805 106.076 99.4942 105.832 98.2625 105.787C96.7628 105.791 92.1069 105.976 91.1243 105.986ZM150.654 105.546C151.97 105.529 161.84 105.576 165.419 105.503C160.426 105.777 141.954 105.688 150.654 105.546ZM241.044 34.5586C241.807 34.2618 243.798 33.7804 251.454 32.3366C249.105 32.8733 244.231 33.8851 241.044 34.5586ZM43.5347 386.077C43.2457 386.506 42.9258 386.982 42.5297 387.556C42.3552 387.809 42.1279 388.135 41.8799 388.472C41.7282 388.676 41.6313 388.808 41.3961 389.099C41.0715 389.414 41.2471 389.551 39.6002 390.74C39.4961 390.801 39.4723 390.839 39.7729 390.601C39.9268 390.465 40.1728 390.292 40.6299 389.693C41.0206 389.181 41.8553 387.796 41.7365 385.922C41.6141 384.065 40.717 382.932 40.3469 382.504C40.116 382.24 39.9175 382.063 39.7846 381.95C39.6432 381.83 39.5088 381.731 39.42 381.67C39.0658 381.432 38.9746 381.408 38.9378 381.387C38.8843 381.366 39.0523 381.436 39.2512 381.5C39.4451 381.565 39.6858 381.637 39.9484 381.711C40.964 381.995 42.1246 382.257 43.0014 382.444C44.8131 382.824 45.7126 382.968 44.4738 382.654C44.3906 382.63 43.062 382.364 41.4762 381.991C40.701 381.808 39.7866 381.573 39.2148 381.384C39.0775 381.339 38.9689 381.298 38.9631 381.296C38.963 381.297 38.9867 381.306 39.0834 381.357C39.1288 381.382 39.1942 381.417 39.2966 381.481C39.3978 381.546 39.512 381.618 39.7169 381.78C39.9933 382.079 40.9634 382.524 41.6566 384.843C41.9772 385.997 41.811 387.508 41.4418 388.385C41.073 389.312 40.6973 389.756 40.4242 390.081C39.9058 390.653 39.7137 390.741 39.6269 390.814C39.5428 390.872 39.567 390.852 39.6412 390.804C40.9705 389.884 41.0573 389.563 41.2796 389.352C41.38 389.233 41.4675 389.125 41.5493 389.021C41.6217 388.929 41.6698 388.866 41.7264 388.791C41.8335 388.649 41.944 388.496 42.03 388.376C42.1091 388.264 42.186 388.155 42.2614 388.045C42.4219 387.813 42.5342 387.646 42.6533 387.467C42.771 387.291 42.8828 387.121 42.9688 386.989C43.3428 386.416 43.5439 386.09 43.5347 386.077ZM224.005 71.6824C224.74 71.7716 235.48 72.7917 241.976 73.7849C246.365 74.456 248.833 74.8613 244.651 74.0893C244.219 74.0115 243.302 73.8562 241.997 73.6486C234.418 72.3929 215.894 70.7873 224.005 71.6824ZM71.9214 59.2505C74.3973 59.4902 84.3504 60.3496 84.5345 60.3266C85.2345 60.2746 73.0538 59.2514 71.9214 59.2505ZM58.2432 385.417C58.9384 385.592 74.9606 388.093 73.2191 387.73C69.8708 387.125 55.9 384.987 58.2432 385.417ZM216.44 285.689C217.77 285.798 219.611 286.114 220.065 286.155C220.854 286.227 233.582 287.271 237.639 287.579C239.105 287.697 239.425 287.749 237.632 287.675C237.369 287.664 237.053 287.65 236.674 287.632C234.926 287.644 199.093 284.438 194.442 284.042C192.66 283.669 207.935 285.179 211.688 285.484C212.363 285.537 212.743 285.388 216.428 285.689C216.432 285.689 216.436 285.689 216.44 285.689ZM280.822 26.4297C281.421 26.1952 289.012 24.7127 296.88 22.6608C297.151 22.5859 297.417 22.5166 297.722 22.4398C297.88 22.3997 298.034 22.3622 298.286 22.2953C298.42 22.2585 298.558 22.2249 298.879 22.1192C299.057 22.055 299.239 22.0093 299.766 21.7529C300.033 21.6011 300.4 21.4804 301.233 20.7279C301.631 20.3268 302.292 19.7119 302.799 18.2696C303.327 16.8649 303.074 14.8887 302.556 13.8993C302.428 13.6177 302.184 13.1633 301.846 12.7326C301.679 12.517 301.491 12.3082 301.298 12.1211C301.193 12.0191 301.124 11.9579 301.069 11.9094C301.01 11.8576 300.951 11.808 300.892 11.7605C300.419 11.3789 299.99 11.1451 299.654 10.9879C299.448 10.8936 299.431 10.8898 299.335 10.8505C299.255 10.8185 299.18 10.7907 299.11 10.766C298.971 10.7166 298.85 10.6794 298.743 10.6488C298.49 10.5789 298.472 10.5781 298.359 10.5521C298.267 10.5318 298.186 10.5159 298.113 10.5024C297.896 10.4629 297.739 10.443 297.646 10.4309C297.436 10.4046 297.298 10.3914 297.152 10.3775C296.889 10.3531 296.662 10.3358 296.437 10.3192C296.005 10.2877 295.59 10.2613 295.185 10.2365C294.368 10.1866 293.638 10.1459 292.888 10.1045C291.437 10.0248 290.092 9.9537 289.001 9.89319C286.775 9.77046 285.39 9.68202 285.461 9.64795C287.461 9.73796 289.481 9.83073 291.508 9.93061C292.505 9.9799 293.524 10.0317 294.549 10.0893C295.076 10.119 295.577 10.1483 296.122 10.1848C296.256 10.1938 296.383 10.2027 296.534 10.2138C296.672 10.224 296.817 10.2351 296.975 10.2486C297.114 10.2604 297.292 10.2759 297.519 10.3017C297.636 10.3155 297.759 10.3292 297.985 10.3655C298.063 10.3781 298.284 10.4147 298.543 10.4785C298.661 10.5077 298.997 10.5924 299.39 10.7501C299.49 10.7885 300.086 11.0332 300.628 11.4199C300.94 11.6526 301.117 11.7497 301.68 12.3564C302.148 12.8731 302.5 13.4968 302.659 13.8519C303.193 14.8678 303.445 16.9147 302.893 18.3453C302.366 19.8108 301.695 20.426 301.286 20.8333C300.443 21.5874 300.07 21.7107 299.802 21.8616C299.269 22.1192 299.086 22.1651 298.907 22.2294C298.583 22.336 298.445 22.3694 298.311 22.4064C298.058 22.4735 297.904 22.511 297.746 22.5511C297.442 22.6277 297.179 22.6964 296.91 22.7705C291.272 24.2774 286.146 25.2774 280.822 26.4297ZM266.15 29.4272C261.316 30.3264 269.026 28.7372 274.645 27.583C276.284 27.247 277.688 26.9616 278.661 26.7688C278.683 26.8014 276.896 27.1978 274.663 27.6729C271.242 28.4023 266.678 29.3298 266.15 29.4272ZM127.424 64.4029C130.373 64.5986 121.325 63.6914 123.355 63.8101C124.667 63.8889 131.231 64.4747 133.34 64.5737C133.937 64.6 127.235 63.8914 125.296 63.7477C122.529 63.5427 125.198 63.901 122.183 63.6661C112.191 62.8859 103.348 62.0699 93.9749 61.2849C93.1297 61.2145 99.6702 61.8695 92.4732 61.263C91.3851 61.1695 84.7323 60.4571 76.0695 59.6926C58.2669 58.3007 42.7302 57.2977 23.8965 53.0129C23.7813 52.9676 23.7461 52.9448 23.8223 52.9893C23.8605 53.0122 23.927 53.0527 24.0263 53.1244C24.0759 53.1603 24.1337 53.2042 24.1999 53.2586C24.2435 53.2945 24.3935 53.4186 24.56 53.5921C24.8863 53.9343 25.3559 54.5162 25.6739 55.4518C26.0049 56.3669 26.0263 57.6516 25.756 58.5427C25.183 60.4276 24.1758 60.9868 24.0451 61.1144C24.0697 61.0946 24.0801 61.0866 24.1615 61.0208C24.251 60.9467 24.3814 60.8396 24.5806 60.6283C24.8991 60.2344 25.9568 59.241 25.9162 56.8808C25.823 54.43 23.9623 53.0973 24.0172 53.1702C23.7337 52.9735 23.6786 52.9873 23.8733 53.0692C27.0578 54.4228 38.5401 56.0148 39.1524 56.1024C58.9496 58.8964 95.3013 61.8538 116.445 63.532C121.862 63.9602 119.24 63.6498 121.579 63.83C123.43 63.9719 121.219 63.9912 127.424 64.4029ZM45.0137 383.693C44.6665 384.126 44.1473 384.847 43.518 385.758C43.1964 386.222 42.8574 386.721 42.4511 387.309C42.2594 387.586 42.0231 387.926 41.7835 388.255C41.6287 388.467 41.5015 388.639 41.2945 388.898C40.9429 389.244 41.2001 389.315 39.4907 390.568C39.4186 390.613 39.3917 390.633 39.4501 390.593C39.5159 390.54 39.6463 390.475 40.0418 390.077C40.3433 389.693 41.4278 388.811 41.5464 386.332C41.5016 383.841 40.2942 382.747 39.894 382.317C39.6652 382.098 39.5034 381.974 39.3586 381.869C39.2359 381.782 39.1488 381.728 39.0745 381.683C38.937 381.602 38.8834 381.579 38.8601 381.567C38.8179 381.548 38.8954 381.582 39.0009 381.618C39.4654 381.781 40.302 382.006 41.1028 382.196C42.7591 382.591 44.4673 382.933 45.9702 383.235C45.3427 383.051 43.8841 382.742 42.1185 382.334C41.2541 382.132 40.2608 381.892 39.4799 381.657C39.2807 381.597 39.1062 381.539 38.9952 381.499C38.8874 381.464 38.7978 381.408 39.0539 381.544C39.2059 381.646 39.4273 381.706 40.0925 382.36C40.2755 382.551 40.4552 382.754 40.6843 383.089C40.9327 383.459 41.1723 383.892 41.3719 384.493C41.8399 385.748 41.6527 387.587 41.1976 388.517C40.25 390.413 39.7709 390.402 39.6076 390.611C39.4328 390.741 39.4551 390.716 39.5481 390.658C40.3242 390.147 40.5892 389.835 40.8472 389.576C41.0187 389.394 41.1252 389.269 41.2364 389.136C41.4721 388.85 41.5681 388.719 41.703 388.539C41.8369 388.358 41.9383 388.216 42.0362 388.078C42.1329 387.941 42.2444 387.781 42.329 387.658C42.6826 387.145 43.0108 386.654 43.3184 386.195C43.9409 385.265 44.4957 384.441 45.0137 383.693ZM135.085 49.9279C132.243 50.1827 123.356 50.8624 122.615 50.9785C121.685 51.134 134.513 50.1136 135.085 49.9279ZM243.948 236.461C243.906 236.451 243.721 236.406 243.432 236.338C241.714 235.88 236.364 234.94 236.11 234.935C231.888 234.269 239.597 235.2 243.455 236.241C245.587 236.775 246.577 237.078 243.948 236.461ZM84.4694 208.659C79.3583 207.38 74.173 206.199 72.4799 205.644C75.7567 206.42 85.0967 208.698 84.4694 208.659ZM198.716 179.384C197.611 179.245 213.2 178.117 216.102 178.047C215.026 178.128 199.519 179.411 198.716 179.384ZM239.807 34.1494C249.27 32.3427 247.219 32.4217 253.252 31.3801C254.249 31.2042 257.525 31.2209 247.083 33.0179C245.201 33.3362 252.506 31.7776 239.807 34.1494ZM199.127 104.134C201.545 103.864 209.363 103.35 214.638 102.732C213.405 103.028 202.834 103.948 199.127 104.134ZM87.2256 389.969C91.6407 390.823 112.231 393.088 107.156 392.363C106.433 392.3 90.1037 390.406 87.2256 389.969ZM110.67 279.857C119.127 279.466 101.596 279.903 96.072 280.486C98.5744 280.281 110.106 279.849 110.67 279.857ZM144.514 185.179C144.922 185.127 153.966 184.091 154.37 184.051C161.795 183.347 136.215 186.272 144.514 185.179ZM136.844 224.433C135.042 223.871 127.61 221.368 120.696 219.147C115.387 217.43 110.348 215.918 108.343 215.283C110.08 215.715 115.262 217.188 120.761 218.941C129.582 221.717 139.285 225.173 136.844 224.433ZM200.789 41.3632C207.563 40.1788 214.007 39.0657 220.222 37.9846C218.937 38.3411 201.519 41.3311 200.789 41.3632ZM177.656 181.375C178.139 181.323 178.61 181.284 179.07 181.235C178.589 181.283 178.117 181.329 177.656 181.375ZM47.6749 57.1485C41.9357 57.7482 43.2633 57.8033 43.5603 57.7693C47.7787 57.3327 54.0547 56.5156 47.6749 57.1485ZM39.3464 390.456C39.3039 390.464 39.2518 390.52 39.6142 390.207C39.799 390.008 40.1622 389.811 40.77 388.675C41.057 388.109 41.3748 387.148 41.3239 386.059C41.3031 385.539 41.2008 385.012 41.0412 384.546C40.8924 384.113 40.7211 383.775 40.5342 383.471C39.8078 382.371 39.3775 382.189 39.1412 382.002C38.9105 381.852 38.8176 381.814 38.7727 381.794C38.696 381.764 38.823 381.825 38.9838 381.883C39.7121 382.15 41.2023 382.525 42.7282 382.856C45.8615 383.537 49.6007 384.198 52.2784 384.699C51.5106 384.491 48.4035 383.92 45.0272 383.232C43.335 382.886 41.5736 382.509 40.1634 382.136C39.489 381.964 38.7877 381.726 38.7845 381.717C38.8055 381.731 38.891 381.753 39.2307 381.985C39.4366 382.139 39.6679 382.284 40.1294 382.816C40.5063 383.258 41.3062 384.39 41.373 386.055C41.4394 387.744 40.722 388.937 40.371 389.418C39.9605 389.97 39.7356 390.136 39.5904 390.267C39.3013 390.504 39.2981 390.484 39.3464 390.456ZM67.4312 107.077C60.3254 107.407 88.9549 104.935 95.2206 105.251C95.6295 105.195 68.2363 106.635 67.4312 107.077ZM84.3856 281.143C83.8024 281.023 71.6615 282.384 74.2462 282.197C75.8853 282.045 84.7225 281.182 84.3856 281.143ZM109.941 105.114C112.67 105.048 119.113 105.152 116.849 105.243C113.958 105.357 109.221 105.131 109.941 105.114ZM169.476 67.7503C170.698 67.8614 186.929 68.9906 180.219 68.33C175.575 67.8725 174.846 68.0106 173.745 67.9256C172.487 67.8242 146.524 65.5978 169.476 67.7503ZM138.499 132.067C132.426 131.254 125.087 130.154 118.72 129.264C121.32 129.543 135.921 131.587 138.499 132.067ZM131.294 279.496C130.858 279.471 127.235 279.343 122.858 279.336C111.997 279.294 96.4529 280.068 112.608 279.591C113.218 279.578 118.135 279.473 122.858 279.478C128.346 279.477 133.735 279.663 131.294 279.496ZM239.807 34.1494C238.604 34.3778 237.235 34.6324 235.63 34.9229C237.222 34.6266 238.595 34.3742 239.807 34.1494ZM131.195 49.9269C133.398 49.6463 122.233 50.5529 118.971 50.8654C117.972 51.0691 130.854 49.9749 131.195 49.9269ZM118.216 129.33C116.641 129.134 114.412 128.824 112.154 128.505C109.13 128.076 105.875 127.641 103.283 127.333C103.749 127.335 108.195 127.852 112.167 128.418C114.947 128.811 117.573 129.201 118.216 129.33ZM227.47 177.217C228.512 177.21 229.565 177.209 230.595 177.215C237.168 177.259 243.836 177.177 243.94 177.08C244.091 177.096 244.434 177.112 245.046 177.125C245.653 177.143 253.546 176.997 257.003 176.94C267.689 176.771 245.918 177.441 230.595 177.281C217.689 177.439 209.402 177.68 230.596 177.022C232.149 177.016 233.697 177.007 235.54 176.996C233.84 177.038 232.298 177.079 230.596 177.116C229.578 177.141 228.535 177.175 227.47 177.217ZM164.31 235.484C165.221 235.924 166.524 236.524 167.954 237.183C171.219 238.838 176.755 238.859 174.76 238.705C173.842 238.635 170.303 238.156 168.019 237.04C164.857 235.602 162.416 234.577 164.31 235.484ZM48.2472 190.219C46.9681 190.148 35.8414 190.836 36.3483 191.142C41.3049 190.331 54.009 190.269 48.2472 190.219ZM192.648 237.64C195.2 237.282 198.499 236.564 198.188 236.603C195.509 236.929 188.329 238.152 192.648 237.64ZM220.064 37.2456C216.228 37.8923 204.018 40.2247 201.376 40.8215C200.875 40.8805 199.529 41.079 197.072 41.4583C197.079 41.457 197.087 41.4557 197.094 41.4545C196.259 41.5827 189.529 42.7329 180.855 44.1503C154.22 48.0675 110.386 51.2602 160.834 46.901C162.925 46.6781 160.098 46.8921 168.674 45.926C169.245 45.8589 169.56 45.9294 171.272 45.7212C172.722 45.5402 176.553 45.0809 180.893 44.3792C188.546 43.1403 198.163 41.4943 200.87 40.9653C200.91 40.9782 201.189 40.9485 201.775 40.8635C207.011 40.122 223.061 36.7543 220.064 37.2456ZM70.6646 190.062C68.3945 190.007 61.1433 190.043 60.4084 190.144C63.9668 190.162 75.9556 190.179 70.6646 190.062ZM130.062 279.084C128.305 279.011 125.401 278.963 122.858 278.987C118.732 279.02 115.192 279.169 117.355 279.177C118.079 279.182 120.355 279.151 122.858 279.138C127.729 279.107 133.597 279.242 130.062 279.084ZM58.4938 203.079C53.2821 201.398 51.4208 199.19 50.3495 198.165C49.3391 197.073 49.3171 196.99 49.6082 197.378C50.1643 198.197 52.4859 200.279 51.258 199.3C53.3014 201.055 55.7404 202.294 58.4938 203.079ZM253.274 8.88287C257.541 9.09615 252.51 9.14927 247.801 8.80456C246.318 8.69555 250.878 8.76377 253.274 8.88287ZM60.6183 1.02874C64.2492 1.4147 46.4729 0.549677 53.4083 0.669502C53.7244 0.676896 60.3588 1.0091 60.6183 1.02874ZM195.214 6.63943C198.152 6.5989 200.002 6.65585 208.163 7.03383C196.067 6.57884 207.314 7.18716 195.214 6.63943ZM243.861 177.063C243.908 177.069 243.947 177.074 243.94 177.08C243.888 177.074 243.865 177.069 243.861 177.063ZM218.196 234.663C221.7 234.518 231.608 235.04 228.666 234.755C228.384 234.632 219.61 234.408 218.196 234.663ZM201.376 40.8215C201.82 40.7691 201.599 40.8237 200.87 40.9653C200.833 40.9532 201.02 40.9033 201.376 40.8215ZM169.878 238.106C169.964 238.095 169.077 237.83 167.911 237.277C164.147 235.473 157.393 232.586 157.006 232.45C150.235 229.849 161.357 234.306 167.878 237.348C168.609 237.681 169.304 237.928 169.878 238.106ZM37.2994 286.85C36.6147 286.997 41.0258 286.321 43.8466 285.769C46.0171 285.327 39.748 286.215 37.2994 286.85ZM167.515 5.56474C163.02 5.37985 156.616 5.11714 155.465 4.94445C158.46 5.08655 167.614 5.4767 167.515 5.56474ZM67.5712 1.48475C72.917 1.55538 85.1502 2.05518 92.9284 2.39722C93.0834 2.59766 72.5764 1.64328 67.5712 1.48475ZM232.182 35.074C231.807 35.1432 220.616 37.1569 222.171 36.9986C224.44 36.7832 235.349 34.5532 232.182 35.074ZM58.6126 283.545C63.1714 282.863 53.9103 283.818 48.3217 284.821C47.7867 284.915 47.3127 285.003 46.8744 285.09C46.0143 285.262 46.8132 285.163 48.3417 284.952C51.5735 284.495 58.0341 283.625 58.6126 283.545ZM248.887 238.623C253.1 239.985 248.306 238.139 243.287 236.954C240.224 236.213 237.151 235.741 236.212 235.658C237.922 235.912 240.675 236.423 243.262 237.061C245.591 237.627 247.735 238.274 248.887 238.623ZM35.834 182.648C36.1882 182.701 36.525 182.748 36.8785 182.795C41.0988 183.545 42.1239 186.022 42.9016 186.996C43.6478 188.175 44.0598 189.041 44.4381 189.784C45.1629 191.247 45.6334 192.188 46.0007 192.851C46.7267 194.159 46.9206 194.34 46.7949 194.015C46.5158 193.378 45.1968 190.355 44.1211 188.397C44.0114 188.222 43.601 187.439 42.7096 186.256C42.2649 185.684 41.634 184.921 40.6563 184.191C39.6839 183.44 38.1836 182.809 36.8884 182.707C36.1397 182.659 35.6845 182.625 35.834 182.648ZM138.915 396.216C141.879 396.391 130.858 395.343 129.421 395.328C128.525 395.34 137.023 396.123 138.915 396.216ZM257.115 149.711C258.01 149.842 258.882 149.969 259.73 150.093C259.093 150.006 258.249 149.883 257.115 149.711ZM294.11 283.407C295.482 282.765 297.763 280.512 297.832 277.836C297.92 275.386 297.137 274.149 296.657 273.194C295.603 271.368 294.678 270.414 293.902 269.557C289.718 264.995 289.905 265.581 289.211 264.866C287.22 262.813 282.458 258.033 278.085 254.654C283.077 258.514 287.693 262.847 291.958 267.238C290.34 265.534 282.14 256.681 272.465 250.126C262.929 243.368 252.171 239.563 251.742 239.492C250.533 238.963 263.279 244.341 263.504 244.778C264.006 245.057 265.715 246.401 266.804 247.067C268.411 247.425 286.039 260.39 293.762 269.693C295.255 271.366 296.807 272.733 297.64 276.039C298.076 277.708 297.463 280.233 296.44 281.409C295.463 282.645 294.657 283.074 294.11 283.407ZM70.6487 206.188C67.3223 205.373 66.4035 205.029 64.8371 204.715C64.3107 204.611 64.1835 204.717 62.3726 204.361C65.141 204.947 67.8973 205.558 70.6487 206.188ZM265.602 287.519C261.292 287.563 280.629 286.82 281.227 286.536C284.555 286.4 269.132 287.773 265.602 287.519ZM175.657 239.205C176.05 239.66 189.696 238.489 189.673 238.228C187.808 238.454 182.215 239.178 178.358 239.181C174.482 239.192 172.2 238.805 175.657 239.205ZM60.2013 203.905C55.6724 203.311 49.9561 198.444 50.5686 199.029C50.5729 199.033 50.5772 199.037 50.5814 199.041C53.1561 201.499 56.4353 203.072 60.2013 203.905ZM75.6674 281.109C66.3354 281.787 70.7796 281.672 79.0285 280.967C81.5121 280.587 77.2082 281 75.6674 281.109ZM45.9733 284.713C45.3577 284.799 43.3547 285.105 40.7877 285.58C39.5125 285.818 38.079 286.101 36.6954 286.435C36.0091 286.601 35.3143 286.787 34.7864 286.967C34.5397 287.048 34.2885 287.161 34.3581 287.132C34.4121 287.081 34.5142 287.131 35.1266 286.499C35.4146 286.165 36.0119 285.446 36.1403 284.11C36.2589 282.752 35.6635 281.713 35.3775 281.336C36.3924 282.864 38.9666 284.13 40.7554 284.937C42.5502 285.728 43.4973 286.05 42.5757 285.622C41.9725 285.31 36.6681 283.225 35.4919 281.252C35.8133 281.654 36.4961 282.953 36.2434 284.431C35.9794 285.871 35.3756 286.42 35.1039 286.727C34.5201 287.275 34.4474 287.222 34.4087 287.26C34.3752 287.269 34.628 287.159 34.8748 287.077C35.3834 286.903 36.0018 286.735 36.5287 286.601C37.5976 286.332 38.3803 286.171 38.518 286.143C39.5535 285.972 34.8821 287.022 42.737 285.519C42.2562 285.528 46.8529 284.585 45.9733 284.713ZM67.9558 281.742C58.6815 282.602 56.6927 283.365 63.6172 282.472C66.3248 282.135 69.2759 281.625 67.9558 281.742ZM105.77 278.763C102.427 278.841 93.5439 279.265 87.4349 279.92C95.6155 279.285 103.824 278.842 112.012 278.632C112.956 278.521 108.686 278.674 105.748 278.764C105.755 278.764 105.763 278.763 105.77 278.763ZM11.2489 0.344436C18.6864 0.77588 1.54312 0.125721 0.816198 0.064591C-1.3322 -0.127507 7.92505 0.151658 11.2489 0.344436ZM196.666 402.726C198.735 402.808 200.083 402.999 204.637 402.959C200.06 402.789 195.484 402.598 190.909 402.384C187.347 402.596 194.41 402.64 196.666 402.726ZM214.144 403.931C213.499 403.932 217.023 404.395 208.672 404.052C203.013 403.857 233.746 403.741 239.29 403.809C233.166 403.97 219.709 403.91 214.144 403.931ZM267.987 405.327C268.339 405.363 256.669 405.613 255.315 405.603C248.225 405.579 266.063 405.196 267.987 405.327ZM230.734 405.723C236.2 405.777 224.083 405.901 220.453 405.841C220.114 405.765 229.879 405.722 230.734 405.723ZM86.3436 9.73654C92.244 10.2745 97.5518 9.85201 88.4582 9.6094C88.0247 9.59775 86.0919 9.71172 86.3436 9.73654ZM256.571 405.963C251.114 405.959 263.223 405.728 266.848 405.699C267.194 405.779 257.394 405.967 256.571 405.963ZM90.4761 10.6127C98.3327 11.1473 95.5946 10.3183 94.6108 10.2492C90.5607 9.96959 76.7008 9.68517 73.8428 9.63852C94.6163 10.379 86.7875 10.3614 90.4761 10.6127ZM126.734 11.6642C134.047 11.887 115.399 10.9776 111.849 11.0324C115.47 11.1709 124.683 11.6024 126.734 11.6642ZM170.991 13.7091C174.88 13.8945 186.599 14.4386 188.507 14.4045C184.291 14.251 172.587 13.6585 170.991 13.7091ZM179.844 14.4114C185.975 14.8172 187.478 14.4324 180.378 14.273C180.106 14.267 179.622 14.3937 179.844 14.4114ZM214.275 15.9953C218.338 16.3417 222.892 16.0985 216.396 15.8168C214.428 15.7323 213.86 15.9577 214.275 15.9953ZM100.277 11.7846C106.052 12.0969 113.471 12.0903 101.171 11.5536C105.518 11.6839 109.8 11.8116 114.139 11.9416C98.0469 11.1101 99.2112 11.5875 94.5873 11.3808C88.1135 11.0912 88.6602 10.7589 89.9526 10.7004C84.6254 10.6999 62.1613 9.78644 49.1437 9.29681C60.5701 9.8541 79.1089 10.7687 90.3808 11.2869C93.5877 11.4346 96.7456 11.4664 99.4726 11.5887C103.87 11.7863 99.9491 11.7661 100.254 11.7837C100.262 11.784 100.269 11.7843 100.277 11.7846ZM259.544 17.9053C271.4 18.6186 263.909 17.8589 257.244 17.6509C256.964 17.6449 259.272 17.8887 259.544 17.9053ZM272.314 406.987C260.506 407.115 263.879 406.863 252.76 407.109C248.966 407.187 243.36 407.324 234.882 407.483C248.773 407.1 235.659 407.293 238.361 407.164C240.525 407.065 248.707 407.036 243.957 406.925C245.65 406.956 248.93 406.947 252.757 406.914C263.078 406.824 277.445 406.573 278.68 406.318C278.669 406.319 278.657 406.32 278.645 406.321C279.472 406.247 277.345 406.941 272.314 406.987ZM171.001 14.8457C174.874 15.5322 176.502 14.7622 184.231 15.5176C194.575 15.3086 155.727 14.3445 151.043 13.6176C193.2 15.4099 123.242 11.9461 152.617 13.9534C128.392 12.6691 144.672 13.7271 140.926 13.6757C136.926 13.6207 123.195 12.9403 123.906 13.1658C123.914 13.1661 123.921 13.1664 123.929 13.1667C132.335 13.4969 140.659 13.8241 149.082 14.1557C140.916 13.3973 157.992 14.2243 163.823 14.8092C166.183 14.82 168.621 14.834 171.001 14.8457ZM123.56 12.5029C124.352 12.5449 142.648 13.2346 141.446 13.1005C139.01 12.9462 113.139 11.9526 123.56 12.5029ZM43.2927 9.31743C49.8344 9.58531 59.9697 10.0815 63.5338 10.0672C56.9927 9.7992 46.8491 9.30268 43.2927 9.31743ZM214.799 29.3082C206.626 30.9331 231.875 26.3533 224.549 27.5377C224.19 27.6011 215.205 29.233 214.799 29.3082ZM189.984 15.5476C198.436 16.0576 194.514 15.3827 188.165 15.2545C187.792 15.247 189.592 15.5241 189.984 15.5476ZM259.482 407.3C259.273 407.346 256.531 407.408 252.765 407.466C245.533 407.587 234.553 407.65 231.887 407.66C233.402 407.581 245.117 407.426 252.763 407.32C256.807 407.269 259.696 407.247 259.482 407.3ZM31.7492 9.31663C44.7586 10.2991 62.4705 10.4999 64.3942 10.5898C66.3144 10.6798 63.2934 10.754 63.7309 10.7772C64.7455 10.8296 85.2485 11.6499 86.2643 11.6777C86.9767 11.6961 83.2682 11.2671 87.5144 11.3531C79.2426 11.1728 41.6925 9.54201 39.7579 9.49395C38.2493 9.45697 49.6105 10.2119 31.7719 9.31756C31.7644 9.31725 31.7568 9.31694 31.7492 9.31663ZM69.244 10.8482C64.1164 10.5226 78.5116 11.0956 81.9769 11.28C89.6992 11.6914 69.8956 10.8885 69.244 10.8482ZM103.835 12.368C105.48 12.4613 120.273 13.0898 121.568 13.0133C114.551 12.5582 100.113 12.1551 103.835 12.368ZM268.783 19.1925C272.583 19.3394 283.216 19.9184 283.806 19.8361C279.95 19.6699 269.39 19.1047 268.783 19.1925ZM181.078 408.13C187.507 408.401 172.61 408.036 168.27 407.793C168.036 407.725 180.537 408.124 181.078 408.13ZM191.384 16.6876C193.642 16.8125 240.195 18.6581 246.674 18.8856C240.344 18.5259 194.199 16.6045 192.137 16.5638C191.527 16.5511 191.092 16.6701 191.384 16.6876ZM90.7896 12.6158C86.5356 12.6087 83.7421 12.2948 83.2026 12.2702C77.9529 12.0303 66.9995 11.6209 69.4078 11.5586C78.7172 12.0033 99.2803 12.6316 90.7896 12.6158ZM272.048 20.0901C287.846 20.7271 257.488 19.213 261.505 19.5677C261.722 19.587 270.387 20.0222 272.048 20.0901ZM186.181 16.5216C182.702 16.5112 136.172 14.4851 128.706 14.1805C135.394 14.2059 140.783 14.6152 149.769 14.971C152.179 15.0661 151.555 14.9372 151.812 14.9476C156.031 15.1158 152.872 15.1056 155.462 15.2137C157.097 15.2808 191.096 16.5337 186.181 16.5216ZM88.3574 12.6319C85.7296 12.62 56.7173 11.4766 55.5271 11.4027C46.7955 10.8575 86.0956 12.506 88.3574 12.6319ZM190.441 16.9181C185.443 17.0001 162.303 15.8551 178.151 16.3632C179.638 16.4112 186.041 16.8 190.441 16.9181ZM270.343 20.29C271.119 20.3273 287.582 21.1294 287.842 21.0615C285.493 20.894 261.533 19.8089 270.343 20.29ZM261.815 20.2299C262.215 20.2452 258.364 19.9012 266.064 20.2571C266.654 20.286 267.936 20.5356 277.592 20.894C279.579 20.9679 282.617 20.9759 282.379 20.9568C272.354 20.1735 241.843 19.479 261.815 20.2299ZM87.8192 12.7712C89.382 12.919 85.593 13.0136 82.188 12.7483C80.7334 12.6344 83.4609 12.5961 87.8192 12.7712ZM271.2 16.7268C271.695 16.6168 272.072 16.5313 272.351 16.4663C273.317 16.2423 273.194 16.2468 272.339 16.4058C268.649 17.1092 250.763 20.6861 249.629 20.9228C250.571 20.8545 270.28 16.9521 271.2 16.7268ZM165.984 408.78C165.992 408.781 165.999 408.781 166.007 408.781C157.909 408.397 162.931 408.487 162.552 408.468C145.309 407.441 149.866 407.887 147.167 407.78C146.977 407.77 146.794 407.761 146.617 407.751C141.423 407.45 142.004 407.202 132.568 406.595C148.702 407.621 134.024 406.6 133.576 406.429C132.608 406.071 139.171 406.721 146.644 407.32C152.754 407.815 159.459 408.269 163.081 408.379C164.202 408.421 155.938 407.868 158.811 407.96C168.145 408.322 197.054 409.965 165.984 408.78ZM79.5678 12.6634C75.8149 12.6578 47.4972 11.359 55.0127 11.5439C56.2334 11.5741 85.0656 12.6723 79.5678 12.6634ZM246.336 165.942C253.083 165.745 237.421 165.751 234.472 165.824C233.054 165.88 243.365 166.042 246.336 165.942ZM135.362 174.043C127.333 174.98 118.943 176.403 128.91 175.243C129.981 175.119 136.284 174.014 135.362 174.043ZM102.908 93.5732C94.4151 93.5168 94.9119 93.8725 101.146 93.7572C103.357 93.7224 103.181 93.5759 102.908 93.5732ZM257.375 161.086C257.707 161.141 259.864 161.458 261.98 161.761C264.809 162.166 267.725 162.573 267.536 162.499C266.321 162.301 264.19 161.98 261.995 161.66C257.846 161.055 253.811 160.504 257.375 161.086ZM105.601 93.4892C100.591 93.615 109.232 93.7546 115.394 93.4808C112.253 93.5139 106.12 93.4738 105.601 93.4892ZM207.848 18.4201C212.089 18.4503 223.922 18.9856 230.742 19.246C231.482 19.4647 212.728 18.5873 207.848 18.4201ZM169.544 170.325C161.916 171.316 178.3 169.588 176.782 169.589C176.572 169.6 169.845 170.283 169.544 170.325ZM150.581 77.916C156.143 78.2286 138.511 76.7288 143.353 77.297C143.597 77.324 150.283 77.8995 150.581 77.916ZM73.4771 71.5959C77.6386 72.0348 95.7216 73.5691 88.7048 72.8585C87.5782 72.7548 73.7529 71.5286 73.4771 71.5959ZM146.681 407.885C147.075 407.944 147.003 407.965 146.604 407.961C144.688 407.953 135.336 407.24 133.765 407.072C133.031 407.012 143.535 407.461 146.609 407.875C146.634 407.878 146.658 407.882 146.681 407.885ZM46.5892 99.5305C41.9652 100.736 30.7672 107.179 29.2225 109.243C33.8047 104.439 48.1034 98.9971 46.5892 99.5305ZM204.53 166.854C197.776 167.151 186.363 168.318 189.21 168.312C201.836 167.105 187.628 168.132 204.53 166.854ZM133.851 93.1414C130.341 93.1289 127.649 93.3963 128.047 93.4082C131.851 93.5212 137.334 93.2405 133.851 93.1414ZM167.997 148.174C168.179 148.314 179.322 149.87 177.845 149.583C177.36 149.488 167.846 148.06 167.997 148.174ZM239.246 22.317C234.184 23.187 249.577 20.1232 254.151 19.3223C256.389 19.0652 239.89 22.2203 239.246 22.317ZM229.702 88.0671C229.937 87.9434 226.249 88.6102 222.934 89.2298C219.535 89.8619 216.436 90.3288 219.936 89.8891C220.481 89.8155 221.675 89.6277 222.963 89.3887C225.927 88.8417 229.6 88.1253 229.702 88.0671ZM126.976 76.444C138.769 77.1837 89.335 73.1118 102.308 74.3922C103.282 74.5014 125.937 76.3885 126.976 76.444ZM46.1641 69.0907C48.1637 69.3322 47.1291 69.8367 38.7159 68.5367C37.6665 68.3743 42.7277 68.8759 41.8639 68.7289C41.4411 68.752 23.0802 66.0222 21.4972 65.1474C20.2999 64.8 21.6436 65.4059 20.4403 65.0445C20.249 64.983 19.8003 64.8378 19.1503 64.5692C18.3232 64.1838 17.542 63.9854 15.9281 62.5894C15.2889 61.9886 14.488 61.11 13.9313 59.635C13.3495 58.187 13.3573 56.1031 13.9153 54.692C14.4563 53.2219 15.283 52.2907 15.969 51.6597C16.1439 51.5005 16.3148 51.3583 16.4816 51.2287C16.6022 51.1353 16.6808 51.0779 16.7787 51.0079C16.9669 50.874 17.1506 50.7537 17.3308 50.643C18.0381 50.2084 18.7615 49.8845 19.3655 49.647C19.8302 49.4654 20.3076 49.3012 20.8106 49.1448C21.9214 48.8037 22.6718 48.624 23.6162 48.4062C27.2211 47.5996 30.8195 47.096 33.4016 46.7175C44.6826 45.1841 45.8111 45.0531 46.788 44.915C49.3804 44.6309 53.8959 44.2685 59.327 43.757C86.4638 41.1971 127.91 38.1154 149.237 36.3504C130.207 38.009 112.062 39.5223 93.0486 41.1056C98.5824 40.3293 65.0996 43.6524 84.6814 41.667C81.6691 41.9476 71.0573 42.8147 57.9784 44.0735C51.4541 44.7092 44.2104 45.4493 37.0334 46.3886C33.2803 46.8883 29.8677 47.3752 26.0854 48.116C25.6259 48.2076 25.2454 48.286 24.7503 48.3933C24.237 48.5047 23.7448 48.6179 23.272 48.7336C22.7908 48.8517 22.3734 48.9599 21.8836 49.0976C21.3085 49.2597 20.7616 49.4293 20.2293 49.6163C19.9631 49.71 19.7004 49.8081 19.4382 49.9135C19.1028 50.0479 18.6802 50.2325 18.2886 50.4325C17.8885 50.6367 17.4745 50.8719 17.0258 51.1858C16.9129 51.265 16.8019 51.3463 16.6803 51.4406C16.4784 51.5972 16.2691 51.7734 16.0529 51.9785C15.6228 52.3887 15.1533 52.9155 14.7237 53.6537C13.8175 55.0321 13.4103 57.8147 14.2922 59.7366C14.6803 60.686 15.1963 61.3836 15.6734 61.9049C15.9088 62.1623 16.1664 62.4018 16.3612 62.5676C16.4849 62.6734 16.6062 62.7708 16.7251 62.8615C17.6765 63.5759 18.4701 63.9418 19.2701 64.2776C34.533 68.6092 43.5712 68.5005 46.1419 69.0881C46.1493 69.089 46.1567 69.0898 46.1641 69.0907ZM103.729 177.097C108.62 176.589 83.4802 178.418 81.5069 178.396C84.6853 178.545 103.122 177.248 103.729 177.097ZM221.2 165.01C222.96 164.933 224.688 164.608 230.62 164.561C232.705 164.553 235.239 164.566 238.482 164.605C238.494 164.605 238.505 164.605 238.516 164.605C242.144 164.645 238.018 164.754 238.677 164.784C238.927 164.804 250.161 164.908 240.822 165.004C226.533 165.088 239.456 164.738 231.872 164.738C231.731 164.738 231.285 164.742 230.619 164.749C226.765 164.721 216.173 165.332 216.938 165.355C216.993 165.351 221.5 165.107 222.199 165.111C225.02 165.09 223.649 165.253 224.047 165.246C224.449 165.242 227.112 165.139 230.619 165.124C238.039 165.112 249.35 164.95 251.612 165.017C252.169 165.046 241.041 165.267 230.618 165.267C221.976 165.286 214.032 165.859 213.341 165.874C212.412 165.912 212.785 165.564 211.816 165.593C211.259 165.558 196.068 166.89 194.079 167.091C193.51 167.135 193.075 167.167 192.754 167.19C195.065 167.054 181.315 168.417 181.747 168.276C181.967 168.199 191.416 167.268 191.765 167.253C191.914 167.242 192.043 167.234 192.163 167.226C190.139 167.126 222.386 164.741 215.438 165.108C224.873 164.55 214.084 165.416 221.2 165.01ZM265.604 164.101C264.693 164.176 263.733 164.249 262.808 164.316C269.511 163.993 276.824 163.775 283.201 162.408C285.516 161.913 287.724 161.217 289.769 160.272C290.789 159.8 291.762 159.27 292.719 158.66C293.201 158.353 293.667 158.034 294.181 157.664C294.719 157.283 295.142 156.93 296.211 156.21C296.084 156.295 295.881 156.427 295.543 156.714C295.133 157.114 294.607 157.424 293.795 159.018C292.927 160.605 292.979 163.499 293.838 165.008C294.028 165.401 294.257 165.766 294.443 166.023C294.581 166.215 294.719 166.386 294.852 166.538C295.118 166.842 295.366 167.074 295.587 167.26C297.047 168.371 297.09 168.173 297.341 168.321C297.673 168.446 297.644 168.423 297.626 168.421C297.564 168.402 297.326 168.344 297.108 168.296C296.641 168.193 296.077 168.082 295.53 167.979C294.407 167.767 293.239 167.563 292.056 167.362C289.695 166.962 287.288 166.577 284.893 166.202C280.233 165.478 285.587 166.517 279.466 165.517C274.601 164.726 269.137 163.716 271.844 164.077C272.484 164.161 282.469 165.791 287.436 166.574C294.675 167.694 297.619 168.258 297.681 168.255C297.626 168.196 297.379 168.245 296.186 167.453C295.398 166.859 294.534 166.143 293.816 164.384C293.268 162.845 293.406 162.091 293.383 162.016C293.387 161.913 293.39 162.336 293.431 162.666C293.472 162.996 293.516 163.231 293.454 162.782C293.42 162.463 293.198 160.739 294.157 158.9C295.057 157.228 296.078 156.654 296.363 156.441C296.359 156.444 296.355 156.446 296.351 156.449C294.519 157.903 289.118 161.406 284.573 162.308C284.129 162.423 283.69 162.527 283.248 162.624C273.03 164.552 266.524 164.582 249.867 164.824C259.96 164.512 254.442 164.43 265.604 164.101ZM220.608 84.2578C220.082 84.3094 209.393 83.235 205.678 82.9452C206.247 82.8749 216.795 83.8973 220.608 84.2578ZM212.121 333.005C215.367 333.3 191.241 329.665 197.578 330.763C198.969 331.004 209.09 332.552 212.121 333.005ZM103.337 316.94C101.066 316.509 106.532 317.732 110.324 318.302C112.094 318.578 113.46 318.743 113.458 318.698C113.453 318.679 112.084 318.484 110.339 318.203C107.444 317.75 103.603 316.993 103.337 316.94ZM127.926 143.312C127.315 143.231 118.413 141.933 118.161 141.889C112.286 140.858 141.544 145.111 127.926 143.312ZM84.962 268.366C73.4816 269.331 108.101 266.935 97.5126 267.506C96.9781 267.497 85.5116 268.283 84.962 268.366ZM133.312 266.867C131.661 266.817 126.734 266.666 122.849 266.67C120.187 266.668 118.081 266.702 118.014 266.726C117.917 266.764 120.096 266.763 122.849 266.777C127.047 266.788 132.464 266.932 133.312 266.867ZM136.216 92.4394C134.911 92.2333 150.863 92.3728 156.39 92.2963C157.716 92.5071 141.772 92.4177 136.216 92.4394ZM33.2561 104.746C42.8182 98.6391 51.4865 96.6492 58.279 95.2943C88.9639 91.8099 85.0338 92.2666 58.3123 95.4725C50.3655 97.0872 39.9492 99.4658 29.4804 107.621C29.3397 107.624 29.1311 107.566 33.2561 104.746ZM121.612 92.3325C119.146 92.4717 111.497 92.461 106.283 92.5102C107.244 92.3979 117.86 92.359 121.612 92.3325ZM240.798 337.611C236.617 337.136 218.152 334.153 221.45 334.579C222.213 334.672 242.355 337.747 240.798 337.611ZM122.322 142.701C123.225 142.952 116.331 141.996 110.391 141.154C106.515 140.603 103.037 140.155 102.436 140.064C99.2072 139.585 104.507 140.18 110.41 141.017C115.741 141.771 121.519 142.609 122.322 142.701ZM230.162 87.0206C233.63 86.2076 243.57 84.429 249.586 82.9471C246.968 83.7957 235.629 86.0292 230.162 87.0206ZM184.47 91.558C184.871 91.5548 193.864 91.191 194.254 91.1586C201.606 90.9987 176.228 92.0201 184.47 91.558ZM177.163 410.71C176.861 410.711 169.928 410.463 169.685 410.443C163.502 410.078 184.31 410.813 177.163 410.71Z" fill="black"/>
</svg>
